<?xml version="1.0" encoding="utf-8"?>
<!-- Generator: Adobe Illustrator 24.1.0, SVG Export Plug-In . SVG Version: 6.00 Build 0)  -->
<svg version="1.1" id="レイヤー_1" xmlns="http://www.w3.org/2000/svg" xmlns:xlink="http://www.w3.org/1999/xlink" x="0px"
	 y="0px" viewBox="0 0 1000 1000" style="enable-background:new 0 0 1000 1000;" xml:space="preserve">
<style type="text/css">
	.st0{fill:#EBEBEB;}
</style>
<g>
	<path class="st0" d="M246.19,369.47l384.34,384.34c5.36-2.76,10.62-5.7,15.78-8.79L254.98,353.69
		C251.89,358.85,248.96,364.11,246.19,369.47z"/>
	<path class="st0" d="M229.53,408.83c-0.03,0.08-0.05,0.16-0.08,0.23l361.49,361.49c0.08-0.03,0.16-0.05,0.23-0.08L229.53,408.83z"
		/>
	<path class="st0" d="M267.53,334.48l397.99,397.99c4.76-3.39,9.4-6.94,13.93-10.62L278.15,320.55
		C274.47,325.09,270.93,329.73,267.53,334.48z"/>
	<path class="st0" d="M292.99,303.61l403.41,403.41c4.2-3.98,8.27-8.1,12.22-12.33L305.32,291.39
		C301.09,295.34,296.97,299.41,292.99,303.61z"/>
	<path class="st0" d="M322.37,276.68l400.95,400.95c3.64-4.57,7.14-9.26,10.5-14.05L336.42,266.18
		C331.63,269.54,326.94,273.04,322.37,276.68z"/>
	<path class="st0" d="M214.65,499.99c0,2.23,0.03,4.46,0.08,6.68l278.6,278.6c2.22,0.05,4.44,0.08,6.67,0.08
		c5.86,0,11.67-0.2,17.44-0.55L215.2,482.57C214.85,488.33,214.65,494.14,214.65,499.99z"/>
	<path class="st0" d="M223.86,572.13l204.04,204.04c10.05,2.62,20.32,4.69,30.77,6.21L217.64,541.35
		C219.16,551.8,221.24,562.07,223.86,572.13z"/>
	<path class="st0" d="M218.36,453.99l327.66,327.66c6.91-1.12,13.73-2.48,20.46-4.09L222.45,433.53
		C220.84,440.26,219.48,447.08,218.36,453.99z"/>
	<path class="st0" d="M378.38,758.2L241.83,621.65C270.08,681.5,318.52,729.95,378.38,758.2z"/>
	<path class="st0" d="M236.15,391.19l372.67,372.67c0.07-0.03,0.14-0.06,0.21-0.08L236.23,390.98
		C236.2,391.05,236.18,391.12,236.15,391.19z"/>
	<path class="st0" d="M591.18,770.48c5.97-2.01,11.85-4.23,17.64-6.62L236.15,391.19c-2.39,5.79-4.61,11.67-6.62,17.64
		L591.18,770.48z"/>
	<path class="st0" d="M355.77,253.75l390.49,390.49c3.05-5.19,5.94-10.49,8.66-15.89L371.65,245.08
		C366.26,247.81,360.96,250.7,355.77,253.75z"/>
	<path class="st0" d="M393.53,235.18l371.28,371.28c2.38-5.91,4.56-11.91,6.54-18.01L411.54,228.64
		C405.45,230.62,399.44,232.81,393.53,235.18z"/>
	<path class="st0" d="M436.44,221.75l341.8,341.8c1.55-6.79,2.85-13.68,3.9-20.65L457.08,217.85
		C450.11,218.9,443.23,220.21,436.44,221.75z"/>
	<path class="st0" d="M500,214.64c-4.71,0-9.39,0.12-14.05,0.35L785,514.03c0.23-4.65,0.35-9.33,0.35-14.03
		c0-3.48-0.08-6.95-0.21-10.4L510.39,214.85C506.94,214.72,503.48,214.64,500,214.64z"/>
	<path class="st0" d="M545.58,218.28L781.71,454.4c-1.72-10.7-4.02-21.2-6.89-31.46L577.04,225.17
		C566.78,222.3,556.28,219.99,545.58,218.28z"/>
	<path class="st0" d="M629.07,245.44l125.48,125.48C727.12,316.94,683.04,272.86,629.07,245.44z"/>
</g>
</svg>
