<?xml version="1.0" encoding="utf-8"?>
<!-- Generator: Adobe Illustrator 23.0.6, SVG Export Plug-In . SVG Version: 6.00 Build 0)  -->
<svg version="1.1" id="レイヤー_1" xmlns="http://www.w3.org/2000/svg" xmlns:xlink="http://www.w3.org/1999/xlink" x="0px"
	 y="0px" viewBox="0 0 1888 1225.8" style="enable-background:new 0 0 1888 1225.8;" xml:space="preserve">
<style type="text/css">
	.st0{fill:#7F4E9B;}
</style>
<g>
	<polygon class="st0" points="862.3,1225.8 807.8,1225.8 1833.5,0 1888,0 	"/>
	<polygon class="st0" points="772.5,1225.8 718,1225.8 1743.7,0 1798.2,0 	"/>
	<polygon class="st0" points="682.8,1225.8 628.3,1225.8 1653.9,0 1708.5,0 	"/>
	<polygon class="st0" points="593,1225.8 538.5,1225.8 1564.2,0 1618.7,0 	"/>
	<polygon class="st0" points="503.2,1225.8 448.8,1225.8 1474.4,0 1528.9,0 	"/>
	<polygon class="st0" points="413.5,1225.8 359,1225.8 1384.7,0 1439.2,0 	"/>
	<polygon class="st0" points="323.8,1225.8 269.3,1225.8 1294.9,0 1349.4,0 	"/>
	<polygon class="st0" points="234,1225.8 179.5,1225.8 1205.2,0 1259.7,0 	"/>
	<polygon class="st0" points="144.2,1225.8 89.8,1225.8 1115.4,0 1169.9,0 	"/>
	<polygon class="st0" points="54.5,1225.8 0,1225.8 1025.7,0 1080.2,0 	"/>
</g>
</svg>
