<svg xmlns="http://www.w3.org/2000/svg" viewBox="0 0 196.49 319.4"><defs><style>.cls-1{fill:#448708;fill-rule:evenodd;}.cls-2{fill:#fff;}</style></defs><title>アセット 141</title><g id="レイヤー_2" data-name="レイヤー 2"><g id="レイヤー_1-2" data-name="レイヤー 1"><path class="cls-1" d="M11.13,104.24s8,3.24,14.46,0,20.09-11.3,19.28-19.39,2.4-12.95,4.82-19.4S54.5,46.06,54.5,46.06v-9.7L49.69,21.82,54.5,7.27,69,12.12,88.23,17l17.36-7,6.73-2.72,14.46,14.55L141.23,17s16.05,7.27,14.46,4.85,8.82-6.45,9.64-9.7S175,2.43,175,2.43L179.78,17h14.46s-2.54,6.07-3.82,8.6c-1.76,3.44-5.83,10.79-5.83,10.79L180.65,58l-.87,7.49C177.37,67.87,175,89.69,175,89.69v24.25s-3.23,15.36-4.82,14.54-4,9.7-4.81,14.54,3.47,17.12,3.47,17.12-6.28,13.41-6.28,15-5.24,7.5-6.83,6.67,2.41,9.7,0,9.7-1.59,13.72-4.82,14.54,0,19.4,0,19.4,9.64,12.12,9.64,14.54,3.2,19.8,3.2,19.8l-3.2,9.29,4.82,9.7,1.25,14.5L148.07,305.6s-1,4.52-4.52,6.32c-5.08,2.6-17.59,7.24-16.77,5.64s-14.46-7.27-14.46-9.69-9.63-19.39-9.63-19.39l-19.28-4.85L68,282.35c-2.41,0-11.87-5.64-13.51-8.42C53,271.43,40,272.72,40,272.72l-4.81-3.64-4.82-4.85V249.69c0-3.25,7.23-20.22,9.63-19.4s11.24-8.09,9.65-9.69,4.81-24.24,4.81-24.24V167.27s4.82-10.52,4.82-14.55-4.82-14.54-4.82-14.54l-9.63-14.55-9.64-4.85s-15.27-1.59-14.45,0,0,9.7,0,9.7H6.32L1.5,123.63v-9.69Z"/><path class="cls-2" d="M127.06,319.4a1.58,1.58,0,0,1-1.34-.54,1.65,1.65,0,0,1-.48-1.09,48.2,48.2,0,0,0-5.57-3.15c-6.29-3.25-8.85-4.77-8.85-6.75-.14-1.48-4.69-10.26-9.12-18.1l-18.54-4.66-15.23-1.26c-3.23-.09-12.91-6.1-14.72-9.16-.86-.83-7-1.08-13-.48l-.59.06-5.43-4.13-5.26-5.29V249.69c0-3.31,6.13-18,9.45-20.39a2.3,2.3,0,0,1,2.07-.45c1.7-.11,7.38-5.58,7.91-7.54-.64-1.08-1.07-4.89,4.66-25.16V166.94l.13-.3c1.31-2.84,4.69-10.89,4.69-13.92s-3.3-10.88-4.64-13.81l-9.34-14.12-9-4.54a96.48,96.48,0,0,0-12.3-.64,48.22,48.22,0,0,1-.23,9L22.13,130H5.7L0,124.25V113.32l10.77-10.85.93.38c.15.06,7.53,2.92,13.21.05C34.23,98.17,44,91,43.38,85c-.69-6.74,1.25-11.31,3.3-16.15.54-1.26,1.09-2.57,1.6-3.92,2.2-5.91,4.45-17.62,4.72-19V36.6L48.11,21.82,53.55,5.37l15.83,5.31L88.12,15.4l24.56-9.89,14.5,14.59,14.13-4.74.54.24a127,127,0,0,0,12.26,4.94c.54-1.7,2.87-3.29,5.15-4.84,1.74-1.19,4.37-3,4.61-3.94.9-3.59,8.66-9.42,10.21-10.55L175.74,0l5.12,15.47h15.63l-.87,2.08c-.1.25-2.57,6.15-3.86,8.7-1.6,3.13-5,9.36-5.74,10.62l-3.89,21.36-.92,7.91-.37.37c-1.27,1.4-3.26,13.15-4.38,23.27l0,24.47c-3,14.47-4.74,15.28-5.37,15.58a1.77,1.77,0,0,1-.69.18c-1,1.57-2.64,7.75-3.57,13.26-.61,3.67,2.26,13.06,3.42,16.37l.2.58-.26.55c-2.9,6.2-6,13.3-6.14,14.44,0,2-3.71,6.14-6,7.51a5.22,5.22,0,0,1-1.14.53c.09.56.23,1.24.35,1.81.73,3.62,1.11,5.9.07,7.17a2.08,2.08,0,0,1-1.18.73,26.42,26.42,0,0,0-1,5c-.62,4.43-1.2,8.62-3.74,9.45-.92,1.4-.54,9.19.86,17.37C156,229.54,162,237.48,162,240c0,1.68,1.9,12.6,3.18,19.53l.07.39L162.13,269l4.67,9.39L168.15,294l-18.78,12.5c-.45,1.44-1.83,5-5.13,6.72a98.71,98.71,0,0,1-10.06,4.21C130.09,319,128.12,319.4,127.06,319.4ZM113.8,307.62c.7,1,4.79,3.06,7.25,4.34,3.59,1.85,6,3.09,6.89,4.32a91,91,0,0,0,14.93-5.69c2.83-1.46,3.73-5.28,3.73-5.31l.14-.59.5-.33L165,292.52l-1.15-13.33-5-10,3.29-9.52c-.56-3-3.16-17.32-3.16-19.68-.19-1.39-5-8.16-9.31-13.61l-.24-.3-.07-.37c-2.3-13.23-1.92-20.33,1.11-21.11.79-.52,1.4-4.91,1.7-7,.55-3.94,1-6.91,2.79-7.48a27.1,27.1,0,0,0-.66-4.45c-.6-2.92-.87-4.25.2-5.06a1.68,1.68,0,0,1,1.58-.23c1.32-.42,4.67-4.17,4.92-5.32,0-1.53,3.74-9.82,6.16-15-.93-2.72-4.12-12.65-3.34-17.27.4-2.38,2.53-14.28,5.24-15.63a1.79,1.79,0,0,1,.67-.2c.93-1.69,2.58-7.85,3.7-13.17V89.53c.55-5,2.46-20.85,4.86-24.64l.83-7.1,4-21.94.12-.21c0-.08,4.08-7.38,5.8-10.76.78-1.52,2-4.43,2.89-6.41H178.7L174.2,4.89c-3.26,2.56-7,6-7.42,7.6-.52,2.07-3.1,3.83-5.83,5.69-1.3.88-3.41,2.32-3.87,3.06a1.72,1.72,0,0,1-.18,1.94c-.73.85-1.54,1.81-15.75-4.6l-14.78,5L112,9l-23.63,9.5-19.85-5-13-4.37L51.27,21.82,56,36.12l0,10.21c-.1.54-2.45,13.15-4.88,19.65-.53,1.42-1.1,2.75-1.65,4-2,4.67-3.69,8.7-3.08,14.67.93,9.19-13.74,17.67-20.09,20.89-5.66,2.86-12.3,1.18-14.74.39L3,114.56V123l3.94,4H19.41c.27-3.27.34-6.78,0-7.53a1.7,1.7,0,0,1,.12-1.75c.49-.72,1.31-1.93,15.84-.41l.27,0,10.24,5.15,10,15.08c.51,1.11,5,10.94,5,15.17,0,4-3.92,12.88-4.82,14.87v29l-.06.2c-2.71,9.57-5.34,20.92-5,23,.72,1,.54,2.3-.54,4-1.66,2.66-7.17,8.47-10.42,8-1.92,1.54-8.08,14.46-8.08,17.87v13.93L36.22,268l4.26,3.22c5.27-.49,13.67-.79,15.31,2,1.46,2.46,10.56,7.68,12.22,7.68h.12l15.64,1.31,19.91,5,.32.55C106.86,292.79,113.43,304.61,113.8,307.62ZM39.56,231.71h0Zm11.19-12.17h0ZM155,183.15Zm14.45-53.34h0ZM22.11,118.1v0Z"/></g></g></svg>