<svg xmlns="http://www.w3.org/2000/svg" viewBox="0 0 279.29 257.82"><defs><style>.cls-1{fill:#448708;fill-rule:evenodd;}.cls-2{fill:#fff;}</style></defs><title>アセット 143</title><g id="レイヤー_2" data-name="レイヤー 2"><g id="レイヤー_1-2" data-name="レイヤー 1"><path class="cls-1" d="M12.17,171.19s16.28-29,19.26-24.24,28.91-4.85,28.91-4.85l4.82-19.39s9.07-10.86,9.64-14.55,4.83-19.39,4.83-19.39L70,69.38s7.85-10.82,9.64-14.55,14.45,9.69,14.45,9.69l19.27-9.69,4.82,19.39s4,18.23,4.82,24.25,0,33.93,0,33.93h24.09l9.64-29.09L176,108.16l19.27,14.55s10.32,1.89,9.64-9.7,4.82-24.24,4.82-24.24l9.63-24.25L209.72,50s-25,7.61-28.91,9.7-26.65,1.5-28.91,4.84S142.26,50,142.26,50l4.82-19.39L161.53,1.5H176l14.46,4.85L204.9,30.59h9.64L238.63,16l-4.82,48.48s-5.78,49-4.82,58.19,6.17,33.26,9.64,38.78,8.24,9.84,9.64,14.55,19.27,24.24,19.27,24.24l9.64,9.7-9.64,9.69-24.09,4.85-18.08,3.64L196.75,246s-12.91.31-15.94,2.77-23.22,7.06-23.22,7.06l5.15-22,8.43-19s-15,4.09-14.45,0c.6-4.85-4.82-14.55-4.82-14.55L131,219.93s-6.43-4.28-12.84-5.1-14.46,4.84-14.46,4.84L89.26,205.13l-24.1,9.7s-9.61-3.17-13.75-3.46-20-6.24-20-6.24l-4.34,16L17,205.13l-4.81-19.39-9.65-4.85Z"/><path class="cls-2" d="M155.58,257.82l5.79-24.61L168.55,217c-4.28,1-10.28,1.89-12.4.05a2.69,2.69,0,0,1-.92-2.44c.37-3-2.07-8.6-3.74-11.92l-20.32,19.12-1-.66c-.06,0-6.22-4.1-12.19-4.87-5.75-.75-13.33,4.53-13.4,4.59l-1,.72L88.89,206.89l-23.68,9.53-.52-.17c-.09,0-9.48-3.11-13.38-3.39-3.6-.26-14.61-4.19-18.86-5.76l-4.81,17.67-12.06-19-4.7-19L0,181.3l11-11c4.35-7.74,14.71-25.26,19.51-25.37a2.64,2.64,0,0,1,2.24,1.24c1.22,2,13.44-.45,26.37-5.18l4.71-19,.22-.26c3.4-4.08,8.94-11.44,9.31-13.82.53-3.37,3.94-16.14,4.71-19l-9.79-19.7.53-.74c.08-.1,7.8-10.74,9.5-14.31a2.58,2.58,0,0,1,2-1.47c3.47-.56,10.56,6.25,14.16,10l19.95-10,5.27,21.21c.17.79,4,18.4,4.85,24.39.76,5.32.23,26.64.06,32.65H146l9.74-29.38,20.92,5.26,19.2,14.49c.94.1,3.7.22,5.57-1.45,1.5-1.33,2.16-3.59,2-6.72-.69-11.81,4.72-24.4,4.95-24.93l9.32-23.47-8.58-13c-7.59,2.33-24.63,7.69-27.57,9.26-1.86,1-6.1,1.37-12.88,1.9-5.39.43-14.39,1.13-15.5,2.47A2.31,2.31,0,0,1,151,66.43c-3.07-.32-7.18-8.81-10.09-15.88l-.19-.45,5-20.18L160.6,0h15.64l15.21,5.1,14.3,24h8.37l26.3-15.88-5.11,51.46c-.06.52-5.76,48.94-4.82,57.88,1,9.72,6.25,33.11,9.41,38.15a70.56,70.56,0,0,0,4.17,5.72c2.41,3.08,4.69,6,5.63,9.19s12.12,16.2,18.95,23.66L279.29,210l-11,11.07-42.34,8.52L197.2,247.48h-.41c-4.8.12-13.12.88-15,2.44-3,2.44-20.38,6.55-23.83,7.35Zm8.59-23.52-4.57,19.5c7.76-1.87,18.54-4.8,20.27-6.2,3.09-2.51,13.47-3,16.43-3.1l28.51-17.76,42-8.45,8.26-8.31-8.59-8.64c-1.89-2.07-18.19-20-19.64-24.87-.79-2.65-2.9-5.35-5.13-8.2-1.46-1.88-3-3.82-4.34-6-3.69-5.88-8.88-30-9.86-39.43s4.59-56.51,4.82-58.51l4.52-45.47L215,32.09h-10.9L189.44,7.59,175.75,3H162.46l-14,28.11-4.65,18.75c2.38,5.71,5.62,12,7.2,13.37,1.93-1.9,7.23-2.52,17.36-3.32,4.83-.38,10.31-.81,11.71-1.55,4-2.13,28.15-9.5,29.18-9.81l1.07-.33L221,64.35l-9.91,25c-.08.17-5.37,12.52-4.72,23.6.24,4.11-.77,7.19-3,9.16-3.38,3-8.2,2.14-8.41,2.1l-.35-.06-19.31-14.58-17.63-4.43-9.54,28.79H121.44l0-1.54c0-.28.85-27.87,0-33.68s-4.77-24-4.81-24.14L112.34,57,93.76,66.37,93,65.55c-4.93-5.22-10.43-9.69-12.11-9.87-1.7,3.4-7.36,11.36-9.15,13.84l9.49,19.09-.14.55c0,.16-4.23,15.67-4.8,19.24-.58,3.73-7.78,12.63-9.74,15l-4.93,19.83-.74.27c-8,3-26.84,9.32-30.55,4.47-2.62,1-10.68,13-16.84,23.95l-.1.18-8.33,8.38,8.41,4.23,4.91,19.82,8.17,12.89,3.88-14.27,1.54.57c4.35,1.63,16.34,5.92,19.56,6.15,3.75.26,11.49,2.68,13.59,3.36l24.51-9.86,14.29,14.38c2.5-1.57,8.91-5.14,14.45-4.41,5.21.67,10.33,3.44,12.46,4.71l21.45-20.18.94,1.68c.58,1,5.56,10.13,5,15.34,1.23.7,6.95,0,12.56-1.51l3.05-.83Z"/></g></g></svg>