<svg xmlns="http://www.w3.org/2000/svg" viewBox="0 0 211.43 185.25"><defs><style>.cls-1{fill:#448708;fill-rule:evenodd;}.cls-2{fill:#fff;}</style></defs><title>アセット 121</title><g id="レイヤー_2" data-name="レイヤー 2"><g id="レイヤー_1-2" data-name="レイヤー 1"><path class="cls-1" d="M99.47,27.52a15,15,0,0,1,4.82-9.69C109,13.47,123.56,3.29,123.56,3.29s-1,5.52,0,9.69,6,10.53,9.64,14.54c6.32,7,6.45,4.42,14.45,4.86s19.28,0,19.28,0,4.65-1.49,6.93,3.64a42.1,42.1,0,0,0,7.53,10.9H191l2.08,13.67,9.66,8.46s1.81,5.43,5.13,7.37,1.57,7.78,1.57,7.78-.06,7.2-8.3,9.58c-6.33,1.83-22.25,3.54-22.25,3.54s-8,4.92-12,2.93-18.12-2.61-19.28,0-11.71,9.41-9.63,9.7c.34,0,.43,0,.43,0s-4.09-.63-5.25,4.85c-1.35,6.49,3.44,20.4.74,13.3-1-2.6-13.51-9.45-14.13-12.41s-10.7,4-10.7,4,5.76,7.77,4.81,9.7c-1.94,4-7.41,11.35-14.45,14.54S84,145.78,85,148.73s-1.5,2.13-4.82,4.85a48.17,48.17,0,0,0-9.64,9.7,48.17,48.17,0,0,1-9.64,9.7c-3.28,2.67-5.74,6.83-6.71,5.32s-15.31,8.64-17.38,4.38-2.55-11.45-9.64-9.7-9.63,0-9.63,0l-9.64-9.7s-7.27-8-5.53-11.3c2-3.84-3.43-4.84.71-8.1s11.9,10.68,14.46,9.7,8.48-12,9.63-9.7,14.46,4.85,14.46,4.85-3.61,2.08,4.82-4.85,10.41-2.76,14.45-4.84-4.48-9.94,4.82-9.7,13.21,4.36,14.46,0-3.09-20.6,0-19.39,13.92,1.12,14.45,4.85,2.7,15.17,4.82,4.84,4.77-15.56,4.82-19.39S96,87.93,94.65,85.71s-8.82,4.5-9.63-4.85-1.5-10.52-4.82-14.55-6.75-7.07,0-9.7,11.17-3,14.45-9.69S99.47,27.52,99.47,27.52Z"/><path class="cls-2" d="M38.85,185.25a3.42,3.42,0,0,1-3.37-1.91,29.87,29.87,0,0,1-1.24-3.15c-1.55-4.35-2.62-6.76-6.69-5.76-7.52,1.85-10.52,0-10.84-.22l-.22-.18-9.64-9.7c-1.91-2.1-7.85-9.1-5.79-13,.52-1,.3-1.5-.27-2.55-.7-1.3-1.87-3.48,1.39-6,3.54-2.76,7.85,2,11.32,5.76a24.55,24.55,0,0,0,3.71,3.61A31.08,31.08,0,0,0,21,147.5c2.8-3.76,4.23-5.59,5.88-5.42a2,2,0,0,1,1.61,1.12c.77.94,6.6,2.65,12,3.79,1-1,2.52-2.27,5-4.26,5.86-4.83,9-4.68,11.54-4.56a5.66,5.66,0,0,0,3.18-.46c.48-.25.47-.84-.05-2.86-.45-1.77-1-3.77.28-5.34,1-1.21,2.63-1.75,5.31-1.67a39.35,39.35,0,0,1,9.09,1.41c3.54.89,3.58.75,3.88-.33.47-1.61-.08-6-.52-9.53-.8-6.31-1.11-9.39.42-10.58a2.1,2.1,0,0,1,2.1-.26,25.12,25.12,0,0,0,4.29.83c5,.72,10.57,1.53,11.1,5.2a40.37,40.37,0,0,0,1.42,6.58c.13-.45.28-1,.44-1.82,1-5.1,2.22-9,3.16-12s1.61-5.32,1.63-7.07c0-2.16-4.37-7.45-6.74-10.3-1.17-1.4-2-2.46-2.53-3.21A11.67,11.67,0,0,0,92,87c-1.73.41-4.1,1-6-.4-1.43-1-2.24-2.87-2.48-5.63-.81-9.28-1.44-10-4.48-13.72l-.83-1c-2-2.36-3.89-4.6-3.28-7,.43-1.67,1.93-3,4.72-4,1.22-.48,2.36-.88,3.44-1.25,4.86-1.69,7.79-2.72,10.21-7.7,3-6.23,4.56-18,4.67-18.87a16.55,16.55,0,0,1,5.3-10.67C108,12.35,122.1,2.48,122.7,2.06l3-2.06L125,3.55c0,.05-.9,5.28,0,9.09.84,3.62,5.35,9.54,9.29,13.88,4.21,4.64,5,4.59,8.4,4.4a42.15,42.15,0,0,1,5,0c7.28.39,17.45.06,18.95,0,2.13-.59,6.38-.34,8.54,4.52a40.29,40.29,0,0,0,6.81,10h10.28l2.19,14.4,9.56,8.37.13.38c.45,1.37,2.14,5.2,4.46,6.55,3.93,2.29,2.62,8.11,2.31,9.3-.12,3-2.19,8.72-9.39,10.8-5.94,1.72-19.8,3.29-22.17,3.55-1.72,1-8.91,5-13.15,2.82-3.74-1.88-15.73-2-17.27-.65-.7,1.46-2.88,3.31-6.1,5.94-1,.79-2.19,1.78-3,2.51l.31.4-.27.53v.32l-.53.47a1.85,1.85,0,0,1-1.62.32l-.12,0c-.78.11-2.38.71-3,3.7-.75,3.6.66,10.18,1.27,13,.4,1.87.64,3-.75,3.4s-1.79-.61-2.65-2.87c-.38-.84-3.75-3.27-6-4.88-4.46-3.21-7.34-5.37-8.08-7.29-1.19.13-4.22,1.63-7.24,3.57,2.58,3.66,5,7.94,4,10-2.11,4.32-7.9,11.94-15.18,15.25a36.14,36.14,0,0,1-9.82,2.51,22,22,0,0,0-3.75.76c.86,2.93-1.06,3.83-2.48,4.49a12.81,12.81,0,0,0-2.89,1.73c-3.56,2.91-6.73,5.63-9.36,9.4a49.52,49.52,0,0,1-9.92,10,31.07,31.07,0,0,0-3.11,3.06c-1.69,1.83-2.81,3.05-4.21,2.91a2,2,0,0,1-1-.4,43.07,43.07,0,0,0-4.12,1.83C45.71,183.32,41.72,185.25,38.85,185.25ZM29.28,171.2c4.95,0,6.56,4.55,7.78,8A29.32,29.32,0,0,0,38.18,182c.42.86,3.75-.21,9.9-3.18,3.54-1.7,5.59-2.7,6.8-2,.46-.4,1.15-1.14,1.68-1.72A32.9,32.9,0,0,1,60,171.81a46,46,0,0,0,9.36-9.39c2.86-4.09,6.18-6.95,9.92-10a15.5,15.5,0,0,1,3.51-2.12,7.84,7.84,0,0,0,1-.51,2.83,2.83,0,0,0-.14-.57,2.51,2.51,0,0,1,.18-2.2c.88-1.44,2.93-1.76,6-2.22a33.92,33.92,0,0,0,9-2.28c6.51-3,11.72-9.8,13.68-13.75,0-1.05-2.12-4.85-4.63-8.23l-.92-1.25,1.28-.88c3.22-2.21,9-5.77,11.58-4.75a2.34,2.34,0,0,1,1.44,1.72c.32,1.09,4.52,4.13,7,5.94,1.49,1.08,2.75,2,3.78,2.8-.54-3.19-.93-6.93-.37-9.63.89-4.22,3.37-5.52,4.89-5.91.62-1,2-2.12,4.37-4,1.83-1.48,4.88-4,5.29-4.9a3.59,3.59,0,0,1,2.26-1.8c4.17-1.49,15.22-.88,19.06,1.06,2.33,1.17,7.7-1.14,10.54-2.87l.28-.18.34,0c.16,0,15.86-1.72,22-3.49,7-2,7.22-7.91,7.22-8.16V84l.06-.2s1.33-4.76-.89-6.06c-3.25-1.89-5.14-6.41-5.66-7.79l-9.78-8.56-2-12.94h-9l-.44-.44a43.2,43.2,0,0,1-7.84-11.35c-1.66-3.73-4.77-2.92-5.12-2.82l-.38.07c-.12,0-11.44.42-19.42,0a38.75,38.75,0,0,0-4.69,0c-4.18.23-5.87,0-10.79-5.39-2-2.24-8.77-10-10-15.21a24.69,24.69,0,0,1-.4-6.88c-4.43,3.15-13.06,9.38-16.39,12.49A13.67,13.67,0,0,0,101,27.57v.14c-.06.52-1.61,13-5,19.87-3,6.1-6.92,7.48-11.92,9.22-1,.37-2.16.75-3.34,1.21-2.4.93-2.83,1.7-2.9,2-.23.92,1.3,2.74,2.66,4.34.28.33.57.67.85,1,3.62,4.38,4.33,5.92,5.16,15.37.16,1.79.59,3,1.25,3.46s2.27.22,3.56-.09c1.61-.39,3.62-.87,4.63.85A35.67,35.67,0,0,0,98.36,88c4.09,4.91,7.47,9.23,7.43,12.25,0,2.18-.76,4.58-1.76,7.9-.92,3-2.07,6.8-3.09,11.78-.54,2.62-1.28,5.41-3.32,5.41h-.07c-.87,0-2.93-.09-4.38-10.35-.21-1.44-6.06-2.29-8.56-2.65-1.56-.23-3-.43-4-.71A55.27,55.27,0,0,0,81.2,119c.55,4.38,1.07,8.52.44,10.73-1.15,4-4.38,3.2-7.5,2.41a35.91,35.91,0,0,0-8.44-1.32c-2.28-.05-2.8.44-2.88.54-.32.4,0,1.74.28,2.72.49,1.94,1.25,4.86-1.49,6.27a8.39,8.39,0,0,1-4.69.8c-2.23-.11-4.53-.22-9.5,3.87-1.39,1.15-2.42,2-3.17,2.67l1.64.32-3.49,2c-1.54.89-2.34.41-2.74-.16-4.62-1-10.84-2.55-13.09-4.47a42.82,42.82,0,0,0-3.13,3.89c-2.37,3.18-3.91,5.15-5.35,5.69-2,.77-3.91-1.33-6.81-4.5C9.07,148.06,5.37,144,4,145.07s-1.18,1.16-.59,2.25a5.13,5.13,0,0,1,.28,5.35c-.73,1.41,2.21,6.19,5.31,9.6l9.45,9.5c.43.19,2.86,1.1,8.36-.25A10.17,10.17,0,0,1,29.28,171.2ZM53,179.11Zm59.63-50.43ZM93.36,86.47Z"/></g></g></svg>