<svg xmlns="http://www.w3.org/2000/svg" viewBox="0 0 223.88 164.58"><defs><style>.cls-1{fill:#448708;fill-rule:evenodd;}.cls-2{fill:#fff;}</style></defs><title>アセット 111</title><g id="レイヤー_2" data-name="レイヤー 2"><g id="レイヤー_1-2" data-name="レイヤー 1"><path class="cls-1" d="M24.19,156.77s12.93-10.58,14.86-13.15S53.5,129.08,53.5,129.08h9.64l9.64,9.69s-3,19,0,19.4,10.35,5.57,14.45,4.85,20.72-9.46,19.27-9.71a3.56,3.56,0,0,0-.43,0c0-.1,2.17-.34,5.25-4.8,3.81-5.58,16-12,14.46-9.7s-2.65-2.28,4.81,0,16.44,1.41,19.28,0,7.27-7.85,9.63-9.69a36.35,36.35,0,0,0,4.82-4.85s12.15-4.41,14.46-4.85,6,.92,9.64,4.85,5.54,6.69,9.63,4.85,11.08-8.34,14.46-9.7,9.64-11.51,9.64-11.51l-8.24-15.36s-4.66-6.83-6.22-11.92c-.95-3.08-4.41-6-4.82-9.69-1-9.09-3.57-4.83-4.82-14.55-.24-1.93,1.53-5.16,0-9.7C194.39,35.81,191.62,35,190,30.53c-2-5.45-2.16-9.12-1.56-13s0-14.55,0-14.55l-22.09.12-5.82-1.2-31.72,1.2S124-.47,121,3s-6.12,12.7-9.64,14.55S95.08,25,96.87,27.26s17.48,10.23,9.63,14.55A197.36,197.36,0,0,1,87.23,51.5C82.17,53.54,73,58.24,68,56.35S54.13,53,54.13,53L37,53.94s-3.9,3.55-7,6-6.53,4.89-10.15,11C17.1,75.38,18.28,89.27,15,90.29S8.16,97.61,5.32,100s-2.67,11.5-3.12,16c-.54,5.29-1,4-.5,8.88.67,6.93,13.83,9.81,13.25,13.93s-2,9.25,0,14.54C17.77,160.8,24.09,156.78,24.19,156.77Z"/><path class="cls-2" d="M86.39,164.58c-2.85,0-6.31-1.64-9.4-3.12a22.7,22.7,0,0,0-4.43-1.81,2.28,2.28,0,0,1-1.55-1c-2.09-2.82-.54-14.72.17-19.39l-8.67-8.71H54.1c-3.74,3.59-12.39,12-13.86,13.94-2,2.64-13.76,12.31-15.1,13.41l-.35.28-.16,0a8.14,8.14,0,0,1-6.56.72c-2-.75-3.53-2.47-4.52-5.11-1.81-4.81-1-9.48-.41-13.23.12-.7.24-1.39.33-2.05.13-.9-2.58-2.61-4.56-3.85C5.23,132.39.65,129.5.21,125a17,17,0,0,1,0-5.67c.13-.75.29-1.78.47-3.51.09-.9.16-2,.23-3.26.38-6.46.87-11.58,3.41-13.7a28.17,28.17,0,0,0,3.27-3.7c2.16-2.71,4.39-5.52,6.89-6.29.91-.54,1.42-5.4,1.73-8.31.43-4,.87-8.1,2.25-10.41a35.37,35.37,0,0,1,9.82-10.82l.68-.53c3.05-2.41,6.91-5.92,7-6l.39-.36,17.89-.95.15,0c.37.06,9,1.49,14.12,3.41C72.16,56.34,79.3,53.26,84,51.22c1-.41,1.86-.79,2.65-1.11a193.37,193.37,0,0,0,19.11-9.62c.9-.49,1.38-1,1.41-1.53.12-2.22-5.14-5.94-8-7.94a19.37,19.37,0,0,1-3.54-2.83,2.29,2.29,0,0,1-.43-2c.55-2.36,4.8-4.82,13-8.81,1-.47,1.82-.88,2.4-1.18,1.65-.87,3.52-4.45,5.17-7.6a35.21,35.21,0,0,1,4-6.61c3-3.35,7.19-1.87,9.4-.41L160.63.43l5.85,1.21,23.36-.13.07,1.43c0,.44.59,11,0,14.86-.53,3.42-.48,6.81,1.49,12.22a17.22,17.22,0,0,0,2.19,4,44.4,44.4,0,0,1,5.9,12.19,15,15,0,0,1,.28,8.07,8.32,8.32,0,0,0-.22,1.92c.58,4.53,1.4,5.66,2.26,6.86,1,1.39,2,2.82,2.56,7.71.2,1.77,1.34,3.48,2.45,5.13a17.19,17.19,0,0,1,2.31,4.29c1.48,4.81,6,11.44,6,11.51l.09.14,8.64,16.12-.46.73c-1.08,1.77-6.7,10.66-10.35,12.13-1.48.59-4,2.52-6.52,4.39a49.12,49.12,0,0,1-7.88,5.28c-4.68,2.09-7.29-.76-10.32-4.07l-1-1.13c-3.26-3.5-6.5-4.74-8.26-4.39-1.57.29-9,2.88-13.84,4.64a37.93,37.93,0,0,1-4.79,4.76A32.58,32.58,0,0,0,157,134c-2.2,2.55-4.47,5.19-6.43,6.15-3.28,1.64-12.63,2.46-20.37.09a11.64,11.64,0,0,0-3.14-.59c-1,1.45-2.16,1.5-2.9,1.11a1.41,1.41,0,0,1-.29-.18c-3.15,1.57-9,5.38-11.27,8.77A15.83,15.83,0,0,1,108,154c-.34.79-1.9,2-8.93,5.61-2,1-8.78,4.39-11.57,4.89A6.53,6.53,0,0,1,86.39,164.58Zm-13.06-7.84a26.44,26.44,0,0,1,5,2c3,1.41,6.62,3.16,8.69,2.79,3-.53,14.29-6.25,17.61-8.4a1.54,1.54,0,0,1,1.1-1.34c1.68-.62,3.33-2.62,4.41-4.19,2.39-3.49,10.64-9.67,14.73-10.62,1.12-.47,3-.63,6.21.35,7.36,2.24,15.86,1.24,18.17.09,1.41-.7,3.68-3.32,5.49-5.43a34.35,34.35,0,0,1,3.89-4.11,35.07,35.07,0,0,0,4.58-4.61l.26-.32.39-.14c1.26-.46,12.33-4.47,14.7-4.91,3.18-.61,7.4,1.42,11,5.29l1.06,1.15c3.17,3.47,4.29,4.51,6.87,3.36a47.32,47.32,0,0,0,7.3-4.93c2.76-2.08,5.36-4,7.21-4.79s5.92-6.18,8.46-10.18l-7.78-14.53c-.53-.77-4.83-7.22-6.37-12.25a15.07,15.07,0,0,0-1.95-3.5c-1.24-1.86-2.65-4-2.93-6.47-.45-4.11-1.18-5.12-2-6.28-1-1.39-2.12-3-2.79-8.24a9.27,9.27,0,0,1,.24-2.84,12.14,12.14,0,0,0-.18-6.57,41.49,41.49,0,0,0-5.54-11.48,20.17,20.17,0,0,1-2.52-4.6c-1.87-5.15-2.35-9.12-1.64-13.71.44-2.77.19-9.79.06-12.81l-20.81.11-5.8-1.2L128.31,4.66l-.43-.33c-.15-.1-3.68-2.72-5.79-.32a34.81,34.81,0,0,0-3.63,6c-2,3.89-4,7.56-6.44,8.86-.6.32-1.46.74-2.47,1.23-2.5,1.22-9.82,4.79-11.19,6.52.55.48,1.63,1.24,2.6,1.93,4.21,3,9.44,6.68,9.22,10.56-.09,1.62-1.09,3-3,4a193.94,193.94,0,0,1-19.44,9.77c-.77.31-1.64.69-2.58,1.09-5.48,2.36-13,5.59-17.78,3.78-4.45-1.69-12.18-3-13.38-3.23l-16.49.88c-1.08,1-4.13,3.68-6.71,5.72l-.69.54a32.49,32.49,0,0,0-9.1,10c-1,1.75-1.46,5.71-1.83,9.2-.6,5.6-1.07,10-3.84,10.86-1.61.5-3.64,3-5.42,5.29a30.59,30.59,0,0,1-3.69,4.13c-1.75,1.46-2.12,7.79-2.35,11.58-.07,1.24-.14,2.42-.24,3.39-.18,1.82-.36,2.89-.48,3.68a14.16,14.16,0,0,0,0,4.9c.3,3.06,4,5.41,7.32,7.48s6.33,4,5.93,6.81c-.1.68-.21,1.39-.34,2.13-.59,3.57-1.27,7.62.26,11.67a5.23,5.23,0,0,0,2.76,3.36,5.5,5.5,0,0,0,4.24-.63c5.14-4.22,13.16-11,14.49-12.79,2-2.64,14.1-14.23,14.61-14.73l.44-.41H63.76l10.62,10.67-.12.75C73.11,146.31,72.49,155,73.33,156.74Z"/></g></g></svg>