<svg xmlns="http://www.w3.org/2000/svg" viewBox="0 0 128.77 100.76"><defs><style>.cls-1{fill:#448708;fill-rule:evenodd;}.cls-2{fill:#fff;}</style></defs><title>アセット 130</title><g id="レイヤー_2" data-name="レイヤー 2"><g id="レイヤー_1-2" data-name="レイヤー 1"><path class="cls-1" d="M29.84,26.48l4.82-14.54L33.57.42s2.89,9.9,22.16,17.18c1.77.67,12.93,1.56,12.93,1.56l9.88,4.65,4.28-11.87s14.45,0,16.29,1.06,6.7-2.23,12.63,3.79l9.7,7.76,4.75,6.78s-12.43,2.23-14.45,4.85-8.53,11.34-4.82,14.54,3.27,16,4.82,19.4,9.64,9.69,9.64,9.69a5.1,5.1,0,0,0-4.82,4.85c-.63,4.8-1.07,13.58-4.82,14.54s-9.64-9.69-9.64-9.69S98.1,79.13,97.27,75s-9.63-9.7-9.63-9.7-7.75.68-9.63,0-14.59.58-19.28,4.85-17,6.25-19.26,9.69-4.81,14.55-4.81,14.55L25,99.2s-9.44-1.65-9.63-9.69S11,72.19,14.71,66.18s.68-10.62.68-10.62-2.62-7.15-5.94-8S2.08,41,2.08,41l13.31-9.66Z"/><path class="cls-2" d="M25.25,100.76l-.48-.08c-3.69-.64-10.71-3.8-10.88-11.14a55.14,55.14,0,0,0-1.11-8.23c-1-5.64-2.13-11.47.66-15.93,3.21-5.13.73-8.94.7-9L14,56.08c-1-2.66-3.15-6.62-4.91-7.09-3.74-1-7.76-6.5-8.21-7.13L0,40.65,14.69,30l14-4.68,4.48-13.54L32.08.56,35,0c0,.08,3.07,9.33,21.25,16.19,1,.38,7.14,1,12.52,1.48l.27,0,8.64,4.06,4.08-11.31h1c4.47,0,15.07.12,17,1.27a6.67,6.67,0,0,0,1.56-.05c2.51-.23,6.72-.62,11.32,4l9.8,7.84,6.23,8.88-2.31.41c-5.71,1-12.51,3-13.54,4.3-4.74,6.13-6.71,11-5,12.48C110.68,52,111.39,58,112,63.29a29.69,29.69,0,0,0,1.09,6.2c1.14,2.46,7,7.43,9.2,9.14l3.36,2.64-4.27,0c-.47,0-2.92.26-3.35,3.54-.08.63-.16,1.32-.24,2.05-.63,5.64-1.43,12.66-5.69,13.76-1.14.29-5.34.42-11.33-10.43l-.08-.18c-.17-.43-4.06-10.55-4.9-14.79-.48-2.46-5.32-6.36-8.53-8.46-2.34.2-7.89.56-9.77-.12-1.71-.51-13.57.73-17.75,4.55-2.54,2.31-6.82,3.89-11,5.42-3.38,1.24-7.21,2.66-8.06,4-1.7,2.64-3.9,11.06-4.61,14.08l-.16.68Zm78.21-11.89c2.79,5,6.54,9.24,7.9,8.88,2.26-.58,3-7.48,3.46-11.19.09-.75.17-1.46.25-2.09a6.79,6.79,0,0,1,3.21-5.25c-2.62-2.21-6.74-6-7.91-8.47-.67-1.46-1-4-1.34-7.11-.5-4.28-1.2-10.15-3.09-11.79-3.27-2.81-1.72-8.4,4.61-16.59,1.8-2.33,8.89-4.1,13.08-5l-3.3-4.7-9.66-7.75c-3.63-3.69-6.6-3.41-9-3.19a5.36,5.36,0,0,1-3.34-.35c-1.08-.5-8.15-.83-14.48-.86L79.4,25.87,68.27,20.63C65.87,20.44,57,19.68,55.2,19,44.64,15,38.81,10.22,35.66,6.56l.52,5.55L31,27.66l-15,5L4.21,41.3c1.59,2,4,4.35,5.62,4.79,3.76,1,6.31,7.22,6.91,8.81.59,1,3.09,5.91-.76,12.07-2.17,3.47-1.24,8.48-.25,13.79a55.61,55.61,0,0,1,1.15,8.71c.15,5.85,6.18,7.73,7.94,8.15l8.54-4.29C34,90.8,36.19,82.14,38.21,79c1.39-2.16,5.17-3.55,9.54-5.17,3.69-1.36,7.87-2.9,10-4.82,5.13-4.67,18.37-6,20.8-5.15,1,.35,5.42.23,9-.09l.51,0,.42.27c1,.6,9.4,6,10.31,10.68C99.5,78.46,103.06,87.82,103.46,88.87Z"/></g></g></svg>