<svg xmlns="http://www.w3.org/2000/svg" viewBox="0 0 200.99 209.78"><defs><style>.cls-1{fill:#448708;fill-rule:evenodd;}.cls-2{fill:#fff;}</style></defs><title>アセット 101</title><g id="レイヤー_2" data-name="レイヤー 2"><g id="レイヤー_1-2" data-name="レイヤー 1"><path class="cls-1" d="M83.67,158.24s1,9.31-4.82,14.54-13.06,4-14.45,9.7S59.58,197,59.58,197c11.35,1.39,10.69,1.83,19.27,0a53.27,53.27,0,0,0,14.46-4.85c4.48-2.19,7,3.18,9.64,4.85,1.43.91-2.41,1.4,9.63,4.84,7.85,2.24,17.16,9.6,24.09,4.85s5.26-10.6,14.47-11.1c9.05-.47,13.31-2.06,16.06-4.24S175.27,178,175.27,178s-2-10-2.29-13.52-1.75-7.24-4-16.51c-1.49-6-5.23-10.71-7.82-14.54-1.84-2.7-5.16-9.16-5.16-9.16l12-11.62s4.69-4.79,10.38-10.71,5.65-8.54,7.95-12.66c2.48-4.45,8.2-13.5,8.2-13.5l4.82-9.69-4.82-9.7s-5.44-7.36-4.82-9.7.29-8.33,0-14.54-2-4.89-4.81-9.7-5.27-14.4-9.64-14.54c-5.42-.17-13.78,2.28-14.46,0S156,3.09,156,3.09l4.81,24.24s8.9-.48,4.63,4.24c-4.48,4.94-7.88,5.54-11.16,7.94-2.62,1.92-5,4.64-6.65,3.28-8.44-7.17-8.64-15-10.91-15.46s-7.07.34-12.69-1.07c-3.35-.84-3.45-.82-6.58-3.78s-4-8-7.58-6.27c-4.26,2-7.24,4-11.27,5-3,.69-9.11,3.25-10.8,7.41s-1.65.47-7.38,10.67C74.14,50.36,73.64,50.42,74,51.58c2.1,6.15,4.68,8.62,9.64,14.54s5.15,7,9.64,9.69,7,4.76,4.82,9.71-1.07,11.24-4.82,14.54S69.22,114.6,69.22,114.6s18.69,4.8,24.09,0,15.27-12.75,14.45-9.7-1.49,6.16-4.81,9.7-9.55,5.72-9.64,9.7-3.13,10.38-4.82,14.55S83.67,158.24,83.67,158.24Z"/><path class="cls-2" d="M131.46,209.78c-4.11,0-8.45-1.95-12.44-3.74a52.66,52.66,0,0,0-6.85-2.73c-8.52-2.43-9.94-3.55-10.25-5.17A16.19,16.19,0,0,1,99.61,196c-2.33-2.43-3.64-3.46-5.65-2.48a54.78,54.78,0,0,1-14.79,5c-7.53,1.61-8.28,1.51-15.38.59-1.24-.17-2.68-.36-4.39-.57l-1.91-.23.69-1.79c0-.09,3.4-8.86,4.76-14.37,1-4,4.19-5.18,7.59-6.47a21.26,21.26,0,0,0,7.31-4c5.17-4.67,4.35-13.19,4.34-13.28l0-.23,0-.22c.13-.63,3.18-15.41,4.9-19.66l1-2.38c1.63-3.85,3.65-8.64,3.72-11.64.08-3.31,3.09-5.42,6-7.46a26.14,26.14,0,0,0,4-3.23,15.72,15.72,0,0,0,3.88-6.92,113.49,113.49,0,0,0-11.43,9.07c-5.82,5.19-23.46.84-25.46.33l-3.65-.94,3.3-1.82c7-3.87,21-11.84,23.83-14.36,1.86-1.64,2.29-4.32,2.78-7.42a26.72,26.72,0,0,1,1.65-6.6c1.59-3.62.41-5.06-4.21-7.81-3.68-2.18-4.73-3.49-7.26-6.64-.74-.92-1.62-2-2.76-3.38-.65-.78-1.26-1.49-1.84-2.17-3.84-4.51-6.16-7.24-8.07-12.85-.49-1.45-.18-2,2.23-6.14,1-1.68,2.33-4,4.23-7.41C82.51,32.38,84,31.05,85,30.17A4.32,4.32,0,0,0,86.36,28c2-5.07,9.26-7.72,11.86-8.31a31.17,31.17,0,0,0,7.52-3.13c1.08-.56,2.2-1.14,3.44-1.73,3.58-1.71,5.5,1.27,6.9,3.45a15.94,15.94,0,0,0,2.35,3.09c2.78,2.63,2.78,2.63,5.72,3.37l.2,0a36.07,36.07,0,0,0,9,.87,20.61,20.61,0,0,1,3.59.18c1.65.32,2.38,1.95,3.38,4.21a29.81,29.81,0,0,0,8.22,11.57c.51.1,2.16-1.24,3-2,.57-.46,1.16-.94,1.76-1.38a28.21,28.21,0,0,1,3.52-2.13,24.71,24.71,0,0,0,7.4-5.6,3.2,3.2,0,0,0,.76-1.13c-.47-.4-2.47-.7-4.19-.61l-1.29.07L153.81,0l2.93,1.82c.75.47,4.46,2.87,5.39,5.47.89.33,4,0,6.14-.32a48.22,48.22,0,0,1,7-.53c4.06.13,6.36,5.38,8.59,10.47a51.75,51.75,0,0,0,2.29,4.82,17,17,0,0,0,2.36,3.14c1.56,1.71,2.46,2.89,2.66,7.24l.06,1.3c.29,6.07.54,11.31-.11,13.7-.15,1,2,4.91,4.58,8.42l.14.22L201,66.12l-5.23,10.49c-.06.09-5.73,9.07-8.17,13.43-.61,1.1-1,2.07-1.5,3.11a29.31,29.31,0,0,1-6.67,9.85c-5.62,5.87-10.34,10.68-10.38,10.73L157.8,124.6c1,1.9,3.21,6,4.55,8,.36.54.75,1.09,1.16,1.67,2.46,3.53,5.53,7.93,6.88,13.35.88,3.56,1.65,6.32,2.27,8.54a42.79,42.79,0,0,1,1.82,8.23c.23,3.35,2.24,13.22,2.26,13.32l.1.49-.21.46c-.56,1.17-5.56,11.54-8.49,13.87-3.49,2.77-8.55,4.14-16.92,4.57-4.87.26-6.1,2-8,4.75a21.13,21.13,0,0,1-5.74,6.09A10.51,10.51,0,0,1,131.46,209.78Zm-26.62-12.34c.35.3,1.83,1.18,8.15,3a55.47,55.47,0,0,1,7.26,2.87c5.83,2.62,11.33,5.09,15.58,2.18a18.11,18.11,0,0,0,5-5.31c2-2.93,3.93-5.71,10.27-6,9.74-.51,13.24-2.37,15.21-3.93,1.74-1.38,5.38-8.12,7.43-12.36-.42-2.1-2-10.09-2.22-13.23a39.44,39.44,0,0,0-1.71-7.63c-.62-2.23-1.4-5-2.29-8.62-1.21-4.88-4-8.85-6.43-12.35-.41-.59-.81-1.16-1.18-1.71-1.87-2.75-5.12-9.05-5.25-9.32l-.51-1,12.81-12.39s4.72-4.82,10.34-10.67a26.56,26.56,0,0,0,6.09-9c.46-1.05,1-2.13,1.63-3.35,2.39-4.29,7.64-12.62,8.21-13.5l4.45-9-4.43-8.91c-1.8-2.46-5.7-8.18-5-10.88.52-1.94.26-7.45,0-12.77l-.06-1.31c-.17-3.48-.7-4.07-1.89-5.36a19.29,19.29,0,0,1-2.73-3.66,52.72,52.72,0,0,1-2.45-5.12c-1.59-3.63-3.77-8.6-5.94-8.67a46,46,0,0,0-6.53.51c-4.76.59-8.53,1.06-9.31-1.58a4.48,4.48,0,0,0-1.12-1.59l3.78,19c1.92,0,4.88.44,5.79,2.35.62,1.3.19,2.79-1.28,4.41a27.49,27.49,0,0,1-8.2,6.22,27.39,27.39,0,0,0-3.18,1.92c-.56.41-1.1.86-1.63,1.29-2.19,1.78-4.67,3.79-6.88,1.92a32.46,32.46,0,0,1-9-12.64,13.06,13.06,0,0,0-1.29-2.5,21.86,21.86,0,0,0-2.94-.11,39.15,39.15,0,0,1-9.74-1l-.21,0c-3.38-.86-3.78-1-7-4.1a18.86,18.86,0,0,1-2.82-3.65c-1.72-2.68-2.09-2.84-3.08-2.36-1.19.57-2.29,1.14-3.35,1.69a33.93,33.93,0,0,1-8.23,3.38c-3.26.74-8.43,3.25-9.75,6.52A7.08,7.08,0,0,1,87,32.4c-.83.75-2.1,1.88-5.3,7.58-1.9,3.39-3.27,5.76-4.24,7.44a34.47,34.47,0,0,0-2,3.64C77.19,56.18,79.25,58.6,83,63l1.85,2.18c1.15,1.38,2.05,2.49,2.8,3.43,2.49,3.1,3.24,4,6.45,5.94,4.56,2.72,8.12,5.47,5.43,11.6A24.28,24.28,0,0,0,98.07,92c-.54,3.37-1.1,6.86-3.77,9.2-2.91,2.55-14.9,9.42-20.92,12.81,6.21,1.2,15.77,2.3,18.93-.51,13.58-12.06,15.38-11,16.15-10.48a1.93,1.93,0,0,1,.75,2.29l-.14.53a20.23,20.23,0,0,1-5,9.8,28.89,28.89,0,0,1-4.5,3.64c-2.41,1.69-4.69,3.28-4.73,5.07-.09,3.57-2.23,8.65-4,12.73-.35.84-.69,1.63-1,2.35-1.51,3.73-4.31,17.07-4.7,18.92.12,1.6.48,10.31-5.32,15.56a24.1,24.1,0,0,1-8.27,4.57c-3.37,1.27-5.16,2-5.74,4.38-1,4.2-3.12,10-4.2,12.93l2.53.33c6.92.91,7.33,1,14.36-.54a51.64,51.64,0,0,0,14.11-4.73c4.2-2.05,7.16,1,9.12,3.1a13.12,13.12,0,0,0,2,1.83A2.17,2.17,0,0,1,104.84,197.44Z"/><path class="cls-1" d="M45.12,143.7a13.45,13.45,0,0,1,4.82-9.7,24.93,24.93,0,0,1,9.64-4.85H74v9.7s-7.32,7.85-9.63,9.69-14.46,4.85-14.46,4.85Z"/><path class="cls-2" d="M49.14,155.13l-5.52-11.08v-.35A14.94,14.94,0,0,1,49,132.83a26.16,26.16,0,0,1,10.28-5.15l.3,0h16v11.79l-.4.43c-.3.32-7.43,8-9.8,9.84s-12.95,4.62-15,5.13Zm-2.5-11.75,4.11,8.26c4.62-1.19,11.34-3.18,12.71-4.27,1.9-1.51,7.52-7.46,9.07-9.12v-7.6H59.75a23.85,23.85,0,0,0-8.87,4.52A12.07,12.07,0,0,0,46.64,143.38Z"/><path class="cls-1" d="M6.57,148.54S4.7,139.71,11.39,134a85.44,85.44,0,0,1,14.46-9.7s2.75,1.55,4.82,0,3,1.11,4.82,4.85,6,9.7,4.81,14.55-4.81,14.54-4.81,14.54-2.31,9.74-4.82,9.7-5.79,4.7-9.64,9.68-14.46,9.71-14.46,9.71S.07,180,1.76,177.62s4.81-14.54,4.81-14.54Z"/><path class="cls-2" d="M6.18,189.14l-.73-.82c-2.19-2.46-7.06-8.53-4.92-11.56,1.1-1.55,3.35-9.24,4.54-13.87V148.68c-.24-1.35-1.5-10,5.35-15.82A85.9,85.9,0,0,1,25.17,123l.72-.37.7.4s1.93,1,3.18.11a3.08,3.08,0,0,1,2.65-.67c1.71.42,2.6,2.27,3.83,4.84.18.39.38.8.58,1.22.34.68.75,1.44,1.2,2.26,2,3.71,4.81,8.79,3.73,13.29-1.12,4.69-4.44,13.58-4.84,14.64-1.18,5-3.25,10.78-6.28,10.76h0c-1.45,0-4.54,4.05-7,7.31l-1.37,1.79c-4,5.24-14.59,10-15,10.16ZM25.91,126a83.64,83.64,0,0,0-13.54,9.17C6.46,140.18,8,147.9,8,148.23l0,.31,0,14.92c-.54,2.07-3.29,12.56-5,15-.31.82,1.56,4.06,4,7,2.68-1.29,10-5,12.87-8.78.47-.6.92-1.2,1.36-1.78,3.6-4.71,6.45-8.45,9.38-8.49.88-.57,2.5-4.58,3.45-8.55l0-.18c0-.1,3.64-9.67,4.77-14.36.8-3.38-1.56-7.7-3.45-11.16-.47-.86-.91-1.66-1.26-2.38l-.6-1.24a14.26,14.26,0,0,0-1.8-3.19,2,2,0,0,0-.17.12A5.86,5.86,0,0,1,25.91,126Z"/></g></g></svg>