<svg xmlns="http://www.w3.org/2000/svg" viewBox="0 0 204.4 343.16"><defs><style>.cls-1{fill:#448708;fill-rule:evenodd;}.cls-2{fill:#fff;}</style></defs><title>アセット 129</title><g id="レイヤー_2" data-name="レイヤー 2"><g id="レイヤー_1-2" data-name="レイヤー 1"><path class="cls-1" d="M60,55.16S70,42.84,69.6,40.61,84.06,21.22,84.06,21.22,100.81,32.45,101.9,37c1.81,7.54,8.88-2.24,15.64,1,3.12,1.48,11,2.61,11,2.61l15.12-16.09s7.79-3.68,10.62-10.24c3.85-8.89,19.32-11.47,19.32-11.47s6.67-3.88,6.29,1.86c-.45,6.85,3.39,16.56,3.39,16.56s2.23,11.07,6.8,14.56,3.28,11.34,4.83,14.55,3.75,6,0,4.85-15.12,6.73-20.65,11.29c-9.09,7.51-14.08,9.23-17.92,13-3.51,3.4-1.41,7.78-3.72,16.21s-.7,6.28,1.41,11.76,13.67,12.29,13.67,12.29,9.18,5.36,7.92,3.37,1.8-8.12,4.83-9.69c4-2.1,9.63,9.69,9.63,9.69v19.4S187.36,152,185.28,157s3.45,1.56,4.17,12c.83,12.27.82,18.42.82,18.42l10.48,8.41,1.39,6.11s3.25,6.87-3.69,9.2c-8.34,2.8-11.91,5.78-18-.77s-4.35-6.3-9.65-4.85-5.15-1-9.64,0-9.71,2.46-9.71,2.46,0-1.84-10.94,5.51c-10,6.72-8.27,6.58-8.27,6.58s.12,12.1-4.82,19.39c-6,8.9-3.58,4.26-3.08,14.48.48,9.89-.72,21-2.93,27a172.64,172.64,0,0,0-6.86,21.93c-1.79,7.89-1.94,6.14-15.46,11.3-7.11,2.7-6,9.31-13.44,15.12-6.51,5.1-14,8.32-18.15,11.48-4.7,3.59-20-4.27-22-4.36s-5.83,3.59-9.64,4.85-9.45-11.84-9.45-11.84,1.5-14.1,4.63-17.26c14.41-14.48,14.36-9,7.4-22.39-2.41-4.63-17.85-7.28-14.23-13.24s7.43-11,2-17.69c-2.31-2.84-5.08-1.66-8.17-10.53s-3.49-8.73-11.11-13.72a11.63,11.63,0,0,1-5-13.07,17,17,0,0,1,1.14-6.7c1.63-3.86,4-1.43,11.16-5.09,5-2.59,15.4-11.73,15.4-11.73s6-9,5-12.94c-.59-2.31-6.35-6.13-6.35-6.13s-2.49,1.12-3-6.35C25,168,28.24,165.32,31,157s2.46-12.75,4.82-14.54,6.36-6,4.82-9.7-4.82-9.7-4.82-9.7l-3.08-6.28,7.9-15.13L55.14,89.09s2.91-9.16,3.43-14C59,71.49,60,55.16,60,55.16Z"/><path class="cls-2" d="M64,343.16c-4.15,0-9.68-2-15.15-4.09-1.41-.54-3-1.16-3.41-1.22h0a13.43,13.43,0,0,0-3.4,1.82,27.09,27.09,0,0,1-5.65,3c-4.61,1.54-9.44-8.35-11.3-12.67l-.15-.36,0-.39c.16-1.5,1.65-14.72,5.06-18.15,3.16-3.18,5.66-5.43,7.48-7.07,2.39-2.15,3.83-3.45,4-4.37s-.7-2.45-2.13-5.06c-.64-1.15-1.39-2.51-2.24-4.14-.73-1.42-3.74-2.94-6.39-4.28-3.88-2-7.55-3.82-8.38-6.73a4.57,4.57,0,0,1,.59-3.71l.77-1.26c3.33-5.42,5.74-9.33,1.37-14.71a7.84,7.84,0,0,0-1.9-1.57c-1.88-1.23-4.21-2.76-6.52-9.41-2.75-7.89-3-8.05-9.31-12.16l-1.21-.79A13.09,13.09,0,0,1,.45,221.27a18.36,18.36,0,0,1,1.27-7.08c1.21-2.88,3.05-3.22,5.18-3.62a22,22,0,0,0,6.67-2.22c4.49-2.31,13.66-10.27,15-11.39,2.32-3.55,5.25-9.38,4.69-11.58-.26-1-2.85-3.26-5.27-4.94a2.65,2.65,0,0,1-1.39-.4c-1.57-.93-2.47-3.36-2.75-7.41-.22-3,.94-5.33,2.4-8.22a55.36,55.36,0,0,0,3.42-7.92,79.12,79.12,0,0,0,2.2-8.14c.78-3.45,1.29-5.72,3.14-7.12,2.33-1.77,5.42-5.34,4.34-7.92-1.5-3.57-4.72-9.5-4.75-9.56l-3.46-7,8.39-16.06L53.84,88.24c.55-1.8,2.8-9.24,3.24-13.34.37-3.49,1.37-19.67,1.38-19.84l0-.48.31-.37c4.31-5.28,9.06-11.86,9.31-13.42-.13-.86.15-3.65,14.82-20.55l.87-1,1.1.74c2.88,1.92,17.29,11.8,18.46,16.67a2.68,2.68,0,0,0,.86,1.69c.67.34,2.34-.33,3.82-.92,2.88-1.14,6.46-2.56,10.14-.81,2.15,1,7.26,2,9.83,2.37l14.77-15.73.26-.12c.07,0,7.31-3.53,9.88-9.47,3.89-9,18-11.9,20.19-12.31,1.09-.6,4.4-2.18,6.62-.8.86.53,1.85,1.69,1.68,4.19-.42,6.42,3.25,15.82,3.29,15.91l.07.26c.59,2.92,2.86,11.08,6.24,13.66s4,7.25,4.46,10.93a15.53,15.53,0,0,0,.81,4.15c.28.58.57,1.14.86,1.67,1.07,2,1.92,3.62.89,4.86s-2.78.65-3.55.41c-2.46-.77-12.18,5.19-19.24,11a110.1,110.1,0,0,1-11.7,8.4,37.76,37.76,0,0,0-6.13,4.47c-1.62,1.57-1.75,3.42-1.95,6.5a42.37,42.37,0,0,1-1.38,9c-1.49,5.43-1.27,5.8-.34,7.36a20.72,20.72,0,0,1,1.71,3.46c1.59,4.09,10,9.71,13,11.54,1.81,1,3.92,2.19,5.4,2.9a8.38,8.38,0,0,1,.27-1.44c.76-2.81,3.08-6.5,5.63-7.82a3.83,3.83,0,0,1,3-.2c4.18,1.4,8.2,9.64,8.65,10.58l.14.3v19.95l-.06.2c-.11.39-2.79,9.7-4.87,14.71-.52,1.25-.52,1.25.3,1.95,1.32,1.13,3.54,3,4,9.33.67,9.83.8,15.82.82,17.79l10.34,8.3,1.47,6.48a9.46,9.46,0,0,1,.26,6.94,7.61,7.61,0,0,1-4.9,4.15c-1.3.43-2.48.87-3.57,1.28-5.92,2.21-10.19,3.81-16-2.45-1.16-1.24-2-2.24-2.73-3a10.65,10.65,0,0,0-2.13-2.15,6.33,6.33,0,0,0-2.11.43l-1.18.34a10.18,10.18,0,0,1-6.15.12,6.35,6.35,0,0,0-3.57-.1c-4.38,1-9.57,2.42-9.62,2.44l-1.91.54v-.34a58.39,58.39,0,0,0-8.6,5.1,67.92,67.92,0,0,0-7.61,5.57c0,1.84-.27,12.9-5.07,20l-1.42,2.08c-2.46,3.58-2.46,3.58-2.13,5.31a41.87,41.87,0,0,1,.72,6.18c.48,10.05-.76,21.4-3,27.6l-.46,1.27A161.28,161.28,0,0,0,116,303.15c-1.56,6.9-2.43,7.42-9.85,10-1.73.61-3.88,1.36-6.54,2.37-3.3,1.26-4.56,3.5-6.16,6.34a25.67,25.67,0,0,1-6.88,8.56,92.29,92.29,0,0,1-11.44,7.33,61.78,61.78,0,0,0-6.72,4.17A7.25,7.25,0,0,1,64,343.16Zm-18.54-8.3h.15a18.26,18.26,0,0,1,4.32,1.42c4.52,1.75,13.91,5.4,16.72,3.25a65.74,65.74,0,0,1,7.07-4.39,89.55,89.55,0,0,0,11.07-7.08,22.76,22.76,0,0,0,6.11-7.68c1.75-3.09,3.39-6,7.71-7.66,2.7-1,4.88-1.79,6.63-2.4,6.66-2.32,6.66-2.32,7.91-7.83a165,165,0,0,1,6.45-20.85l.46-1.27c2.14-5.87,3.31-16.74,2.84-26.43a37.24,37.24,0,0,0-.67-5.76c-.56-3-.26-3.39,2.61-7.57.4-.59.87-1.27,1.4-2.06,4.08-6,4.51-15.79,4.56-18.06l0-.05c-.4-1.17-.63-1.82,9-8.27,9-6.06,11.08-6.24,12-5.89,1.56-.43,5.6-1.52,9.13-2.3a9.33,9.33,0,0,1,5,.14,7.34,7.34,0,0,0,4.61-.12l1.15-.32c3.79-1.09,4.39-.72,7.32,2.63.68.78,1.54,1.76,2.67,3,4.43,4.78,6.86,3.88,12.74,1.68,1.12-.42,2.33-.87,3.67-1.32a4.67,4.67,0,0,0,3.09-2.47,6.56,6.56,0,0,0-.29-4.65l-.1-.31-1.27-5.61-10.64-8.54v-.72c0-.06,0-6.24-.82-18.31-.35-5.05-1.84-6.32-2.93-7.24-1.36-1.16-2.38-2.37-1.12-5.4,1.85-4.45,4.3-12.78,4.7-14.18V123.38c-1.53-3.12-4.57-8-6.74-8.72a.84.84,0,0,0-.7,0c-1.49.77-3.34,3.39-4,5.72a3.24,3.24,0,0,0-.2,1.85,1.71,1.71,0,0,1-.11,2.22c-.77.8-1.38,1.44-9.84-3.51-1.23-.72-12.06-7.25-14.3-13a18.15,18.15,0,0,0-1.5-3c-1.46-2.45-1.63-3.64,0-9.69a38.57,38.57,0,0,0,1.27-8.44c.23-3.39.41-6.08,2.86-8.45a39.27,39.27,0,0,1,6.61-4.84,106.77,106.77,0,0,0,11.4-8.18c.15-.14,15.54-12.75,21.63-11.68l-.47-.89c-.3-.56-.62-1.16-.91-1.77a16.75,16.75,0,0,1-1.09-5.11c-.38-3.28-.81-7-3.3-8.89-4.74-3.63-7.05-14-7.33-15.33-.47-1.22-3.89-10.33-3.44-17.09.06-.91-.11-1.34-.27-1.44-.57-.36-2.5.24-3.77,1l-.24.14-.27,0c-.15,0-14.71,2.55-18.2,10.59-2.75,6.37-9.62,10.12-11.08,10.86L129.12,42.17l-.77-.11c-.33,0-8.16-1.17-11.46-2.74-2.5-1.19-5.17-.13-7.74.89-2.28.91-4.43,1.76-6.31.79a5.12,5.12,0,0,1-2.4-3.65c-.62-2.6-9.45-9.56-16.12-14.14-6.2,7.22-12.75,15.55-13.22,17.33.12,2.06-3.13,7.17-9.67,15.19-.18,2.78-1,16.23-1.37,19.48-.52,5-3.37,14-3.49,14.34l-.13.4L41.88,102.57l-7.42,14.2,2.75,5.6c.1.19,3.3,6.07,4.86,9.78,1.74,4.18-1.77,8.79-5.3,11.47-1,.74-1.39,2.59-2,5.39a82.37,82.37,0,0,1-2.29,8.43,58.06,58.06,0,0,1-3.58,8.32c-1.36,2.67-2.25,4.44-2.09,6.66.25,3.58.95,4.67,1.2,5l.45-.21.69.46c1.47,1,6.3,4.35,7,7,1.11,4.32-4.14,12.54-5.2,14.15l-.11.16-.15.13c-.43.38-10.57,9.3-15.7,11.94a24.82,24.82,0,0,1-7.49,2.51c-1.93.36-2.39.45-3,1.83a15.46,15.46,0,0,0-1,6v.28l-.09.27a10.11,10.11,0,0,0,4.38,11.35l1.21.79c6.79,4.42,7.5,5.07,10.5,13.69,2,5.68,3.68,6.8,5.33,7.89a10.18,10.18,0,0,1,2.58,2.18c5.72,7,2.24,12.69-1.13,18.17l-.76,1.25a1.58,1.58,0,0,0-.28,1.32c.47,1.65,4,3.44,6.85,4.88,3.36,1.7,6.52,3.3,7.71,5.57.83,1.62,1.57,3,2.19,4.08,3.78,6.86,3.64,7.59-2.49,13.11-1.8,1.61-4.26,3.83-7.37,6.95-2,2-3.56,10.67-4.15,16,2.32,5.26,6.09,11.07,7.44,10.64a24.44,24.44,0,0,0,5-2.65C42.37,335.86,44,334.86,45.42,334.86Zm22.71-294Z"/></g></g></svg>