<svg xmlns="http://www.w3.org/2000/svg" viewBox="0 0 96.93 136.87"><defs><style>.cls-1{fill:#448708;fill-rule:evenodd;}.cls-2{fill:#fff;}</style></defs><title>アセット 118</title><g id="レイヤー_2" data-name="レイヤー 2"><g id="レイヤー_1-2" data-name="レイヤー 1"><path class="cls-1" d="M12.14,125.76a21.55,21.55,0,0,0,14.45-4.85c6.51-5.53,9.59-3.3,14.46-14.55s9.83-6.79,9.64-14.54.19-14.45,0-19.4,0-14.54,0-14.54-3.11-8.94-1.46-15.24,1.89-11,1.46-13.85.61-7.43-.11-12.87a37.15,37.15,0,0,0-4.16-13l4.27,1.62s10.74,15,14.45,14.54,14.46,0,14.46,0S89.83,29.42,91.42,34.65,93,52.24,93,52.24s-.88,8.09.37,12.32c1,3.57,2.12,3.46,1.64,10.49s-1.17,13.47-1,16.77,1.35,18,1.35,18l-6.17,11s-17.13-.11-19.27,0a51.93,51.93,0,0,0-8.42,1.21S52.6,130.1,49,130C46.47,129.9,38,131.07,38,131.07s-8.95.8-13.83-.09C17.11,129.7,12,134.12,10,135.24S2.5,130.6,2.5,130.6Z"/><path class="cls-2" d="M9.48,136.87c-2.4,0-5.6-2.71-8-5.22L0,130.18l11.84-6,.42,0a20.16,20.16,0,0,0,13.36-4.5A32,32,0,0,1,31.2,116c3.22-1.83,5.36-3,8.47-10.23,2.6-6,5.29-7.87,7.24-9.23,1.71-1.18,2.35-1.62,2.28-4.69-.1-4,0-7.82,0-11.16.05-3.15.09-5.87,0-8.21-.18-4.53,0-12.77,0-14.37-.52-1.59-3-9.73-1.41-15.85,2-7.57,1.66-11.78,1.43-13.24a25.52,25.52,0,0,1,0-4.89,40.94,40.94,0,0,0-.09-8,35.89,35.89,0,0,0-4-12.41L42.94,0l8.7,3.31.27.37c5.31,7.43,11.4,13.93,13,13.93h0c3.78-.49,14.26,0,14.7,0l.59,0,.41.42c.43.43,10.52,10.65,12.19,16.17s1.67,17.51,1.67,18v.16c0,.08-.83,7.85.31,11.73.25.84.5,1.46.74,2.06.83,2.09,1.33,3.65,1,9-.14,2-.29,3.91-.44,5.74a102.44,102.44,0,0,0-.54,10.84c.19,3.24,1.33,17.86,1.35,18l0,.45-6.82,12.22h-.89c-.17,0-17.12-.1-19.19,0a50.12,50.12,0,0,0-7.79,1.09c-2.07,1.82-9.36,8-13.22,8H48.9c-1.92,0-8.37.76-10.69,1.08-.44,0-9.28.82-14.3-.1-5.46-1-9.73,1.84-12,3.37-.43.29-.8.53-1.1.71A2.58,2.58,0,0,1,9.48,136.87ZM5.08,131c1.8,1.61,3.61,2.84,4.31,2.89.23-.14.51-.33.84-.55,2.45-1.63,7.56-5,14.21-3.82,4.63.84,13.34.07,13.43.07.28,0,8.53-1.19,11.13-1.09,2.08,0,8-4.34,11.54-7.49l.28-.25.37-.09a54.07,54.07,0,0,1,8.7-1.25c1.89-.09,14.89,0,18.46,0l5.52-9.88c-.2-2.54-1.14-14.63-1.32-17.62a103.4,103.4,0,0,1,.55-11.25c.15-1.82.3-3.74.43-5.71.34-4.9-.1-6-.76-7.64A22.62,22.62,0,0,1,92,65c-1.26-4.27-.53-11.88-.43-12.82S91.43,39.85,90,35.09c-1.16-3.81-8-11.4-11-14.52-2.28-.09-10.55-.38-13.61,0-4,.53-12.06-9.88-15.6-14.79l-.34-.12a40.49,40.49,0,0,1,2.68,10.05,43.84,43.84,0,0,1,.12,8.58,23.28,23.28,0,0,0,0,4.26c.31,2,.54,6.64-1.49,14.45-1.51,5.78,1.39,14.29,1.42,14.38l.09.25v.27c0,.09-.19,9.62,0,14.45.09,2.43.05,5.18,0,8.38s-.1,7.05,0,11c.1,4.37-1.28,5.65-3.57,7.23-1.75,1.21-3.93,2.72-6.2,7.95-3.51,8.13-6.26,9.68-9.75,11.65a29.25,29.25,0,0,0-5.1,3.44,23,23,0,0,1-15.11,5.23Z"/></g></g></svg>