<svg xmlns="http://www.w3.org/2000/svg" viewBox="0 0 120.53 110.93"><defs><style>.cls-1{fill:#448708;fill-rule:evenodd;}.cls-2{fill:#fff;}</style></defs><title>アセット 103</title><g id="レイヤー_2" data-name="レイヤー 2"><g id="レイヤー_1-2" data-name="レイヤー 1"><path class="cls-1" d="M3.39,45.42c3.13-.14,8.81,2.42,9.63-4.85S6.23,27,8.21,26s-6.56-2.72,0-9.7S22.32-.25,22.66,1.79,34.28,3.92,32.3,6.64s3.37,11.63,4.81,14.54S38,29.81,41.93,26a14.42,14.42,0,0,1,8.91-3.85A14.08,14.08,0,0,0,56.39,26c3.23,1.07,11.91-6.18,11.91-6.18l3.57-3.77S83.71,21.52,85.3,26s7.12,9,9.64,9.7C97.28,36.34,106.08,25,106.08,25s8.13,1.05,10.84,5.73c2.6,4.49,2,5.15,2.11,9.86s-6.91,6.15-11.71,10.77c-5,4.79-10.58,3.64-14,8.8s-5.64,9.1-5.64,9.1-.6,4.46-3.58,5.63-2.42-.43-5.84-1.11-7.41-4.1-7.41-4.1.68,0-4.81,4.85-10.12-1.65-9.64,4.85-3.23,7.37,0,9.7S64.2,92.3,66,98.75s0,9.69,0,9.69-5.74-5.93-13.25-5.25-5,1.76-10.85-4.44A45.06,45.06,0,0,1,32.3,84.2c-1.78-3.76-6-10.44-6-10.44s-7.45-1.37-10.89-2.89C8.43,67.77,2,56.94,2,56.94S.25,45.56,3.39,45.42Z"/><path class="cls-2" d="M66.34,110.93,65,109.49c0-.06-5.36-5.4-12-4.8-1.24.11-2.2.23-3,.33-3.67.47-4.12.28-6.9-2.83-.57-.64-1.28-1.43-2.2-2.41a45.71,45.71,0,0,1-9.4-13.85c-.17-.37-.33-.73-.5-1.09-1.42-3-4.51-8.07-5.54-9.73a63,63,0,0,1-10.57-2.86C7.47,69,1,58.17.71,57.71l-.15-.25-.05-.29C.17,55-.78,47.5,1.3,45a2.76,2.76,0,0,1,2-1h0a14.91,14.91,0,0,1,2.44.16c1.68.19,3.42.39,4.45-.43a4.74,4.74,0,0,0,1.32-3.24c.43-3.77-1.8-7.35-3.42-10-1.2-1.93-2-3.21-1.65-4.45a1.73,1.73,0,0,1,.11-.32,6.17,6.17,0,0,1-2.38-4.32c-.08-1.89.88-3.87,2.92-6.05s4-4.36,5.92-6.56C19.79,1.07,21.26-.38,22.88.08a1.74,1.74,0,0,1,1.18,1.13,19.62,19.62,0,0,0,3.68,1.06c3.08.71,5.51,1.27,6.15,3a2.34,2.34,0,0,1-.38,2.27c-.75,1,.62,4.82,4.06,11.28.36.68.67,1.27.89,1.71a15.15,15.15,0,0,1,1,3.21A13.73,13.73,0,0,0,40,25.66a5.17,5.17,0,0,0,.88-.72,15.83,15.83,0,0,1,9.92-4.26h.72l.45.55a12.69,12.69,0,0,0,4.87,3.38c1.43.49,6.61-2.69,10.41-5.85l4.25-4.48,1,.45c1.27.58,12.48,5.84,14.23,10.81,1.39,3.95,6.32,8,8.44,8.7,1.49-.48,6.17-5.57,9.74-10.16l.52-.68.85.11c.37,0,8.9,1.19,12,6.46,2.2,3.81,2.29,5.2,2.28,8.26,0,.66,0,1.41,0,2.31.12,3.82-3.15,5.81-6.61,7.91a31.42,31.42,0,0,0-5.56,4,20.61,20.61,0,0,1-7.54,4.37c-2.51,1-4.69,1.81-6.26,4.18-2.83,4.26-4.93,7.86-5.45,8.78-.22,1.17-1.19,5.23-4.47,6.52-2.29.89-3.29.48-4.46-.19A6.78,6.78,0,0,0,78,75.23a18.88,18.88,0,0,1-6.83-3.44c-.82.86-2.12,2.06-4.11,3.84a9.21,9.21,0,0,1-8,2.22c-.36,0-.81-.09-1.07-.1a5.06,5.06,0,0,0,0,1.5,14.82,14.82,0,0,1-1,6.66c-.48,1.32-.48,1.32.36,1.93a22.6,22.6,0,0,0,2.3,1.4c2.82,1.59,6.33,3.57,7.9,9.11,2,7,0,10.68-.14,10.83ZM54,101.64a19,19,0,0,1,11.24,4.14,16.3,16.3,0,0,0-.65-6.62c-1.23-4.34-3.78-5.78-6.48-7.3a26.87,26.87,0,0,1-2.59-1.59c-2.67-1.93-2-3.77-1.43-5.38a11.72,11.72,0,0,0,.82-5.42c-.11-1.42-.08-3,.93-4s2.28-.79,3.52-.64A6.25,6.25,0,0,0,65,73.39c2-1.8,3.14-2.88,3.76-3.52l-1.7-1.46,4.72-.32.29.66c.92.74,3.93,3,6.44,3.54a9.41,9.41,0,0,1,3.13,1.19c.66.38.75.43,1.88,0,1.76-.69,2.51-3.5,2.64-4.43l0-.28.15-.25c0-.05,2.35-4.19,5.69-9.2,2.1-3.16,4.94-4.26,7.68-5.32a17.92,17.92,0,0,0,6.54-3.72,33.63,33.63,0,0,1,6.08-4.39c3.25-2,5.23-3.29,5.17-5.26,0-.94,0-1.72,0-2.4,0-2.62,0-3.5-1.88-6.76-1.7-2.94-6.42-4.38-8.9-4.85-6,7.57-10,11.1-12.16,10.57-3-.8-8.94-5.72-10.67-10.65C83,23.88,76.6,20,72.21,17.9L69.26,21c-2.19,1.83-9.61,7.69-13.34,6.45a15.06,15.06,0,0,1-5.68-3.72A13.12,13.12,0,0,0,43,27.11c-.93.89-2.34,2-3.86,1.57S37,26.26,36.55,24.4a12.41,12.41,0,0,0-.78-2.55c-.21-.43-.51-1-.85-1.64-3-5.67-5.6-11-4.13-14a25.11,25.11,0,0,0-3.73-1c-2.15-.5-4-.92-5-1.76C20.59,4.71,17.69,8,15.28,10.72c-2,2.23-4,4.53-6,6.64-1.42,1.51-2.15,2.85-2.11,3.87a3.65,3.65,0,0,0,1.54,2.35c.66.6,1.4,1.27,1.27,2.31a1.75,1.75,0,0,1-.49,1c.24.5.73,1.29,1.15,2,1.75,2.82,4.4,7.09,3.85,11.88-.27,2.45-1.07,4.17-2.43,5.26-2,1.59-4.59,1.29-6.66,1.06a13.3,13.3,0,0,0-1.84-.15c-.69.87-.76,5.26-.14,9.51C4.42,58,10.12,66.88,16,69.5c3.25,1.43,10.48,2.77,10.56,2.78l.65.12.35.56c.17.27,4.26,6.8,6.06,10.6l.51,1.11A42.3,42.3,0,0,0,43,97.73c.94,1,1.66,1.81,2.25,2.46a10.11,10.11,0,0,0,2,2,6.64,6.64,0,0,0,2.29-.12c.8-.1,1.79-.23,3.08-.34Q53.33,101.64,54,101.64ZM8.9,27.36ZM24.14,1.54Z"/></g></g></svg>