<svg xmlns="http://www.w3.org/2000/svg" viewBox="0 0 210.4 153.97"><defs><style>.cls-1{fill:#448708;fill-rule:evenodd;}.cls-2{fill:#fff;}</style></defs><title>アセット 110</title><g id="レイヤー_2" data-name="レイヤー 2"><g id="レイヤー_1-2" data-name="レイヤー 1"><path class="cls-1" d="M14.23,84.59S1.36,64.76,4.59,65.19,13.75,68,19.05,60.35,25.7,43.47,28.68,45.8,48,55.5,48,55.5,49.65,67,57.59,60.35s9.06-6.26,14.46-9.7,10.7-11.83,14.46-14.54,9.64-9.7,9.64-9.7,9.58-1,9.63-4.86S104.33,13.8,110.6,7,131,4.1,129.87,2.17s5.25.58,4.82,4.84-10.6,12.42-9.63,19.4,3.17,11.05,4.81,14.55,10.31,4.84,9.64,9.69-7.13,4.41-4.82,9.7S154,65.19,154,65.19l15.44-.44,8.66-14.1a23.76,23.76,0,0,0,4.81,4.85c2.65,1.84,9.31,7.41,9.64,9.69s-1.81,13.33,0,14.54c1.39,1,2,5.34,4.82,4.86s4.17-2.84,5.14,1.23c1.35,5.65,2.57,5.31-.32,13.31s6.12,9.12,4.82,14.54,5,12.61,0,14.55-7.9,2.23-9.64,4.85-7.9,6.64-4.82,9.7,12.53,9.89,9.64,9.69-19.28-9.69-19.28-9.69l-14.45-4.85s.24.34-9.64-9.7-20-11.68-24.09-14.55-7.85-3.58-9.63,0-5.6,1.52-9.64,4.86-24.09,0-24.09,0,2.89,8.67,0,9.69-14.46-9.69-14.46-9.69v9.69a9.1,9.1,0,0,1-4.82,4.85c-3.76,1.7-13.73,5.67-19.27,0s-3.67-6.35-9.64-9.7-6.89-9.6-9.64-9.7-1.39,3.35-4.82,4.86-10.35.82-9.63,4.84,2.94,8,0,9.7-9-7.27-9.64-9.7-.72-8.24-4.82-14.54-4.14-7.56,0-9.7S13.27,84.16,14.23,84.59Z"/><path class="cls-2" d="M202.26,154h-.21c-3-.2-15.73-7.46-19.8-9.82l-13.94-4.67a1,1,0,0,1-.36-.13h0a9.24,9.24,0,0,1-1.9-1.65c-1.25-1.25-3.66-3.68-8.33-8.42-6.63-6.74-13.39-9.58-18.32-11.65a31.7,31.7,0,0,1-5.56-2.72c-2.4-1.67-4.46-2.41-5.79-2.07a2.59,2.59,0,0,0-1.64,1.51c-1.27,2.56-3.43,3-5.33,3.39a9.73,9.73,0,0,0-4.7,2c-3.71,3.07-17,1.56-23,.69.82,3.27,1.48,8.19-1.6,9.26-2.72,1-8.84-3.7-13.45-7.73v6.56l-.08.23a10.61,10.61,0,0,1-5.62,5.75c-9.38,4.22-16.63,4.11-21-.32a36,36,0,0,1-4.19-5c-1.19-1.69-1.79-2.54-5.11-4.4a19.66,19.66,0,0,1-6.89-7.06c-.71-1.08-1.59-2.43-2.07-2.45a.55.55,0,0,0-.27,0,3.18,3.18,0,0,0-.45.88,6.36,6.36,0,0,1-3.44,3.82A19.81,19.81,0,0,1,25,121a15.69,15.69,0,0,0-3.78,1c-.77.39-.77.69-.69,1.15.17.94.43,1.91.68,2.84.84,3.08,1.79,6.57-1.41,8.42a3.36,3.36,0,0,1-3.12.08C13,133,8.61,126.1,8,123.77a22.33,22.33,0,0,1-.46-2.33,29,29,0,0,0-4.17-11.79C.69,105.57-.4,103.42.13,101.41c.47-1.78,2.2-2.8,3.78-3.61,2.12-1.09,4.88-6.6,6.53-9.9a38.72,38.72,0,0,1,1.88-3.5C1.23,67.17,2.39,65.34,2.89,64.55a1.86,1.86,0,0,1,1.9-.84c.43,0,.89.14,1.39.23,3.36.64,7.55,1.43,11.64-4.45a54,54,0,0,0,4.75-9c1.61-3.62,2.68-6,4.58-6.48a2.78,2.78,0,0,1,2.46.6c2.33,1.81,14.48,7.48,19,9.51l.75.34.12.81c.18,1.21,1.11,4.82,3,5.53,1.3.49,3-.6,4.2-1.61a54.53,54.53,0,0,1,10.59-7.46c1.18-.65,2.39-1.32,4-2.36,2.87-1.83,5.85-5.31,8.48-8.39a40.43,40.43,0,0,1,5.9-6.1c3.56-2.58,9.31-9.38,9.37-9.45l.39-.46.6-.06c3.9-.42,8.27-1.92,8.29-3.39,0-.58,0-1.18-.06-1.78-.18-3.39-.4-7.61,5.28-13.76,4.55-4.93,12.38-4.8,17-4.72l1.76,0a1.87,1.87,0,0,1,.38-.69c.46-.51,1.37-.95,3.07-.2,2.35,1,4.74,3.61,4.42,6.76-.21,2.13-2,4.58-4.15,7.42-2.8,3.77-6,8-5.49,11.62a40,40,0,0,0,4.16,13l.53,1.12c.47,1,2.18,2,3.84,3C138,44.93,141.53,47,141,50.86c-.37,2.72-2.13,4.1-3.54,5.22-1.62,1.28-2.22,1.76-1.38,3.67,1.31,3,11.23,4.12,17.85,3.94l14.63-.42L178,48l1.32,1.82a22.27,22.27,0,0,0,4.46,4.5c.1.06,9.73,7.07,10.27,10.7a28.45,28.45,0,0,1-.28,5.2c-.24,2.39-.73,7.31-.23,8.42A6.61,6.61,0,0,1,195.14,81c.83,1.6,1.28,2.25,1.94,2.15a8.08,8.08,0,0,0,1.76-.58,3.54,3.54,0,0,1,3.16-.29c1.16.58,1.62,2,1.93,3.23.26,1.1.52,2,.74,2.72,1,3.49,1.26,4.91-1.11,11.45-1.31,3.64.29,5.39,2.14,7.42,1.63,1.78,3.48,3.81,2.73,7-.46,1.9.26,4.24,1,6.5,1,3.33,2.29,7.47-1.88,9.09-1.32.52-2.5.93-3.54,1.28-3,1-4.43,1.56-5.39,3a18.78,18.78,0,0,1-2.27,2.6c-2.67,2.72-3.76,4.2-2.74,5.2s2.58,2.3,4.18,3.63c5.43,4.53,7,5.91,6.32,7.53A1.83,1.83,0,0,1,202.26,154ZM169.2,136.6l14.43,4.87c4.79,2.78,10,5.64,13.77,7.48l-1.57-1.31c-1.72-1.44-3.34-2.79-4.37-3.8-3.32-3.29.3-7,2.7-9.44a18.86,18.86,0,0,0,1.92-2.15c1.57-2.37,3.81-3.14,6.92-4.2,1-.34,2.16-.74,3.42-1.23s1.31-1.47.1-5.42c-.78-2.52-1.65-5.38-1-8.08.37-1.53-.48-2.56-2-4.24-2-2.16-4.68-5.12-2.75-10.46,2.14-5.93,1.91-6.7,1.06-9.57-.23-.76-.51-1.7-.79-2.88a7.43,7.43,0,0,0-.36-1.14l-.64.26a10.69,10.69,0,0,1-2.43.78c-2.93.5-4.29-2.16-5.1-3.74a6.75,6.75,0,0,0-.82-1.36c-1.72-1.15-1.59-4.42-.92-11.1a35,35,0,0,0,.29-4.46c-.24-1.34-5.5-6.24-9-8.68a22.07,22.07,0,0,1-3.79-3.49l-8,13L154,66.69c-3,.09-18.11.17-20.69-5.74-1.77-4,.57-5.88,2.27-7.22,1.19-.95,2.22-1.76,2.43-3.29.24-1.72-1.61-2.93-4.45-4.57-2.06-1.19-4.18-2.42-5.06-4.28l-.52-1.1a43.07,43.07,0,0,1-4.42-13.88c-.66-4.79,2.91-9.59,6.05-13.82,1.7-2.28,3.45-4.63,3.58-5.93.16-1.55-1.12-2.82-2.13-3.44-.68.92-2,.9-4.57.85-4.17-.07-11.15-.19-14.8,3.76-4.82,5.22-4.65,8.44-4.48,11.56,0,.67.07,1.33.06,2-.06,4.51-7.69,5.91-10.37,6.26-1.4,1.62-6.19,7.07-9.52,9.49A39.08,39.08,0,0,0,82,42.94c-2.77,3.24-5.91,6.9-9.15,9-1.71,1.09-3,1.82-4.2,2.46a52.47,52.47,0,0,0-10.1,7.13c-2.63,2.21-5.05,2.93-7.19,2.11-3.14-1.19-4.35-5.25-4.74-7.07C43.2,55,30.61,49.18,27.79,47c-.64.57-1.69,2.94-2.48,4.71a56.24,56.24,0,0,1-5,9.48c-5.07,7.29-10.83,6.41-14.39,5.74,1.19,3.11,5.53,10.56,9.6,16.83L18.26,88,14.6,86.4c-.41.71-1,1.86-1.48,2.85C10.47,94.54,8.05,99,5.28,100.46c-.89.46-2.1,1.14-2.25,1.72-.28,1.06,1.74,4.16,2.82,5.83A31.82,31.82,0,0,1,10.47,121c.14.82.25,1.54.39,2,.47,1.7,4.44,7.68,7,8.71a.91.91,0,0,0,.49.1c1-.6.91-1.78,0-5-.27-1-.55-2-.75-3.11a3.86,3.86,0,0,1,2.3-4.35,17.41,17.41,0,0,1,4.6-1.24,17.63,17.63,0,0,0,3.61-.89A3.41,3.41,0,0,0,30,114.92c.45-1.06,1.17-2.84,3.59-2.75,2,.08,3.17,1.81,4.48,3.81a17,17,0,0,0,5.84,6.08c3.74,2.1,4.67,3.26,6.1,5.29A34.51,34.51,0,0,0,53.85,132c4.49,4.58,12.95,1.76,17.59-.32a7.92,7.92,0,0,0,3.93-3.78V115.09l2.52,2.34c5.62,5.2,11.54,9.48,13,9.35.52-.48.25-4.07-1-7.78l-.79-2.36,2.46.41c8.05,1.34,20.47,2.33,22.89.32a12.47,12.47,0,0,1,6-2.58c1.82-.37,2.65-.58,3.24-1.78a5.57,5.57,0,0,1,3.59-3.09c2.25-.57,5,.28,8.25,2.52a30.11,30.11,0,0,0,5,2.42c5.17,2.17,12.24,5.13,19.3,12.3C166.75,134.18,168.67,136.08,169.2,136.6Zm24.15-58.11h0ZM128.57,2.91Z"/></g></g></svg>