<svg xmlns="http://www.w3.org/2000/svg" viewBox="0 0 246.11 218.82"><defs><style>.cls-1{fill:#448708;fill-rule:evenodd;}.cls-2{fill:#fff;}</style></defs><title>アセット 109</title><g id="レイヤー_2" data-name="レイヤー 2"><g id="レイヤー_1-2" data-name="レイヤー 1"><path class="cls-1" d="M2.24,138.6l24.09-19.39,19.27-4.85s10.75-11.73,9.64-9.69S61,95.21,64.88,95a26.89,26.89,0,0,0,14.45-4.85c5-3.69,14.75-3.69,14.46-9.7s-3.38-33.31,0-33.93,10.41,1.06,9.64-4.85,4.91-13,4.81-14.55,9.64-4.85,9.64-4.85l9.64-19.39s.58.77,4.82,4.85,18.74,21.38,19.27,24.23S157.1,42,166.07,41.64s16.77-10.72,19.27-9.71,20,5.92,24.09,4.86S228.7,22.24,228.7,22.24l9,4.54c3.2,15,4.31,14.82,6.77,22.09,1.58,4.64-13.09,2.46-13.09,2.46s-15-1-27.07,3.38c-11.7,4.22-26.85,6-34.35,6.33-6.16.28-4.68,3.17-8.74,9.69-4.94,7.94-10.42,19.68-11.48,25s-3.07,8-6.3,12.32c-5.07,6.77-8.62,7.41-11.12,11.2-2.25,3.4-5.75,6.09-10.9,5.07a21,21,0,0,0-8.38-.22s2.68,10.59,4.06,13.43c1.61,3.29,3.62,11.2.76,15.66s-9.21,2-11.14,6-2.46,2.94-5.85,8.63c-3.55,6-13.94,8.44-16.74,9.61s-3.87,13.69-2.27,17c2.12,4.42,11.18.36,11.81,2.88S89,216.18,89,216.18s-12,2.56-19.27,0-14.46-14.55-14.46-14.55a4.46,4.46,0,0,1,0-4.85c1.64-2.52-4.82-14.54-4.82-14.54l4.82-9.7,9.64-9.7-4.82-9.69S52.2,165.07,50.42,158a127.52,127.52,0,0,0-4.82-14.55v-9.7l4.82-9.69H45.6s-5.82-4.75-9.63,0S23.73,140.11,21.51,138.6s-14.45,4.85-14.45,4.85Z"/><path class="cls-2" d="M78,218.82a27.35,27.35,0,0,1-8.78-1.23c-7.63-2.67-14.73-14.32-15.23-15.16A5.94,5.94,0,0,1,54,196c.48-1.18-1.8-7.28-4.88-13l-.37-.69L54,171.65l9.06-9.1-3.23-6.49c-2,2.6-5.22,6.09-7.93,5.64-1-.17-2.32-.89-2.93-3.34A127.37,127.37,0,0,0,44.21,144l-.11-.27V133.4l3.9-7.84H45.07l-.41-.34s-2.53-2-4.94-1.75A3.74,3.74,0,0,0,37.14,125c-.45.56-1,1.21-1.53,1.93-8.28,10.51-12.2,14.67-14.88,13-1.29-.33-7.2,1.89-13,4.9l-1,.5L0,138.48l25.64-20.65.32-.08L44.8,113c6-6.56,8.46-9.09,9.73-9.87,4.51-6.52,7.68-9.51,10.26-9.67a25,25,0,0,0,13.65-4.56,26.53,26.53,0,0,1,6.94-3.2c4.36-1.54,7-2.61,6.91-5.22-.06-1.15-.22-3.11-.42-5.58C90,52,90.34,45.6,93.51,45a19.76,19.76,0,0,1,3.11-.21c1.87,0,4.19-.09,5-1a2.48,2.48,0,0,0,.33-2c-.59-4.48,2-9.28,3.67-12.45a20.76,20.76,0,0,0,1.13-2.3c0-.93.23-2.61,10.07-6L127.26,0l1.46,2s.72.88,4.66,4.67c3.76,3.61,19,21.48,19.7,25,.36,1.9,4.48,8.86,12.92,8.48,4.89-.22,9.64-3.85,13.1-6.5,3-2.31,5-3.83,6.8-3.1,2.75,1.12,19.77,5.69,23.15,4.8,2.69-.71,12.87-9.1,18.66-14.22l.76-.67L239,25.76l.15.7C241.43,37,242.62,39.9,244,43.29c.59,1.44,1.19,2.94,1.92,5.09a3,3,0,0,1-.49,3c-2.4,2.88-11.37,1.82-14.18,1.41-1-.06-15.11-.78-26.4,3.29-12.16,4.38-27.59,6.09-34.79,6.42-3.31.15-3.6.83-4.86,3.72a36.2,36.2,0,0,1-2.67,5.26c-5,8.06-10.29,19.5-11.29,24.47-1.14,5.67-3.41,8.72-6.57,12.92a37.07,37.07,0,0,1-7.35,7.44,15.9,15.9,0,0,0-3.72,3.69c-3.12,4.72-7.42,6.7-12.44,5.71a23.77,23.77,0,0,0-6.21-.44c.94,3.57,2.62,9.64,3.53,11.52,1.64,3.37,4,12,.68,17.13-1.84,2.85-4.74,3.43-7.07,3.9-2.16.43-3.41.73-4,1.94a16.36,16.36,0,0,1-2.59,4,32,32,0,0,0-3.32,4.75c-3.21,5.38-11.16,8.06-15.43,9.5-.84.29-1.57.54-2,.72-1.58,1-3,11.87-1.5,15,.71,1.49,3.09,1.45,6.11,1.23,2.58-.18,5.23-.37,5.8,1.93.66,2.65-3.1,14.7-4.74,19.75l-.27.82-.84.18A60,60,0,0,1,78,218.82ZM52.11,182.21c2.56,4.87,6.15,12.68,4.39,15.39a2.92,2.92,0,0,0,0,3.19c.12.19,7,11.61,13.71,14,5.76,2,14.84.62,17.63.11,2.23-7,4.41-14.91,4.43-17a16.71,16.71,0,0,0-2.69.06c-3.11.22-7.38.52-9-2.93-1.53-3.18-.94-11.81.62-15.92.64-1.67,1.43-2.69,2.43-3.11.55-.22,1.29-.47,2.23-.79,3.9-1.32,11.16-3.77,13.8-8.2a34.47,34.47,0,0,1,3.6-5.14,13.38,13.38,0,0,0,2.19-3.38c1.26-2.61,3.84-3.12,6.11-3.58s4-.79,5.12-2.57c2.44-3.81.65-11.12-.85-14.19s-4-13.29-4.16-13.73l-.37-1.46,1.46-.36a22.72,22.72,0,0,1,9,.21c3.77.75,6.92-.75,9.35-4.43a18.65,18.65,0,0,1,4.36-4.37,34.1,34.1,0,0,0,6.82-6.89c3.13-4.19,5-6.71,6-11.72,1.08-5.35,6.42-17,11.68-25.47a33.8,33.8,0,0,0,2.47-4.86c1.33-3.07,2.3-5.3,7.48-5.53,7-.32,22.08-2,33.9-6.24,12.26-4.42,27.05-3.5,27.68-3.46h.12c5.26.78,10.83.61,11.5-.35a1.12,1.12,0,0,1-.05-.15c-.7-2.08-1.29-3.53-1.86-4.93C239.81,41,238.6,38,236.4,27.8L228.93,24c-3.38,3-15.25,13.18-19.12,14.2-4.63,1.22-22.27-3.86-24.91-4.87-.69.13-2.58,1.58-4,2.65-3.79,2.9-9,6.86-14.8,7.11-9.85.44-15.37-7.53-16-10.92-.56-2.32-14-18.78-18.83-23.43-1.57-1.51-2.66-2.58-3.4-3.33l-9,18-.58.2c-3.53,1.22-7.68,3-8.65,3.82a12.21,12.21,0,0,1-1.46,3.31c-1.52,2.84-3.81,7.13-3.35,10.65a5.27,5.27,0,0,1-1,4.31c-1.67,1.94-4.61,2-7.2,2-.86,0-1.67,0-2.31.12-1.49,2.76-.06,20.12.49,26.75.21,2.5.37,4.48.43,5.69.24,5-4.63,6.68-8.92,8.19a24.38,24.38,0,0,0-6.15,2.79A28.33,28.33,0,0,1,65,96.47c-.55,0-2.75.76-8.2,8.71-.31.46-.82,1.2-1.56,1.25-1.64,1.57-5.27,5.41-8.5,8.94l-.3.33L27,120.58,4.48,138.73l2.87,2.89c5.56-2.83,12.2-5.62,14.74-4.41,2.1-.63,8.66-9,11.16-12.14l1.54-1.95a6.74,6.74,0,0,1,4.63-2.64,10.6,10.6,0,0,1,6.68,2.08h6.74L47.1,134.1v9.06a126.51,126.51,0,0,1,4.78,14.47c.21.87.48,1.1.52,1.11,1,.15,4.12-3,6.41-6.41l1.43-2.18,6.46,13L56.48,173.42ZM20.77,139.9Zm-.1-.05ZM106.75,27.18Z"/></g></g></svg>