<svg xmlns="http://www.w3.org/2000/svg" viewBox="0 0 167.56 180.3"><defs><style>.cls-1{fill:#448708;fill-rule:evenodd;}.cls-2{fill:#fff;}</style></defs><title>アセット 105</title><g id="レイヤー_2" data-name="レイヤー 2"><g id="レイヤー_1-2" data-name="レイヤー 1"><path class="cls-1" d="M2.22,76.64S.59,73.2,2.22,67,21.5,52.4,21.5,52.4,30.46,70.45,36,67,43.33,57,45.59,52.4s0-9.7,0-9.7l9.64-14.54s-1.78-1.65,0-4.85-1.74-6.06,9.63-9.69,15.28,3.63,19.28,0a95.67,95.67,0,0,0,9.63-9.7c2.61-3.15,15.81-3.3,19.28,0s12.57,9.17,14.45,4.85,3.18-2.13,4.82,0,3.42,14.54,4.82,19.39,5.06,8.53,9.64,14.54,2.79,14.8,9.63,14.56a10.57,10.57,0,0,1,9.64,4.84s-.1,7.23-1.34,10.79c-.93,2.66,1.72,4.45-8.84,3.92s-13.64-1.73-16.82.5S133.91,87.6,127.5,91.19s-10.71,6.66-11.15,10.69,2.86,6.08,1.52,8.7-5.53,6.53-5.05,10.69,3.65,6.81,5.05,8.71,1.14,18.9,0,24.24c-.42,1.93-15.23-.05-19.28-4.85s-8.82-8.58-9.64-4.85-14.84,1.85-19.27,9.7-16.23,21.29-14.45,24.24-4.82-14.54-4.82-14.54-6.17-11.6-4.82-14.55-4.82-4.85-4.82-4.85L36,139.67S39.18,132,40.77,130s5.78-10,9.64-9.7,2.6.14,9.63-4.84,8.58-3.35,9.64-9.7-4.82-14.55-4.82-14.55-5.92-3.59-9.63,0-9.64,9.7-9.64,9.7L36,91.19l-4.81-4.85s-10.31-7.08-9.64-4.85-4.82,4.85-4.82,4.85L7,91.19S.59,89,2.22,86.34,2.22,76.64,2.22,76.64Z"/><path class="cls-2" d="M55.48,180.3a1.84,1.84,0,0,1-1.54-1.06,3.07,3.07,0,0,1-.35-2c-.85-2.63-2.74-7.88-4.55-12.68-2-3.74-6.3-12.55-4.82-15.8a.41.41,0,0,0,0-.4c-.42-.93-2.58-2-3.91-2.38l-.36-.11L34.18,140l.39-.93c.34-.8,3.35-7.91,5-10,.28-.35.69-1,1.17-1.71,2.31-3.53,5.79-8.85,9.76-8.56,2.3.18,2.3.18,4.63-1.59.93-.72,2.21-1.69,4-3a50.27,50.27,0,0,1,5.16-3.2c2.75-1.53,3.24-1.8,3.86-5.52.85-5.06-3.42-11.75-4.37-13.16-1.06-.55-5.11-2.44-7.56-.06-3.65,3.53-9.55,9.6-9.6,9.66L45.6,103,30.17,87.5A74.19,74.19,0,0,0,22.84,83c-.89,2.31-4.28,4.11-5.52,4.69L7.15,92.82l-.6-.21c-.83-.29-5-1.85-5.91-4.37A3,3,0,0,1,1,85.55c.89-1.42.45-5.75-.16-8.45-.34-.85-1.58-4.56,0-10.53C2.54,59.83,19,51.92,20.86,51l1.33-.62.65,1.31c2.46,4.94,7.63,13.14,11.05,14.09a1.42,1.42,0,0,0,1.26-.14c4-2.56,6-7.05,7.76-11,.45-1,.88-2,1.33-2.92,1.92-3.89,0-8.39,0-8.43l-.33-.75.45-.68,9.09-13.72c-.55-1.1-1-3,.49-5.58a5,5,0,0,0,.49-1.92c.39-3.11,1.38-5.72,10-8.47a20.57,20.57,0,0,1,14.15.27c2.53.82,3.47,1,4.57,0A96.94,96.94,0,0,0,92.62,3C94.42.78,98.86.2,101.34.06c4.26-.26,10.16.32,12.74,2.77,2.84,2.7,8.8,6.45,11.31,5.92a.9.9,0,0,0,.74-.58c.63-1.46,1.58-3.17,3.22-3.37s2.79,1.25,3.85,2.64l.31.41c1.16,1.51,2.06,5.69,3.41,12.4.6,3,1.16,5.75,1.66,7.5,1,3.46,3.27,6.31,6.42,10.26.93,1.17,1.93,2.42,3,3.79a23.9,23.9,0,0,1,3.58,8.05c1.3,4.37,2,6,4.81,5.91a12,12,0,0,1,11,5.62l.19.34v.4c0,.31-.12,7.52-1.42,11.26a4.4,4.4,0,0,0-.19,1.16c-.26,3.42-2.25,4.16-10.14,3.76-2.92-.14-5.29-.34-7.2-.5-5.18-.43-6.91-.51-8.68.74-1,.7-2,2.45-3.15,4.31-1.92,3.25-4.32,7.29-8.54,9.65-6.14,3.44-10,6.24-10.38,9.54a7.28,7.28,0,0,0,.92,4c.68,1.53,1.45,3.26.43,5.25a22,22,0,0,1-1.77,2.69c-1.59,2.22-3.4,4.73-3.12,7.14.33,2.79,2.12,4.87,3.56,6.53.45.51.86,1,1.2,1.46,2,2.65,1.22,20.95.26,25.44a2.27,2.27,0,0,1-1.94,1.7c-3.86,1-16-1.25-20-5.9-3.74-4.43-6.23-5.82-6.91-5.82a1.33,1.33,0,0,0-.11.33c-.55,2.5-3.58,3.17-7.43,4-4.34.95-9.75,2.13-12,6.12-1.62,2.87-4.2,6.46-6.7,9.94-2.65,3.69-6.86,9.57-7.63,12,.72,2.6.3,2.81-.5,3.19A1.48,1.48,0,0,1,55.48,180.3Zm1.07-2.55Zm-15-34.54c1.24.42,4.4,1.69,5.39,3.9A3.38,3.38,0,0,1,47,150c-.55,1.21,1.68,7.39,4.78,13.22l.08.18c1.56,4.12,2.7,7.18,3.51,9.47a117,117,0,0,1,6.54-9.71c2.44-3.41,5-6.94,6.52-9.67,2.9-5.15,9.3-6.55,14-7.57,1.75-.38,5-1.09,5.14-1.71a3.08,3.08,0,0,1,2.26-2.6c2.9-.71,7,3.3,10,6.8,3.25,3.86,14.3,5.48,16.76,5,1.09-6,1-20.8.13-22.55-.24-.32-.61-.74-1-1.22-1.63-1.88-3.85-4.44-4.28-8.15s1.85-6.72,3.67-9.24a21.11,21.11,0,0,0,1.53-2.31c.34-.65.13-1.25-.5-2.66a10.16,10.16,0,0,1-1.17-5.52c.5-4.6,4.75-7.83,11.91-11.84,3.51-2,5.59-5.47,7.42-8.56,1.33-2.24,2.47-4.17,4-5.24,2.76-1.93,5.4-1.71,10.66-1.27,1.89.16,4.23.35,7.1.5,5.75.29,6.76-.21,6.93-.37s.05-.39.07-.63a7.07,7.07,0,0,1,.35-1.92c1-2.8,1.2-8.29,1.24-9.87a9.14,9.14,0,0,0-8.07-3.76c-5.36.17-6.65-4.19-7.8-8.06a21.1,21.1,0,0,0-3.09-7.09c-1-1.35-2-2.58-2.93-3.73-3.23-4.06-5.79-7.26-7-11.3-.53-1.86-1.11-4.72-1.72-7.74-.81-4-2-10.09-2.85-11.16l-.32-.42a12.71,12.71,0,0,0-1.12-1.36,6.06,6.06,0,0,0-.81,1.47A3.86,3.86,0,0,1,126,11.69c-4.27.87-11.39-4.22-14-6.68-1.45-1.39-6-2.24-10.49-2-3.69.22-6,1.08-6.59,1.83a99.6,99.6,0,0,1-9.78,9.85c-2.45,2.22-4.91,1.42-7.52.58a17.71,17.71,0,0,0-12.31-.26c-7.48,2.39-7.7,4.13-7.93,6a7.8,7.8,0,0,1-.85,3c-1.13,2-.35,3-.26,3.06l.94.86-.74,1-9.22,13.9c.6,1.76,1.69,6.09-.33,10.17-.43.88-.84,1.83-1.28,2.81-1.91,4.36-4.09,9.29-8.89,12.35a4.43,4.43,0,0,1-3.67.49c-5-1.38-10.32-10.69-12.26-14.32-6.6,3.27-16.16,9.14-17.16,12.94C2.22,72.88,3.57,76,3.58,76l.1.29c.3,1.29,1.69,7.84-.19,10.84,0,.54,1.58,1.66,3.47,2.42L16,85c2-1,4-2.5,4.05-3.12a1.76,1.76,0,0,1,.62-2c.76-.55,1.81-1.32,11.32,5.2l.21.18L45.58,98.75c1.88-1.93,5.86-6,8.6-8.64,4.5-4.34,11.18-.37,11.46-.2l.26.16.18.25c.26.35,6.23,8.77,5.08,15.67-.82,4.94-2.16,5.86-5.36,7.64a47.46,47.46,0,0,0-4.89,3c-1.77,1.26-3,2.21-3.95,2.91-3,2.26-3.32,2.46-6.66,2.21-2.18-.2-5.59,5-7,7.2-.54.82-1,1.46-1.31,1.92-1.06,1.35-3.14,5.92-4.23,8.43Z"/></g></g></svg>