<svg xmlns="http://www.w3.org/2000/svg" viewBox="0 0 203.64 246.69"><defs><style>.cls-1{fill:#448708;fill-rule:evenodd;}.cls-2{fill:#fff;}</style></defs><title>アセット 126</title><g id="レイヤー_2" data-name="レイヤー 2"><g id="レイヤー_1-2" data-name="レイヤー 1"><path class="cls-1" d="M195.32,181.62c5.51,8.28,9.58,11.35,4.47,14.94s-5.38,5.95-7.83,8.69c-3.42,3.81-5.48,11.07-6.19,15.95-.73,5.05-1.34,3-7.91,5.76-10.2,4.35-7.28,3-14.54,2.42-4.56-.4-2.66-4-11.73-3.72S135,234.79,132,232s-4.43-4.82-9.3-11.22-9-18.13-14.46-19.4-21.55,2.21-25.89,4.8c-4.83,2.88-10.46-.35-12.67,4.9-2,4.66-12.87,7.3-11.17,13.95,4,15.34-3.28,20-3.28,20a43,43,0,0,1-9.65-4.85,39.32,39.32,0,0,1-9.64-9.7s-7.47-8.67-9.63-4.84-9.64,9.69-9.64,9.69S8.39,221.1,11.82,216s10.55-9.75,9.63-14.55,1.29-8.88-.1-12-5.1-3.34-4.71-7.41a9.9,9.9,0,0,0-1.89-6.8s-6.26-4-7.75-7.74-4.82-14.55-4.82-14.55-2.41-7.31,1.87-11.55c1.86-1.85,3-3,7.77-7.84,5.76-5.8,5.22-7.69,15.38-6.49s10.31,3.06,16.7.7c5.18-1.92,7-2.89,16.11-3.91s12.68-1.55,14.46-4.84,7-4.51,4.82-9.7-9.64-14.55-9.64-14.55S60,89.9,62.09,89,58.32,75.94,60,75.36s5.74-2,5.74-2,5.25-9.62,3.9-12.53,4.82-24.24,4.82-24.24L88.93,22a63,63,0,0,0,9.64,9.69c3.4,2.78,3.62,11.1,9.64,4.85s6.7-6.32,9.64-14.54c3.86-10.79,7-16.88,9.64-19.4s14.46,0,14.46,0,11.48,1.55,19.28,4.85,9.6,3.73,14.46,4.85,16.2-1.44,16.2-1.44L201,28.7l-3.48,6s-4.89.72-4.75,6.54,0,7.07-3.67,12.75c-3.44,5.33-6.08,13.14-3.77,16.54s8.44,8.64,8.44,8.64L190.15,89.9s-1.73,4.27-9.64,9.69-18.27,7.67-18.27,7.67l-1,6.89c-1,6.88.92,11.53,4.82,14.54s7.43,3.93,9.64,9.7,2.16,7.91,8.08,12.84c8.45,7,2.41,14.62,2.41,14.62s-6.46,7.14-.83,9.61Z"/><path class="cls-2" d="M55.42,246.69l-.66-.21a44,44,0,0,1-10-5,40.38,40.38,0,0,1-10-10c-2.3-2.65-5.61-5.37-6.89-5.24-.07,0-.14,0-.25.22-2.29,4-9.7,9.88-10,10.13L16.2,237.6l-.86-1.5c-.89-1.54-8.6-15.22-4.77-21A42.12,42.12,0,0,1,15,209.86c2.79-3,5.42-5.75,5-8.17a20.9,20.9,0,0,1,.08-6.87c.25-1.91.47-3.55-.08-4.77a6.61,6.61,0,0,0-2-2.24c-1.42-1.21-3.18-2.7-2.88-5.93a8.58,8.58,0,0,0-1.43-5.54c-1.32-.87-6.6-4.51-8.11-8.31S.88,153.81.75,153.37-1.89,145.15,3,140.32c.9-.89,1.61-1.62,2.65-2.67l5.11-5.17c.95-.95,1.72-1.8,2.41-2.55,3.79-4.15,5.41-5.41,14.22-4.37,3.42.41,5.78.9,7.51,1.26,3.45.71,4.61,1,8.49-.48l1.58-.59c4.08-1.54,6.54-2.47,14.88-3.4,9.43-1,12-1.59,13.31-4.07a12.34,12.34,0,0,1,2.79-3.18c2-1.84,3-2.82,2-5.22-1.87-4.48-8-12.42-9.23-13.94-8.46-4.29-8.41-5.86-8.38-6.62a1.81,1.81,0,0,1,.75-1.42A30.65,30.65,0,0,0,59.59,82c-1.39-4.55-2.24-7.29-.07-8l5.19-1.82c2.2-4.17,4.16-9.42,3.58-10.67-1.43-3.09,2.84-18.72,4.74-25.3l.1-.37,16-16,1,1.39a62.46,62.46,0,0,0,9.39,9.44,12.91,12.91,0,0,1,2.89,4c.63,1.18,1.41,2.65,2,2.73.2,0,1,0,2.69-1.81l1.77-1.82c4.35-4.46,5-5.15,7.54-12.19,3.87-10.8,7-17.15,10-20s12.73-1,15.75-.39c1,.14,11.91,1.7,19.6,4.95s9.56,3.7,14.22,4.77c3.72.85,12.47-.75,15.53-1.44l1.13-.26,10,19.57-4.26,7.31-.71.11c-.36.06-3.58.73-3.47,5,.15,6.17-.13,7.73-3.91,13.6-3.67,5.69-5.41,12.51-3.79,14.88,2.18,3.2,8.12,8.3,8.18,8.35l.77.66-4,11.71c-.11.28-2,4.84-10.21,10.45-6.68,4.6-14.92,6.94-17.78,7.65l-.87,5.88c-.87,6,.52,10.26,4.26,13.14.9.7,1.8,1.29,2.68,1.86,2.88,1.89,5.59,3.67,7.44,8.49.38,1,.69,1.84,1,2.64,1.37,3.82,2.05,5.74,6.67,9.59,9.47,7.89,2.69,16.62,2.62,16.71-1.29,1.44-3.12,4.24-2.76,5.92.08.37.31.92,1.36,1.38l.19.1,10.25,6.33.18.27c1.06,1.59,2.07,3,3,4.24,2.69,3.74,4.47,6.21,4,8.81a6.18,6.18,0,0,1-2.91,3.95,18.35,18.35,0,0,0-5.52,5.7,23.15,23.15,0,0,1-2.06,2.76c-3,3.33-5.08,10-5.83,15.16-.57,4-1.39,4.63-4.36,5.42a30.87,30.87,0,0,0-4.44,1.51c-7.81,3.33-8.28,3.53-11.72,3-.87-.14-1.94-.31-3.54-.45a6.91,6.91,0,0,1-4.31-1.89c-1.15-1-2.34-2-7.24-1.82-4.24.13-8.3,2.41-11.56,4.24-3.67,2-6.83,3.82-9.12,1.73-2.7-2.44-4.12-4.32-7.55-8.86l-1.93-2.55a71.86,71.86,0,0,1-4.92-8c-2.69-4.78-5.74-10.2-8.69-10.89-4.81-1.1-20.58,2.13-24.79,4.62a14.38,14.38,0,0,1-6.77,1.69c-2.93.19-4.38.38-5.27,2.52s-3.23,3.84-5.66,5.55c-3.76,2.66-6.17,4.61-5.45,7.44,4.17,16.2-3.59,21.41-3.92,21.62ZM27.88,223.18c3.43,0,7.86,4.82,9.17,6.34l.1.15c0,.05,4,5.9,9.21,9.27a45.7,45.7,0,0,0,8.54,4.41C56.33,242,60,237.09,57,225.44c-1.3-5.05,3.09-8.15,6.62-10.64,2-1.39,4-2.84,4.62-4.27,1.65-3.93,4.94-4.15,7.83-4.35a11.72,11.72,0,0,0,5.45-1.26c4.48-2.67,21-6.36,27-5,4.24,1,7.34,6.5,10.62,12.34a70.12,70.12,0,0,0,4.7,7.61l1.94,2.56c3.31,4.38,4.68,6.19,7.17,8.46.69.63,3.43-.91,5.63-2.14,3.55-2,8-4.46,12.94-4.62,5.57-.19,7.5,1,9.26,2.52a4,4,0,0,0,2.64,1.21c1.7.14,2.89.33,3.75.47,2.59.41,2.59.41,10.07-2.78a33.35,33.35,0,0,1,4.85-1.64c1.81-.49,1.81-.49,2.16-3,.76-5.18,2.92-12.68,6.57-16.74a20.75,20.75,0,0,0,1.8-2.42,21.52,21.52,0,0,1,6.28-6.48c1-.73,1.58-1.38,1.68-2,.23-1.36-1.42-3.66-3.51-6.56-.86-1.19-1.82-2.53-2.84-4.05l-9.61-5.94a4.88,4.88,0,0,1-3-3.46c-.8-3.7,3-8,3.4-8.48s4.81-6.58-2.25-12.47c-5.25-4.37-6.13-6.82-7.57-10.88-.28-.78-.58-1.63-1-2.57-1.5-3.92-3.61-5.3-6.29-7.06-.92-.6-1.87-1.22-2.86-2-4.61-3.56-6.42-8.93-5.39-15.95l1.16-7.92,1-.22c.1,0,10.18-2.23,17.73-7.43,7-4.79,8.91-8.61,9.09-9L192,79.62c-1.75-1.55-6-5.45-7.94-8.27-3-4.42.59-13.3,3.75-18.19,3.45-5.36,3.57-6.28,3.43-11.91-.12-5,3.07-7.25,5.28-7.89l2.74-4.71-8.21-16c-3.07.62-11.48,2.16-15.72,1.19-4.84-1.11-6.65-1.53-14.71-4.92-7.53-3.19-18.79-4.74-18.9-4.75l-.11,0c-5.33-1.14-11.87-1.56-13.11-.38-2.55,2.42-5.66,8.75-9.27,18.81-2.74,7.66-3.68,8.62-8.21,13.27l-1.76,1.81c-2,2.07-3.67,2.92-5.26,2.7C101.9,40,100.81,38,99.77,36a10.68,10.68,0,0,0-2.15-3.14,69,69,0,0,1-8.81-8.62l-13,13.08C73,47.06,70.42,58.45,71,60.21c1.54,3.3-2.63,11.44-4,13.85l-.27.5-.55.19s-3.11,1.11-5,1.77a39.16,39.16,0,0,0,1.23,4.58c1.17,3.82,2.09,6.81,1.26,8.37a44.92,44.92,0,0,0,6.61,3.94l.29.15.21.25c.31.39,7.62,9.58,9.85,14.91,1.87,4.47-.79,6.86-2.73,8.61a9.66,9.66,0,0,0-2.16,2.38c-2.24,4.13-6.71,4.63-15.62,5.62-8,.89-10.16,1.72-14.15,3.23l-1.6.59c-4.69,1.74-6.51,1.36-10.14.61-1.77-.37-4-.83-7.26-1.22-7.69-.91-8.37-.17-11.65,3.42-.7.77-1.5,1.64-2.49,2.63l-5.1,5.16c-1,1.07-1.77,1.8-2.68,2.7-3.55,3.52-1.52,10-1.49,10s3.33,10.78,4.78,14.47c1.08,2.72,5.54,6,7.16,7l.2.12.15.18a11.36,11.36,0,0,1,2.23,7.9c-.15,1.6.45,2.19,1.83,3.36a9.2,9.2,0,0,1,2.75,3.3c.91,2,.62,4.13.33,6.39a18,18,0,0,0-.11,5.92c.75,3.93-2.54,7.42-5.73,10.79a38.58,38.58,0,0,0-4.13,4.87c-1.92,2.88,1.17,10.91,4,16.26,2.5-2.09,6.52-5.73,7.89-8.13a3.27,3.27,0,0,1,2.57-1.72ZM61.5,87.64h0Z"/></g></g></svg>