<svg xmlns="http://www.w3.org/2000/svg" viewBox="0 0 904.72 858.43"><defs><style>.cls-1{fill:#448708;fill-rule:evenodd;}.cls-2{fill:#fff;}</style></defs><title>アセット 144</title><g id="レイヤー_2" data-name="レイヤー 2"><g id="レイヤー_1-2" data-name="レイヤー 1"><path class="cls-1" d="M40.11,783.88s12.29-20.75,14.45-29.09,6.9-18.81,0-24.24S45.65,726.72,35.3,716s-10.94-7.71-14.46-14.55S12.11,692,6.39,691.76s-4.83-19.39-4.83-19.39,8-5.58,9.64-14.55,0-58.18,0-58.18,7.61-4,14.45-4.85,19.28,0,19.28,0l9.63-14.54s10.08-14.79,14.46-9.7a13,13,0,0,0,9.64,4.85l14.45-29.09s13.74-6,14.46-9.7,0-14.54,0-14.54-14.46-13-14.46-19.39-9.63-29.09-9.63-29.09,6.6-11.64,9.63-9.7,19.28,0,19.28,0l19.27,19.39s5.3,9.94,14.46,14.54S179.85,493,179.85,493s14.59-1.26,19.27,4.84,22.3,6.06,24.09,0,20.62-31.31,24.1-33.93,4.81-29.09,4.81-29.09-10.36-18.52-9.63-24.25-9.64-29.09-9.64-29.09,11-16.38,14.46-19.39,28.9-14.54,28.9-14.54,11.38-25.46,9.64-29.09-9.45-54.79-4.81-58.18,12.18-15.56,14.45-19.4,4.81-38.78,4.81-38.78V158.44S283.45,116,276.21,100.26s-9-21.09-9.63-29.09S281,42.08,281,42.08l4.81-24.24,9.64,4.85h19.27L324.39,3.3s10.07,19.15,14.47,24.24S360.44,45,367.76,51.78s33.93,54.2,43.37,67.88,19,31.9,24.09,38.78,44.87,54.55,53,58.18,38.55,33.94,38.55,33.94,36.28,12.66,38.55,19.39,19.62,10.14,19.27,14.55,4.83,14.55,4.83,14.55l24.08,4.84s6.07,4.32,9.64,0,14.46-9.69,14.46-9.69l14.45,9.69-4.81,14.55s13.06,15.37,14.45,9.7,9.63-24.25,9.63-24.25,12.92,20.8,14.46,24.25,28,16.48,33.73,14.54,28.91-4.85,28.91-4.85l33.73-33.94s24.77-11.05,24.09-14.54,28.91-29.09,28.91-29.09,7.37,4.51,4.82,9.69-19.27,38.79-19.27,38.79l-9.64,29.09-19.27,29.09,4.81,14.54,14.46,19.4,9.64,9.69,14.45,9.7-19.27,4.85,4.82,19.39L825.52,459l9.63,14.55,9.64,4.84,28.91-24.24h24.09l4.82,9.7-28.91,9.7-9.64,24.23s-21.1,3.6-33.73,4.86a137.37,137.37,0,0,0-24.09,4.84l-9.64,14.55s-24.33,12.12-28.91,14.54-14.45-9.69-14.45-9.69-14-1.9-9.64,9.69,6.22,7.81,0,9.7-37.05,7.27-48.18,0S681,531.77,681,531.77s-28.38,6-33.72,9.69-34.36,27.59-43.37,33.94S538.58,647.93,536.41,653s-4.82,38.79-4.82,38.79V725.7l-14.45,9.69v14.55s-43.66-40.05-43.51-43.15S426,694.52,409.92,680.9s-34.3-22.3-42.16-27.93S334,638.43,334,638.43L314.76,619s-34.35-9.55-38.55-9.69-25.34,10.91-33.72,14.54-30.26,12.32-33.73,19.4-19.28,19.39-19.28,19.39l-4.81,9.7A87.47,87.47,0,0,0,170.2,653c-8.86-8.68-10.93-14.83-14.45-19.39S146.12,619,146.12,619s-21-3.87-24.1,0-14.45-4.84-14.45-4.84L83.48,643.28s-8.68,20.55-4.82,29.09,9.88,12,14.45,19.39,15.81,12.51,19.28,14.54,15.37,6.16,19.27,4.85,24.09,9.7,24.09,9.7,9.69,11.63,14.45,19.39,14.47,14.55,14.47,14.55l19.27,9.69s9.25,22.26,0,24.25-22.79,14.35-28.91,9.69S146.12,779,146.12,779l-9.64-9.7L122,783.88s-20.82,19.78-24.09,19.39,6.84,19.88,4.82,24.24S69,846.9,69,846.9l-9.64,9.7-19.27-9.7S30,832.31,30.48,827.51s-3.53-22.35,0-24.24S40.11,783.88,40.11,783.88Z"/><path class="cls-2" d="M59.68,858.43,39.09,848.07l-.21-.31c-1.75-2.51-10.45-15.31-9.89-20.41a52,52,0,0,0-.61-8.16c-1.12-9.66-1.59-15.65,1.39-17.24,1.85-1,6.07-10.41,8.92-18.57l.13-.27c.12-.2,12.21-20.66,14.29-28.7.36-1.36.76-2.73,1.2-4.19,2.12-7.16,4.32-14.57-.67-18.5a41.28,41.28,0,0,0-6-3.9C44.39,726,41,724.06,34.22,717a69.9,69.9,0,0,0-9.06-8.14,15.76,15.76,0,0,1-5.65-6.76c-2.93-5.69-7.37-8.68-13.18-8.88a4.22,4.22,0,0,1-3-1.44c-3.91-4.24-3.38-18-3.31-19.53l0-.74.61-.42c.07,0,7.56-5.35,9-13.57,1.55-8.72,0-57.38,0-57.87l0-.94.83-.44c.32-.17,7.94-4.11,15-5,5.93-.75,15.72-.24,18.7-.06l9.15-13.82C54.1,578.27,61,568.3,66.49,568a4.35,4.35,0,0,1,3.66,1.58,12,12,0,0,0,7.61,4.28L92,545.15l.5-.22c6.29-2.75,13.25-6.86,13.59-8.61.53-2.69.21-10.19,0-13.55-2.8-2.58-14.5-13.73-14.5-20.09,0-5-6.87-22.26-9.52-28.51l-.28-.68.36-.64c.91-1.61,5.64-9.65,9.37-10.58a3,3,0,0,1,2.38.35c1.6,1,10.74.68,18.29-.22l.72-.09,19.95,20.07.11.19c0,.1,5.2,9.59,13.8,13.92,7,3.53,25.85-2.35,32.52-4.91l.2-.08.21,0c.63-.06,15.47-1.25,20.59,5.43,2.6,3.4,10.5,4.63,16,3.63,3-.56,5.09-1.74,5.5-3.14,1.89-6.4,20.74-31.78,24.63-34.71,1.78-1.44,3.56-15.33,4.2-27.54-1.76-3.18-10.33-19-9.6-24.78.49-3.89-5.42-19.06-9.52-28.3l-.33-.75.46-.69c.45-.68,11.13-16.59,14.71-19.69,3.37-2.91,24.46-12.59,28.75-14.54,5.15-11.59,10.16-25.19,9.42-27.33-1-2.16-3.43-16.57-4.92-29.64-3.17-27.63-.45-29.63.58-30.38,4-2.91,10.69-13.28,14.05-19,1.52-2.57,3.63-24.69,4.6-38.08V158.73c-1.44-3.63-17.12-42.95-23.95-57.84-7.31-15.93-9.13-21.46-9.77-29.6s12.29-26.63,14.55-29.81l5.13-25.86,11.09,5.57h18L324.36,0l1.36,2.6c.1.19,10,19.06,14.27,24,2.37,2.75,8.94,8,15.28,13,5.05,4,10.26,8.12,13.51,11.14,4.71,4.36,16.29,23.58,27.49,42.17,6.45,10.7,12.54,20.81,16.1,26,5.12,7.43,10.23,16.08,14.73,23.71,3.78,6.41,7,11.94,9.33,15,5.17,7,44.83,54.32,52.41,57.7,8,3.58,35.65,30.93,38.75,34,6.86,2.4,36.81,13.26,39.15,20.21,1,3,6.3,5.55,10.56,7.63,5.05,2.46,9,4.41,8.79,7.52s2.8,10,4.34,13.1l23.68,4.77.26.18c.2.14,5,3.45,7.61.27,3.73-4.51,14.5-9.86,14.95-10.09l.78-.38,16.12,10.81-4.9,14.83c4.65,5.35,9.72,9.77,11.27,9.79a1,1,0,0,0,0-.12c1.42-5.74,9.38-23.73,9.72-24.5l1.15-2.59,1.5,2.41c.53.85,13,20.93,14.54,24.42C688.71,330.37,714,343,719,341.26c5.39-1.83,25.15-4.4,28.69-4.85l33.56-33.77.26-.12c10.42-4.65,22.13-10.92,23.2-13.08-.2-1.22.24-3.54,14.68-17,7.25-6.78,14.68-13.21,14.75-13.28l.83-.71.94.57c.34.21,8.49,5.29,5.38,11.63-2.46,5-18.24,36.71-19.23,38.7l-9.67,29.18-.11.17-18.87,28.48L798,380.76l14.25,19.12,9.45,9.51,17.14,11.49-21.1,5.31,4.45,17.89,4.74,14.3,9.3,14,8.4,4.23,28.57-24h25.57l6,12.07-29.89,10-9.69,24.37-.83.14c-.21,0-21.3,3.62-33.83,4.87a137.3,137.3,0,0,0-23.29,4.63l-9.56,14.43-.36.18c-.24.12-24.37,12.14-28.87,14.53-5.08,2.69-13.46-6.65-15.93-9.6-2-.15-5.93,0-7.5,1.94-1,1.22-1,3.18,0,5.8a48,48,0,0,0,3.34,7.24c.6,1,1,1.81.58,2.71a2.37,2.37,0,0,1-2.09,1.11,17.27,17.27,0,0,0-2.8.6c-5.92,1.81-37.69,7.5-49.44-.18-9-5.85-13-11.73-14.42-14.09-8.54,1.85-28.1,6.47-32.09,9.23-2.4,1.64-9.91,7.65-17.85,14-9.64,7.71-20.57,16.44-25.51,19.93-8.77,6.18-64.83,72-66.94,76.94-1.7,3.94-4,28.88-4.7,38.24V726.5l-14.45,9.69v17.16L516.12,751c-.11-.1-11.05-10.14-21.83-20.43-18.89-18-21.72-21.86-22.11-23.29-1.46-1-8.17-3-14.66-5-15.23-4.6-38.23-11.55-48.57-20.3-10.68-9.1-22.6-16.09-31.3-21.19-4.36-2.56-8.13-4.77-10.76-6.66-7.58-5.43-33.08-14.25-33.34-14.34l-.33-.12L314,620.37c-13.76-3.82-34.9-9.43-37.82-9.53-2.58-.12-14.83,5.79-23,9.68-3.91,1.87-7.61,3.65-10.13,4.74l-2.9,1.24c-8.82,3.75-27.19,11.57-30.08,17.44-3.37,6.86-17.23,18-19.42,19.7l-6,12-1.36-2.61a86.63,86.63,0,0,0-14.19-19,68.15,68.15,0,0,1-11.53-14.88,49.21,49.21,0,0,0-3.06-4.67c-3.07-4-8-11.9-9.37-14.11-9.51-1.7-20.45-2.33-22-.41-3.37,4.17-11.89-1.24-15.37-3.74l-23,27.82c-2.38,5.73-7.65,21.26-4.74,27.69,2.11,4.67,4.89,7.73,7.83,11A55.1,55.1,0,0,1,94.39,691c3.65,5.91,12,10.41,16.54,12.82.9.49,1.66.89,2.22,1.22,3.67,2.15,14.87,5.78,18,4.72,4.19-1.41,20.41,7.15,25.28,9.8l.25.14.18.22c.4.48,9.81,11.81,14.58,19.57,4.32,7,13,13.36,14,14l19.67,9.89.21.52c.69,1.66,6.64,16.39,3.13,23.08a6,6,0,0,1-4.2,3.2c-3.32.72-7.45,3-11.44,5.16-7.27,4-14.14,7.73-18.69,4.27-6-4.57-28.59-19.18-28.82-19.33l-.25-.2-8.57-8.63-13.4,13.48c-7.35,7-19.67,18.23-24.3,19.67a59.66,59.66,0,0,0,2.37,8.1c2.57,7.64,4.16,12.85,3,15.43-2.07,4.46-26.39,16.29-34.21,20ZM41.12,845.74l18,9,9-9.11.23-.11c15.35-7.28,31.9-16.25,33-18.67.79-1.69-1.64-8.91-3.08-13.22-2.46-7.29-3.15-9.77-2-11.17a1.93,1.93,0,0,1,1.72-.72c2.25-.38,13.64-10.11,23-19l15.49-15.59,10.59,10.66c2.07,1.34,23,14.87,28.86,19.37,3,2.28,9.33-1.17,15.44-4.52,4.18-2.28,8.5-4.64,12.25-5.45a3,3,0,0,0,2.17-1.66c2.33-4.45-1.22-15.5-3-20l-19-9.55c-.4-.29-10-7.06-14.87-15-4.3-7-12.8-17.37-14.15-19-9.38-5.1-20.63-10.13-22.64-9.45-4.65,1.55-17.21-3-20.51-5-.54-.31-1.26-.7-2.12-1.16-4.75-2.55-13.6-7.3-17.67-13.9a53.15,53.15,0,0,0-6.2-7.8c-3-3.27-6-6.65-8.35-11.76-4.07-9,4.44-29.42,4.8-30.29l.09-.2.14-.17,25-30.21,1.14.89c4.81,3.7,11.07,6.7,12.37,5.09,3.44-4.24,20.42-1.48,25.54-.53l.66.12.35.57c.06.1,6.11,10,9.54,14.41a52.52,52.52,0,0,1,3.25,5,65.39,65.39,0,0,0,11.06,14.28,87.13,87.13,0,0,1,13.33,17.27l3.71-7.47.27-.21c.16-.12,15.57-12.19,18.85-18.88,3.11-6.34,17.94-13.07,31.6-18.87l2.88-1.24c2.47-1.06,6.14-2.83,10-4.69,12.31-5.91,21.27-10.07,24.34-10,4.26.14,35.37,8.76,38.9,9.75l.39.1,19.31,19.43c3.18,1.11,26.23,9.23,33.78,14.63,2.52,1.81,6.23,4,10.53,6.51,8.8,5.16,20.85,12.22,31.72,21.5,9.86,8.34,32.51,15.18,47.49,19.71,14,4.22,16.63,5.17,16.74,7.14,1.55,3.33,24.61,25.25,40.52,39.91V734.59l14.45-9.69V691.64c.27-3.48,2.73-34.14,4.93-39.26,2.46-5.72,58.91-71.82,68-78.21,4.87-3.42,15.76-12.13,25.36-19.81,8.34-6.67,15.54-12.43,18-14.14,5.52-3.8,33.09-9.67,34.26-9.92l1.18-.25.5,1.09c0,.07,3.34,7,13.91,13.91s41.46,1.49,46.93-.18a19.78,19.78,0,0,1,2.3-.55,52.85,52.85,0,0,1-3.27-7.18c-1.39-3.68-1.25-6.62.43-8.73,3.15-4,10.5-3,10.81-3l.59.08.37.46c3.82,4.68,10.32,10.52,12.59,9.32,4.29-2.28,25.44-12.82,28.59-14.39l9.71-14.65.51-.16a136.34,136.34,0,0,1,24.38-4.91c11-1.1,28.77-4,32.8-4.69l9.58-24.11L900.5,463l-3.64-7.32H874.24L845,480.22l-10.87-5.47-10-15.05-4.91-14.84L814.06,424l17.46-4.39-11.89-8-9.77-9.85-14.6-19.59-5.12-15.47,19.56-29.53,9.65-29.1c.17-.33,16.76-33.65,19.28-38.78,1.45-3-1.74-5.89-3.38-7.13-13.13,11.41-26.72,24.38-27.51,27.07.23,1.64-.83,3.86-12.6,10-5.38,2.82-10.89,5.33-12.12,5.89l-33.9,34.11-.51.06c-.23,0-23.1,2.91-28.62,4.78-4,1.35-14-2.75-19.54-5.31-1.49-.68-14.57-6.75-16-10-1.07-2.38-8.19-14.08-12.86-21.64-2.3,5.3-7.36,17.16-8.4,21.39a2.87,2.87,0,0,1-2.15,2.31c-3.93.93-11.73-7.66-14.91-11.4l-.54-.64,4.72-14.27-12.78-8.56c-2.5,1.29-10.4,5.53-13.19,8.91-3.41,4.12-8.78,2.19-11.39.45l-24.5-4.93-.33-.64c-.55-1.08-5.35-10.65-5-15.35.08-1.07-4.6-3.36-7.11-4.58-5-2.45-10.7-5.23-12.09-9.37s-22.84-13.3-37.62-18.45l-.32-.11-.24-.24c-10.46-10.42-31.87-30.85-38.11-33.64-8.67-3.87-49.34-52.86-53.6-58.66-2.37-3.23-5.67-8.82-9.49-15.29-4.48-7.59-9.55-16.19-14.62-23.53-3.61-5.22-9.72-15.37-16.2-26.11-10.58-17.56-22.56-37.45-27-41.52-3.17-2.94-8.33-7-13.33-11-6.75-5.35-13.13-10.41-15.69-13.37-3.51-4.07-10.35-16.5-13.28-21.95l-8.75,17.62H295.13l-8.19-4.12-4.5,22.62-.18.27c-4.11,5.74-14.66,22-14.19,28.1.61,7.79,2.3,12.86,9.51,28.58s23.95,57.82,24.12,58.25l.1.27v44c-.43,5.89-2.69,35.5-5,39.44-1,1.61-9.5,15.9-14.86,19.84-.83.91-1.66,7.91.69,28.17,1.62,14,3.91,26.71,4.59,28.16,1.84,3.84-6.11,22.5-9.62,30.34l-.23.52-.52.24c-7,3.18-25.83,12-28.54,14.31s-10.39,13.46-13.73,18.41c2,4.55,10.12,23.57,9.41,29.12-.48,3.82,5.55,16.33,9.46,23.33l.21.37,0,.43c-.33,6.38-1.67,27.4-5.41,30.21-3.36,2.54-21.86,27.41-23.56,33.17-.76,2.58-3.55,4.44-7.84,5.24-6.56,1.21-15.42-.23-18.88-4.75s-13.75-4.6-17.75-4.29c-2.58,1-25.45,9.39-34.74,4.72-8.85-4.46-14.15-13.48-15-15l-18.61-18.73c-4.62.53-16.48,1.64-19.53-.31h0c-1.1,0-4.48,4-7.13,8.54,1.65,3.95,9.46,23,9.46,29,0,4.14,8.57,13.4,14,18.27l.45.41,0,.61c0,.45.74,11.1,0,14.93s-11,8.84-14.82,10.56l-14.61,29.4-.88,0c-.25,0-6,.21-10.85-5.37a1.38,1.38,0,0,0-1.22-.54c-3,.17-8.25,6.29-10.86,10.1L45.7,596.35l-.87-.06c-.13,0-12.37-.85-19,0-5.21.67-11,3.26-13.11,4.28.22,7.13,1.44,49.1-.06,57.52C11.25,666.17,5,671.58,3,673.14c-.18,5.47.33,14.25,2.55,16.65a1.18,1.18,0,0,0,.86.47c7,.24,12.27,3.78,15.73,10.51a12.93,12.93,0,0,0,4.8,5.74A73.38,73.38,0,0,1,36.38,715c6.47,6.7,9.53,8.42,12.76,10.25a43.29,43.29,0,0,1,6.35,4.16c6.59,5.19,4,14,1.69,21.7-.42,1.43-.82,2.78-1.16,4.1-2.13,8.19-13.41,27.41-14.55,29.34-1.54,4.4-6.58,18.09-10.28,20.08-1.37,1-.29,10.29.17,14.26a50.06,50.06,0,0,1,.61,8.82C31.64,830.71,37.32,840.22,41.12,845.74Zm57-44Zm-.11,0Zm377.14-95v.05A.09.09,0,0,0,475.13,706.79Zm0-.27h0ZM807.72,289.06h0Z"/></g></g></svg>