<svg xmlns="http://www.w3.org/2000/svg" viewBox="0 0 207.1 328.27"><defs><style>.cls-1{fill:#448708;fill-rule:evenodd;}.cls-2{fill:#fff;}</style></defs><title>アセット 142</title><g id="レイヤー_2" data-name="レイヤー 2"><g id="レイヤー_1-2" data-name="レイヤー 1"><path class="cls-1" d="M138.13,288.14l-14.45-4.84-4.82,24.24s-10.71,15.79-11.5,16c-2.48.57-13.54-1.78-16-2.6s-15.91,6-15.91,6c.45-.35-2.66-4.31-3.49-6.33-4-9.7-8.78-18.42-8.78-18.42a37.8,37.8,0,0,0-7,.51c-4.26.55-16.86,1.6-19.28,0s-9.63-9.7-9.63-9.7l-4.82-4.85-3.44-3.46-1.37-15.93-4.82-9.69S17,244.44,15.43,241.2L12.86,230,3.22,215.42s-2.56-7.07-1.43-13.94c.76-4.53,4.69-16.62,4.69-16.62s0-12.25,1.56-13.07,9.64-9.7,9.64-9.7l3.7-12.76a22,22,0,0,1-3.7-11.48c-.2-9.09,3.06-13.28,4.81-19.4,1.34-4.65,3.91-7.28,3.91-10.53s.91-4,.68-12.28c-.14-5.11,1-9.53-.37-15-.53-2.2.09-9.37,1.68-9.37S30.45,59.9,30.45,59.9a30,30,0,0,0,1.68-9.32c0-2.91,4.81-4.85,4.81-4.85l19.28-4.85S77.09,38.46,75.5,36,96,23.28,96,23.28l13.75-4.8,20.2-4.06,13-2.63,9.64-9.7s26.51,25.07,24.09,29.09,2.42,17,0,19.4-2.4,21.82,0,19.39,0,4.85,0,4.85,9.64,14.54,14.45,24.24S196,138.67,196,147.54s5.63,15.37,4.82,19.39,4.82,16.15,4.82,14.55-1.6,0-4.82,4.85-6.41,12.12-4.82,14.55-.82,5.67-4.83,9.69-5.63,11.3-4.81,14.55,4,8.09,4.81,9.69,1.6,4.85-4.81,9.7-4,11.3-4.82,14.55,5.64,9.69,0,9.69-8.05,3.25-9.63,4.85.81,11.3-4.83,9.7-13.63-.83-14.45,4.84-9.64,9.7-9.64,9.7Z"/><path class="cls-2" d="M76.17,328.27l-1.6-2.52a1.32,1.32,0,0,0-.49,1.32,21.31,21.31,0,0,0-1.33-2.22,25.59,25.59,0,0,1-2.13-3.68c-3.25-7.88-7.05-15.18-8.29-17.5a51.46,51.46,0,0,0-5.91.51c-.17,0-16.79,2.09-20.31-.24-2.49-1.66-9.16-9.11-9.91-9.95l-8.6-8.64-1.39-16.19-5-10,.16-.56c1.93-6.76,3.5-15.1,2.67-16.78l-.11-.33-2.52-11L1.81,215.93c-.11-.3-2.68-7.52-1.5-14.69C1,196.94,4.42,186.36,5,184.62c0-12.93,1.65-13.79,2.36-14.16.89-.5,5.31-5.07,9-9.12l3.41-11.76a23.57,23.57,0,0,1-3.56-11.7C16,131.18,17.68,127,19.27,123a52.34,52.34,0,0,0,1.78-5,30.25,30.25,0,0,1,2.25-5.42c.89-1.8,1.6-3.22,1.6-4.7a21.64,21.64,0,0,1,.28-3.25,46,46,0,0,0,.4-9c0-1.8.05-3.5.15-5.15a30.71,30.71,0,0,0-.47-9.5c-.52-2.09-.2-8.3,1.37-10.29a2.35,2.35,0,0,1,1.07-.81c.56-1.33,1.08-6.1,1.25-10.09V59.6l.08-.23a28.46,28.46,0,0,0,1.59-8.79c0-3.81,5.16-6,5.75-6.24l.2-.07,19.47-4.88c7.28-.85,15.74-2.35,17.87-3.46a2.39,2.39,0,0,1,.08-.79c.92-3.25,13.76-9.67,21.33-13.22l.14-.05,14-4.86,32.79-6.6L152.56,0l1.06,1c.07.07,6.73,6.38,13,13.11C178.43,26.73,179.05,30.15,178,32c-.95,1.59-.29,6,.23,9.54.71,4.7,1.26,8.41-.46,10.13-1.3,1.49-1.84,12.73-1,16.48a1.69,1.69,0,0,1,1.58.12c.67.41,1.66,1,0,6.37,1.88,2.86,9.91,15.25,14.15,23.79,5,10,5,39.47,5,49.15,0,4.57,1.58,8.45,3,11.87,1.22,3,2.27,5.56,1.81,7.82s2.23,9.46,3.66,12.26a1.92,1.92,0,0,1,1.19,2,1.61,1.61,0,0,1-.88,1.49l-.84.41-.41-.3a45,45,0,0,0-2.94,4.08c-3.71,5.56-5.67,11.6-4.82,12.89,2.38,3.64-1.34,7.88-5,11.58s-5.12,10.34-4.43,13.12c.57,2.24,2.45,5.46,3.69,7.6.44.75.8,1.37,1,1.78,1.87,3.63.11,7.53-5.25,11.58-4.09,3.1-4.05,6.84-4,10.14a15,15,0,0,1-.24,3.57c-.2.76.56,2.45,1.11,3.69,1,2.12,1.84,4.12.81,5.72a3.76,3.76,0,0,1-3.38,1.42c-4.41,0-6.5,2.22-8,3.84l-.54.56a15.2,15.2,0,0,0-.27,2.69c-.15,2.61-.31,5.56-2.26,7a4.27,4.27,0,0,1-3.77.44c-3.91-1.11-8.28-.83-10.62.69a4,4,0,0,0-1.93,2.93c-.93,6.41-10.11,10.67-10.51,10.85l-1.32.6-5.18-10.44-12.25-4.11-4.55,22.87-.17.25c-11,16.29-11.71,16.44-12.41,16.6-3,.68-14.54-1.89-16.77-2.65C89.49,322.11,82.15,325.24,76.17,328.27ZM62.55,300.66a7.49,7.49,0,0,1,.83,0l.79.08.38.69c0,.09,4.86,8.9,8.85,18.57a25.39,25.39,0,0,0,1.87,3.2c.39.6.74,1.14,1,1.63,5.35-2.65,13.22-6.19,15.6-5.37,2.63.9,12.24,2.81,14.81,2.61,1.38-1.56,6.92-9.52,10.75-15.15l5.09-25.62,16.66,5.59,4.42,8.9c2.69-1.49,7-4.54,7.49-7.89a7.07,7.07,0,0,1,3.26-5c3.54-2.29,9.12-2.18,13.08-1.06a1.53,1.53,0,0,0,1.21,0c.78-.55.91-3,1-4.67.11-2.06.2-3.69,1.14-4.64.16-.15.32-.33.49-.51a13,13,0,0,1,10.21-4.78,2.82,2.82,0,0,0,.84-.09,11,11,0,0,0-1-2.83c-.85-1.9-1.73-3.88-1.28-5.64a12.78,12.78,0,0,0,.15-2.81c0-3.41-.09-8.56,5.22-12.57,4-3,5.49-5.66,4.38-7.81-.19-.38-.53-.95-.93-1.64-1.33-2.28-3.33-5.73-4-8.38-.9-3.57.64-11.37,5.2-16,4.07-4.1,5.5-6.51,4.63-7.82-2.34-3.57,2.14-12.16,4.83-16.2a38.69,38.69,0,0,1,3.62-4.88c-1.87-3.66-4.49-10.81-3.84-14,.28-1.37-.62-3.55-1.65-6.09-1.43-3.49-3.2-7.84-3.2-13,0-25.5-1.57-41.59-4.67-47.81-4.72-9.5-14.26-23.94-14.36-24.08L175,75l.23-.69c.3-.92.57-1.89.76-2.69a1.92,1.92,0,0,1-1.09-.56c-2.44-2.42-1.91-19,.69-21.58.64-.75,0-5-.38-7.58-.69-4.58-1.33-8.91.1-11.43.13-2.78-11.45-15.55-22.72-26.32l-8.93,9-33.58,6.76L96.53,24.67c-8.46,4-18,9.19-19.52,11.12a1.87,1.87,0,0,1-.12,1.35c-.93,2-7.79,3.75-20.39,5.22l-19.09,4.8c-1.55.65-3.78,2.16-3.78,3.42a31.6,31.6,0,0,1-1.69,9.61c-.47,11-2,12.41-3.08,12.59a18,18,0,0,0-.69,7.54,33.25,33.25,0,0,1,.55,10.38c-.09,1.59-.19,3.23-.14,4.89a48.85,48.85,0,0,1-.43,9.5,18.28,18.28,0,0,0-.25,2.83c0,2.18-.93,4-1.92,6a27.37,27.37,0,0,0-2.05,4.91,54.22,54.22,0,0,1-1.87,5.24c-1.55,3.92-3,7.61-2.89,13.7a20.65,20.65,0,0,0,3.42,10.63l.43.6-4,13.8-.23.25c-1.85,2-7.83,8.56-9.82,9.88-.61,1.23-1,7-1,11.88v.24l-.07.23c0,.12-3.91,12-4.64,16.41-1,5.83,1,12,1.31,13l9.68,14.62,2.6,11.35c1.45,3.53-1.28,14.15-2.4,18.19l4.69,9.43L20.5,284l7.88,7.93c2,2.27,7.56,8.27,9.4,9.5,1.55,1,12,.57,18.25-.24A53.89,53.89,0,0,1,62.55,300.66ZM175.62,68.91ZM76.75,35.21Zm98.64-4.79Z"/></g></g></svg>