<svg xmlns="http://www.w3.org/2000/svg" viewBox="0 0 158.98 289.1"><defs><style>.cls-1{fill:#448708;fill-rule:evenodd;}.cls-2{fill:#fff;}</style></defs><title>アセット 122</title><g id="レイヤー_2" data-name="レイヤー 2"><g id="レイヤー_1-2" data-name="レイヤー 1"><path class="cls-1" d="M113.21,75.33s-10.12,11.74-9.64,14.55,1.78,12.12,0,14.54-2.4,8.53,0,9.69,3.57,2.52,9.64,9.7,6.8,3.4,14.46,9.7,11,9.65,14.46,9.7,15.91,1.21,14.46,4.85,2.61,4.65,0,9.69-11.71,11.78-9.63,14.54.57,10.09,0,9.7-6.13-2.76-9.64-4.85-13.6-8.38-14.46-4.85-12.15,10.62-19.29,14.55-11.61.39-19.27,4.85-14,5.72-14.46,9.7-5.39,8.53-4.81,9.69.19,12.61,0,14.55.48,14.89-4.82,14.55-14.12,1.2-14.46,4.84-6.74,8.19-9.64,14.55-3.32,12.75-4.81,14.54,0,9.7,0,9.7-8.5,3.74-9.64,3.79c-2.26.1,1.8-6.16-6.09-14.12-9.12-9.21-12.29-7.4-13.19-9.07-2-3.76.05-6,0-9.69S9.87,241.65,12,240.18c4.67-3.19,3,1.36,9.64-4.86,5.52-5.16,5.44-9.73,9.64-9.69s10.12-2.47,9.63-4.85-8.38-22-4.82-24.24,11.13-7.9,9.64-9.7a32.44,32.44,0,0,1-4.82-9.7c-1.25-4-4.32-10.86-4.82-14.54s-.89-11.42,1.66-10.31,19.21.18,17.62-4.23,3.13-6.94,0-9.7-14.06-8-16-9.08c-2.7-1.57-10-.76-8.11-5.47,6.77-16.54,2.09-15.16,4.81-14.54-2.11-.48-9.45-7-8.59-8.65,1-2-1.73-6.34-1-10.74,1-6.47,8.69-11.63,10.24-12.32,4-1.82,9.52-2.24,12.44-4.26,1.13-.77-2.95-7.32,14.71-3.07,6.63,1.58,18.62-16.92,18.62-16.92s2.8-4.77,2.73-7.9c-.12-5,2.1-10.31,2.19-13.36s1.23-15.29,1.71-14.9-1.52-3.92-3.69-4.4S95.93,1.68,95.93,1.68l2.82.93,11.3,12.12s1.9.12,8.49,5.45c7.73,6.26,7.89,7.44,7.89,7.44s4.76,6.84,6.07,8.92,0,9.71,0,9.71-7.62,5.8-9.64,4.84-3.43,2.23-4.83,4.84S113.21,75.33,113.21,75.33Z"/><path class="cls-2" d="M21.6,289.1a2.09,2.09,0,0,1-1.47-.56c-.76-.71-.78-1.7-.81-3,0-2.36-.12-6.31-4.81-11.05-5.95-6-9.19-7.1-10.92-7.69a3.88,3.88,0,0,1-2.53-1.71C-.5,262.21,0,259.94.44,257.94a12.87,12.87,0,0,0,.44-3.2c-.05-4.5,8-14.21,10.3-15.8,2.17-1.48,3.31-1.58,4.48-1.56.77,0,1.57,0,5-3.15a28.18,28.18,0,0,0,4.48-5.59c1.56-2.42,2.91-4.51,6.12-4.51h.19c3.73,0,7.91-2.12,8-3.09-.08-.38-.57-1.82-1.1-3.35-4.44-13-6.24-20.37-3-22.41,4.28-2.75,8.52-6.37,9.08-7.74a34.69,34.69,0,0,1-4.89-9.95c-.42-1.33-1.06-3-1.74-4.82-1.37-3.63-2.79-7.39-3.13-10-.49-3.63-1-10,1.25-11.64a2.41,2.41,0,0,1,2.49-.24c1.43.63,10.66.4,14.55-1.49.95-.46,1.08-.8,1.08-.8a8.34,8.34,0,0,1,.46-6.31c.69-1.75.74-2.12-.06-2.83-2.21-2-9.11-5.48-12.81-7.38-1.41-.71-2.42-1.23-2.93-1.53a12.21,12.21,0,0,0-3-.84c-2.35-.47-4.78-1-5.8-2.85a4.17,4.17,0,0,1,0-3.65c3.37-8.24,3.87-11.93,3.8-13.51-2.74-1.77-6.45-5.34-7.41-7.42a2.62,2.62,0,0,1-.11-2.38c.23-.43-.17-2-.46-3.16A17.86,17.86,0,0,1,25,89.65c1.08-6.92,9-12.5,11.11-13.46a38.12,38.12,0,0,1,6.08-1.93,24.21,24.21,0,0,0,5.75-2v-.09a4.52,4.52,0,0,1,1.68-3.7c1.42-1.06,4.48-2.19,14.61.25,3.87.92,12.27-9,17-16.27.68-1.17,2.54-4.85,2.49-7a34.92,34.92,0,0,1,1.35-9.05,24.47,24.47,0,0,0,.84-4.4c0-1.57.35-5.26.69-8.59A43.86,43.86,0,0,1,87.52,17c-.49-1-1.64-2.56-2.41-2.73a1.79,1.79,0,0,1-1.38-1.32C83.52,12,83.13,10.43,95,.53L95.6,0l4,1.3,11.27,12.09c1.15.37,3.67,1.61,8.63,5.62,6.3,5.11,7.86,7,8.27,7.89.71,1,4.8,6.9,6,8.85,1.48,2.38.53,8.83.2,10.75l-.1.58-.47.36c-3.8,2.9-8.83,6.13-11.19,5-.67,0-1.9,2.39-2.43,3.4l-.42.8c-1,1.77-3.37,12.59-4.68,19l-.08.38-.25.3c-4.5,5.22-9.31,11.83-9.29,13.36.49,2.87,2,12.6-.28,15.64a9.49,9.49,0,0,0-1.12,6.42,1.6,1.6,0,0,0,.56,1c2.73,1.32,4,2.83,10.14,10.08,3.06,3.62,4.52,4.18,6.54,5a24,24,0,0,1,7.72,4.56q1.92,1.58,3.49,2.9c4.95,4.15,7.68,6.43,10,6.46.13,0,13,.33,15.54,4.13a2.89,2.89,0,0,1,.29,2.77,3.23,3.23,0,0,0,.26,2.75,7.45,7.45,0,0,1-.32,7.08,36.18,36.18,0,0,1-5.27,6.75c-1.67,1.85-4.78,5.28-4.5,6.21,2.34,3.11,1.25,10.31,0,11.58a1.58,1.58,0,0,1-2.07.26c-.16-.1-1-.5-1.85-.89-2.13-1-5.34-2.5-7.72-3.92l-.8-.47c-8.43-5-10.8-5.38-11.46-5.22-1.36,4.84-15.63,13-20,15.41a20.38,20.38,0,0,1-9.78,2.4c-3,.16-5.81.32-9.46,2.44-2.49,1.45-4.82,2.55-6.87,3.53-3.86,1.83-6.64,3.15-6.85,5-.28,2.62-2.07,5.2-3.51,7.27a19.27,19.27,0,0,0-1.31,2c.7,3,0,14.8,0,14.92s0,.74,0,1.37c-.1,5.54-.55,11-3.14,13.38a4.27,4.27,0,0,1-3.22,1.15c-5.71-.38-12.68,1.51-12.87,3.48-.21,2.33-2.13,4.62-4.36,7.27a35.21,35.21,0,0,0-5.4,7.76,52.13,52.13,0,0,0-2.95,9.15c-.67,2.68-1.16,4.62-2.08,5.73-.53.74-.38,4.77.32,8.46L33,284.7l-1.09.48c-4,1.76-9,3.87-10.18,3.92Zm-6.22-48.72a4.14,4.14,0,0,0-2.51,1c-2.17,1.48-9,10.41-9,13.28a16.17,16.17,0,0,1-.51,3.89c-.41,1.85-.7,3.18.33,5.12l.85.29c2,.67,5.64,1.91,12.09,8.42,5.54,5.59,5.63,10.48,5.68,13.1,0,.12,0,.24,0,.36,1.43-.5,4.45-1.75,7.28-3-.48-3-1-7.92.53-9.75.49-.58,1-2.59,1.48-4.53a55,55,0,0,1,3.13-9.68,37.73,37.73,0,0,1,5.83-8.44c1.83-2.17,3.55-4.22,3.68-5.62.47-5.09,10.68-6.55,16-6.2a1.22,1.22,0,0,0,1-.36c2-1.84,2.13-8.66,2.17-11.23,0-.74,0-1.3.06-1.61.21-2.13.49-12.32.11-13.81-.57-1.27.35-2.59,1.72-4.56,1.24-1.79,2.79-4,3-5.88.39-3.55,4-5.26,8.54-7.42,2-.95,4.27-2,6.65-3.42a21.66,21.66,0,0,1,10.81-2.84c2.75-.15,5.35-.29,8.5-2,10-5.51,18-11.35,18.55-13.58A2.75,2.75,0,0,1,123,170c2.57-1.08,7.36,1.26,14.26,5.37l.79.47c2.25,1.34,5.39,2.81,7.46,3.78l.67.32c.37-1.88.6-5.35-.46-6.76-2-2.65,1.1-6.06,4.68-10a34.36,34.36,0,0,0,4.83-6.12,4.53,4.53,0,0,0,.19-4.59,6.1,6.1,0,0,1-.25-5c-.55-1.32-8-2.73-13.09-2.79-3.43-.05-6.44-2.57-11.92-7.15-1.05-.88-2.2-1.85-3.47-2.89a21.28,21.28,0,0,0-6.89-4.08c-2.25-.86-4.2-1.6-7.76-5.81-6-7.1-7.06-8.3-9.15-9.32a4.19,4.19,0,0,1-2.17-3,12.32,12.32,0,0,1,1.61-8.92c1-1.4.68-7.91-.27-13.4-.51-3,5.76-10.85,9.73-15.48.6-2.93,3.51-16.83,4.89-19.42l.41-.78c1.36-2.6,3.22-6.15,6.31-4.75,1,.06,4.46-1.9,7.68-4.29.51-3.3.67-7.17.11-8.07-1.26-2-6-8.79-6-8.86l-.22-.39c-.31-.43-1.72-2.15-7.39-6.74-5.44-4.41-7.45-5.06-7.73-5.13l-.51,0L97.91,3.91l-1.66-.54a90.46,90.46,0,0,0-9.08,8.56,10.05,10.05,0,0,1,3.5,4.94l.16,1-.54.35C89.83,20.5,89,29.34,88.91,32.1a26.43,26.43,0,0,1-.92,5,32.51,32.51,0,0,0-1.27,8.27c.08,3.45-2.63,8.17-2.94,8.69-2.13,3.3-13,19.37-20.26,17.62-9-2.16-11.46-1.26-12.11-.77-.39.29-.44.66-.48,1.45A2.55,2.55,0,0,1,50,74.54c-1.86,1.28-4.4,1.93-7.1,2.62a35.87,35.87,0,0,0-5.59,1.77c-1.67.75-8.51,5.64-9.37,11.18A15.35,15.35,0,0,0,28.64,96c.48,1.91.91,3.59.35,5,.6,1.67,6.06,6.47,7.46,6.79h0l-.56,2.46.16-.1a1.45,1.45,0,0,0,.6-1.27c.38,2.94-1,8.13-4,15.48a1.49,1.49,0,0,0-.15,1.09c.35.65,2.39,1.06,3.74,1.33A13.29,13.29,0,0,1,40.16,128c.45.25,1.48.78,2.79,1.45,5.54,2.83,11.13,5.76,13.43,7.8s1.54,4.47.88,6.17a5.43,5.43,0,0,0-.46,4.14,3.18,3.18,0,0,1-.94,3.51c-3.34,3.11-15,3.65-18.27,2.75-.42,1.17-.52,4.65,0,8.59.3,2.24,1.72,6,3,9.31.69,1.83,1.35,3.57,1.79,5a31.46,31.46,0,0,0,4.54,9.19,2.42,2.42,0,0,1,.51,1.94c-.55,3.53-9.47,9.33-10.49,10-.71.8-.58,4.75,4.28,18.92.71,2.07,1.08,3.18,1.2,3.75a3.27,3.27,0,0,1-.82,2.81c-1.92,2.32-6.78,3.85-10.17,3.85h-.18c-1.5,0-2.1.82-3.61,3.14a29.9,29.9,0,0,1-4.94,6.14c-4,3.76-5.4,4-7.09,4Zm48.29-28.65h0Zm2.7-1.32s0,.07,0,.11A.76.76,0,0,0,66.37,210.41ZM88.17,18.32l0,0ZM90,16l0,0Z"/></g></g></svg>