<svg xmlns="http://www.w3.org/2000/svg" viewBox="0 0 100.92 168.95"><defs><style>.cls-1{fill:#448708;fill-rule:evenodd;}.cls-2{fill:#fff;}</style></defs><title>アセット 119</title><g id="レイヤー_2" data-name="レイヤー 2"><g id="レイヤー_1-2" data-name="レイヤー 1"><path class="cls-1" d="M21.31,48.9s.34-2.42.68-5.92c.43-5.37.72-13.23-.68-18.32C19,16.27,20.57,6.92,20.57,6.92l.74-6.5s3.56,12.36,11.52,16.41c10.32,5.25,9.65,2.75,14.87.54A63.71,63.71,0,0,1,58.26,14s11-.77,12.28,2,1.31,2.78,2.26,3.84c4.25,4.73,6.34,4.81,6.34,4.81L74.66,42.1s.71.78,4.89,1.68c8.19,1.75,19.79,11.27,19.79,11.27l-.93,8.4s-2,4.64-9.64,4.85c-6.61.17-9.92-3.69-9.63,4.84s3.2,11.83,3.25,15,5,12.13,5,12.13,2,3.5-.92,6-8.55,4.42-8.26,9S83.84,133,84,136.17c.15,4.24-10.28.69-13.38,6.26C66,150.56,58.84,155,55,155.57c-3.34.54-8.88,11.8-8.88,11.8l-24.85-2.11s-7.8-1.69-9.63-4.85S8.45,151.49,6.86,141s-7.1-22-4.82-24.24c5-5,5.65-10,9.2-10.88,9.16-2.33,14.89-3.67,14.89-3.67S15.82,86.77,16.49,82.84s1.94-8.31,1.94-8.31S21.9,70,22.66,66.94,21.31,48.9,21.31,48.9Z"/><path class="cls-2" d="M47.05,169,21,166.73c-.86-.19-8.51-1.94-10.61-5.56-1.91-3.28-3.36-9-5-19.92a99.7,99.7,0,0,0-3.14-12.69C.3,122-1,117.69,1,115.72a31.2,31.2,0,0,0,4.48-6c1.53-2.48,2.84-4.62,5.41-5.27,5.88-1.5,10.38-2.59,12.84-3.18-3.22-5-9.32-15-8.7-18.68.69-4,1.92-8.29,2-8.47l.07-.27.17-.23c.92-1.2,3.41-4.82,4-7.05.48-1.91-.59-11.73-1.38-17.46l0-.21,0-.2s.33-2.44.67-5.87c.43-5.45.68-13-.63-17.77-2.38-8.62-.84-18-.78-18.39L19.82.25,22.75,0c0,.12,3.49,11.79,10.76,15.49C41,19.3,41.89,18.78,44.34,17.4A25.12,25.12,0,0,1,47.12,16,64.45,64.45,0,0,1,58,12.5l.2,0c3.61-.25,12.17-.47,13.75,2.9,1.21,2.59,1.21,2.59,2,3.48,3.33,3.71,5.12,4.26,5.35,4.32l1.78.06L76.4,41.34a22.65,22.65,0,0,0,3.47,1c8.44,1.81,19.94,11.18,20.42,11.57l.63.52-1,9.44-.09.21c-.1.22-2.49,5.51-11,5.75a24,24,0,0,1-5.06-.47c-1.06-.17-2.36-.39-2.64-.15s-.58.76-.48,3.91a31.29,31.29,0,0,0,2.15,10.52,14.4,14.4,0,0,1,1.11,4.53c0,2.06,3,8.09,4.84,11.41a6.24,6.24,0,0,1-1.26,7.89,25.06,25.06,0,0,1-2.8,2c-3,1.92-5.08,3.46-4.94,5.77s1.73,7.13,3.13,11.45c1.57,4.84,2.54,7.89,2.59,9.48.12,3.41-3.47,3.81-6.35,4.13s-6,.67-7.22,2.92c-4.45,8-11.87,13.11-16.59,13.89-1.38.22-5,5.35-7.79,11Zm-25.51-5.17,23.73,2c1.79-3.5,6.07-11.15,9.54-11.7S65,149.3,69.26,141.7c2-3.6,6.34-4.08,9.51-4.44,2.1-.23,3.71-.46,3.69-1,0-1.26-1.32-5.19-2.45-8.66-1.53-4.71-3.1-9.58-3.27-12.19-.27-4.25,3.37-6.6,6.3-8.48a23.85,23.85,0,0,0,2.48-1.73,3.31,3.31,0,0,0,.6-4.14c-.53-1-5.18-9.35-5.23-12.83A12.22,12.22,0,0,0,80,84.62a34.23,34.23,0,0,1-2.31-11.43c-.12-3.42.31-5.23,1.5-6.27,1.34-1.18,3.09-.88,5.1-.54a22.86,22.86,0,0,0,4.49.42c5.8-.16,7.81-3.06,8.22-3.78l.81-7.32c-2.5-2-11.84-9-18.52-10.45-3-.65-5-1.41-5.7-2.15L73,42.5l4.34-16.88a20.32,20.32,0,0,1-5.66-4.76c-1.1-1.23-1.17-1.4-2.49-4.21-.56-.95-5.75-1.53-10.72-1.19a62.1,62.1,0,0,0-10.18,3.3A23.64,23.64,0,0,0,45.81,20c-3.52,2-5.48,2.32-13.66-1.85-4.81-2.45-8.08-7.57-10-11.61l-.06.54c0,.17-1.5,9.21.7,17.17,1.43,5.21,1.18,13.12.73,18.84-.29,2.93-.58,5.14-.66,5.8.41,3,2,15.44,1.29,18.41s-3.58,6.89-4.32,7.9c-.28,1-1.27,4.62-1.83,7.89-.35,2.06,4.61,11.1,9.41,18.3l1.2,1.8-2.11.49s-5.82,1.37-14.86,3.67c-1.33.34-2.15,1.58-3.59,3.93a33.73,33.73,0,0,1-4.92,6.55c-.63.94.9,6.1,2,9.87A99.77,99.77,0,0,1,8.34,140.8c1.57,10.33,2.95,16,4.63,18.86C14.05,161.51,18.76,163.16,21.54,163.78Z"/></g></g></svg>