<svg xmlns="http://www.w3.org/2000/svg" viewBox="0 0 181.63 173.4"><defs><style>.cls-1{fill:#448708;fill-rule:evenodd;}.cls-2{fill:#fff;}</style></defs><title>アセット 104</title><g id="レイヤー_2" data-name="レイヤー 2"><g id="レイヤー_1-2" data-name="レイヤー 1"><path class="cls-1" d="M83.68,25.86s19-5.77,19.28-9.7S109.08.21,112.59,1.61s13.5,6.93,14.46,9.7,4.1,10.66,4.82,14.55-1.64,11.39,0,14.54,7.51,11.2,0,14.54a83.54,83.54,0,0,1-14.46,4.86s-1,4.75-4.82,4.85S99,77.05,103,79.19,117.41,84,117.41,84l14.46-4.84A44.85,44.85,0,0,0,136.69,84c2.31,1.9,7.8,2.72,9.63,0s.48-13,4.82-9.69,9.45,7.8,9.64,9.69-9.4,8.73-9.64,14.55-1.11,7.14,4.82,9.69,7.85-3.92,9.64,4.86-3.61,8.34,0,14.54,6.5,12.75,9.64,14.54,3.75,2.38,4.81,4.85-6.6,12.8-9.64,14.54a66.32,66.32,0,0,1-8.16,4.2c-3.47,1.5-9,.49-11.11-2.37s-3.72-7.18-6-6.18c-2.8,1.19-13.25,9.21-13.25,9.21s-16.48,2.34-24.09,4.85c-5.21,1.7-5-.35-8.21-4.72-1.31-1.78-6.11-11.82-6.25-9.83s-9.64,9.7-9.64,9.7-7.71-2-9.63-4.86-1.1.3-4.82-9.69c-4.22-11.31-7.83-8.08-9.64-19.4C57.76,121,62.4,118,54.77,108.27,50.56,102.92,49.27,94.51,47,94c-3.21-.78-16.35-.25-16.35-.25s-5.29-8.42-4.81-1.44,4.81,20.84,4.81,20.84,7.9,1,5.4,2.82-16.69,15.48-19.86,11.72-9.63-14.54-9.63-14.54V88.89S.13,83.5,1.77,79.19,7.08,66.54,7.08,66.54,1,60.66,9.61,54.39c11-8.06,3.79-1.45,11.79-9.06,4.92-4.67,7.47-11,10.46-10.39s18.1.61,18.1.61L53.15,34l1.62-13H74.05Z"/><path class="cls-2" d="M104.82,173.4c-2.39,0-3.46-1.43-4.92-3.68-.43-.66-.92-1.41-1.53-2.24S97,165.17,96,163.31c-.66-1.21-1.59-2.93-2.33-4.16-1.88,2.45-5.68,5.77-9,8.47l-.59.48-.73-.19c-.85-.22-8.33-2.22-10.51-5.47a7.4,7.4,0,0,0-.94-1.18c-.94-1-1.34-1.58-4-8.83a25.8,25.8,0,0,0-5-8.68c-2-2.36-3.67-4.4-4.72-11a42.88,42.88,0,0,1-.36-10c.25-4.64.42-7.7-4.16-13.52a37.7,37.7,0,0,1-4.85-9.39c-.67-1.68-1.58-4-2.13-4.39-2.57-.58-12.3-.33-15.87-.19l-.87,0-.46-.74a20.69,20.69,0,0,0-2.06-2.75c0,.12,0,.26,0,.41.39,5.71,3.51,16.41,4.47,19.58,5.61.85,6,2.43,6.16,3a2.24,2.24,0,0,1-1,2.43c-.41.3-1.28,1-2.28,1.91-6.52,5.61-13.22,11-17.24,10.74a3.37,3.37,0,0,1-2.37-1.17C12,124.93,5.57,114.35,5.3,113.9l-.21-.35v-24C3.36,88-1.34,83.16.37,78.66c1.34-3.54,4-9.62,5-11.87a8.74,8.74,0,0,1-1.8-5.73c.2-2.86,2-5.51,5.19-7.88,5.09-3.73,6.37-4.38,7-4.73.41-.21.41-.21,2.57-2.27l2-1.93A44.59,44.59,0,0,0,25,38.71c2.34-3.13,4.37-5.82,7.13-5.24,2.26.47,13,.58,17.45.58l2.15-1,1.68-13.51h21l9.42,4.74c9.06-2.81,17.24-6.6,17.65-8.22.24-3.38,4.37-12.84,8.37-15.34a3.54,3.54,0,0,1,3.31-.47c2.39,1,14,6.77,15.32,10.6.21.61.54,1.49.92,2.52,1.34,3.63,3.37,9.11,4,12.24a25,25,0,0,1-.2,6.87c-.31,2.75-.66,5.88.06,7.26.19.36.43.78.7,1.26,1.64,2.86,4.12,7.18,2.87,11a7.32,7.32,0,0,1-4.29,4.34,86.94,86.94,0,0,1-13.87,4.75c-.58,1.68-2.19,5-6,5.09-1.89,0-8,6.4-9,10.52-.1.39-.19,1.08,0,1.2,3.31,1.79,11.7,4.07,13.69,4.6l15-5,.66.78a44.83,44.83,0,0,0,4.63,4.65,7.87,7.87,0,0,0,5.45,1.34,2.86,2.86,0,0,0,2-1c.46-.68.71-2.64.91-4.21.37-3,.73-5.78,2.67-6.59a3.34,3.34,0,0,1,3.39.75c3.7,2.81,9.94,7.93,10.22,10.73.14,1.4-1.11,2.74-3.37,5.16-2.59,2.77-6.13,6.55-6.26,9.6,0,.68-.06,1.3-.1,1.87-.24,4.11-.26,4.54,4,6.39a6.26,6.26,0,0,0,4.47.21,4.29,4.29,0,0,1,3.49.21c1.19.76,1.91,2.31,2.56,5.51a14,14,0,0,1-.68,8.87c-.67,1.74-1,2.62.5,5.22.89,1.52,1.73,3.06,2.55,4.54,2.33,4.27,4.54,8.31,6.54,9.45,3.24,1.86,4.2,2.65,5.45,5.56,1.65,3.84-7.55,14.88-10.27,16.44a71.14,71.14,0,0,1-8.31,4.27c-3.82,1.65-10.3.76-12.93-2.87-.56-.77-1.08-1.63-1.58-2.45-.68-1.12-2.11-3.48-2.63-3.23-2.16.92-10.06,6.82-12.93,9l-.31.24-.39.05c-.16,0-16.43,2.36-23.84,4.79A11.23,11.23,0,0,1,104.82,173.4ZM93.54,155c1.27,0,2.15,1.52,5.06,6.89.88,1.61,1.79,3.28,2.18,3.82.67.9,1.18,1.69,1.63,2.39,1.68,2.59,1.82,2.8,4.9,1.79,7.09-2.33,21.36-4.47,24-4.85,2-1.51,10.55-8,13.26-9.16,2.91-1.25,4.83,1.9,6.37,4.43.47.77,1,1.57,1.45,2.25,1.58,2.19,6.37,3.15,9.31,1.87a67.25,67.25,0,0,0,8-4.12c2.81-1.61,9.28-10.77,9-12.72-.85-2-1.14-2.33-4.16-4.07-2.74-1.56-5-5.75-7.69-10.61-.8-1.47-1.63-3-2.5-4.48-2.24-3.83-1.46-5.85-.71-7.8a11,11,0,0,0,.54-7.19c-.66-3.25-1.22-3.57-1.24-3.59a4.78,4.78,0,0,0-1.18.19,9.28,9.28,0,0,1-6.35-.38c-6-2.58-6.09-4.6-5.81-9.32,0-.55.07-1.15.1-1.81.17-4.16,4.15-8.42,7.06-11.53A24.31,24.31,0,0,0,159.24,84c-.42-1-3.34-4.2-9-8.5a2.85,2.85,0,0,0-.44-.28,16.58,16.58,0,0,0-.84,4.11c-.28,2.18-.54,4.24-1.39,5.5a5.64,5.64,0,0,1-4,2.31,10.84,10.84,0,0,1-7.79-2,41.2,41.2,0,0,1-4.34-4.26L117.47,85.6l-.43-.11c-.44-.12-10.73-2.78-14.79-5-.7-.38-2.24-1.57-1.53-4.54,1.15-4.8,8-12.73,11.84-12.82,2.59-.07,3.35-3.51,3.38-3.66l.2-1,1-.21a82.3,82.3,0,0,0,14.17-4.76A4.41,4.41,0,0,0,133.92,51c.83-2.55-1.33-6.32-2.62-8.58-.3-.52-.56-1-.76-1.37-1.14-2.19-.77-5.49-.38-9a23.81,23.81,0,0,0,.23-6c-.53-2.88-2.51-8.21-3.81-11.74-.39-1.06-.73-2-1-2.59C125,10,116.29,4.71,112,3c0,0-.27,0-.6.22-2.84,1.78-6.75,10-7,13-.32,4.32-12.88,8.76-20.34,11l-.57.18-9.86-5H56.1L54.54,35l-4.24,2H50c-1.56,0-15.36,0-18.41-.65-.9-.17-2.6,2.1-4.11,4.11a45.66,45.66,0,0,1-5,5.91l-2,1.93c-2.43,2.31-2.47,2.36-3.27,2.76a52.56,52.56,0,0,0-6.65,4.49c-2.49,1.83-3.83,3.73-4,5.67a6.06,6.06,0,0,0,1.6,4.2l.75.72-.42,1c0,.09-3.67,8.35-5.28,12.58-1,2.71,2.92,6.8,4.38,8l.54.44v24.53c1.15,1.89,6.63,10.84,9.28,14a.46.46,0,0,0,.31.11c3.12.22,11.79-7.22,15-10l1.61-1.37a22.73,22.73,0,0,0-3.84-.8l-1-.12-.29-.92c-.18-.58-4.39-14.11-4.88-21.19-.06-1-.25-3.65,1.64-4.26.57-.19,2.26-.74,5.47,4.07,3.15-.11,13-.39,15.9.32,1.86.45,2.77,2.73,4.15,6.18A34.82,34.82,0,0,0,56,107.34c5.28,6.71,5.06,10.61,4.8,15.55a40.89,40.89,0,0,0,.32,9.39c.93,5.79,2.24,7.37,4.07,9.55a28.52,28.52,0,0,1,5.49,9.56c2.61,7,2.89,7.27,3.39,7.79a11.34,11.34,0,0,1,1.27,1.58c1.08,1.6,5.23,3.24,8,4.05,3.89-3.21,8-7.12,8.5-8.25a1.68,1.68,0,0,1,1.3-1.53A2,2,0,0,1,93.54,155Zm-1.72,1.66ZM46.68,95.43h0Z"/></g></g></svg>