<svg xmlns="http://www.w3.org/2000/svg" viewBox="0 0 146.58 144.15"><defs><style>.cls-1{fill:#448708;fill-rule:evenodd;}.cls-2{fill:#fff;}</style></defs><title>アセット 128</title><g id="レイヤー_2" data-name="レイヤー 2"><g id="レイヤー_1-2" data-name="レイヤー 1"><path class="cls-1" d="M29.92,116.86s.58,14.13,5.35,20.72,11.82,4.89,14.46,4.84,5.21-26.13,4.82-29.08,10.85-12.81,9.64-14.55,2.9,8.68,4.82,9.69,15.25,3.37,15.25,3.37,2.78-5.16,4-8.21,14.46,0,14.46,0l22.47-.87s-14.25-7-11.59-9.66c3.58-3.52,11-8.3,14.6-9.33,18.69-5.38,12.27-6.4,16.1-13.4.92-1.68.7-17,.7-17s-12.5-2.71-16.45-8.28a122.82,122.82,0,0,0-11.37-14.14s2.85-13.33.61-11.94c-6.56,4.07-24.71-2.6-24.71-2.6l-10-10.9-17.28,6L59.38,6.67S56.77,0,49.73,1.82a33.12,33.12,0,0,1-14.46,0L16,11.52s-4.19-.16-4.82,4.85C9.78,27.53,8.76,30.91,6.36,35.76c-.9,1.81-5.3,7-4.82,9.7S1.63,53.14,3.46,55s8.18,9.24,8.18,9.24-4.56,10.71-.47,20,5.82,25.51,7.36,27.92C23.22,119.6,29.92,116.86,29.92,116.86Z"/><path class="cls-2" d="M45.75,144.15a13.59,13.59,0,0,1-11.69-5.7c-4-5.48-5.18-15.54-5.51-19.69-3.14.46-7.88-.38-11.29-5.8-.74-1.15-1.3-3.85-2.32-8.91C13.77,98.2,12.16,90.2,9.8,84.85c-3.66-8.27-.91-17.41.12-20.27-1.61-1.86-6.08-7-7.54-8.5C.71,54.35.5,51.19.32,48.4c-.07-1-.13-2-.26-2.68-.42-2.34,1.43-5.31,3.7-8.67a22.78,22.78,0,0,0,1.25-2c2.36-4.75,3.31-8,4.67-18.9.59-4.7,3.93-6.06,6-6.16L35.1.23l.54.13c.07,0,7.15,1.73,13.71,0A9.42,9.42,0,0,1,60.6,5.71l5.46,4,17.46-6L94,15.09c5.13,1.83,18.31,5.56,23.07,2.61a1.88,1.88,0,0,1,2.13,0c.66.47,2,1.43-.32,12.75a134.76,134.76,0,0,1,11,13.73c3.57,5,15.43,7.66,15.55,7.69l1.16.25,0,1.19c.09,5.89.08,16-.89,17.79a12.76,12.76,0,0,0-1.4,4.17c-.85,4.37-2.24,6.11-15.6,10-3.28.94-10.27,5.41-13.78,8.78.66,1.39,5.63,4.75,11,7.42l-.61,2.84-22.67.88-.2,0c-5.82-1.35-11.9-1.74-12.77-.84-1.23,3-4,8.09-4.07,8.3l-.51,1L84,113.33c-2.26-.4-13.65-2.45-15.69-3.52-1.32-.7-3.16-4-4.42-6.92-.77,1-1.76,2.17-2.92,3.52-1.82,2.13-4.88,5.7-4.93,6.78.33,2.42-1.62,26.37-4.69,29.92a2.08,2.08,0,0,1-1.59.81c-.33,0-.74.05-1.21.08C47.79,144.07,46.83,144.15,45.75,144.15ZM31.33,114.66l.09,2.14c0,.14.62,13.75,5.07,19.9,3.63,5,8.75,4.58,11.81,4.32l.93-.08c1.82-3,4.27-24.11,3.84-27.4-.27-2.07,2-4.8,5.62-9.08a43,43,0,0,0,3.94-5,3.34,3.34,0,0,1-.14-1l.13-1,1-.28a1.61,1.61,0,0,1,1.79.79,2.1,2.1,0,0,1,.34,1.56c.82,2.27,3.06,7,4,7.68s7.55,1.9,13.7,3c.86-1.62,2.57-4.94,3.46-7.11,1.49-3.64,10.57-2.18,16-.94l16.78-.65c-3.62-2.13-7.47-4.9-7.83-7.18a2.53,2.53,0,0,1,.74-2.26c3.78-3.73,11.47-8.62,15.23-9.7,12.71-3.66,13-5,13.48-7.64a15.53,15.53,0,0,1,1.72-5c.42-1.07.6-8.47.54-15.14-3.32-.85-12.66-3.62-16.2-8.6a124.07,124.07,0,0,0-11.2-14l-.58-.57.17-.8a67.41,67.41,0,0,0,1.44-9.66c-7.64,2.89-22.78-2.5-24.59-3.16l-.34-.13L82.64,7.21,65.54,13.1l-7.4-5.48L58,7.22a6.49,6.49,0,0,0-7.87-3.95,34.16,34.16,0,0,1-14.64.13L16.32,13h-.38c-.46,0-2.86.13-3.28,3.54-1.41,11.28-2.47,14.85-5,19.87a25.43,25.43,0,0,1-1.46,2.31C5.12,40.4,2.77,43.86,3,45.19a27.53,27.53,0,0,1,.3,3c.14,2,.32,4.85,1.23,5.78,1.84,1.91,8,9,8.24,9.31l.61.71-.36.86c0,.1-4.26,10.24-.49,18.77,2.5,5.64,4.14,13.84,5.34,19.82.68,3.35,1.44,7.15,1.91,7.9,4,6.31,9.34,4.21,9.57,4.11Zm18.38,26.26h0ZM118.62,20.25Z"/></g></g></svg>