<svg xmlns="http://www.w3.org/2000/svg" viewBox="0 0 166.86 149.46"><defs><style>.cls-1{fill:#448708;fill-rule:evenodd;}.cls-2{fill:#fff;}</style></defs><title>アセット 123</title><g id="レイヤー_2" data-name="レイヤー 2"><g id="レイヤー_1-2" data-name="レイヤー 1"><path class="cls-1" d="M16.31,65.22S14,66,11.49,60.37-.32,45.3,1.85,45.83s4.81-7.28,4.81-9.7S4,22.71,7,20.46c3.18-2.44,4.11-5,9.36-8.57C22,8,29.7,6.45,30.77,7s9.44-4.93,9.64-4.84,7.27-1.6,9.63,0,6.47-.9,9.12,3.18S73.51,30.47,75.4,29.46s2.41,5.9,8.39,1.82,15.42-4.84,19.28-4.84,7,5.08,9.63,4.84,17.25-5.05,19.48-7,7.33,13.49,9.45,11.84,6.17-4.53,9.64-4.85c3-.28,13.66,5.3,13.66,5.3l-1.28,2.93C162.57,52,162.84,49,162.57,52c-1.09,12.09-.74,12.73-1.75,23.93-.09,1-6.42,4.38-9.36,6.76-6.48,5.26-10.68,7.21-13.91,9.73s-15.4,4-15.2,6.76,1,5.14,0,9.69-2.46,10.72,0,14.55,5.8,10.66,5.8,10.66-15.11-3.15-20.27-1S90,140.71,83.79,142.8s-24.11,4.84-24.11,4.84,1.69-7.42,4.82-9.7,22.56-7.9,24.1-9.69,9.74.92,9.65-4.85,5.83-6,0-9.69A36.15,36.15,0,0,1,88.6,104s-10.5,2.57-9.64,4.85-1.1,12.51-9.63,9.71S50,118.94,50,113.71s-4-16.19-4.82-14.55S40.41,104,40.41,104a11.42,11.42,0,0,0,0,9.71C42.86,118.8,52.26,118,50,123.4s-8.67,5.87-9.63,4.85-9.21-6.1-9.64-9.69S25.37,107.2,26,104s6.8-7.36,4.82-9.69S19.59,81,21.12,79.76,25,79.33,26,74.92s4.82-9.7,4.82-9.7Z"/><path class="cls-2" d="M57.73,149.46l.49-2.15c.19-.82,1.92-8,5.4-10.58,1.6-1.16,6.09-2.79,12.76-5.14,4.33-1.52,10.27-3.61,11.13-4.36.92-1.08,2.57-1.17,4.47-1.27,3.61-.19,4.8-.58,4.77-2.54a9.34,9.34,0,0,1,1.94-5.77,4.37,4.37,0,0,0,.63-1.08s-.13-.48-1.88-1.6A37.07,37.07,0,0,1,88,105.72c-3.46.92-6.67,2.21-7.48,3a11.73,11.73,0,0,1-2.86,9.47c-1.56,1.63-4.34,3.26-8.76,1.81a38.29,38.29,0,0,0-10.29-1.35c-5-.19-10.11-.38-10-4.95.07-3.48-1.9-9.59-3.14-12.24A37.08,37.08,0,0,1,41.61,105a9.83,9.83,0,0,0,.15,8.09c.84,1.76,2.94,2.71,5,3.63,2.74,1.24,6.49,2.94,4.7,7.29A10.15,10.15,0,0,1,43.81,130c-.76.14-3.32.5-4.49-.74-.16-.16-.87-.68-1.49-1.14-4.12-3-8.18-6.28-8.55-9.41a28,28,0,0,0-2.17-5.84c-1.57-3.54-3.05-6.88-2.64-9.15.31-1.73,1.68-3.4,3-5,.68-.83,2.49-3,2.15-3.44C19.17,83,19.39,80.71,19.46,80a2,2,0,0,1,.73-1.38,6.62,6.62,0,0,1,1.89-1c1.15-.41,1.91-.69,2.4-3A26.69,26.69,0,0,1,28,66.72H16.46c-1,.17-3.76,0-6.34-5.73C8.92,58.32,6,54.58,3.61,51.58.35,47.44-.53,46.33.29,45.06A1.65,1.65,0,0,1,2,44.33c1.12-.77,3.17-6,3.17-8.2,0-.49-.17-1.65-.35-2.88-.89-6.19-1.47-11.92,1.23-14a23,23,0,0,0,3.05-2.95,33.31,33.31,0,0,1,6.37-5.66c5-3.47,13-5.78,15.6-5.1,1.19-.3,5.18-2.68,6.72-3.6C39.55.89,40.07.57,40.57.67L41,.59C44.72,0,48.78-.48,50.89,1a4.93,4.93,0,0,0,2.48.38c2.1,0,5,0,7.05,3.22.64,1,1.76,2.88,3.18,5.28,2.93,4.93,9.61,16.2,11.77,18,1.4-.29,2.4,1,3,1.68,1.13,1.41,1.87,2.34,4.6.48,7.3-5,18.83-5.1,20.13-5.1,2.58,0,4.68,1.64,6.55,3.09,1,.81,2.34,1.79,2.95,1.76,2.41-.23,16.72-5,18.62-6.63a2.11,2.11,0,0,1,1.8-.5c1.76.32,3.12,2.72,5.38,6.94a37.7,37.7,0,0,0,2.91,4.91c3.81-2.88,7.12-4.47,9.85-4.72,3.27-.3,12.64,4.5,14.49,5.46l1.24.65-1.74,4c-.52,6-.72,8.39-.82,9.56s-.1,1.19-.24,2.68c-.55,6.13-.73,9.32-.91,12.41s-.34,6-.84,11.52c-.11,1.24-1.35,2.1-5.25,4.6-1.71,1.1-3.48,2.24-4.65,3.19a97.42,97.42,0,0,1-9.76,6.91c-1.59,1-3,1.9-4.17,2.83-1.61,1.26-4.66,2.15-7.88,3.1-2.27.67-6,1.77-6.74,2.56,0,.57.11,1.12.18,1.68a22.24,22.24,0,0,1-.23,8.24l-.15.73c-.91,4.28-2,9.59,0,12.7,2.47,3.86,5.75,10.52,5.88,10.81l1.35,2.75-3-.62c-4.07-.85-15.5-2.69-19.37-1.05l-1.24.52c-6,2.54-17.15,7.27-23,9.22-6.26,2.09-23.61,4.79-24.35,4.9Zm31.56-47.17.58.9a34.53,34.53,0,0,0,9.19,9.25c2,1.28,3,2.34,3.2,3.54a4.4,4.4,0,0,1-1.08,3.36,6.29,6.29,0,0,0-1.43,4c.08,5.19-4.92,5.45-7.61,5.59a8.73,8.73,0,0,0-2.45.32c-.9,1.05-4.27,2.31-12.31,5.14-4.74,1.67-10.63,3.74-12,4.74-1.58,1.15-2.87,4.27-3.62,6.63,5-.82,16.84-2.84,21.55-4.42,5.71-1.91,17.22-6.79,22.75-9.13l1.24-.52c4.13-1.75,13.29-.53,18.14.3-1.19-2.3-2.94-5.59-4.36-7.81-2.66-4.15-1.38-10.13-.36-14.94l.16-.73a19.34,19.34,0,0,0,.18-7.25c-.08-.68-.16-1.34-.21-2-.19-2.78,3.82-4,8.9-5.46,2.68-.78,5.72-1.68,6.88-2.58,1.32-1,2.75-1.94,4.41-3a93.56,93.56,0,0,0,9.48-6.71,57.56,57.56,0,0,1,4.92-3.38,44,44,0,0,0,3.92-2.7c.47-5.25.63-8.08.8-11.07s.36-6.33.91-12.52c.14-1.47.14-1.47.24-2.65s.31-3.57.85-9.81l0-.25.81-1.86c-4.78-2.41-10.12-4.68-11.59-4.5-2.24.21-5.31,1.78-8.85,4.54a2,2,0,0,1-1.71.4c-1.66-.36-2.9-2.54-5.12-6.7a36.17,36.17,0,0,0-3.11-5.18c-3.67,2.35-17.16,6.7-19.77,6.94-1.8.18-3.39-1.07-5.07-2.38s-3.16-2.45-4.7-2.45c-4.35,0-13.12,1-18.44,4.58-5,3.43-7.46.38-8.63-1.09L75.63,31c-2,.55-4.5-2.58-14.61-19.62-1.34-2.27-2.51-4.24-3.12-5.17-1.13-1.75-2.47-1.85-4.55-1.86a7.3,7.3,0,0,1-4.15-.9c-.63-.43-2.48-.76-7.69.12-.29.05-.53.09-.73.11l-1.46.87C33.17,8.21,31.42,9,30.19,8.42c-1.32-.19-7.91,1.17-13,4.71a30.49,30.49,0,0,0-5.85,5.22,26,26,0,0,1-3.45,3.3c-1.53,1.17-.47,8.43-.08,11.17a28.1,28.1,0,0,1,.38,3.31c0,2.36-2,8.73-4.34,10.56l-.12.09c.61.84,1.5,2,2.26,2.94,2.47,3.13,5.54,7,6.89,10,1.6,3.55,2.91,3.94,3.14,4l.09,0H33.74L32,66.11s-3.72,5.08-4.56,9.11S24.49,80,23.1,80.46a5,5,0,0,0-.51.19c.69,1.7,3.94,6.36,9.32,12.69,2,2.3-.3,5.06-2.11,7.28-1,1.26-2.21,2.69-2.38,3.65-.25,1.37,1.24,4.71,2.43,7.4a28.15,28.15,0,0,1,2.41,6.7c.25,2.11,5.22,5.78,7.35,7.35a21.46,21.46,0,0,1,1.77,1.38,6,6,0,0,0,3.34-.46,6.92,6.92,0,0,0,3.94-3.81c.55-1.35.33-1.83-3.16-3.41-2.29-1-5.13-2.33-6.45-5.06a12.91,12.91,0,0,1,0-11.06l.15-.28.24-.19c1.55-1.24,4-3.41,4.41-4.34a1.73,1.73,0,0,1,2-.95c2.65.65,5.77,12.15,5.69,16.19,0,1.47,2.27,1.72,7.14,1.9a40.77,40.77,0,0,1,11.12,1.5c2.39.79,4.24.45,5.65-1,2-2.12,2.43-5.89,2.11-6.71a2.36,2.36,0,0,1,.14-1.94c1.27-2.41,7.8-4.23,10.55-4.9ZM2.2,44.37ZM74.69,28.13h0Zm58.48-2.71h0ZM31.39,5.67l.1,0Z"/></g></g></svg>