<svg xmlns="http://www.w3.org/2000/svg" viewBox="0 0 166.99 216.4"><defs><style>.cls-1{fill:#448708;fill-rule:evenodd;}.cls-2{fill:#fff;}</style></defs><title>アセット 132</title><g id="レイヤー_2" data-name="レイヤー 2"><g id="レイヤー_1-2" data-name="レイヤー 1"><path class="cls-1" d="M131.75,69S113.3,89.23,107.67,93.25s-8.83,13-9.64,14.55-2.42,10.52,0,14.54,1.59,34.76,0,33.94-.82,4.85-9.64,9.7-32.91,9.69-33.73,9.69-8.82,6.45-14.45,14.55-9.65,14.55-9.65,14.55l-9.63,9.69L6.48,204.77s-5.95-8.57-4.82-9.7c2-2,6.4-2.43,9.64-4.85s7.23-12.94,4.81-24.24-3.23-8.88,0-14.55,0-9.69,0-9.69-11.22-4-9.63-4.85,5.64-6.45,9.63-9.7,7.23-12.94,9.64-14.55,8.81-4.84,14.46-9.69,16-8.1,14.45-14.54S40.21,73.86,40.21,73.86H30.56l-4.81,9.7L20.93,59.32c-.82-4,2.06-11.88.46-11.07s-2.64-20.79-2.64-20.79l.89,3.79s-.31-6.4-6.72-12.86L8.51,6.57l4.76-4.35L30.56,25.38s22.35,7.18,28.19,8.12c2.85.45,7.47,4.56,15.51,3s13.31,3.47,18.95-1.38,19.27-14.56,19.27-14.56l9.64,4.86c-1.59-.82,23.27,20.22,24.09,19.39s19.28,14.55,19.28,14.55v4.84h-4.83c-4.81,0-18.45,7.27-19.27,4.85S131.75,69,131.75,69Z"/><path class="cls-2" d="M21.12,216.4,5.4,205.86l-.16-.24C-1.41,196-.11,194.72.59,194a13.56,13.56,0,0,1,5-2.65A18.68,18.68,0,0,0,10.4,189c2.66-2,6.57-11.84,4.24-22.73-.56-2.63-1-4.53-1.39-5.92-1.16-4.63-1.11-5,1-8.75l.54-.93c2.21-3.88.89-6.77.33-7.71C5,139.29,4.89,138.09,4.83,137.21a1.72,1.72,0,0,1,1-1.65A25.6,25.6,0,0,0,9,132.3,60.21,60.21,0,0,1,15.16,126c2-1.58,3.83-5.14,5.49-8.27,1.77-3.36,2.93-5.46,4.27-6.36.65-.42,1.5-.93,2.59-1.57a79,79,0,0,0,11.72-8,48.94,48.94,0,0,1,6.1-4.2C50.6,94.35,54,92,53.2,88.77c-1.14-4.65-9.75-11-13.43-13.41H31.49L25.14,88.17,19.46,59.61c-.47-2.32.08-5.47.53-8,.12-.68.27-1.53.35-2.14-.79-.5-2.12-2.23-3.07-21.7a23.17,23.17,0,0,0-5.42-8.32l-.23-.23L6.75,6.14,13.49,0l18,24.1c3.2,1,22.3,7.08,27.51,7.92a13.42,13.42,0,0,1,3.26,1.16C65,34.39,68.68,36,74,35a24.44,24.44,0,0,1,9.38.27c3.56.61,6.13,1.05,8.89-1.32,5.61-4.84,18.81-14.24,19.37-14.64l.74-.52,10.46,5.27-.62,1.2,1.06-.77c1.32,1.52,19.71,16.94,23,18.73,1.57.11,5.62,2.79,20.24,14.95l.54.45v7h-6.33c-1.88,0-5.82,1.46-9.3,2.76-5.59,2.07-8.58,3.12-10.27,2.31a2.11,2.11,0,0,1-1.06-1.1c-.82-.45-4.23-.12-7.47.72-2.48,2.71-18.66,20.29-24,24.12-4.46,3.19-7.37,9.89-8.61,12.76-.25.56-.44,1-.57,1.25-.73,1.44-2.07,9.73,0,13.09,2.32,3.87,2.32,33.22,0,35.69a1.71,1.71,0,0,1-1.07.53l-.22.43c-1,2-2.83,5.73-8.91,9.07C80.63,172,58.2,176.7,55,177.14c-1.3.68-8.34,6.44-13.55,13.94-5.55,8-9.56,14.41-9.6,14.48l-.21.27ZM7.55,203.68l13.19,8.85,8.64-8.7c.63-1,4.46-7.1,9.6-14.46,4.9-7.05,13.66-15.2,15.68-15.2,1.54-.16,24.7-4.94,33-9.51,5.25-2.88,6.82-6.06,7.67-7.77.47-1,.88-1.8,1.8-2.1h0c1.16-4.9,1.28-28.82-.43-31.68-2.77-4.61-1-14.21,0-16,.11-.22.27-.6.49-1.09,1.34-3.09,4.48-10.33,9.61-14,5.44-3.88,23.67-23.83,23.85-24l.3-.32.41-.12c3.59-1,9.62-2.16,11.22.45,1.34,0,5.16-1.44,7.75-2.41,4.07-1.51,7.92-2.94,10.34-2.94H164V60c-7.47-6.2-15.76-12.72-17.73-13.72-1,0-2.25-.88-4-2.18s-3.86-2.94-6.58-5.14c-9.29-7.52-13.08-10.75-14.47-12.39l-8.58-4.32c-2.9,2.08-13.65,9.84-18.42,13.94-3.83,3.29-7.65,2.64-11.34,2a21.69,21.69,0,0,0-8.3-.29c-6.22,1.24-10.61-.71-13.52-2A12.79,12.79,0,0,0,58.52,35C52.63,34,31,27.1,30.1,26.81l-.45-.15L13.06,4.45,10.27,7l3.94,10.58c6.52,6.71,6.91,13.33,6.93,13.61l-.67.1c.42,6.8,1.06,13.43,1.65,15.49a1.74,1.74,0,0,1,.49.25c1.09.81.86,2.16.34,5.11-.39,2.16-.91,5.12-.55,6.89l4,19.93,3.27-6.59h11l.37.23c1.37.86,13.42,8.62,15.1,15.46,1.38,5.57-4,8.9-9.2,12.11a45.81,45.81,0,0,0-5.72,3.93A82.85,82.85,0,0,1,29,112.41c-1,.59-1.87,1.1-2.45,1.48-.77.52-2.16,3.15-3.28,5.26-1.79,3.39-3.82,7.23-6.25,9.2a56.73,56.73,0,0,0-5.86,6c-1.06,1.19-1.86,2.08-2.52,2.73a79.31,79.31,0,0,0,8,3.3l.39.14.27.33c.16.2,3.83,4.9.13,11.37l-.54,1c-1.63,2.84-1.63,2.84-.71,6.52.36,1.41.85,3.34,1.42,6,2.48,11.58-1.46,22.8-5.38,25.75a21.61,21.61,0,0,1-5.59,2.75,15.46,15.46,0,0,0-3.54,1.65C3.43,197.17,5.54,200.75,7.55,203.68Zm47.33-26.53a1.08,1.08,0,0,1-.22,0Zm42.46-19.54h0ZM7.17,138.22Zm135.64-69.7h0ZM20.74,46.9l0,0Z"/></g></g></svg>