<svg xmlns="http://www.w3.org/2000/svg" viewBox="0 0 283.16 221.46"><defs><style>.cls-1{fill:#448708;fill-rule:evenodd;}.cls-2{fill:#fff;}</style></defs><title>アセット 138</title><g id="レイヤー_2" data-name="レイヤー 2"><g id="レイヤー_1-2" data-name="レイヤー 1"><path class="cls-1" d="M11.36,98.46s12-3.55,16.9-4.45c3.35-.61,23.79-8.23,22.2-7.4s11.47-5.07,11.47-5.07-4.8-12,.31-21.76c1.59-3,6.93-14.65,6.93-14.65s4.81-6,6-8.25c2-3.64,8.42-8.49,8.42-6.29,0,1.6,19.31,0,19.31,0h14.41s18.22,8.5,19.28,9.69c5.06,5.75,8.73,5.75,12.65,4.12,5.11-2.13,13.33-11.28,13.33-11.28l2.92-3.4V1.5h24.09l14.46,9.69h19.28l4.82,14.55L233,35.43l8.15-7.2,11.43-9L261.9,16s13.64,21,14.46,24.24,0,27.5,0,29.09,7.23,38,4.82,48.49-2.41,31.51-4.82,33.93,2.41,21.83,0,24.25-15.28,25.06-19.28,24.24-13.63,11.3-14.45,9.69-14.45-9.69-14.45-9.69H213.72l-14.46,14.54-9.64,4.85A94.4,94.4,0,0,1,180,210c-4-4.84-14.47-19.38-14.47-19.38a105.54,105.54,0,0,1-9.63-9.71c-3.23-4-15.27-20.21-14.46-19.39l.05,0s-9.1-10.52-14.5-9.75c-5.64.83-23.28,3.26-24.1,4.85s-4,12.13-14.45,14.55-26.5,11.3-28.92,14.54-19.26,9.7-19.26,9.7-11,3.2-12.77,2.48c-5.24-2.18-16.13-12.18-16.13-12.18L6.54,166.34l.6-18.18L1.72,132.41l9.64-9.71.91-8.08Z"/><path class="cls-2" d="M189.4,221.46l-.75-.66a93.66,93.66,0,0,1-9.81-9.87c-3.83-4.64-13.3-17.76-14.43-19.33a104.31,104.31,0,0,1-9.68-9.78c-1.7-2.11-5.64-7.34-8.5-11.18-3.25-4.35-5-6.67-5.78-8l-.08-.09.06,0-.13-.22,0,0c-1.3-1.68-9.13-9.67-13.06-9.13l-1.34.19c-12.9,1.86-20.21,3.23-21.74,4.08-.07.14-.14.32-.22.52-1.26,3-5.1,12.26-15.13,14.58-10.4,2.41-26,11.22-28.05,14-2.53,3.42-17,9.1-19.93,10.2l-.12,0c-5.25,1.53-11.9,3.19-13.76,2.42-5.43-2.25-16.12-12-16.57-12.45l-.34-.31-5-20,.59-18.11L0,132l9.93-10,.84-7.44-1-17.22L10.93,97c.5-.15,12.12-3.59,17.06-4.5,1.89-.34,10.25-3.3,15.79-5.25l4.46-1.57a14.43,14.43,0,0,1,2-.61c1.45-.62,6.19-2.74,9.79-4.36-1.13-3.53-3.54-13.24.85-21.65,1.56-3,6.85-14.47,6.9-14.58L68,44.2a99,99,0,0,0,5.9-8.05c1.61-2.9,7.13-8.23,9.76-7.55a1.9,1.9,0,0,1,1.25,1c2.22.41,10.7.07,17.91-.53h14.86l.3.15c6.91,3.22,18.67,8.82,19.77,10.06,4.93,5.59,8,5,11,3.72,4.73-2,12.7-10.8,12.78-10.89l2.54-3V0h26.05l14.46,9.69h19.9l5.13,15.47,3.9,7.85,6.67-5.9,11.7-9.27,10.68-3.59.64,1c2.3,3.54,13.81,21.37,14.66,24.68.63,2.54.41,15,.1,26.79,0,1.42-.06,2.39-.06,2.67s.37,2.35.73,4.51c1.81,10.66,6,35.63,4.05,44.31-1.07,4.66-1.67,11.66-2.21,17.84-.86,9.93-1.38,15.18-3,16.82-.67,1,0,7.22.42,10.91.82,7.42,1.2,11.7-.42,13.33a73.32,73.32,0,0,0-4.26,6.19c-8.7,13.31-13.13,19.14-16.39,18.47-1.56-.32-6.26,4-8.51,6.06-3.25,3-4.44,4-5.72,3.78a1.74,1.74,0,0,1-1.22-.87c-.85-1.05-7.47-5.31-13.56-8.94H214.34l-14.18,14.27ZM142.91,161c1.55,2.24,11.2,15.22,14.16,18.91a106.66,106.66,0,0,0,9.46,9.52l.22.24c.11.15,10.47,14.55,14.4,19.31a88.68,88.68,0,0,0,8.71,8.85l8.51-4.28,14.72-14.81h15.5l.35.21c5.42,3.21,11.85,7.2,14.19,9.34.78-.58,2.09-1.79,3.11-2.72,4.73-4.36,8.3-7.38,11.15-6.8,2.25-.32,10.26-12.56,13.27-17.17A60.41,60.41,0,0,1,275.3,175c.66-1,0-7.2-.43-10.89-.82-7.43-1.2-11.71.43-13.35.95-1.14,1.64-9.14,2.14-15,.55-6.27,1.16-13.38,2.28-18.25,1.85-8.09-2.46-33.55-4.09-43.14-.62-3.69-.77-4.6-.77-5s0-1.28.06-2.75c.15-5.81.61-23.49,0-26-.54-2.1-8.39-14.7-13.64-22.82l-8,2.68-11.22,8.9-9.55,8.45-5.77-11.65-4.47-13.52H203.63L189.17,3H167V30.28l-3.29,3.82c-.36.41-8.52,9.45-13.88,11.68s-9.56.94-14.36-4.51c-.9-.75-10.07-5.25-18.49-9.19H103c-18.41,1.53-19.83.22-20.3-.21l-.12-.12a18.35,18.35,0,0,0-6,5.85,97.53,97.53,0,0,1-6.07,8.32c-.68,1.49-5.39,11.69-6.89,14.56-4.72,9-.29,20.39-.24,20.5l.53,1.34-1.31.59-5.79,2.6-4,1.78a10,10,0,0,1-2.46.88c-1,.34-3.31,1.15-5.52,1.93-7.73,2.74-14.28,5-16.25,5.38-3.9.72-12.51,3.19-15.6,4.09l.85,15.09-1,8.73L3.44,132.8l5.21,15.13-.6,18.25,4.66,18.75c1.84,1.67,10.91,9.75,15.35,11.59,1.06.23,6.92-1.12,11.72-2.51,6.37-2.44,17-7.07,18.54-9.17,2.85-3.83,19.62-12.75,29.78-15.11,8.53-2,11.8-9.85,13-12.81a9.56,9.56,0,0,1,.42-1c.67-1.31,2.69-2.41,23.88-5.46l1.34-.19c5.61-.81,13.72,7.74,15.65,10.05l.08.08h0a3.22,3.22,0,0,1,.34.45Zm98.38,49.62,0,0Zm2.6-1.51s.05.1.08.14Z"/></g></g></svg>