<svg xmlns="http://www.w3.org/2000/svg" viewBox="0 0 199.65 206.31"><defs><style>.cls-1{fill:#448708;fill-rule:evenodd;}.cls-2{fill:#fff;}</style></defs><title>アセット 136</title><g id="レイヤー_2" data-name="レイヤー 2"><g id="レイヤー_1-2" data-name="レイヤー 1"><path class="cls-1" d="M85.61,38.79s5.62-8.45,8-14.9,2.09-7.24,12-11.08c6.42-2.49,21.5-10.58,21.5-10.58l3,12.24,3.19,7.24L150.91,35s1.6,17.79,0,24.24-4.15,11.4-3.33,15.42,5.71,9.48,5.71,9.48l7.55,10.92s-.9,16.62-2.86,21.51c-1.34,3.36-5.34,14.78-.49,20.41,3.8,4.4,9.53,9.82,10.26,12.62s7.26,1.76,7.26,1.76l19.9,10.47s-21.5,3.25-24.72,4.07-9.64,3.26-14.46,0-15.2-9.31-19.27-9.69c-7.2-.66-7.05-1.12-19.26-4.85,0,0-4.5,10.66-6.91,13.91s-5.79,19.38-12.36,20c-7.67.76-12.05,4-14.46,4.85s-16.87,7.27-19.28,9.69-14.46,4.86-14.46,4.86-10.46-6.45-9.64-9.7-1.48-15.54-.66-17.13-3.94-7.89-3.94-8.72,3-17.79,4.6-22.63-1.59-12.13,0-14.55-9.64-9.69-9.64-9.69l-5.87,9.87a25.31,25.31,0,0,1-8.59-5c-4.82-4-12-9.5-14.46-14.55C.75,111,6.35,88.37,6.35,88.37S24.81,76.24,25.63,73.82,46.5,63.3,44.91,64.12s6.4,1.11,8-.49,10.15-3,10.15-3l6.28-8.58,8.09-6.44Z"/><path class="cls-2" d="M49.44,206.31l-.5-.31c-3.43-2.11-11.29-7.44-10.31-11.34.36-1.43-.06-5.68-.41-9.09-.5-5-.65-7.1-.2-8.2-.05-.93-1.78-3.78-2.53-5-1.14-1.87-1.5-2.5-1.5-3.17,0-1.15,3.11-18.33,4.67-23.1.72-2.19.28-5.2-.11-7.85s-.76-5.23.17-6.86c-.35-1.16-3.77-4.19-7.79-6.94l-5.64,9.49-1.1-.29c-.16,0-4.15-1.14-9.16-5.33l-1.94-1.6C8.34,122.8,2.42,118,.18,113.25c-.25-.52-1-2.11,4.71-25.24L5,87.44l.49-.33C14.06,81.5,23.4,74.79,24.24,73.27c.23-.71.67-2,10.61-6.56.09,0,9.11-4.14,10.21-4.14h0l1.14.06.14.63c1.7.12,4.85-.13,5.49-.69,1.64-1.65,7.73-2.84,10.36-3.28l6-8.25,8.25-6.56,8-6.7c.81-1.24,5.62-8.71,7.75-14.41l.46-1.24c2.13-5.8,2.84-7,12.38-10.72C111.34,9,126.26,1,126.41.91l1.7-.91,3.47,14,3,6.77,17.8,13.49.06.66c.06.73,1.6,18.12,0,24.73-.52,2.11-1.15,4.1-1.71,5.84-1.12,3.53-2.09,6.57-1.61,8.92.59,3,4.07,7.34,5.36,8.77l.12.15,7.84,11.34,0,.52c0,.68-.94,16.92-3,22-2.61,6.52-4.17,14.91-.76,18.87,1,1.21,2.28,2.53,3.46,3.82,3.49,3.76,6.51,7,7.12,9.4.2.75,3,1.08,5.57.66l.49-.08,24.39,12.83-4.52.68c-.21,0-21.46,3.25-24.57,4-.37.09-.77.21-1.22.33-3.59,1-9.61,2.72-14.45-.54-5.42-3.66-15.16-9.13-18.57-9.45-5.67-.52-7-.95-12.76-2.78-1.48-.47-3.27-1-5.51-1.73-1.28,2.95-4.55,10.26-6.55,13a30.73,30.73,0,0,0-2.3,5.3c-2.5,6.59-5.6,14.78-11.12,15.33a31.61,31.61,0,0,0-11.63,3.65A22.71,22.71,0,0,1,84,191.6c-2.85,1-16.64,7.27-18.7,9.33-2.6,2.62-13.14,4.85-15.23,5.27Zm-8.64-27.8a42.73,42.73,0,0,0,.41,6.76c.49,4.94.79,8.32.33,10.13-.17,1,3.46,4.56,8.47,7.74,4.82-1,11.73-2.93,13.11-4.32,2.76-2.76,17.54-9.26,19.86-10.06a18.52,18.52,0,0,0,2.13-1,34.37,34.37,0,0,1,12.67-3.94c3.67-.37,6.64-8.22,8.61-13.41a29.29,29.29,0,0,1,2.7-6c2.27-3.07,6.68-13.5,6.73-13.6l.52-1.25,1.3.4c2.87.88,5.07,1.57,6.83,2.14,5.75,1.82,6.78,2.15,12.13,2.64,4.58.43,15.43,6.89,20,9.95,3.68,2.48,8.66,1.08,12,.14l1.28-.35c2.36-.6,13.85-2.41,20.37-3.42L174.74,153c-2,.26-7.51.62-8.44-2.94-.43-1.66-3.75-5.24-6.42-8.13-1.2-1.3-2.45-2.64-3.53-3.89-5.25-6.1-1.58-17.38.24-21.94,1.48-3.7,2.44-15.61,2.73-20.54L152.11,85.1c-.63-.72-5.17-6-6-10.11-.64-3.11.44-6.5,1.69-10.43.57-1.78,1.16-3.63,1.66-5.65,1.35-5.45.28-19.84,0-23.09L132.12,22.67l-3.42-7.84L126.12,4.46c-4.15,2.2-14.74,7.72-20,9.75-8.59,3.33-8.78,3.86-10.66,9L95,24.42c-2.44,6.53-8,14.85-8.18,15.2l-.12.18-8.35,7-8,6.33L63.9,62.06l-.61.1c-4.37.69-8.64,1.85-9.32,2.53-1.91,1.91-8.14,1.78-9.57,1.24l-.08,0c-3.9,1.52-16,6.8-17.32,8.53C25.86,77,14.66,84.69,7.66,89.3c-2.45,10-4.82,21-4.71,22.8,2,4.07,7.57,8.62,12,12.28L17,126a27.09,27.09,0,0,0,7,4.35l6-10.15,1.31.85c2.26,1.46,9.71,6.51,10.41,9.8a2.53,2.53,0,0,1-.34,2c-.45.68-.1,3.07.18,5,.44,3,.93,6.35,0,9.21C40,151.49,37.31,166.7,37,169c.18.38.65,1.15,1,1.79C40.22,174.36,41.58,176.84,40.8,178.51Zm0,.06h0ZM2.88,112h0ZM27.05,74.3h0Z"/></g></g></svg>