<svg xmlns="http://www.w3.org/2000/svg" viewBox="0 0 177.03 193.75"><defs><style>.cls-1{fill:#448708;fill-rule:evenodd;}.cls-2{fill:#fff;}</style></defs><title>アセット 115</title><g id="レイヤー_2" data-name="レイヤー 2"><g id="レイヤー_1-2" data-name="レイヤー 1"><path class="cls-1" d="M26.05,17.47s7.47-13.2,9.63-14.55,9.78,3.2,9.64,0,43.85,1.35,43.36,0,8.73-2.33,9.64,0,0,16.19,0,19.39,1.4,12.51,4.82,9.7,14.46-9.7,14.46-9.7a12.29,12.29,0,0,1,4.82,9.7c.07,2.53.72,5.63-4.82,9.69s-11.88,6.79-12.12,9.46-7.59,3.1-2.34,9.94,9.93,12.12,14.46,14.55,8.67,6.07,14.38,7.93c4.78,1.58,10.53,4.92,14.53,6.61S158.6,93.58,161,95s7.76,6.88,9.64,9.69,0,5.54,0,9.7S175.42,129,175.42,129s-.73,10,0,14.55-2.12,19.92-4.82,24.25-1.93,7.7-9.64,9.69-18-.58-19.27,4.85-11.18,11.2-14.45,9.7-11.91-2.67-14.46-4.86-9.88-2.47-14.46-9.69-14.45-14.54-14.45-14.54H64.59s-27.89,2.37-33.73,4.85-10.26,10.9-14.45,4.84-9.64-19.4-9.64-19.4-4.54-7.1-5.24-21.64c-.31-6.32,1.94-14.27,10.06-22,7.06-6.71,13.58-14.81,14.46-19.39C27.37,83.32,26,78.1,28.83,73c2-3.73,5.56-4.18,7.86-9.11,2.69-5.74,5.74-10.43-1-17.3-6.08-6.19-13.09-13-12.27-15.77S26.05,17.47,26.05,17.47Z"/><path class="cls-2" d="M128.53,193.75a4.54,4.54,0,0,1-1.92-.38,38,38,0,0,0-5.5-1.64c-3.69-.93-7.51-1.9-9.31-3.44a13,13,0,0,0-3.21-1.53c-3.44-1.33-8.15-3.16-11.53-8.5-3.87-6.1-11.85-12.42-13.7-13.84H64.66c-7.75.66-28.62,2.78-33.21,4.73a21.6,21.6,0,0,0-5,3.46c-2.46,2-4.77,4-7.36,3.61a5.78,5.78,0,0,1-3.89-2.76C11.1,167.57,6,155.3,5.43,153.9,4.79,152.84.7,145.55,0,131.65c-.28-5.73,1.33-14.4,10.53-23.16,7.52-7.15,13.29-14.8,14-18.58a48.22,48.22,0,0,0,.71-7.06c.17-3.67.33-7.14,2.23-10.61a14.12,14.12,0,0,1,3.78-4.19,13,13,0,0,0,4-4.83c.2-.43.4-.86.61-1.28,2.42-5.07,4.18-8.73-1.33-14.34L33.06,46C25.57,38.43,21,33.61,22,30.36c.78-2.7,2.58-13,2.6-13.15l0-.26.13-.22c1.8-3.17,7.84-13.64,10.15-15.08C36.4.7,38.62,1.31,41,2a20.13,20.13,0,0,0,2.87.64,1.89,1.89,0,0,1,.55-1C46.13-.16,53.71,0,74.19,1.11c5.37.31,11.39.65,13.39.56A3,3,0,0,1,89,.73c2.25-.85,9.44-1.59,10.72,1.64.67,1.7.6,6.61.24,15.67-.07,1.86-.14,3.46-.14,4.27,0,3.35,1.19,8.17,2.14,8.72,0,0,.1-.07.23-.18C105.65,28,116.35,21.32,116.8,21l.82-.51.8.53a13.77,13.77,0,0,1,5.5,10.9c0,.2,0,.4,0,.6.12,2.59.29,6.14-5.46,10.35-1.87,1.38-3.85,2.61-5.59,3.7-2.59,1.62-5.82,3.64-5.91,4.68-.14,1.52-1.33,2.43-2.38,3.24-.81.62-1.58,1.21-1.78,1.92-.31,1.06.65,2.62,1.51,3.74,4.29,5.59,9.31,11.63,14,14.14,1.62.86,3.21,1.89,4.75,2.89a40.25,40.25,0,0,0,9.39,4.94A76.74,76.74,0,0,1,142,86.41c1.84.91,3.58,1.78,5.05,2.4A67.92,67.92,0,0,0,154,91c3.37,1,6.28,1.82,7.74,2.72,2.52,1.55,8.09,7.14,10.1,10.14,1.52,2.28,1.1,4.53.69,6.7a18.79,18.79,0,0,0-.44,3.81c0,3.16,3.39,11.13,4.68,13.94l.16.35,0,.38c0,.1-.7,9.87,0,14.21.77,4.85-2.06,20.52-5,25.27a23.91,23.91,0,0,0-1.47,2.89c-1.33,3-2.59,5.79-9.06,7.46a44.67,44.67,0,0,1-9.06,1c-5.34.22-8.62.51-9.13,2.73-.9,3.92-5.32,7.64-9.3,9.6A13.25,13.25,0,0,1,128.53,193.75Zm-64-32.33H84.36l.4.29c.41.31,10.16,7.57,14.83,14.95,2.86,4.5,6.86,6.06,10.08,7.3a14.23,14.23,0,0,1,4.08,2c1.27,1.09,5,2,8.09,2.81a40,40,0,0,1,6,1.82c.61.28,2.33.06,4.67-1.09,3.33-1.64,7.05-4.77,7.7-7.58,1.06-4.6,6.34-4.82,11.92-5.05a41.71,41.71,0,0,0,8.43-.91c5.08-1.31,5.88-3.09,7.08-5.79a26.65,26.65,0,0,1,1.67-3.25c2.52-4,5.26-19.08,4.61-23.21s-.17-12.59,0-14.51c-.94-2.07-4.76-10.75-4.8-14.8a21.58,21.58,0,0,1,.49-4.41c.4-2.11.57-3.27-.24-4.48-1.76-2.63-7-7.91-9.17-9.24a40.19,40.19,0,0,0-7-2.39,74,74,0,0,1-7.25-2.36c-1.55-.66-3.33-1.54-5.21-2.48a77,77,0,0,0-9.2-4.08,42.84,42.84,0,0,1-10.08-5.27c-1.56-1-3-2-4.54-2.77C111.74,74.21,106.67,68.15,102,62c-1.89-2.47-2.55-4.57-2-6.41a6.92,6.92,0,0,1,2.83-3.46c.44-.34,1.17-.89,1.22-1.13.23-2.53,3.2-4.38,7.31-7,1.7-1.06,3.62-2.27,5.41-3.58,4.44-3.26,4.34-5.56,4.23-7.79,0-.22,0-.43,0-.65a11.1,11.1,0,0,0-3.43-7.9c-2.7,1.7-10.65,6.76-13.4,9a3,3,0,0,1-3.38.59C97.05,32,96.82,22.41,96.82,22.31c0-.87.07-2.42.15-4.39.16-4.16.5-12.76,0-14.38-.85-.74-5.25-.62-6.8-.06l-.27.4c-.72,1-.81,1.08-15.86.23-9.13-.52-24.14-1.37-27.26-.47A2.35,2.35,0,0,1,45.93,5c-1.32,1.06-3.37.5-5.74-.14C39.07,4.54,37,4,36.46,4.2c-1.14.75-5.52,7.69-9,13.78-.29,1.67-1.86,10.57-2.63,13.21-.5,1.74,6.55,8.89,10.34,12.73l1.56,1.58c7,7.11,4.4,12.51,1.89,17.74-.2.41-.4.83-.59,1.25a15.92,15.92,0,0,1-4.84,5.86,11.31,11.31,0,0,0-3.06,3.33c-1.57,2.86-1.71,5.85-1.88,9.32a49.89,49.89,0,0,1-.75,7.47c-1.05,5.45-8.68,14.29-14.9,20.2-8.37,8-9.84,15.73-9.6,20.83.68,13.89,5,20.84,5,20.91l.12.24c.05.13,5.44,13.25,9.49,19.11a3,3,0,0,0,1.83,1.49c1.27.17,3.19-1.41,5-2.95a24.33,24.33,0,0,1,5.77-3.91c6-2.54,33-4.87,34.18-5ZM97,3.57ZM46.82,2.85h0Z"/></g></g></svg>