<svg xmlns="http://www.w3.org/2000/svg" viewBox="0 0 179.59 235.89"><defs><style>.cls-1{fill:#448708;fill-rule:evenodd;}.cls-2{fill:#fff;}</style></defs><title>アセット 135</title><g id="レイヤー_2" data-name="レイヤー 2"><g id="レイヤー_1-2" data-name="レイヤー 1"><path class="cls-1" d="M131.71,106.63s-.82,36.36,0,38.78,2.41,17,4.81,19.4,4.82,14.54,4.82,14.54,8,19.4,9.64,19.4,10.46,21.81,14.46,24.24,13.08,11.69,13.08,11.69L155.8,218.14l-22.55-17.86-11.18-6.39s-11.6,5.54-17.6,13.16c-3.48,4.41-26.58,3-30.58,1.4s-34.56-8.1-33.74-9.7-6.48-7.9-9.63-14.55c-2.1-4.44-14.46-14.54-14.46-14.54s-16-1.6-14.45-4.85,0-9.7,0-9.7v-9.7c0-2.42,26.32-13.48,26.32-13.48s9.63-8.54,7.68-7.11c-2.44,1.82,9.93-4.81,11.52-7.24s17.36-6,17.36-6l14.21-5,2.68-10.21,0-13.47S78.7,71.87,78.7,63s-2.4-18.57,0-19.39S87.21,36,88.34,29.06c.58-3.59,0-24.24,0-24.24s15.15,20.94,17.1,22.37a30.27,30.27,0,0,1,7,6.71,33.23,33.23,0,0,0,13-8.22c6.12-6.63,11.09-11.17,13.51-11.17s11.22-1.6,12,0,14.46,9.7,14.46,9.7,0,18.57-4.82,24.23-13.64,21-14.46,24.25-2.41,20.22-4.82,19.39S131.71,106.63,131.71,106.63Z"/><path class="cls-2" d="M177.63,235.89l-22.71-16.54-22.51-17.82L122,195.59c-2.54,1.31-11.49,6.18-16.37,12.39-4.2,5.32-28.45,3.41-32.32,1.86-1.38-.55-6.62-1.85-12.16-3.22-19-4.7-21.73-5.69-22.38-7.11a1.68,1.68,0,0,1-.11-1.1,26.67,26.67,0,0,0-2.93-4,50.34,50.34,0,0,1-6.59-9.57c-1.55-3.29-10.1-10.77-13.7-13.75-4.35-.45-13.53-1.75-15.13-4.63a2.42,2.42,0,0,1-.07-2.32c1.11-2.26.3-7-.11-8.68l0-.36v-9.7c0-1,0-3.4,27-14.77,2.3-2,5.36-4.79,6.8-6.13a2.44,2.44,0,0,1,.79-.89,1.9,1.9,0,0,1,1.38-.44c2.74-1.39,8.91-5.09,9.78-6.41,1.73-2.63,13.24-5.49,18.21-6.61l13.38-4.69,2.42-9.24,0-13.1C79.5,81.63,77.2,71.44,77.2,63c0-3.21-.32-6.59-.61-9.56-.63-6.45-1-10.35,1.63-11.25,1.71-.59,7.58-6.79,8.64-13.36.46-2.83.14-18.25,0-24L86.7,0l2.85,3.94c7.21,10,15.54,21.07,16.78,22A35.56,35.56,0,0,1,113,32.12a31.76,31.76,0,0,0,11.37-7.46C133.8,14.39,137,13,138.94,13c.59,0,1.79-.13,3.06-.26,6.22-.67,9.29-.79,10.29,1,.86,1.08,7.73,5.48,13.91,9.16l.74.43v.86c0,.78-.06,19.19-5.18,25.2C157,55,148.36,70.1,147.62,73.05c-.2.8-.48,2.66-.8,4.81-1.48,10-2.39,14.32-4.23,15.44a2,2,0,0,1-1.37.29c-1.47,1-5.23,7.51-8,13.39-.31,13.75-.59,35.94-.06,38a49.72,49.72,0,0,1,1,5.25c.67,4,2.08,12.21,3.41,13.54,2.54,2.56,4.71,12.76,5.19,15.16,3.34,8.05,7.43,16.89,8.75,18.41,1.21.38,2.27,2.33,5.92,9.6,2.73,5.43,6.86,13.63,8.76,14.79,4.12,2.48,13,11.53,13.38,11.92Zm-55.5-43.69,12.05,6.91L156.73,217l4.49,3.27c-1.83-2.88-4-7-6.45-12a78.7,78.7,0,0,0-4.37-8.1c-1.17-.44-3.36-3.16-10.45-20.25l-.08-.28c-1-4.85-3-12.32-4.41-13.77-1.85-1.87-3-7.71-4.24-15.15-.37-2.15-.72-4.18-.93-4.83-.84-2.48-.28-30.7-.08-39.3v-.31l.14-.29c6.45-13.72,9.39-15.47,10.79-15.47h0c1.05-1.87,2.2-9.65,2.72-13.1.34-2.32.61-4.16.85-5.1.91-3.64,9.89-19.11,14.76-24.85,3.47-4.08,4.37-16.83,4.46-22.42-5.92-3.53-12.74-7.81-14.11-9.59-1.1-.42-5.4,0-7.5.27-1.47.15-2.63.28-3.38.28s-3.5,1-12.41,10.68a34.44,34.44,0,0,1-13.66,8.64l-1.07.34-.62-1a29.48,29.48,0,0,0-6.63-6.32C103,27.22,94.66,16,90,9.59c.14,6.38.29,17.11-.13,19.71C88.63,36.68,82.43,43.73,79.36,45c-.49,1-.08,5.12.21,8.18s.63,6.49.63,9.85c0,8.59,2.59,19.5,2.61,19.61l0,.35,0,13.66L80,107.78l-15.13,5.28c-7.15,1.62-15.47,4.17-16.45,5.37-1,1.56-8.67,6.63-12,7.9-.2.2-.42.4-.66.62-.74.69-1.74,1.6-2.75,2.51l-4,3.59-.19.16-.23.1c-11.29,4.75-23.63,10.59-25.4,12.45v9.18c.29,1.23,1.45,6.78,0,10.23,1.21,1,7.1,2.39,13.11,3l.45.05.35.29c1.29,1.05,12.68,10.45,14.86,15.06a47.78,47.78,0,0,0,6.21,9c2.07,2.55,3.44,4.23,3.62,5.62,2.63,1.22,13.5,3.91,20.19,5.56,6.13,1.52,11,2.71,12.55,3.34,4.45,1.78,26.15,2.5,28.85-.93,6.15-7.8,17.65-13.35,18.13-13.58Zm-83.32,5.86v0ZM152.3,13.79l0,0Z"/></g></g></svg>