<?xml version="1.0" encoding="utf-8"?>
<!-- Generator: Adobe Illustrator 24.1.0, SVG Export Plug-In . SVG Version: 6.00 Build 0)  -->
<svg version="1.1" id="レイヤー_1" xmlns="http://www.w3.org/2000/svg" xmlns:xlink="http://www.w3.org/1999/xlink" x="0px"
	 y="0px" viewBox="0 0 2000 2000" style="enable-background:new 0 0 2000 2000;" xml:space="preserve">
<style type="text/css">
	.st0{fill:#FFFFFF;}
	.st1{fill:url(#SVGID_1_);}
	.st2{fill:url(#SVGID_2_);}
	.st3{fill:url(#SVGID_3_);}
</style>
<g>
	<circle class="st0" cx="1000" cy="1000" r="1000"/>
	<g>
		<g>
			<radialGradient id="SVGID_1_" cx="598.3262" cy="1526.1232" r="1322.2341" gradientUnits="userSpaceOnUse">
				<stop  offset="0" style="stop-color:#E6B65B"/>
				<stop  offset="0.3273" style="stop-color:#C73846"/>
				<stop  offset="0.6485" style="stop-color:#9D3E8B"/>
				<stop  offset="1" style="stop-color:#4B4B97"/>
			</radialGradient>
			<path class="st1" d="M1285.2,1498.7H714.8c-117.7,0-213.5-95.8-213.5-213.5V714.8c0-117.7,95.7-213.5,213.5-213.5h570.4
				c117.7,0,213.5,95.7,213.5,213.5v570.4C1498.7,1402.9,1402.9,1498.7,1285.2,1498.7z M714.8,617.8c-53.5,0-97,43.5-97,97v570.4
				c0,53.5,43.5,97,97,97h570.4c53.5,0,97-43.5,97-97V714.8c0-53.5-43.5-97-97-97H714.8z"/>
		</g>
		<g>
			<radialGradient id="SVGID_2_" cx="598.3345" cy="1526.1254" r="1322.2207" gradientUnits="userSpaceOnUse">
				<stop  offset="0" style="stop-color:#E6B65B"/>
				<stop  offset="0.3273" style="stop-color:#C73846"/>
				<stop  offset="0.6485" style="stop-color:#9D3E8B"/>
				<stop  offset="1" style="stop-color:#4B4B97"/>
			</radialGradient>
			<path class="st2" d="M1000,1275.5c-151.9,0-275.5-123.6-275.5-275.5S848.1,724.5,1000,724.5c151.9,0,275.5,123.6,275.5,275.5
				S1151.9,1275.5,1000,1275.5z M1000,840.9c-87.7,0-159.1,71.4-159.1,159.1s71.4,159.1,159.1,159.1c87.7,0,159.1-71.4,159.1-159.1
				S1087.7,840.9,1000,840.9z"/>
		</g>
		<g>
			<radialGradient id="SVGID_3_" cx="598.3342" cy="1526.1615" r="1322.2571" gradientUnits="userSpaceOnUse">
				<stop  offset="0" style="stop-color:#E6B65B"/>
				<stop  offset="0.3273" style="stop-color:#C73846"/>
				<stop  offset="0.6485" style="stop-color:#9D3E8B"/>
				<stop  offset="1" style="stop-color:#4B4B97"/>
			</radialGradient>
			<path class="st3" d="M1331.6,733.1c0,27.4-22.2,49.6-49.6,49.6c-27.4,0-49.6-22.2-49.6-49.6c0-27.4,22.2-49.6,49.6-49.6
				C1309.4,683.5,1331.6,705.7,1331.6,733.1z"/>
		</g>
	</g>
</g>
</svg>
