<svg xmlns="http://www.w3.org/2000/svg" viewBox="0 0 171.69 280.8"><defs><style>.cls-1{fill:#448708;fill-rule:evenodd;}.cls-2{fill:#fff;}</style></defs><title>アセット 125</title><g id="レイヤー_2" data-name="レイヤー 2"><g id="レイヤー_1-2" data-name="レイヤー 1"><path class="cls-1" d="M1.5,234.66s27.18-21.29,28.91-24.24,13-16.29,14.46-19.39,12.43-29.29,14.46-29.09,4.92-9.65,9.64-19.4S80,131.2,78.61,128s-4.82-24.24-4.82-24.24a28.31,28.31,0,0,0,0-9.7c-1-4.85-11.24-17.06-9.64-19.39s4.48-16,4.82-19.39,5.78-15.91,4.82-14.55c-.2.29-.34.38-.39.34s1.6-2.33,10-5.19C94,32.29,93.7,34.18,102.71,31s13.64-7.32,19.28-9.7,17.78-12.5,24.1-14.54,12-6.74,14.46-4.85,9.64,9.7,9.64,9.7.19,6.74-4.82,9.69S150.91,31,150.91,31s1.16,6.54,0,9.7-6.6,8.24-9.64,9.69-9.64,0-9.64,0,1.44,7.27-4.82,9.7-9.64,9.7-9.64,9.7H102.71l-4.82,4.85-4.82,9.69,4.82,4.85s16.87,2.66,14.46,0,0-9.7,0-9.7L122,84.36v9.7l4.82,9.7L122,108.6h-9.64s-9.74,2.33-14.46,9.7-4,9.26-4.82,14.55S93,150.12,93,150.12l-4.71,2.12c-2.09.94-10.94,25.16-9.64,29.09s4.82,53.33,4.82,53.33,0,5.61-.84,7.85-5.44,16.24-4.13,19.05,0,13.4,0,13.4L69,278.3s-10.66,4.22-14.47-4.85-4.81-9.7-4.81-9.7-29.69-2.43-28.92,0-5.85-.31-9.63-4.85c-4.28-5.12-9.64-14.55-9.64-14.55Z"/><path class="cls-2" d="M63.61,280.8c-3.93,0-8.28-1.53-10.49-6.77a60.57,60.57,0,0,0-4.2-8.83c-11.23-.9-23.52-1.37-26.61-.74a2,2,0,0,1-1,1.41c-2.33,1.28-8.18-2.24-11.33-6C5.68,254.7.42,245.48.2,245.09l-.2-.34V233.93l.58-.45c13-10.2,27.46-22,28.54-23.82.8-1.37,3.31-4.55,6.21-8.23,3.31-4.2,7.44-9.44,8.18-11,.24-.52.76-1.71,1.47-3.33,10.49-24,12.5-26.55,14.17-26.62.87-.83,2.52-4.81,4-8.34,1.29-3.12,2.76-6.65,4.48-10.21a36.65,36.65,0,0,1,7.5-10.25c1.85-1.87,2.35-2.5,2.12-3.06-1.38-3.27-4.56-22.41-4.92-24.58l0-.27,0-.27a26.85,26.85,0,0,0,0-9.11c-.38-1.92-2.77-5.69-4.87-9-3.92-6.2-5.9-9.53-4.53-11.52s4.2-15.13,4.55-18.69c.21-2.06,1.8-6.34,3.7-11.3.26-.66.53-1.37.75-2l-.13-.1.12-.94c.23-1.7,4.46-4.14,11-6.37a54.13,54.13,0,0,1,10.68-2.68,41.92,41.92,0,0,0,8.59-2.16,65.91,65.91,0,0,0,12.41-6.06A57.69,57.69,0,0,1,121.4,20c2.38-1,6.12-3.55,10.08-6.25,5.13-3.51,10.44-7.14,14.15-8.34a46.81,46.81,0,0,0,6.47-2.83C155.9.63,159.18-1,161.46.75c2.54,2,9.53,9.55,9.83,9.88l.38.41,0,.56c0,.31.15,7.67-5.56,11-4.08,2.4-11.26,7.44-13.6,9.09.3,2.05.81,6.74-.22,9.52-1.36,3.72-7.26,9-10.39,10.53-2.38,1.14-6.26.82-8.63.47,0,3.16-1.24,7.46-5.94,9.28-5.64,2.18-8.79,8.86-8.82,8.93l-.4.87h-14.8l-4.21,4.23-4.23,8.52L98.6,87.8a78.28,78.28,0,0,0,11.8,1.09c-1.55-3.54.29-9.15.53-9.86l.56-1.63,12,6V93.7l5.14,10.35-6,6H112.54c-1.24.34-9.37,2.75-13.39,9-3.62,5.64-3.87,7.83-4.24,11.15-.09.85-.2,1.77-.36,2.81-.78,5.07-.1,16.85-.09,17l.06,1L89,153.54c-2.29,2.41-10,24.3-9,27.31,1.33,4,4.53,48.63,4.89,53.71,0,.7,0,6.06-.93,8.49-1.64,4.23-5,16-4.17,17.88,1.41,3.05.35,12.37.13,14.21l-.12.92-10.37,3.65A16.44,16.44,0,0,1,63.61,280.8Zm-34.7-19.63c4.42,0,11,.28,20.91,1.09l.35,0,.31.19c.35.22,1.42.87,5.41,10.39,3.19,7.58,12.15,4.18,12.53,4l8.66-3c.46-4.21.74-10.11,0-11.66-1.79-3.84,4-20.06,4.09-20.22.56-1.44.75-5.24.74-7.3C80.52,215,78.1,184.55,77.19,181.8s1.82-11.64,3.55-16.63,4.9-13.41,6.89-14.3l3.78-1.69c-.16-3.07-.52-12.05.18-16.56.15-1,.25-1.88.34-2.7.4-3.6.7-6.2,4.69-12.43,5-7.79,15-10.24,15.38-10.34l.35-.05h9l3.62-3.64-4.49-9V85.29l-7.2-3.62c-.59,2.46-.83,5.42.17,6.53a2,2,0,0,1,.4,2.35c-.44.8-1.35,2.49-16.21.14l-.48-.08-5.92-6,5.4-10.88,5.44-5.46h14.16c1.16-2.12,4.54-7.48,10-9.6,5-1.93,4-7.77,3.9-8l-.43-2.24L132,49c2.36.52,6.81,1,8.67.12,2.82-1.35,7.89-6.16,8.88-8.86.84-2.27.23-7.21-.07-8.91l-.16-.94.77-.55c.38-.28,9.55-6.81,14.57-9.77,3.43-2,4-6.32,4.06-7.83-1.55-1.67-7-7.54-9-9.09-.79-.6-3.78.89-6.19,2.09a49.62,49.62,0,0,1-6.89,3c-3.29,1.06-8.65,4.72-13.38,8-4.09,2.79-7.95,5.43-10.6,6.55a54.24,54.24,0,0,0-6.42,3.42,68.07,68.07,0,0,1-13,6.31,43.69,43.69,0,0,1-9.12,2.29A52.06,52.06,0,0,0,83.91,37.3c-5.24,1.78-7.64,3.24-8.63,4-.21.78-.64,1.9-1.3,3.63-1.25,3.25-3.34,8.7-3.52,10.53-.32,3.25-3.11,16.9-5,19.94,0,1.26,2.71,5.52,4.51,8.36,2.46,3.89,4.78,7.56,5.27,10a29.36,29.36,0,0,1,0,10c1.39,8.4,3.75,21.44,4.68,23.64,1.05,2.5-.71,4.28-2.74,6.34a33.27,33.27,0,0,0-6.94,9.44c-1.68,3.49-3.13,7-4.41,10.06-2.73,6.58-4.09,9.86-6.16,10.17-1.45,1.54-5.49,9.89-12,24.84-.71,1.65-1.24,2.86-1.49,3.4-.83,1.77-4.06,5.94-8.55,11.63-2.59,3.29-5.27,6.69-6,7.89C30,214.11,8.65,231,3,235.39V244c1,1.73,5.6,9.58,9.29,14A18,18,0,0,0,19.38,263a1.94,1.94,0,0,1,.28-.48C20,262.13,20.75,261.17,28.91,261.17Zm19.76,3.68ZM59.19,163.43h0Zm6.2-87.92Z"/></g></g></svg>