<svg xmlns="http://www.w3.org/2000/svg" viewBox="0 0 136.1 71.27"><defs><style>.cls-1{fill:#448708;fill-rule:evenodd;}.cls-2{fill:#fff;}</style></defs><title>アセット 107</title><g id="レイヤー_2" data-name="レイヤー 2"><g id="レイヤー_1-2" data-name="レイヤー 1"><path class="cls-1" d="M4.13,25.74s17.11-2,19.28-4.85S37.82,14,42.68,6.35s5.73.24,14.45,0,15.18,4.84,19.28,0A13.65,13.65,0,0,1,86.05,1.5S103.54,14,105.32,16s10.65,9,14.46,9.7,14.45,4.85,14.45,4.85l-4.82,14.54a69.51,69.51,0,0,0-9.22-9.27c-1.61-1.38-18,3.68-23.34,4-8.49.58-10.1-.42-13.83,6a55.11,55.11,0,0,1-6.61,8.89L63.79,51.55l-5.08-3L39.66,50.84a36.44,36.44,0,0,1-8.75,7.32c-4.2,2.3-14.26,7.46-14.26,7.46l-2.88,3.75L4.13,64.53s-5.88-9.4,0-14.55S15.7,35.24,13.77,35.44,4.13,25.74,4.13,25.74Z"/><path class="cls-2" d="M14.21,71.27,3.08,65.68l-.22-.36c-.27-.42-6.48-10.55.28-16.47a42.11,42.11,0,0,0,9.3-12.29C11,35.77,8.24,33.44,3,26.66l-1.64-2.1L4,24.25c8-.95,17.19-2.89,18.26-4.27s3.07-2.45,6-4.09c4.36-2.45,10.33-5.82,13.23-10.35,3.35-5.25,5.77-4.43,8.81-2.69a12,12,0,0,0,6.86,2A36.05,36.05,0,0,1,66.51,6.1c4.48,1,6.91,1.47,8.75-.72A15.12,15.12,0,0,1,86.05,0h.48l.39.28C88.72,1.57,104.6,13,106.45,15.06s10.37,8.63,13.59,9.2C124,25,134.33,29,134.77,29.19l1.33.52L130,48.28l-1.73-2.23a68.37,68.37,0,0,0-8.85-8.92c-1.44-.23-7.57,1.19-11.67,2.15A87,87,0,0,1,97,41.4c-1.25.08-2.35.13-3.33.18-5.53.26-6.52.3-9.3,5.11a55.4,55.4,0,0,1-6.82,9.17l-.61.65L63.21,53l-4.82-2.84-18,2.15a37.08,37.08,0,0,1-8.77,7.21c-3.77,2.07-12.3,6.45-14,7.33Zm-9-7.88,8.13,4.09,2.32-3,.31-.16c.1,0,10.08-5.17,14.22-7.44a34.53,34.53,0,0,0,8.32-7l.39-.45L59,47l5.33,3.14,11.53,3a52.84,52.84,0,0,0,5.82-7.95c3.6-6.24,6-6.35,11.75-6.62,1,0,2-.09,3.28-.18a89.32,89.32,0,0,0,10.27-2c9.94-2.32,12.82-2.78,14.15-1.64a83.39,83.39,0,0,1,7.66,7.41l3.52-10.65c-2.94-1.13-10-3.75-12.84-4.27C115.16,26.44,106,19.1,104.19,17,103,15.67,92.34,7.85,85.6,3a12.17,12.17,0,0,0-8,4.29C74.44,11,70.26,10,65.83,9a33.42,33.42,0,0,0-8.65-1.18,14.74,14.74,0,0,1-8.43-2.39C46.44,4.14,46,3.9,44,7.16c-3.3,5.16-9.65,8.74-14.28,11.35-2.3,1.29-4.47,2.52-5.08,3.3-2,2.58-12,4.29-17.62,5.07,2.8,3.39,5.81,6.61,6.85,7.06h0A1.79,1.79,0,0,1,15.49,35C16.7,37.8,9.37,47.39,5.12,51.11S4.3,61.77,5.21,63.39Zm8.71-26.46h0Z"/></g></g></svg>