<svg xmlns="http://www.w3.org/2000/svg" viewBox="0 0 168.08 203.11"><defs><style>.cls-1{fill:#448708;fill-rule:evenodd;}.cls-2{fill:#fff;}</style></defs><title>アセット 99</title><g id="レイヤー_2" data-name="レイヤー 2"><g id="レイヤー_1-2" data-name="レイヤー 1"><path class="cls-1" d="M16.25,162.19c-1.47-1.11-3-16.37-4.82-19.4-1.06-1.79-9.64-9.7-9.64-9.7s-2.07-6.59,4.82-4.84l19.28,4.84s-3.23-8.43,0-14.54,8.72-4.07,9.63-9.7,0-12.41,0-14.54S25.41,82.09,25.89,79.76s-6-7.86-9.64-9.69-9.64-9.7-9.64-9.7,8.73-6.06,9.64-9.69,1.83-12.56,0-14.55-4.82-4.85-4.82-4.85v-9.7L6.61,11.89s5.06,1.74,9.64,0S27.72,6.7,30.71,7a86.09,86.09,0,0,0,9.63,0l12,1.18L67.38,5s9.31-5.4,11.51-2.82c5.15,6.06,14.45,9.7,14.45,9.7a102.84,102.84,0,0,1,6.43,8.88c2.53,3.76.17,4,3.21,10.51s5.25,10.57,9.64,14.54,9.63,9.7,9.63,9.7l-4.81,14.55s12.81-2.76,14.45,0,8.58,6.6,9.64,9.69c2,5.86,3.6,4.81,7.21,6.68,6.66,3.46,7.5,3.5,7.5,3.5l9.38,4.37V113.7s-.6,13.94.93,18.17c.74,2-12.4-3.53-15.38-3.62s-9.88,2.42-9.64,4.84,0,9.7,0,9.7,8.9,3,9.64,4.85c1.2,3,0,19.39,0,19.39s-.24.2-4.82,0-3.71-1.16-9.64,4.85-8.29,10.18-14.46,14.55-9.63,0-9.63,0L103,191.27,93.34,201s-7,1.41-9.63,0c-2.06-1.11,10.69-21.23,9.63-19.39-.09.14-.14.24-.14.24s4.48-7.86,5-9.94c.53-2.28,4.82-14.54,4.82-14.54v-19.4a25.09,25.09,0,0,1-4.82-9.69c-1.3-5.63,0-14.55,0-14.55H78.89V99.16H93.34s1.55,3.77,4.82,4.84S103,99.16,103,99.16l4.82-9.7s-7.42,1.4-9.64-4.85-9.64-9.7-9.64-9.7l-9.63,4.85S73.25,101.1,74.07,104s-4.82,9.7-4.82,9.7-7-2-4.82,4.85,3.76,12.12,4.82,14.54-5.64,4.08,0,9.7,1.25,14.26,4.82,14.55,10.22,2.95,9.64,4.85,3.32,6.44,0,9.69-16.91,6.45-19.28,4.85-4.82-9.7-4.82-9.7-1.1-11.82-4.81-9.69-24.09,4.85-24.09,4.85S17.86,163.39,16.25,162.19Z"/><path class="cls-2" d="M87.46,203.11a9.78,9.78,0,0,1-4.46-.82A2.06,2.06,0,0,1,82,200c.07-.66.29-2.67,5.26-11.34,2.7-4.72,4-6.83,4.73-7.79,1.7-3,4.39-8,4.7-9.35.51-2.19,4.16-12.68,4.78-14.46V138.47a26.61,26.61,0,0,1-4.78-9.89c-1-4.36-.55-10.44-.23-13.38H77.39V97.66h17l.38.93s1.34,3.15,3.9,4a.85.85,0,0,0,.73-.06c1-.58,1.92-2.77,2.17-3.74l.11-.29,3.67-7.4c-3.11-.18-7-1.56-8.56-6-1.63-4.58-6.49-7.57-8.23-8.51l-8.35,4.2c-2.63,10-5,21.12-4.65,22.8,1,3.4-3.67,9.33-5.11,11.06l-.63.75-.94-.26c-1-.27-2.58-.36-3.09.17s-.33,1.42.11,2.76c.68,2.1,1.3,4,1.85,5.82,1.24,3.9,2.21,7,2.92,8.59s-.32,3-1.08,4c-1.18,1.52-2,2.53.76,5.24,3.57,3.56,3.61,8.2,3.64,11.27a10.63,10.63,0,0,0,.23,2.84c3.24.28,9,2.31,10.56,4.59a2.51,2.51,0,0,1,.41,2.19,7.4,7.4,0,0,0,.5,1.83c.78,2.28,2,5.71-.89,8.5-4.15,4.05-18.34,6.94-21.17,5-2.66-1.81-5-9.07-5.41-10.51l-.06-.29c-.38-4-1.58-8.17-2.47-8.58l-.1,0c-3.86,2.21-22.53,4.75-24.65,5-6.18.59-13.84,1-15.55-.29-1.06-.79-1.54-2.71-2.86-9.93-.71-3.83-1.58-8.61-2.35-9.89-.66-1.1-5.87-6.14-9.36-9.36l-.3-.27-.12-.39c-.12-.38-1.11-3.77.81-5.8,1.22-1.3,3.18-1.62,5.81-.95L23.7,131c-.77-3.18-1.51-8.66.86-13.15a12.25,12.25,0,0,1,6.13-5.56c1.87-1,3-1.52,3.35-3.68a53.83,53.83,0,0,0,.12-11.79c-.07-1-.13-1.84-.14-2.43-.25-.85-2.55-3.7-4.07-5.6-4.13-5.13-5.9-7.56-5.53-9.33,0-1.32-5-6.14-8.85-8S6.05,62.11,5.42,61.28L4.47,60l1.29-.89c3.43-2.38,8.5-6.7,9-8.83,1.09-4.29,1.46-12,.35-13.17-1.77-1.93-4.72-4.75-4.75-4.78l-.46-.44v-10L3.64,9.28,7.1,10.47c.05,0,4.62,1.54,8.61,0,1.16-.43,2.46-1,3.83-1.56,4.29-1.8,8.73-3.67,11.34-3.37a84.06,84.06,0,0,0,9.39,0h.11L52.3,6.71,66.83,3.59C70.08,1.73,77.38-1.9,80,1.22c4.85,5.71,13.77,9.23,13.86,9.27l.34.13.24.28a100.39,100.39,0,0,1,6.54,9,8.42,8.42,0,0,1,1.66,4.8,14.8,14.8,0,0,0,1.67,5.91c3.13,6.73,5.21,10.37,9.28,14.06,4.39,4,9.52,9.56,9.74,9.8l.6.65L119.67,68.1c5.16-.93,11.89-1.53,13.51,1.2a20.82,20.82,0,0,0,4,3.77c2.59,2.1,5,4.08,5.76,6.21,1.28,3.76,2.08,4,4,4.77a19.67,19.67,0,0,1,2.48,1.06,57.17,57.17,0,0,0,7,3.34h.15l10.52,4.9V113.7c-.16,3.86-.33,14.42.84,17.66a1.75,1.75,0,0,1-.36,1.86c-1.08,1.12-2.8.7-9.69-1.56a46.18,46.18,0,0,0-6.79-1.92c-2.7-.09-7.82,2.15-8.1,3.27.19,1.88.1,6.57,0,8.72,4.13,1.45,8.74,3.45,9.5,5.36,1.27,3.19.31,17.26.1,20l0,.63-.49.41c-.44.37-.68.57-5.85.35-.65,0-1.2-.07-1.67-.11-2.21-.18-2.21-.17-6.83,4.52-2,2.07-3.63,3.89-5.16,5.65a50.69,50.69,0,0,1-9.5,9.06c-4.9,3.47-8.79,2.21-10.79.6l-8.46,4.26-9.78,9.84-.45.09A33.67,33.67,0,0,1,87.46,203.11Zm-2.4-3.22c1.75.43,5.17.13,7.55-.3l9.48-9.55,10.94-5.5.76,1c.26.32,2.8,3.1,7.6-.29a47.76,47.76,0,0,0,9-8.58c1.5-1.71,3.19-3.65,5.29-5.79,5.07-5.14,5.6-5.68,9.21-5.4l1.56.1c1.65.07,2.69.1,3.35.09.44-6.61.71-15.67,0-17.42-.51-.72-4.52-2.57-8.72-4l-1.06-.36,0-1.12c0-.07.23-7.2,0-9.5a3.33,3.33,0,0,1,1.05-2.64c2-2.19,7.29-4,10.13-3.85,1.35,0,3.79.81,7.63,2.06,1.8.59,4.27,1.4,5.84,1.78-1-5.36-.61-15.66-.56-17V95.26l-8.37-3.9c-.71-.19-2.52-.89-7.71-3.59a17.94,17.94,0,0,0-2.14-.91c-2.5-.93-4.13-1.75-5.79-6.61-.45-1.31-2.87-3.27-4.81-4.85s-3.83-3.11-4.7-4.57c-.84-.88-7-.56-12.85.7l-2.56.55,5.36-16.19c-1.49-1.6-5.51-5.85-8.94-9-4.44-4-6.76-8.06-10-15A17.75,17.75,0,0,1,99.68,25a5.6,5.6,0,0,0-1.16-3.37c-3.5-5.21-5.46-7.71-6.09-8.48-1.83-.76-9.87-4.31-14.68-10-.63-.73-5.06.5-9.62,3.14l-.21.12L52.47,9.74,40.31,8.54a82.34,82.34,0,0,1-9.77,0c-1.84-.21-6.27,1.66-9.83,3.15-1.4.59-2.73,1.15-3.93,1.61A15.57,15.57,0,0,1,9.34,14l3.59,7.23v9.41c.92.89,3,2.92,4.42,4.47,2.61,2.83,1,13.24.35,15.94-.82,3.28-6.22,7.62-8.94,9.63,2.08,2.57,5.84,6.88,8.16,8.05C19.69,70.11,28,76.09,27.38,80c.2,1.1,3.14,4.76,4.91,7,3.43,4.28,4.73,6,4.73,7.4,0,.48.06,1.33.13,2.3A55.46,55.46,0,0,1,37,109.1c-.59,3.66-2.91,4.83-5,5.86a9.44,9.44,0,0,0-4.83,4.29c-2.87,5.44.05,13.23.08,13.31l1,2.69L6.25,129.7c-1.44-.36-2.49-.33-2.9.1a3.3,3.3,0,0,0-.22,2.49c2,1.85,8.54,8,9.59,9.74,1,1.61,1.7,5.36,2.72,10.88A58.19,58.19,0,0,0,17.23,161c1.53.45,8,.21,13.34-.3,8-1.07,21-3.2,23.48-4.65a3,3,0,0,1,3-.12c2.93,1.51,3.85,8.47,4.08,10.81,1.12,3.63,3,8,4.18,8.76,1.85,1,14.35-1.71,17.39-4.68,1.39-1.36,1-3,.15-5.38a6.79,6.79,0,0,1-.6-3.4c-.76-1-5.12-2.94-8.26-3.19-3-.25-3-3.33-3-5.82,0-2.88-.06-6.47-2.76-9.16-4.59-4.58-2.26-7.59-1-9.21a4.45,4.45,0,0,0,.69-1c-.76-1.68-1.71-4.68-3-8.82C64.3,123,63.68,121.1,63,119c-.83-2.56-.64-4.51.58-5.77,1.43-1.49,3.74-1.4,5.07-1.19,2.27-2.89,4.3-6.45,4-7.64-.87-3.06,3.46-19.93,4.81-25l.17-.65L88.5,73.25l.66.3c.32.16,8,3.79,10.41,10.56,1.77,5,7.7,3.92,8,3.87l3-.56-6.1,12.28c-.24.85-1.32,4.21-3.6,5.45a3.81,3.81,0,0,1-3.1.28,10,10,0,0,1-5.28-4.77h-12V112.2h19.5l-.24,1.72c0,.09-1.25,8.71,0,14a23.81,23.81,0,0,0,4.49,9.05l.37.42V157.6l-.08.24c-1.19,3.39-4.36,12.58-4.78,14.38-.46,2-3.78,8-4.89,9.94a1.4,1.4,0,0,1-.09.17l-.07.11-.07.12h0C92.89,184.87,85.88,196.59,85.06,199.89Zm6.88-18.69a1.48,1.48,0,0,0,.67,1.53l.55-.88Z"/></g></g></svg>