<svg xmlns="http://www.w3.org/2000/svg" viewBox="0 0 266.3 208.33"><defs><style>.cls-1{fill:#448708;fill-rule:evenodd;}.cls-2{fill:#fff;}</style></defs><title>アセット 108</title><g id="レイヤー_2" data-name="レイヤー 2"><g id="レイヤー_1-2" data-name="レイヤー 1"><path class="cls-1" d="M17.25,195.43H2.79l9.64-14.55V166.34A84.58,84.58,0,0,0,15.55,158c.61-2.06,1.7-11.07,1.7-11.07s-13.2.79-12.9-3.89c.33-5.21.33-16.67,3.26-15.51s14.46-4.85,14.46-4.85,5.15-12.06,9.63-14.54,6.51-2.61,9.65-4.84.57-15.81,0-14.55-4.82-14.55-4.82-14.55H51l9.64-9.7,9.64-9.69,4.81-14.55s7.76-15.7,9.64-19.39,5.49-10.17,9.64-9.7,27.12-2.81,28.91-4.85S152.17,1.5,152.17,1.5h14.45s11.86.43,14.46,4.84,19.27,14.55,19.27,14.55l9.64-9.7h9.64s-1.11,16.15,4.81,19.4,15.62,1.84,14.46,4.84-.94,10.31-1.29,15.94c-.34,5.45-2.89,7.15,7.31,7.3,12.38.18,18.62,1,18.62,1s-7.39,9.83-10.19,14.58-7.32,15.62-9.63,19.4-5.49,11.49-4.82,14.54-4.82,4.85-4.82,4.85-2.75,1.74-9.64-9.69-2.31-11.69-9.63-19.4-12.43-7.08-14.46-9.7-4.91-10.33-14.46-9.7-19.27-4.84-19.27-4.84-13.92,6.06-14.45,4.84-8.19.79-14.46,4.85-10.26,7-9.64,9.7-2.93,2.43-4.81,4.85S104,88.77,104,88.77s-3.22,7.07-4.82,9.69c-.87,1.46-1.44.1-1.39.05s.48.87,1.39,4.81c2.08,8.82.2,12.41-4.81,19.38s-12,10.14-14.46,14.55-4.43-2.08-4.82,4.85,2.65,13.86-4.81,14.54-10.9,4.9-9.64,9.7,1.49,7.23,0,9.7a21.07,21.07,0,0,1-4.82,4.84s-3.33,7,0,9.7S75,204.11,70.26,205.13s-26.08-4.27-24.1-4.85c0,0-7.47,1.07-9.63,4.85s-14.46,0-14.46,0Z"/><path class="cls-2" d="M31.64,208.33a37.56,37.56,0,0,1-10-1.77l-.62-.19-4.69-9.44H0l10.93-16.5V166l.13-.29a83.89,83.89,0,0,0,3-8.14c.39-1.3,1-6,1.43-9.09-3.19.06-9.16-.22-11.56-2.63A3.7,3.7,0,0,1,2.85,143c0-.77.09-1.69.14-2.68.34-7.49.73-12.51,2.91-13.92a2.43,2.43,0,0,1,2.27-.2c1.19.47,7.06-1.63,12.74-4.54C22,119.06,26.57,109.28,31,106.85a48.84,48.84,0,0,1,5-2.37,20.9,20.9,0,0,0,4.54-2.39c1.56-1.11.8-9.22,0-11.9-.92-.5-2-2.88-5.42-15.58l-.51-1.89H50.35L68.94,54l4.79-14.4c.07-.16,7.78-15.76,9.64-19.41C85.81,15.43,89.62,9.15,94.52,9.7c4.48.54,25.68-2.85,27.67-4.41,1.73-2,17.18-4,29.82-5.28h14.61c1.36.05,12.82.61,15.75,5.58C184.21,8.71,195,15.81,200.12,19l9.24-9.3h11.87l-.11,1.61c-.4,5.87.35,15.94,4,18,2.52,1.38,6,1.87,8.75,2.26,3.24.45,5.38.75,6.26,2.24a2.49,2.49,0,0,1,.13,2.2c-.73,1.89-.86,6.12-1,10.21,0,1.78-.11,3.61-.21,5.28-.07,1.07-.21,2-.33,2.76a5.45,5.45,0,0,0-.13,2.11c.24.28,1.37.77,6.29.84,12.32.18,18.54.95,18.79,1l2.57.33-1.56,2.06c-.07.1-7.38,9.82-10.1,14.44-1.37,2.35-3.21,6.27-5,10.07s-3.47,7.41-4.65,9.35c-2.47,4-5.14,11.14-4.64,13.44.91,4.1-4.68,6.21-5.72,6.56a2.87,2.87,0,0,1-1.84.1c-2.6-.61-5.85-4.11-9.64-10.41a35.28,35.28,0,0,1-4.69-11c-.66-2.6-1.09-4.33-4.75-8.18a27.82,27.82,0,0,0-10.34-7.12,9.89,9.89,0,0,1-4.22-2.69c-.37-.49-.74-1.07-1.17-1.75-2.07-3.31-4.91-7.85-12-7.37-8.52.57-17-3.43-19.43-4.68-12.55,5.43-14.75,5.3-15.48,4.32h0c-1.7,0-7.39,1.64-12.52,5-3.3,2.15-9.45,6.15-9,8.1.64,2.71-1.44,3.78-2.82,4.5a6.39,6.39,0,0,0-2.27,1.61c-1.94,2.5-13.66,4.47-19.44,5.3-.88,1.91-3.23,6.92-4.56,9.1a3.57,3.57,0,0,1-.56.74c.22.78.46,1.76.74,3,2.19,9.28.25,13.22-5.05,20.6a46.67,46.67,0,0,1-8.81,8.81c-2.43,2-4.52,3.73-5.56,5.59-1.55,2.8-3.44,2.56-4.43,2.32a13.14,13.14,0,0,0-.2,1.89,39.29,39.29,0,0,0,.14,5c.33,4.84.71,10.33-6.32,11-3.59.33-6.3,1.55-7.63,3.45a5.14,5.14,0,0,0-.69,4.37c1.3,5,1.61,7.91-.17,10.85a21.19,21.19,0,0,1-4.89,5c-.78,1.81-2.1,6.1-.27,7.56.56.45,1.49,1.14,2.61,2,10.64,7.92,13.73,11.05,13.22,13.4a2.37,2.37,0,0,1-2,1.8c-2.94.63-10.24-.75-14.33-1.63-6.67-1.44-9.46-2.37-10.67-3.05-2.26.45-6.45,1.7-7.74,4C36.76,207.72,34.34,208.33,31.64,208.33Zm-8.52-4.46c5.15,1.49,11.22,2.06,12.11.51,2.45-4.29,9.88-5.46,10.72-5.58l.63,2.92a1.39,1.39,0,0,0,.94-1.14,1.33,1.33,0,0,0-.51-1.27c1.7,1.05,17.61,4.77,22.31,4.43-1.64-2.41-9.14-8-11.76-9.94-1.16-.87-2.12-1.59-2.7-2.05-4.13-3.31-.81-10.68-.42-11.51l.17-.35.31-.22a19.44,19.44,0,0,0,4.41-4.41c1.13-1.87,1.1-3.7-.16-8.54a8,8,0,0,1,1.13-6.86c1.85-2.63,5.33-4.3,9.82-4.71,3.79-.35,4-2.18,3.59-7.77a43,43,0,0,1-.14-5.36c.15-2.6.53-3.8,1.41-4.44a2.55,2.55,0,0,1,2.32-.24c.58.15.72.19,1.28-.82,1.31-2.36,3.61-4.25,6.27-6.45a44.08,44.08,0,0,0,8.28-8.24c4.94-6.88,6.49-10,4.57-18.17a41.47,41.47,0,0,0-1.09-4.07,2.75,2.75,0,0,1-.2-.38,1.55,1.55,0,0,1,.22-1.68l.45-.52h.69a2.45,2.45,0,0,1,.48,0c1.62-2.89,4.34-8.84,4.37-8.9l.34-.75.81-.11c7.91-1.11,17.15-3.06,18.31-4.31a9.2,9.2,0,0,1,3.25-2.42c1.38-.71,1.37-.79,1.28-1.14-.87-3.72,3.72-7,10.29-11.3,5.36-3.49,12.81-6.06,15.32-5.3a2.35,2.35,0,0,1,.71.34c1.79-.26,8-2.63,13.1-4.85l.68-.3.65.36c.09.06,9.47,5.26,18.43,4.66s12.7,5.5,14.75,8.76a17.55,17.55,0,0,0,1,1.52,7.73,7.73,0,0,0,3,1.76,30.93,30.93,0,0,1,11.32,7.81c4.21,4.43,4.77,6.68,5.49,9.52a32.68,32.68,0,0,0,4.35,10.14c5,8.33,7.46,9,7.83,9.06l.05,0c1.47-.48,4.09-1.88,3.82-3.09-.84-3.86,2.91-12.23,5-15.66,1.1-1.79,2.75-5.32,4.5-9s3.67-7.85,5.12-10.32c2-3.45,6.35-9.41,8.7-12.59-2.9-.24-8.22-.59-15.86-.7-5.25-.08-7.4-.56-8.54-1.91s-.81-2.83-.55-4.5a24.85,24.85,0,0,0,.31-2.49c.1-1.62.15-3.43.2-5.17.13-4.34.26-8.44,1.06-10.86a23.71,23.71,0,0,0-3.89-.74c-3-.43-6.77-1-9.77-2.6-5.6-3.07-5.8-14.73-5.67-19.21h-7.44l-10,10.1-1-.62c-1.74-1.05-17.07-10.46-19.79-15.06-1.59-2.7-8.95-4-13.21-4.11H152.24c-12.42,1.29-26.19,3.28-27.93,4.41-2.84,2.81-26.62,5.68-30.14,5.27-2.26-.26-5,2.74-8.13,8.9-1.77,3.48-8.93,18-9.58,19.27L71.57,55.64l-20,20.08H38.49c1.35,4.91,2.85,9.88,3.57,11.59.83.35,1.11,1.37,1.29,2,0,.12,2.93,12.32-1.13,15.22a23.92,23.92,0,0,1-5.1,2.7,46.1,46.1,0,0,0-4.69,2.24c-3.31,1.82-7.6,10.59-9,13.81l-.21.5-.48.24C20,125.47,11,130,7.4,129.06c-1,1.55-1.28,8.36-1.42,11.36,0,1-.09,1.94-.14,2.73a.73.73,0,0,0,.26.61c1.52,1.53,7.39,1.91,11.06,1.69l1.8-.1-.22,1.78c-.11.94-1.12,9.2-1.75,11.32a82.25,82.25,0,0,1-3.06,8.2v14.69L5.59,193.93H18.18ZM42.71,89.39l0,0ZM124.38,7.33h0Z"/></g></g></svg>