<svg xmlns="http://www.w3.org/2000/svg" viewBox="0 0 182.19 203.48"><defs><style>.cls-1{fill:#448708;fill-rule:evenodd;}.cls-2{fill:#fff;}</style></defs><title>アセット 120</title><g id="レイヤー_2" data-name="レイヤー 2"><g id="レイヤー_1-2" data-name="レイヤー 1"><path class="cls-1" d="M5.58,79.18s2.16-2,6.93-7.4S27.07,63.9,25.87,56.49,24.32,45.79,19,48.07,5,56.92,5,56.92L1.78,46.79s1.26-17,.35-16.72S.54,26.32,5.79,25s13-2.71,20.08-7.27,10-2.38,14.45-4.85,14.46-9.7,14.46-9.7a11.54,11.54,0,0,0,4.82,9.7c5.35,4,14.84,6.2,9.63,9.7S54.68,18.62,54.78,27.4s-3.76,16.19,0,19.39,7.27,7.42,9.63,4.85,7.76-7.62,9.65-9.7,9.63,0,9.63,0-2.45,4.68-1.06,8.57c.74,2-1.54,8,7,16.84,3.76,3.89,3.26,6.91,8.48,8.53,5.06,1.56,11.71.09,14.45,0s6,10.75,6,10.75l18.07-5.91-.08,8.5-4.74,10.9,9.64,4.85a54,54,0,0,1,.3,12.35c-.84,12.12-5.78,17.32-5.92,20.38-.2,4.43,2.85,2.22,5.62,6.06,1.76,2.43-2.21,5.33,0,9.69s0,14.55,0,14.55a34,34,0,0,1,10.23,4.25c10.45,6.25-1.14,1,3.08,3L178,177.49s-6.47,4.42-7.53,9.9,5.16,13.91-4.82,9.7-19.9,5.62-24.09,4.85-6.84-1.56-9.64-4.85-7.32-3.64-9.63-14.55-6-15-9.64-19.39-7.29-4.62-7.29-4.62-8.32.93-12-.23S79,144.51,75.86,142.54c-2.32-1.46.38-8.91-1.8-13.33-3-6-5.6-7.47-9.65-9.7s-12-4.71-14.45-4.84-1.2-1.62-6.9-3.69c-7.74-2.82-10.42-3.85-14.23-6-13-7.49-22.94-20.37-22.94-20.37Z"/><path class="cls-2" d="M142,203.48a4,4,0,0,1-.78-.07c-4.15-.77-7.33-1.6-10.51-5.35a14.71,14.71,0,0,0-2.24-2c-2.62-2.05-5.89-4.6-7.72-13.21-2.15-10.12-5.42-14.06-8.89-18.23l-.43-.51c-2.86-3.44-5.57-4-6.14-4.07-1.24.13-8.77.86-12.44-.31-2.35-.74-6.07-4.41-11.48-9.92a62.79,62.79,0,0,0-6.33-6c-1.9-1.19-1.78-3.84-1.65-6.9.1-2.42.22-5.17-.7-7-2.77-5.61-5.12-6.9-9-9S52,116.29,49.88,116.16a4.08,4.08,0,0,1-2.94-1.31,10.88,10.88,0,0,0-4.39-2.46c-7.73-2.81-10.56-3.91-14.46-6.16C15,98.68,5.11,86,4.7,85.48l-.28-.37-.37-6.55.51-.48s2.18-2.06,6.83-7.3a33.14,33.14,0,0,1,6.19-5c4.64-3.16,7.41-5.35,6.81-9.05L24.28,56c-.57-3.52-1.06-6.56-2-7.08-.44-.24-1.38-.06-2.66.49-5.08,2.18-13.68,8.6-13.76,8.67l-1.7,1.27L.26,47l0-.28c.47-6.3.81-13.37.64-15.49L.73,31a3.24,3.24,0,0,1-.57-3.15c.27-1,1.32-3.33,5.26-4.34.8-.21,1.66-.41,2.56-.63,5-1.21,11.32-2.72,17.07-6.45a21,21,0,0,1,9.84-3.58,12.37,12.37,0,0,0,4.71-1.32C44,9.14,53.8,2,53.9,1.94L56.58,0l-.31,3.29a10,10,0,0,0,4.23,8.36,39.07,39.07,0,0,0,5.3,3.1c3.52,1.84,6.31,3.29,6.44,5.63.07,1.25-.66,2.4-2.17,3.41-2.61,1.75-5.79,1.3-8.6.9-1.87-.26-3.81-.54-4.54.11a3.69,3.69,0,0,0-.65,2.58,51.89,51.89,0,0,1-1,9.46c-.77,4.57-1.16,7.44.45,8.8.68.58,1.35,1.19,2,1.79,3.19,2.91,4.75,4.06,5.55,3.19,1.23-1.33,3.22-3.28,5.14-5.17s3.6-3.52,4.49-4.51c2.31-2.58,9.11-1,11.14-.44l1.81.48L85,42.64s-2.13,4.16-1,7.36a7.86,7.86,0,0,1,.28,2.41c.06,2.78.16,7.42,6.42,13.9a22,22,0,0,1,3.06,4.09c1.23,2,2,3.18,4.78,4,3.52,1.09,8.15.55,11.2.2,1.09-.13,2-.24,2.76-.26,2.93,0,5.39,5.28,7,10.36l18.61-6.09-.1,10.89-4.29,9.88,9,4.54.14.73a55.42,55.42,0,0,1,.32,12.73,43.46,43.46,0,0,1-4.6,16.85,12.56,12.56,0,0,0-1.32,3.49c-.07,1.46,0,1.5,1.21,2a8.62,8.62,0,0,1,4.13,3.12c1.25,1.73.68,3.49.17,5.05s-1,3-.05,4.84c1.94,3.83,1,11,.41,14.11a38.83,38.83,0,0,1,9.25,4.08,31,31,0,0,1,4.53,3l25.15,2.43-3.4,2.33c0,.05-6,4.16-6.9,9a14.72,14.72,0,0,0,.48,5.22c.52,2.49,1,4.85-.58,6.15-1.29,1-3.31.88-6.77-.58-5.78-2.45-11.68.41-16.41,2.7C146,202.44,143.84,203.48,142,203.48ZM105.27,157h.13c.17,0,4.32.29,8.36,5.15l.42.51c3.55,4.27,7.22,8.68,9.53,19.53,1.6,7.54,4.15,9.54,6.63,11.47a17.15,17.15,0,0,1,2.68,2.42c2.46,2.9,4.66,3.58,8.76,4.34,1,.18,3.31-.92,5.52-2,5-2.42,11.86-5.74,18.89-2.76,2.48,1,3.4,1,3.66,1a11.53,11.53,0,0,0-.42-3.21,16.82,16.82,0,0,1-.48-6.4c.67-3.48,3.2-6.51,5.27-8.47l-17.8-1.72a3.21,3.21,0,0,1-1.16-.12l-.84-.08-.23-.11c-1.06-.5-2.16-1-1.79-2.21l-1.43-.87a33.16,33.16,0,0,0-9.73-4.06l-1.52-.28.33-1.51c.58-2.69,1.74-10.36.12-13.55-1.48-2.93-.7-5.35-.12-7.12.43-1.33.57-1.92.25-2.37a5.68,5.68,0,0,0-2.85-2.11c-1.76-.74-3.21-1.61-3.06-4.9A13.23,13.23,0,0,1,136,133a40.81,40.81,0,0,0,4.31-15.77,58.65,58.65,0,0,0-.17-11.26l-10.21-5.13,5.18-11.93.06-6.1-17.54,5.74-.44-1.47c-1.4-4.63-3.58-9.2-4.62-9.69-.6,0-1.45.12-2.43.24-3.31.38-8.31,1-12.44-.31-3.87-1.2-5.12-3.2-6.43-5.32a19.14,19.14,0,0,0-2.68-3.59c-7.07-7.33-7.19-12.92-7.26-15.92A7.16,7.16,0,0,0,81.22,51c-1-2.91-.28-6.1.4-8-3-.62-5.89-.67-6.45,0-1,1.06-2.73,2.8-4.62,4.64s-3.86,3.79-5,5.06c-2.95,3.22-6.58-.08-9.78-3-.63-.58-1.28-1.16-1.93-1.72-3-2.54-2.28-6.73-1.46-11.58a50.18,50.18,0,0,0,.93-8.94c0-2.27.52-3.86,1.67-4.87,1.77-1.55,4.4-1.18,6.94-.82,2.39.34,4.85.69,6.51-.42.75-.51.85-.79.85-.79-.19-.68-3.1-2.19-4.84-3.1a43.15,43.15,0,0,1-5.7-3.35A13.17,13.17,0,0,1,53.5,5.92c-3.21,2.28-9.19,6.44-12.45,8.25a15.14,15.14,0,0,1-5.75,1.66A18.28,18.28,0,0,0,26.68,19c-6.18,4-13,5.65-18,6.85-.89.21-1.73.41-2.51.61a4.59,4.59,0,0,0-2.94,1.82,1.58,1.58,0,0,0-.21.58l.14.11c.67.56,1.36,1.13.14,17.68l2.45,7.86c2.86-2,8.65-6,12.67-7.78,1.43-.61,3.54-1.32,5.29-.36,2.23,1.23,2.72,4.24,3.53,9.23l.11.68c.95,5.86-3.84,9.14-8.07,12a31.17,31.17,0,0,0-5.65,4.51c-3.51,4-5.61,6.11-6.51,7L7.36,84c1.7,2.11,10.83,13.07,22.22,19.63,3.62,2.08,6,3,14,5.94a14,14,0,0,1,5.4,3.07c.49.46.53.5,1.07.53,2.75.16,11,2.79,15.09,5s7.07,3.89,10.26,10.34c1.26,2.56,1.12,5.72,1,8.5-.06,1.44-.16,3.85.26,4.24,1.42.89,3.94,3.46,6.87,6.43,3.56,3.62,8.44,8.59,10.25,9.17,2.75.87,9.14.41,11.37.16Z"/></g></g></svg>