<?xml version="1.0" encoding="utf-8"?>
<!-- Generator: Adobe Illustrator 24.1.0, SVG Export Plug-In . SVG Version: 6.00 Build 0)  -->
<svg version="1.1" id="レイヤー_1" xmlns="http://www.w3.org/2000/svg" xmlns:xlink="http://www.w3.org/1999/xlink" x="0px"
	 y="0px" viewBox="0 0 1000 1000" style="enable-background:new 0 0 1000 1000;" xml:space="preserve">
<style type="text/css">
	.st0{fill:#7F4E9B;}
</style>
<g>
	<polygon class="st0" points="465.39,759.65 442.31,759.65 876.79,240.35 899.88,240.35 	"/>
	<polygon class="st0" points="427.37,759.65 404.29,759.65 838.77,240.35 861.85,240.35 	"/>
	<polygon class="st0" points="389.35,759.65 366.26,759.65 800.74,240.35 823.83,240.35 	"/>
	<polygon class="st0" points="351.33,759.65 328.24,759.65 762.72,240.35 785.81,240.35 	"/>
	<polygon class="st0" points="313.3,759.65 290.22,759.65 724.7,240.35 747.79,240.35 	"/>
	<polygon class="st0" points="275.29,759.65 252.2,759.65 686.68,240.35 709.77,240.35 	"/>
	<polygon class="st0" points="237.27,759.65 214.18,759.65 648.67,240.35 671.75,240.35 	"/>
	<polygon class="st0" points="199.24,759.65 176.16,759.65 610.64,240.35 633.72,240.35 	"/>
	<polygon class="st0" points="161.23,759.65 138.14,759.65 572.62,240.35 595.71,240.35 	"/>
	<polygon class="st0" points="123.2,759.65 100.12,759.65 534.6,240.35 557.68,240.35 	"/>
</g>
</svg>
