<svg xmlns="http://www.w3.org/2000/svg" viewBox="0 0 185.3 267.17"><defs><style>.cls-1{fill:#448708;fill-rule:evenodd;}.cls-2{fill:#fff;}</style></defs><title>アセット 100</title><g id="レイヤー_2" data-name="レイヤー 2"><g id="レイヤー_1-2" data-name="レイヤー 1"><path class="cls-1" d="M112.05,202s5.63,21.1,0,24.25-10.89,7-9.64,9.69,1.5,8,0,14.54,1.93,11.44-4.82,14.55S74.44,259,74.44,259s-.73-2.41-.94-13.33c-.1-5.18,0-24.24,0-24.24L50.28,210.58s1-1.14-1.22-5.31-11.29-9.14-11.29-9.14l-12.45,1,4.82-14.54-17.28-20.1-4.48-13.4L1.23,139l9.63,4.85,12.38,1s8-7.35,11.71-10.69,14.7,1,19.28-4.85,12-12.66,9.63-19.4S56.06,75.47,54.23,76s-9.64-14.55-9.64-14.55,6.89-7.71,9.64-9.7S68.49,39.4,68.69,37.17s8.57-12.62,9.63-14.54c2.66-4.82,4.82-9.71,4.82-9.71L88,3.23s7.31,13.26,9.72,12.92,4.1,3,6.74.82c2.2-1.85,7.63-8.9,7.63-8.9l9.52,15s24.64-5.84,29-5.25S164.13,7,165.05,8.07s6.5,9.71,9.64,9.71c4.82,0,10.43-3.11,8.83-1.16-3,3.59-10.66,20-13.65,20.55s-8,6.84-9.64,9.7S152.62,62,150.6,61.41s2.93,8,0,9.7-14.07,17.35-14.46,24.24-3.76,8.87-4.82,19.39-10.84,21.82-9.63,29.09-3.52,8-4.82,14.54S112.05,202,112.05,202Z"/><path class="cls-2" d="M94.13,267.17c-7.83,0-19-6.08-20.43-6.89l-.52-.3L73,259.4c-.08-.27-.8-2.92-1-13.73-.08-4.47,0-19.37,0-23.31L47.79,211.07,49,209.74c0-.29,0-1.36-1.27-3.75-1.6-3-7.64-6.81-10.3-8.33l-14.26,1.19L28.45,183,11.53,163.27,7,149.8l-7-10,1.9-2.21,9.37,4.72,11.44.92c1.78-1.64,8.08-7.4,11.24-10.26,2-1.82,5.28-1.83,8.73-1.85,4,0,8.2,0,10.37-2.8.8-1,1.67-2.07,2.59-3.17,4.15-4.94,8.44-10,6.81-14.82-.89-2.59-2.21-8.08-3.61-13.89-1.63-6.78-4-16.82-5.21-19.06-1.37-.4-4-3-10.37-15.33l-.47-.92.69-.77c.28-.32,7-7.85,9.87-9.91C56.57,48.17,66.5,39,67.2,37c.19-1.66,2.34-4.8,7-11.14,1.28-1.74,2.49-3.38,2.8-3.93,2.59-4.69,4.74-9.53,4.76-9.58L87.89,0l1.38,2.51c3,5.35,7,11.41,8.4,12.13a5.91,5.91,0,0,1,3.39,1c1.34.73,1.66.82,2.4.2,1.69-1.43,5.92-6.74,7.4-8.66l1.31-1.69,10.09,15.86c5.16-1.21,24.39-5.6,28.53-5,2,.23,6.65-4,9.16-6.32,2.93-2.68,3.91-3.53,5-3.46a1.71,1.71,0,0,1,1.2.59c.18.2.5.65.94,1.25,5,6.9,6.88,7.93,7.56,7.93A23.86,23.86,0,0,0,181,15.05c2-.6,3.23-1,4,.18a1.85,1.85,0,0,1-.35,2.35,72.88,72.88,0,0,0-4.59,7.55c-5,8.88-7.63,13.1-10,13.52-2.13.38-6.87,5.84-8.6,9-.25.44-.6,1.13-1,2-4.51,8.58-6.86,12.24-8.75,13.15.1.4.24.87.35,1.26.82,2.92,2,6.92-.77,8.45-2.55,1.42-13.33,16.64-13.69,23a24.75,24.75,0,0,1-2,8.24,38.39,38.39,0,0,0-2.79,11.22c-.53,5.31-3.06,10.57-5.51,15.65s-4.68,9.73-4.13,13.05c.8,4.83-.79,7.25-2.33,9.59a14.1,14.1,0,0,0-2.5,5.49c-1.22,6.11-4.45,39.86-4.77,43.22,1.12,4.25,5.41,22.21-.79,25.68-8.22,4.59-9.29,7.15-9,7.74,1.53,3.26,1.57,9.06.11,15.52a21.91,21.91,0,0,0-.38,5.56c.07,3.69.14,7.51-5.28,10A9.82,9.82,0,0,1,94.13,267.17ZM75.76,258c4.83,2.6,16.45,7.89,21.21,5.69,3.63-1.67,3.6-3.64,3.53-7.22a24.84,24.84,0,0,1,.45-6.29c1.56-6.87,1-11.6.11-13.57-1.48-3.14,1.87-7,10.26-11.64,3.15-1.76,1.43-14.5-.72-22.55l-.07-.26,0-.27c.14-1.52,3.53-37.24,4.84-43.79a17.25,17.25,0,0,1,2.93-6.55c1.44-2.19,2.49-3.78,1.88-7.45-.71-4.25,1.77-9.4,4.39-14.84,2.33-4.85,4.75-9.87,5.23-14.65a40.74,40.74,0,0,1,3-12,22,22,0,0,0,1.84-7.33c.43-7.57,12-23.68,15.22-25.47.3-.17.44-1.18-.65-5-.61-2.18-1-3.5,0-4.41a1.79,1.79,0,0,1,1.47-.49c1.66-1.18,5.81-9.08,7.2-11.73.45-.85.82-1.56,1.08-2,1.51-2.7,6.9-9.77,10.69-10.45,1.41-.6,5.61-8,7.87-12,1.14-2,2.19-3.87,3.09-5.36a22.52,22.52,0,0,1-5.88,1c-2.79,0-6-3.67-10-9.17a1.37,1.37,0,0,1-.15-.21c-.69.55-1.71,1.49-2.57,2.28-4.66,4.27-8.46,7.49-11.58,7.09s-18.69,2.9-28.49,5.22l-1,.25-9-14.07a70.82,70.82,0,0,1-6.53,7.44c-2.36,2-4.49.84-5.76.15a3.37,3.37,0,0,0-1.74-.62c-2.81.38-7.27-6.7-9.85-11.2l-3.56,7.15c-.06.14-2.19,4.95-4.85,9.76-.38.69-1.34,2-3,4.26-2,2.74-6.21,8.43-6.44,9.71-.3,3.42-14.19,15-15.07,15.61-1.92,1.39-6.43,6.2-8.7,8.71,3,5.64,6.65,11.76,8,12.82a1.67,1.67,0,0,1,.79.25c1.45.86,2.62,4.6,6.58,21.08,1.38,5.74,2.68,11.17,3.52,13.62,2.19,6.37-2.87,12.4-7.34,17.72-.9,1.07-1.75,2.09-2.53,3.08-3.06,3.92-8.19,3.94-12.71,4-2.87,0-5.57,0-6.74,1.08-3.71,3.34-11.71,10.68-11.71,10.68l-.48.44L10.45,145.3,5.91,143l3.82,5.41,4.46,13.33,17.64,20.53-4.37,13.19,10.64-.88.4.22c1,.53,9.47,5.31,11.88,9.74A10.7,10.7,0,0,1,52,209.74l23,10.71v1c0,.19-.09,19.1,0,24.21A93.88,93.88,0,0,0,75.76,258ZM54.61,77.41h0ZM97.47,14.67Z"/></g></g></svg>