<svg xmlns="http://www.w3.org/2000/svg" viewBox="0 0 205.96 235.96"><defs><style>.cls-1{fill:#448708;fill-rule:evenodd;}.cls-2{fill:#fff;}</style></defs><title>アセット 140</title><g id="レイヤー_2" data-name="レイヤー 2"><g id="レイヤー_1-2" data-name="レイヤー 1"><path class="cls-1" d="M49.12,68.42s-11.79,7.94-8.58,19.66c.89,3.23,9.64,9.7,9.64,9.7L46.12,110s-2.28,4.61-3.87,5.44-5.8,3.56-8,12.29c-2.54,9.86-2.48,24.18-3.3,28.21s.41,9.28-3.61,13.33a48.16,48.16,0,0,1-13.1,9.61c-3.61,1.82-11,.76-12.21,6.15-1.43,6.47.83,14.54,0,14.54H24.68s5.77,2.48,8,4.41c1.21,1.05,3.63,3.68,9.88,4.68,8.83,1.41,7.63-1.62,14.05.6,4.87,1.69,3.22-2.22,4.72,4.55A61.43,61.43,0,0,0,66,226.59l3.45,6.95L87.1,217.92l11.26-3.77V189.9c0-2.42,6.41-32.34,4.82-33.93s7.23-22.65,9.64-24.25L127.27,122l14.46-9.7h14.45s1.6-8.1,9.64,0,24.1,29.09,24.1,29.09,7.22-4,4.81-9.7-14.45-21.81-14.45-24.24,4-3.25,4.82-9.7,0-19.4,0-19.4l-4.82-4.84s7.23-8.88,4.82-9.7,5.64-2.43,4.82-4.85-4.82-9.7-4.82-9.7,10.46-14.54,9.63-14.54,9.64-8.87,9.64-9.7-.82-6.45,0-9.69S200.23,7,200.23,7l-9.89-4.47-5.49-.48-2.67,13.37a12.45,12.45,0,0,1-1.9,9.59c-3.23,4.85-8.33,13.32-9.64,14.55-1.08,1-6.44,1.66-9.63,0-5-2.63-14.46,0-14.46,0l-9.64,4.85L129,30.16,124.65,19.7l-26.29.5s-5.49-8.61-7.9-7.79S82.41.72,79.18,1.54s-6.74,5.24-6.74,5.24-11.68,7.05-12.62,8.58c-2.5,4.05-15.62,11.51-18,9.91s3.58,4.63,3.58,4.63,10.46,17,9.64,19.39S55,59,55,59Z"/><path class="cls-2" d="M69,236l-4.32-8.7a61.9,61.9,0,0,1-4.8-13.1c-.25-1.11-.41-1.93-.53-2.55,0-.12,0-.24-.07-.35a8.6,8.6,0,0,1-3.15-.55c-2.92-1-3.94-.82-5.48-.52a21,21,0,0,1-8.32,0c-6.13-1-8.94-3.51-10.29-4.73l-.33-.29c-1.59-1.38-5.58-3.28-7.32-4.05H2v-3a1.34,1.34,0,0,0-1.31,1,21.14,21.14,0,0,0-.2-2.33c-.36-3.11-.89-7.81.05-12.06,1-4.63,5.5-5.46,9.09-6.12a15.91,15.91,0,0,0,3.91-1,46.66,46.66,0,0,0,12.7-9.33c2.48-2.49,2.64-5.5,2.81-8.68a26.29,26.29,0,0,1,.4-3.89c.26-1.32.45-4,.66-7.19.41-6.14,1-14.55,2.66-21.09,2.24-8.74,6.47-12.06,8.8-13.26.6-.31,2.08-2.48,3.17-4.67l3.68-11.12c-2.52-2-8.46-6.77-9.31-9.86-3.22-11.72,7-19.76,8.91-21.11l5.44-8.73c-.18-1.82-.65-7.32.09-9.73,0-1.81-4.84-10.72-9.37-18.09-4.79-5-5-5.65-4.1-6.76.42-.5,1.19-.91,2.48-.08,2.08.51,13.59-5.53,16-9.41,1-1.57,8.4-6.22,12.91-8.94.84-1,4.06-4.7,7.36-5.54,2.7-.69,5.11,2.66,7.91,6.53,1.11,1.54,2.76,3.84,3.53,4.29,2.72-.55,6.25,3.72,8.91,7.78l26.48-.51,4.76,11.33,7.13,13,8.62-4.31c.41-.11,10.07-2.75,15.55.12,2.66,1.38,7.18.78,7.94.21a98.91,98.91,0,0,0,5.55-8.3c1.33-2.09,2.7-4.26,3.84-6a11,11,0,0,0,1.71-8.37l-.09-.34.06-.35L183.64.48l7.08.61,10.39,4.69.2.21c.92.94,5.5,5.87,4.51,9.74-.58,2.32-.22,6.23,0,8.11.05.59.09,1,.09,1.21,0,.94-.36,1.41-5.76,6.4-1.39,1.28-3.22,3-3.89,3.7-.37,1.32-2.32,4.45-9.36,14.25a92.36,92.36,0,0,1,4.48,9.11c.86,2.56-2.16,4.06-4.16,5.05l-.26.13.07.21c.6,2.08-2.05,6.14-4.71,9.53l4.28,4.29,0,.57c0,.53.82,13.17,0,19.68a13.32,13.32,0,0,1-3.73,7.92c-.69.77-1.07,1.22-1.07,1.59.19,1.12,3.87,6.72,6.55,10.8,3.24,4.93,6.58,10,7.79,12.86,2.32,5.46-2.57,10-5.47,11.59l-1.14.64-.79-1c-.16-.2-16.08-21-24-29-2.3-2.31-4.29-3.44-5.46-3.09s-1.65,2.32-1.65,2.34l-.25,1.19H142.18L113.66,133c-2.09,1.68-9.36,19.37-9.17,22.24.94,1.56.49,6.18-3.1,25.7-.75,4.08-1.53,8.31-1.53,9v25.32l-12,4Zm-8.85-27.8c1.58,0,1.85,1.4,2.14,2.87.12.6.28,1.4.52,2.48a58.85,58.85,0,0,0,4.55,12.39l2.59,5.22L86.34,216.6l10.52-3.53V189.9c0-.89.51-3.72,1.58-9.54,1.37-7.46,3.91-21.25,3.47-23.59a3.24,3.24,0,0,1-.38-2.2c.5-5,7.66-22.24,10.46-24.1l29.28-19.64h13.82a5.53,5.53,0,0,1,3.33-3.41c2.4-.73,5.17.54,8.47,3.85,7.05,7.1,19.92,23.66,23.37,28.14,1.65-1.22,4.46-3.87,3.09-7.1-1.09-2.58-4.51-7.79-7.53-12.38-5.11-7.79-7-10.88-7-12.45a5.41,5.41,0,0,1,1.83-3.59,10.39,10.39,0,0,0,3-6.29c.69-5.49.16-16,0-18.56l-5.37-5.4.85-1c2.42-3,4.55-6.28,4.92-7.6a1.75,1.75,0,0,1-.88-1.4c-.09-1.34,1.14-2,2.69-2.72a11,11,0,0,0,2.59-1.57c-.74-2-3.58-7.35-4.65-9.28l-.46-.83.56-.77c4-5.55,8.3-11.81,9.28-13.6-.16-.89.65-1.63,4.91-5.57,1.64-1.51,4-3.73,4.77-4.58,0-.16,0-.34-.05-.55-.19-2.05-.59-6.31.12-9.13.41-1.61-1.77-4.81-3.56-6.71L190,4l-3.9-.34-2.33,11.73a14.15,14.15,0,0,1-2.19,10.45c-1.12,1.68-2.49,3.83-3.8,5.91-3.15,4.94-5.12,8-6.06,8.9-1.75,1.64-7.92,2-11.36.24-3.61-1.89-10.63-.62-13.22.08L136.3,46.44l-8.64-15.7-4-9.52-26.11.5L97.09,21c-2.27-3.56-5.21-6.92-6.25-7.15-2.14.63-4-1.94-6.56-5.48C83,6.53,80.47,3.1,79.49,3c-2.18.56-5,3.58-5.87,4.7l-.17.21-.23.14c-5.28,3.19-11.43,7.2-12.15,8.12-2.3,3.72-11.74,9.41-16.59,10.58.62.68,1.32,1.43,2,2.1l.2.25c4.94,8,10.64,18.11,9.78,20.66-.52,1.54-.23,6.37.07,9l0,.52L50.22,69.49l-.26.17c-.47.32-10.85,7.52-8,18,.52,1.87,5.62,6.33,9.08,8.89l.87.65L47.47,110.7c-.59,1.18-2.65,5.12-4.53,6.1s-5.33,3.73-7.28,11.33c-1.62,6.28-2.17,14.53-2.57,20.55-.23,3.39-.41,6.07-.71,7.58a25.19,25.19,0,0,0-.34,3.46c-.18,3.44-.39,7.33-3.68,10.64a49.56,49.56,0,0,1-13.48,9.89,18.28,18.28,0,0,1-4.72,1.31c-3.8.7-6.14,1.31-6.7,3.82-.84,3.76-.33,8.16,0,11.07.07.65.13,1.19.17,1.65H25l.28.12c.25.11,6,2.6,8.38,4.66l.38.34c1.22,1.1,3.5,3.15,8.75,4a18.16,18.16,0,0,0,7.29,0c1.79-.34,3.34-.64,7,.63a4.57,4.57,0,0,0,2.5.34A3.5,3.5,0,0,1,60.13,208.16Zm44.11-53.25h0ZM53.57,48.81h0Zm37.37-35Z"/></g></g></svg>