<svg xmlns="http://www.w3.org/2000/svg" viewBox="0 0 131.15 151.73"><defs><style>.cls-1{fill:#448708;fill-rule:evenodd;}.cls-2{fill:#fff;}</style></defs><title>アセット 102</title><g id="レイヤー_2" data-name="レイヤー 2"><g id="レイヤー_1-2" data-name="レイヤー 1"><path class="cls-1" d="M93.17,94.19c3-1.45,17.69,1,24.09,4.85s6.46,8.19,9.64,9.7,4.14,10.08,0,14.55-24.09,14.54-24.09,14.54-17.68,1.3-14.45-4.85,10.55-4,9.63-9.69-4.82-14.55-4.82-14.55-2.55-6.6-4.81-4.85-.54,7.51-9.64,9.7-13.4,2-14.46,4.84S52,137.79,49.81,137.83s-13.93,19.34-14.46,9.69,4.67-13.47,4.82-19.39,4.43-12.6,0-19.39S29.42,98.41,25.71,94.19s-17-13.82-14.45-14.54S20.9,65.11,20.9,65.11v-9.7s7.18,7.85,9.63,9.7-1.06,1,4.82,9.69S46.91,86.87,45,89.34s4.24,1.7,4.82,4.85,6.79,7.47,9.63,4.85,13.69-.2,9.64-9.7S57.52,78.05,59.44,74.8s-4.81-9.69-4.81-9.69-2.22-9.27-9.64-9.7-9.64-4.86-9.64-4.86-5.93-4-9.64-4.84-9.63-4.85-9.63-4.85-1.79,2.52-4.82,0S.51,33.2,1.62,31.17,6.49,18.85,6.44,16.63,11.26,2.08,11.26,2.08L20.9,6.93l14.45,4.84s-4.05,9,0,14.54A50.48,50.48,0,0,0,45,36l9.51,3.31a5.67,5.67,0,0,1,4.94,1.54C61.37,43,63.22,48.94,65.58,55S78.72,70,78.72,70s7.32-.68,9.64,0S98,74.8,98,74.8s-1.83,1.89,0,4.85S90.18,95.65,93.17,94.19Z"/><path class="cls-2" d="M36.86,151.73a2.49,2.49,0,0,1-.85-.14c-2-.65-2.11-3.16-2.16-4-.33-6,1.39-9.81,2.9-13.19,1-2.22,1.87-4.15,1.92-6.33a30.81,30.81,0,0,1,1-6c1-4.3,2-8.36-.75-12.49s-6.11-7-9.15-9.57a49.51,49.51,0,0,1-5.17-4.81,85.77,85.77,0,0,0-6.74-6.13c-7-6-8.73-7.74-8.36-9.44a1.88,1.88,0,0,1,1.36-1.4c1.24-.63,5.39-7.41,8.55-13.47V51.55L22,54.4c2,2.15,7.51,8.06,9.43,9.51a3.28,3.28,0,0,1,1.66,2.77c.07.77.2,2.37,3.5,7.28A76.27,76.27,0,0,0,43,82c2.83,3.2,4.91,5.57,3.47,7.9l.63.25c1.51.55,3.79,1.4,4.22,3.78.24,1.28,2.34,3.43,4.6,4.18a2.6,2.6,0,0,0,2.55-.17c1.18-1.09,3-1.45,5-1.84s4.22-.85,4.86-2,0-2.81-.54-4.11a26.65,26.65,0,0,0-6.88-9.27c-2.17-2.07-4.21-4-2.67-6.63.78-1.3-1.78-5.18-4.56-7.84l-.32-.3-.1-.43c0-.08-2.06-8.19-8.27-8.55C38,56.5,35,52.85,34.24,51.62c-1.18-.77-5.9-3.75-8.87-4.45s-7.25-3.23-9.14-4.43a4.23,4.23,0,0,1-1.83.71A5.34,5.34,0,0,1,10.3,42C9.69,41.5,8.87,40.88,8,40.2,2.44,36-1.09,33,.3,30.45c1.15-2.12,4.68-12,4.64-13.79C4.89,14.3,8.7,4.48,9.87,1.53L10.47,0l11,5.54L37.4,10.88l-.68,1.51c0,.08-3.64,8.25-.16,13a49.32,49.32,0,0,0,9.14,9.24l9,3.12a7,7,0,0,1,5.89,2.06c1.65,1.83,3,5.54,4.79,10.23.52,1.4,1.07,2.86,1.64,4.32,1.93,4.9,10.18,12.23,12.23,14,2-.16,7.39-.52,9.57.11,2.41.72,9.19,4.55,10,5l1.68,1-1.34,1.39c-.15.16-.92,1.21.19,3,1.37,2.2-.44,6-3.35,11.49-.34.63-.71,1.34-1,2,5.77-.46,17.68,2.16,23.15,5.43a20.53,20.53,0,0,1,7,6.9,7.1,7.1,0,0,0,2.51,2.73c1.63.78,2.86,2.73,3.37,5.37.62,3.22.23,8.18-2.91,11.56-4.28,4.6-23.69,14.44-24.51,14.86l-.27.13-.3,0c-3.11.22-13.43.68-15.89-3.07a3.71,3.71,0,0,1,0-4c1.75-3.35,4.6-4.61,6.69-5.53,2.54-1.12,3.06-1.52,2.79-3.22-.87-5.43-4.67-14.1-4.71-14.19-.75-1.93-2-3.85-2.59-4.21a5.26,5.26,0,0,0-.83,1.79c-.88,2.56-2.22,6.42-9.31,8.13-2.59.62-4.82,1-6.62,1.4-4.38.86-6.33,1.29-6.78,2.5-.61,1.66-11.63,19.31-15.52,20.33a35,35,0,0,0-3.78,4.18C42.18,148.51,39.31,151.73,36.86,151.73Zm-24-71.33a82.63,82.63,0,0,0,7,6.37,81.24,81.24,0,0,1,7,6.43,46.15,46.15,0,0,0,4.86,4.5c3.2,2.71,6.83,5.78,9.73,10.22,3.4,5.21,2.21,10.31,1.16,14.81a27.88,27.88,0,0,0-.92,5.44c-.07,2.78-1.09,5.06-2.18,7.48-1.44,3.22-2.93,6.54-2.64,11.79a4.51,4.51,0,0,0,.2,1.24c1.49-.49,5.19-4.94,7-7.14,3-3.63,4.24-5,5.49-5.19,1.67-1,11.8-14.38,13.3-18.44,1.06-2.85,4.06-3.43,9-4.4,1.86-.37,4-.78,6.49-1.38,5.49-1.32,6.39-3.91,7.18-6.19a6.4,6.4,0,0,1,1.89-3.24,2.74,2.74,0,0,1,2.47-.5c2.43.68,4.18,4.76,4.66,6,.14.3,4,9,4.9,14.85.67,4.15-2.22,5.43-4.54,6.45-2,.86-4,1.75-5.25,4.17-.34.65-.2.87-.14,1,1,1.5,7.38,2.1,12.86,1.73,5.69-2.88,20.2-10.64,23.4-14.08,2.22-2.4,2.69-6.22,2.16-9-.38-2-1.15-3-1.7-3.22a9.59,9.59,0,0,1-3.72-3.78,17.55,17.55,0,0,0-6.05-6c-6.47-3.87-20.43-5.86-22.66-4.78h0a1.81,1.81,0,0,1-2.25-.25c-1.09-1.12-.33-2.54,1.68-6.35,1.16-2.19,3.88-7.34,3.44-8.53a5.78,5.78,0,0,1-.74-5,66.76,66.76,0,0,0-8-4c-1.48-.44-6.35-.2-9.08,0l-.62.06-.47-.4c-.46-.37-11.09-9.31-13.57-15.6-.58-1.48-1.13-3-1.66-4.37-1.51-4-2.94-7.87-4.2-9.26a4.17,4.17,0,0,0-3.55-1.07l-.39.07L54,40.74l-9.73-3.39-.18-.13a51.35,51.35,0,0,1-10-10c-3.48-4.8-1.79-11.51-.75-14.5L20.22,8.27,12.06,4.16C10,9.58,7.92,15.5,7.94,16.6,8,19.25,4.21,29.35,3,31.69,3.51,33,7.9,36.36,9.8,37.82c.93.71,1.78,1.35,2.42,1.89a2.78,2.78,0,0,0,1.77.76,1.41,1.41,0,0,0,.88-.5l.86-1.11,1.18.76c.06,0,5.75,3.83,9.15,4.63,3.93.92,9.87,4.89,10.13,5.06l.32.22.18.35c.07.14,2,3.66,8.38,4,7.54.44,10.32,8.41,10.9,10.41,1.73,1.72,7,7.44,4.76,11.24-.27.46.11,1,2.16,2.92a29.38,29.38,0,0,1,7.57,10.28c1.19,2.79,1.33,5,.43,6.68C69.59,97.91,66.61,98.5,64,99c-1.38.28-2.95.59-3.51,1.11-1.36,1.26-3.33,1.54-5.53.81-2.77-.93-6.08-3.67-6.6-6.49-.12-.65-1.07-1-2.31-1.51S43.56,92,43.2,90.77a2.55,2.55,0,0,1,.61-2.35c.38-.5-1.47-2.6-3.1-4.45a76.15,76.15,0,0,1-6.6-8.34c-3.45-5.12-3.88-7.18-4-8.7a2,2,0,0,0,0-.27s-.11-.1-.44-.35a85.38,85.38,0,0,1-7.23-7.09v6.25l-.17.33C19.81,70.48,15.66,78,12.84,80.4Zm36.93,55.93ZM11.69,81.09h0ZM2.94,31.88Z"/></g></g></svg>