<svg xmlns="http://www.w3.org/2000/svg" viewBox="0 0 341.42 343.99"><defs><style>.cls-1{fill:#448708;fill-rule:evenodd;}.cls-2{fill:#fff;}</style></defs><title>アセット 134</title><g id="レイヤー_2" data-name="レイヤー 2"><g id="レイヤー_1-2" data-name="レイヤー 1"><path class="cls-1" d="M272.38,55.34c.81,1.6,2.4-22.64,4.81-24.24s2.21-11.92,2.21-11.92L291.64,2s12.63,7.66,14.46,9.7c1.2,1.33,10,7.67,13.55,19.74,1.56,5.42,4,5,8.62,4.5A48.14,48.14,0,0,1,335,36l4.82,14.54s-6.41,16.15-14.46,19.4-14.45,10.52-14.45,9.69S304.75,95.66,304,97.79c-4,11.19-1.6,16.86-1.6,16.86s1.3,15.95,3.71,18.26c2.76,2.65,14.61,9.29,12.2,8.46s-17.83,12.54-17,15.79-11.23,18.57-9.65,24.23,4.82,13.72,0,14.55-28.9,9.7-28.9,9.7-20.08,3.25-19.26,4.85,1.58,21.81,0,24.24-10.07,7.17-9.64,9.7c1.23,7.3,1.59,9.69,4.82,14.54s0,17.79,0,19.39-3.23,3.25-4.82,4.85-24.09,9.7-24.09,9.7l-9.63,19.39s0,2.42-9.65,9.7S176.83,332.52,176,336.54s-20.87,5.68-19.27,4.85-2.06-6.79-1.52-13.27c.1-1.2-1.57-4.18-1.57-4.18a33.86,33.86,0,0,1-6.56-11.64c-2.41-7.27-4.82-8.1-4.82-14.54s-.81-12.12-4.82-9.7-17.69,4.85-19.28,9.7-10.79,11-14.46,14.54c-7.07,6.79-11.44,15.56-14.46,14.55S74.79,320.4,74.79,322c0,1.87-9.64,6.71-9.64,4.85,0-1.61-4.82-9.7-4.82-9.7l-9.64-4.85-4.82-4.84L34.81,321l-13,20.37a38.09,38.09,0,0,1-4.82-9.7,51.78,51.78,0,0,1-2.5-22.07l-7.14-7-4.82-4.85s15.28-8.1,19.28-9.7,28.1-6.45,28.92-9.7,14.46-14.54,14.46-14.54L79.61,259c2.41-.82,20.87,4,24.1,0s9.64-15.37,19.28-24.24,23.28-9.7,24.1-14.54,1.6-11.3,9.65-19.4,10.45-17,14.46-19.4,6.41-12.94,4.81-14.54,4.82-29.09,4.82-29.09,19.29-15.37,28.92-19.39,21.68-1.6,28.91-9.7,20.09-12.94,24.08-19.39c2.93-4.76,10.07-12.85,9.64-14.55C270.78,68.29,271.56,53.74,272.38,55.34Z"/><path class="cls-2" d="M21.89,344l-1.31-1.68a39.35,39.35,0,0,1-5-10.11,53.07,53.07,0,0,1-2.66-22l-6.62-6.5L0,297.38l1.79-.95c.62-.33,15.39-8.15,19.42-9.76,1.31-.52,4.32-1.3,8.15-2.28,6-1.54,18.48-4.73,19.91-6.51,1.08-3.54,11.67-12.52,14.92-15.22l.22-.18,14.72-4.93c1.1-.37,3.18-.11,7.41.48,4.67.65,14.39,2,16,0,.83-1,1.94-2.66,3.22-4.54,3.6-5.28,9-13.26,16.21-19.87,5.14-4.72,11.24-7.2,16.15-9.2,3.72-1.51,7.23-2.94,7.49-4.48l.11-.64c.81-4.84,1.91-11.48,9.95-19.56a58.69,58.69,0,0,0,8.88-12.15c2-3.43,3.66-6.14,5.87-7.48,3.25-2,5.11-10.81,4.47-12.26-.67-.7-1.93-2.93,4.48-30.43l.12-.51.41-.32c.79-.64,19.56-15.55,29.27-19.61a50.38,50.38,0,0,1,11.9-2.81c6.34-1,12.33-1.86,16.47-6.5,3.62-4.06,8.43-7.21,13.09-10.26s8.95-5.87,10.83-8.92c1.15-1.87,2.91-4.2,4.61-6.46s4.52-6,4.81-7.11C270,71,269.93,65.16,270,62.8c.1-7.23.73-8.45,1.41-8.84.25-1.3.59-4,.89-6.36,1.55-12.12,2.4-16.62,4.1-17.75.91-.64,1.64-5.71,1.54-10.64v-.5L291.23,0l1.19.72c1.31.8,12.88,7.84,14.8,10,.12.13.48.45.86.79,2.71,2.41,9.9,8.82,13,19.53,1.18,4.09,2.35,3.95,6.72,3.46l.3,0a49.71,49.71,0,0,1,7,0l1,.07,5.3,16-.2.51c-.27.68-6.74,16.78-15.28,20.23-5.24,2.11-9.78,6-12.22,8.14a17.6,17.6,0,0,1-1.78,1.42c-1.14,2.69-5.51,14.59-6.54,17.46-3.71,10.37-1.64,15.73-1.62,15.78l.08.21,0,.24c.6,7.43,2.06,16.15,3.25,17.3,1.37,1.32,5.47,3.89,8.47,5.76,4.53,2.85,5,3.14,4.36,4.48a1.54,1.54,0,0,1-2,.77c-3,.47-15.13,11.58-15.23,14,.45,1.77-1.09,4.67-4.08,10.06-2.68,4.8-6.34,11.38-5.6,14,.21.74.45,1.53.7,2.34,1.4,4.6,2.84,9.36,1.12,12.15a4.25,4.25,0,0,1-3,1.94c-3.7.63-20.36,6.57-28.64,9.62l-.28.08c-7.18,1.16-15.5,2.87-17.86,3.85.88,4.93,1.34,21.93-.39,24.58a21.67,21.67,0,0,1-4.42,4c-1.69,1.32-4.84,3.77-5,4.72l.06.27c1.18,7,1.53,9.1,4.53,13.6s1.37,13.37.55,18.22c-.14.83-.3,1.77-.3,2,0,1.82-1.76,3.15-3.47,4.44a18.33,18.33,0,0,0-1.79,1.47c-1.61,1.61-16.93,7.27-24.07,9.85l-9.28,18.67c-.35,1.33-2.16,4.36-10.17,10.41-9.53,7.18-13.2,10.22-13.9,13.64-1.09,5.35-19.29,6.25-19.47,6.25-1.11,0-2.48.07-2.82-1.23a1.58,1.58,0,0,1,.45-1.52,20.29,20.29,0,0,0-.61-2.66,28.27,28.27,0,0,1-1.31-9.68,11.17,11.17,0,0,0-1.3-3.18,35.66,35.66,0,0,1-6.75-12.05,41.09,41.09,0,0,0-2.55-6,17.19,17.19,0,0,1-2.35-9c0-7.52-1.23-8.6-1.48-8.74s-.58,0-1.06.32a38.71,38.71,0,0,1-6.74,2.66c-4.41,1.48-11.07,3.71-11.89,6.22-1.29,3.93-6.39,8.11-10.9,11.79-1.53,1.26-3,2.44-4,3.37a79,79,0,0,0-7.16,8.22c-3.62,4.58-6,7.61-8.81,6.67-.94-.31-2.53-1-4.38-1.75a76,76,0,0,0-8.56-3.24c-1.73,2.65-8,5.49-10.06,5.49a2.32,2.32,0,0,1-1.26-.33,1.85,1.85,0,0,1-.87-1.59c-.12-.89-2.32-5.06-4.38-8.56l-9.47-4.76L46,309.69,36,321.91Zm117.27-58a3.23,3.23,0,0,1,1.61.42c2.11,1.19,3,4.58,3,11.35a14.34,14.34,0,0,0,2,7.69,44.89,44.89,0,0,1,2.71,6.38,32.64,32.64,0,0,0,6.22,11.08l.22.29c.57,1,1.88,3.54,1.75,5a25.3,25.3,0,0,0,1.22,8.66,19.18,19.18,0,0,1,.69,3.22c4.53-.19,15.21-2.12,15.93-3.9.94-4.64,5.29-8.08,15-15.42,7.67-5.79,8.88-8.24,9.05-8.67V312l10.06-20.25.56-.2c10.63-3.83,22.35-8.38,23.57-9.38a18.29,18.29,0,0,1,2.07-1.71c.76-.58,2.16-1.63,2.28-2.1a19.31,19.31,0,0,1,.34-2.45c.64-3.8,2.14-12.7-.09-16.06-3.35-5-3.8-7.68-5-14.76l-.06-.36c-.41-2.42,2.61-4.77,6.11-7.49a23.81,23.81,0,0,0,3.75-3.29c1.18-2.16.57-20.87-.11-22.8a1.69,1.69,0,0,1,0-1.5c.36-.7,1.18-2.33,20.22-5.42,2.15-.79,24.28-8.9,29-9.71a1.25,1.25,0,0,0,1-.57c1-1.63-.41-6.29-1.44-9.7-.25-.83-.5-1.63-.71-2.4-1.08-3.85,2.45-10.18,5.86-16.31,1.63-2.94,3.87-7,3.77-8-.51-2,1.89-5.48,7.12-10.3a48.61,48.61,0,0,1,8.23-6.32l-1.17-.74c-3.27-2-7.35-4.61-8.95-6.14-2.57-2.46-3.8-14.91-4.14-19-.45-1.29-2.07-7.27,1.66-17.69,6.23-17.44,7-19.27,8.14-19.27h0c.29-.23.68-.56,1-.88,2.57-2.22,7.36-6.35,13.05-8.64,6.61-2.67,12.28-15.38,13.42-18.06l-4.32-13a40.29,40.29,0,0,0-5.47,0l-.29,0c-4.5.51-8.06.91-9.94-5.61C315.34,22,308.62,16,306.09,13.74a14.16,14.16,0,0,1-1.1-1C303.86,11.45,296.9,7,292.05,4L280.91,19.65c0,3.54-.21,10.75-2.8,12.63-1.05,1.45-2.23,10.7-2.87,15.7-.85,6.69-1.05,8.25-1.92,8.73-.44,2.95-.72,12.67.51,17.66.41,1.6-1.06,3.74-5.37,9.47-1.65,2.2-3.36,4.47-4.44,6.22-2.24,3.62-6.86,6.65-11.75,9.85-4.49,3-9.13,6-12.49,9.76-4.87,5.45-11.68,6.48-18.27,7.47a47.81,47.81,0,0,0-11.18,2.61c-8.57,3.58-25.33,16.64-28.16,18.86-2.76,11.94-5.29,25.16-4.89,27.42.68.89.88,2.41.61,4.61-.43,3.53-2.42,9.92-5.92,12-1.56.94-3,3.37-4.84,6.45a61.4,61.4,0,0,1-9.33,12.72c-7.37,7.41-8.34,13.25-9.12,17.94l-.11.65c-.54,3.18-4.42,4.76-9.32,6.76-4.68,1.9-10.51,4.27-15.24,8.63-6.93,6.38-12.25,14.18-15.77,19.35-1.37,2-2.45,3.61-3.36,4.73-2.48,3.09-9.64,2.36-18.75,1.09a39.88,39.88,0,0,0-6.07-.6l-14.17,4.75c-6.32,5.26-13.32,11.89-13.75,13.58-.68,2.69-7,4.73-22,8.57-3.57.91-6.65,1.7-7.78,2.15C19.25,290.68,9.12,296,5,298.14l3.39,3.41L16,309.08l-.1.75a50.51,50.51,0,0,0,2.42,21.35,45.6,45.6,0,0,0,3.4,7.44l11.89-18.54,12.11-14.86,5.82,5.85L61.4,316l.22.37a62.06,62.06,0,0,1,4.79,9.3c1.92-.5,6.2-2.86,6.9-3.91a1.73,1.73,0,0,1,.76-1.23c1.23-.82,3.17-.28,11.49,3.21,1.71.72,3.33,1.4,4.17,1.67s3.86-3.6,5.51-5.68a80.4,80.4,0,0,1,7.43-8.52c1.06-1,2.55-2.24,4.13-3.53,3.77-3.08,8.93-7.31,10-10.4,1.29-4,7.93-6.17,13.79-8.13a39.42,39.42,0,0,0,6.13-2.38A4.78,4.78,0,0,1,139.16,286Zm-89.93-8Zm.07-.15Zm195.51-68a.84.84,0,0,1,.08.21A.9.9,0,0,0,244.81,209.8Zm-69.94-42Zm2.2-2h0Zm93.85-90.7h0Zm2.79-20.43Z"/></g></g></svg>