<svg xmlns="http://www.w3.org/2000/svg" viewBox="0 0 172.89 163.48"><defs><style>.cls-1{fill:#448708;fill-rule:evenodd;}.cls-2{fill:#fff;}</style></defs><title>アセット 113</title><g id="レイヤー_2" data-name="レイヤー 2"><g id="レイヤー_1-2" data-name="レイヤー 1"><path class="cls-1" d="M34.24,154.57,23.37,132.13s-1.81-3.52-7.35-14C9.39,105.6,12.24,101,11.75,96.56S6.38,84.19,6.38,84.19,1.14,72.61,1.56,69.64c1.08-7.63,0-19.39,0-19.39l19.27-19.4A47.85,47.85,0,0,0,30.47,26C38,20.9,51,10.66,52.87,9.53,56,7.58,63,6.82,64.2,6.61c7-1.2,10.29,10.46,10.29,10.46L86.93,17l10-9.61,10.67-5.64,9.3,7s8,3.89,10,6.31,4,8.1,4.83,11,4.21,3.75,8.45,3.07c5.55-.9,16.41-5.5,20.46-7.92s10.78-6.42,10.78-6.42c-.09,6.11-1.14,16.11-1.14,16.11s-7,12.39-9.64,14.55c-9.24,7.48-14.46,19.39-14.46,19.39s-2,3.26,0,12.9,3,13,4.77,16.19-.79-.66,2.59,6,7,13.41,7,13.41-10.07-5-14.46,0-9.83,10.28-14.45,14.54-7.81,5-14.46,9.7-15.85,12.42-14.45,14.54-2.85,9.89-14.46,9.7-24.09,0-24.09,0l-4.82-9.7-4.82,9.7-10.68-2.34Z"/><path class="cls-2" d="M55.38,163.48,43.2,160.76l-10.09-5.08L22,132.79s-1.85-3.61-7.33-14C9.5,109,9.9,103.75,10.2,99.9a17.21,17.21,0,0,0,.06-3.18C9.9,93.35,6.41,87.1,5.1,85L5,84.8c-.9-2-5.39-12.13-4.94-15.37,1.05-7.37,0-18.93,0-19.05L0,49.69,20,29.55l.33-.11a46.46,46.46,0,0,0,9.29-4.68c4.56-3.08,11.19-8.09,16-11.76,3.61-2.72,5.68-4.29,6.43-4.75,2.65-1.65,7.37-2.48,11.17-3L64,5.13C70.86,4,74.49,12.45,75.58,15.57l10.74-.05L96,6.18,107.7,0l10,7.46c1.29.64,8.25,4.14,10.33,6.63,2.3,2.75,4.34,9,5.11,11.48s5,2.31,6.79,2c5.21-.85,15.94-5.35,19.92-7.73s10.79-6.42,10.79-6.42l2.3-1.37,0,2.68c-.09,6.11-1.11,15.84-1.15,16.25l0,.31-.16.27c-.73,1.29-7.2,12.7-10,15-8.85,7.17-14,18.72-14,18.84l-.09.17h0s-1.6,3.11.23,11.81c2,9.62,3,12.86,4.6,15.76.69,1.21,1,1.72.91,2.37a32,32,0,0,0,1.72,3.68c3.32,6.55,7,13.3,7,13.37l2.25,4.15-4.24-2.09c-2.51-1.24-9.7-3.73-12.66-.35-4.72,5.36-10.53,10.93-14.57,14.65a39.66,39.66,0,0,1-7.81,5.52c-1.9,1.11-4,2.36-6.79,4.3-7.87,5.57-13.56,11.07-13.95,12.71.64,1.19.46,2.91-.51,4.67-1.91,3.48-6.83,7.15-14.91,7.15h-.43c-11.46-.19-23.92,0-24,0l-.94,0-3.9-7.85Zm21.54-3.3c3.57,0,7.54,0,11.4.08,8.15.14,11.49-3.82,12.32-5a3.48,3.48,0,0,0,.84-2.36c-2.36-3.59,8.29-11.92,14.86-16.57,2.84-2,5.06-3.3,7-4.44a37.35,37.35,0,0,0,7.29-5.13c4-3.68,9.71-9.17,14.35-14.43,3.21-3.66,8.66-2.93,12.36-1.84-1.38-2.59-3.33-6.28-5.17-9.9s-2.07-4.4-2.06-5c-.07-.14-.21-.42-.5-.92-1.84-3.26-2.81-6.53-4.93-16.62-1.95-9.32-.33-13.12.08-13.87.48-1.08,5.7-12.48,14.85-19.9,1.75-1.41,6.45-9.12,9.13-13.84.14-1.46.77-7.79,1-13-2.33,1.38-5.9,3.5-8.42,5-4.26,2.56-15.36,7.21-21,8.12-5.38.87-9.07-.64-10.13-4.12-1.15-3.79-3-8.52-4.54-10.42-1.33-1.59-6.52-4.48-9.48-5.93L116,9.94l-8.54-6.4-9.64,5.1L87.54,18.52l-14.18.05-.31-1.09c0-.11-3.08-10.33-8.6-9.39l-.77.12c-1.87.26-7.55,1.06-10,2.59-.67.41-3.23,2.35-6.2,4.6-4.87,3.68-11.53,8.72-16.16,11.85a49.29,49.29,0,0,1-9.65,4.9L3.11,50.81c.22,2.69.89,12.32-.07,19C2.82,71.43,5.23,78,7.71,83.48c.56.93,5.05,8.38,5.54,12.92a20.27,20.27,0,0,1-.06,3.73c-.28,3.68-.63,8.26,4.15,17.29,5.49,10.38,7.35,14,7.37,14l10.66,22,9,4.53,9.36,2.06,5.64-11.36,5.74,11.56C67,160.23,71.52,160.18,76.92,160.18ZM104,151.24Z"/></g></g></svg>