<svg xmlns="http://www.w3.org/2000/svg" viewBox="0 0 104.93 134.4"><defs><style>.cls-1{fill:#448708;fill-rule:evenodd;}.cls-2{fill:#fff;}</style></defs><title>アセット 98</title><g id="レイヤー_2" data-name="レイヤー 2"><g id="レイヤー_1-2" data-name="レイヤー 1"><path class="cls-1" d="M16.38,74.72l19.28-4.85,4.81-9.7,9.64-9.69L30.84,35.93H45.29s11.81,11.93,14.46,9.7,14.45-9.7,14.45-9.7l9.64-19.39L93.48,2s7.94,4.5,9.64,9.69-3.76,16.53-4.83,19.4-.14,13-4.81,14.54-12,11.2-14.46,9.7S67.65,57,64.57,60.17L50.11,74.72s-2.36,3.1-9.64,4.85-4.24.39-4.81,4.85,4.81,9.69,4.81,9.69S24.48,95.77,26,99s-4.82,19.39-4.82,19.39l9.64,4.86L21.2,132.9H11.56l-9.63-9.69,9.63-14.55L16.38,99,11.56,84.42Z"/><path class="cls-2" d="M21.83,134.4H10.94L0,123.4l10.26-15.49,4.51-9.06L9.94,84.3l5.41-10.86,19.27-4.86,4.61-9.29,8.6-8.65L26.36,34.43H45.92l.44.45c5.2,5.25,11,9.69,12.51,9.53,2.59-2.14,12.17-8.24,14.18-9.52l9.54-19.18L93,0l1.22.69c.34.2,8.47,4.86,10.32,10.53,1.6,4.93-2.11,13.81-4.1,18.58-.32.77-.58,1.39-.74,1.81a19.42,19.42,0,0,0-.53,3.63c-.42,4.39-1,10.41-5.22,11.81-1.84.61-4.47,3-6.8,5.05-3.68,3.3-6.59,5.9-8.9,4.51-1.52-.91-9.55,1.48-12.61,4.61L51.22,75.73c-.5.6-3.33,3.6-10.4,5.3-1,.24-1.78.41-2.42.56-.47.1-.92.2-1.27.29a9.6,9.6,0,0,1,0,2.73c-.39,3,3,7.11,4.38,8.43l2.29,2.24-3.19.33c-6,.62-11.91,2-13.12,3,1.17,3.57-2.58,14.19-4.41,19l10.27,5.18Zm-9.65-3h8.4l7.73-7.78-9-4.55.5-1.27c3-7.51,5.61-16.61,4.86-18.18a2.39,2.39,0,0,1,.07-2.29c1.34-2.41,8-3.72,12.71-4.37-1.67-2.14-3.7-5.49-3.28-8.74A6.33,6.33,0,0,0,34.1,82c-.46-2.42,1-2.75,3.64-3.34l2.38-.55c6.55-1.57,8.78-4.28,8.81-4.31l.11-.13L63.5,59.11C66.67,55.88,76.14,52,79.69,54c1-.1,3.77-2.6,5.46-4.11C87.82,47.48,90.57,45,93,44.21s2.86-5.88,3.18-9.25a19.47,19.47,0,0,1,.7-4.39c.17-.46.45-1.12.79-1.93,1.58-3.77,5.27-12.62,4-16.49-1-3.2-5.24-6.47-7.76-8.12L85.14,17.29,75.36,37,75,37.2c-.12.08-11.76,7.44-14.29,9.58-3,2.51-10.28-3.58-16-9.35H35.31L52.38,50.32,41.71,61.06l-5,10.09L17.42,76l-4.24,8.52L18,99.08l-5.19,10.41L3.85,123ZM79.79,54Z"/></g></g></svg>