<svg xmlns="http://www.w3.org/2000/svg" viewBox="0 0 179.92 102.02"><defs><style>.cls-1{fill:#448708;fill-rule:evenodd;}.cls-2{fill:#fff;}</style></defs><title>アセット 133</title><g id="レイヤー_2" data-name="レイヤー 2"><g id="レイヤー_1-2" data-name="レイヤー 1"><path class="cls-1" d="M2.12,54.92c2.42,0,16.94-7.28,21.77-9.7s17.68-10.53,19.27-9.7,5.64,3.25,9.65-4.85l9.63-19.39C64.85,6.42,64,.76,67.26,1.58s23.95,4.53,26.35,7,12.13,8.65,15.52,9c8.74.79,14.11-1.11,21.7-2.39,1.76-.29,9.69-3.45,11.28-2.63l7,3.64v19.4s-1,3.52,6.15,3.52c9.63,0,14.21,8.08,12.32,9.8s-2.42,5.25.81,10.92,10.07,17.58,8.48,20,2.74,12.33,1.15,13.93S159,91.4,155.24,93c-11.31,4.77-20.15-3.58-28.19,2.86s-15.62,5.14-21.26,2.72S88.11,86.43,81.71,84s-22.3-9.68-24.09-9.7c-9.36-.14-16,8.09-14.46,4.85l-6.49,4c2.92-.24-15.2,1.43-22.43-4a64.28,64.28,0,0,1-9.63-9.7S-.28,54.92,2.12,54.92Z"/><path class="cls-2" d="M114.62,102a23.88,23.88,0,0,1-9.43-2.09c-2.71-1.17-6.69-3.85-10.89-6.67-4.83-3.25-9.82-6.6-13.12-7.85-2.53-1-6.4-2.61-10.49-4.35-5.07-2.16-12-5.12-13.14-5.26-5.38,0-10,3-12.22,4.51-1.14.76-2,1.36-2.85,1l-3.95,2.45,0,.74-1.79.14h0c-3.36.16-17.07.5-23.45-4.32a65.17,65.17,0,0,1-9.91-10l-.16-.21-.09-.24C.23,61.16-.67,55.88.49,54.26a2,2,0,0,1,1.63-.84c.7,0,4.15-1,21.09-9.54,1.42-.72,3.62-2,5.95-3.3,10.7-6.11,13.17-7.18,14.7-6.39l.15.08a4.07,4.07,0,0,0,3.21.59c1.44-.46,2.9-2.14,4.24-4.85l9.63-19.4a23.39,23.39,0,0,0,1.64-5.17c.52-2.31.94-4.13,2.37-5a3.21,3.21,0,0,1,2.53-.3c.68.17,2.27.5,4.29.91,13,2.68,20.93,4.6,22.75,6.44,2.4,2.42,11.77,8.27,14.6,8.53,6.4.58,10.88-.33,16.06-1.38,1.66-.33,3.39-.68,5.25-1a29.74,29.74,0,0,0,2.85-.85c5.44-1.75,7.95-2.37,9.37-1.63l7.85,4.06V35.73l-.06.21h0a.83.83,0,0,0,.2.51c.27.33,1.25,1.1,4.51,1.1,7.83,0,12.56,4.87,13.83,8.14.69,1.79.51,3.34-.49,4.26-1.73,1.57-1.34,4.8,1.09,9.07l.25.44c7.66,13.46,9.72,18.79,8.18,21.13-.44.77.39,4.38.83,6.32,1,4.13,1.43,6.54.14,7.85s-3.91,1-11.41.13c-4.37-.51-10.34-1.19-11.89-.54-5.81,2.45-11,1.68-15.55,1-4.81-.72-8.61-1.29-12.29,1.66A21.11,21.11,0,0,1,114.62,102ZM57.4,72.81h.24c1.2,0,4.44,1.32,14.23,5.49,3.88,1.65,7.9,3.37,10.37,4.3C85.86,84,91,87.43,96,90.77c4.09,2.75,8,5.34,10.41,6.4,7.27,3.12,13.72,2.3,19.73-2.51,4.7-3.77,9.74-3,14.62-2.28,4.37.65,8.9,1.33,13.93-.79,2.11-.9,6.68-.46,13.4.31,3.19.37,7.46.87,8.86.65a25.51,25.51,0,0,0-.85-5c-1-4.27-1.5-7-.41-8.64.46-1.43-2.31-7.5-8.28-18l-.25-.44c-4.06-7.1-2.59-10.82-.59-12.7a4.26,4.26,0,0,0-1-2.49,12.29,12.29,0,0,0-10.21-4.76c-3.45,0-5.79-.79-6.94-2.34a3.69,3.69,0,0,1-.71-2.84V17l-6.16-3.19c-1.05-.17-5.31,1.2-7.14,1.79a28,28,0,0,1-3.27.95c-1.82.31-3.51.65-5.16,1-5.18,1.05-10.08,2-16.92,1.43-4-.37-14.11-7-16.46-9.4C91,8,76.69,5.09,71.31,4c-2.13-.44-3.67-.75-4.42-1a.82.82,0,0,0-.25,0c-.34.25-.73,2-1,3.1a25.62,25.62,0,0,1-1.87,5.84l-9.63,19.4c-1.75,3.55-3.72,5.63-6,6.38A6.89,6.89,0,0,1,42.71,37c-1.68.28-8.15,4-12.06,6.2-2.37,1.35-4.6,2.63-6.09,3.38C9.85,54,4.91,55.89,2.94,56.31c-.06,1.9,1.4,7.6,3,12.42A62.33,62.33,0,0,0,15.15,78C20.53,82,33,81.81,36.23,81.69L46.8,75.14l-.48,1A22.17,22.17,0,0,1,57.4,72.81Zm84.13-59Z"/></g></g></svg>