<svg xmlns="http://www.w3.org/2000/svg" viewBox="0 0 104.99 162.64"><defs><style>.cls-1{fill:#448708;fill-rule:evenodd;}.cls-2{fill:#fff;}</style></defs><title>アセット 116</title><g id="レイヤー_2" data-name="レイヤー 2"><g id="レイヤー_1-2" data-name="レイヤー 1"><path class="cls-1" d="M98.38,93.77c-2.51-1-6.55-8.79-5.63-16.07s.81-4.09,5.63-8.16a13.76,13.76,0,0,0,4.82-9.7s-1.4-7.47,0-9.7-3.92-4.93-3.92-4.93S98.14,33,93.56,30.75,89,30.26,88.74,25.9,85.92,20,83.92,16.2c-1-1.88-14.45-14.54-14.45-14.54S59.74,4.1,61,6.15c7.84,12.48-3.22,19.32-3.22,19.32S51.87,31.07,45,32.39c-10.44,2-9.3,5-9.3,5s-9.58,6.2-14.46,12.73S7.45,62.51,6.83,64.68s0,9.7,0,9.7L2,84.08l9.63,4.85a45.51,45.51,0,0,1,0,14.54c-1.3,7.76-4.19,16.19-4.81,19.39s4.81,4.86,4.81,4.86a43.23,43.23,0,0,0,.92,13.55c1.68,6.94-2.36,8.79-.92,10.68s9.2,2.2,9.2,2.2,2.25,7,9.48,5.58c4-.77,12.52,2,13.43,1.3,2.89-2.23,9-2.61,9-2.61s10.6-2.83,11.9-6.47,14.45,0,14.45,0l10.53-8,8.75-11.39s3.42-21.19,4.82-29.09S100.88,94.79,98.38,93.77ZM79.1,69.54c-2,4.07.63,7.95-4.82,9.69s-12.48,7.52-14.45,9.7-8.1,6.15-9.64,9.69-9.64,9.7-9.64,9.7H30.92V118L26.1,132.56l-4.82-4.84-1-15.42L26.1,93.77l4.82-9.69S46.68,73.8,45.37,69.54s0-4.86,0-4.86-1.44-7.07,0-9.69,8.68-2.47,9.64-4.85,4.82-4.85,4.82-4.85,7.52-1.07,9.64,4.85,2,8.87,4.81,9.7S81.12,65.46,79.1,69.54Z"/><path class="cls-2" d="M43.18,162.64a26.33,26.33,0,0,1-4.13-.6c-2.71-.52-6.43-1.22-8.44-.84a9.53,9.53,0,0,1-10.81-5.6c-2.88-.18-7.85-.77-9.35-2.73-1.12-1.48-.48-3,0-4.17a9.72,9.72,0,0,0,.62-7.08,44.29,44.29,0,0,1-1-12.88c-2.41-1-5.3-3.1-4.69-6.16.23-1.21.74-3,1.4-5.32a137.56,137.56,0,0,0,3.4-14,45.3,45.3,0,0,0,.13-13.3L0,84.75,5.3,74.09c-.15-1.93-.53-7.68.09-9.82.39-1.36,2-2.79,5.26-5.63a63.91,63.91,0,0,0,9.43-9.4C24.36,43.51,32,38.15,34.26,36.59a3.24,3.24,0,0,1,.36-1c1.16-2.07,4.47-3.61,10.14-4.7,6.3-1.22,12-6.49,12-6.54l.24-.19a13.16,13.16,0,0,0,4.08-4.52c2-3.8,1.58-8.08-1.34-12.72a2.21,2.21,0,0,1-.18-2C60.47,2.67,65.93,1,69.1.2l.8-.2.6.56c3.2,3,13.72,13,14.75,14.94a24.75,24.75,0,0,0,2,3.05c1.45,2,2.82,3.92,3,7.27a19.52,19.52,0,0,0,.19,2.06l.63.23a22.47,22.47,0,0,1,3.18,1.29c4.6,2.3,6.09,11.85,6.46,14.87,1.27.75,3.59,2.32,4.12,4.23a3,3,0,0,1-.34,2.43c-.67,1.07-.42,5.31.2,8.63l0,.27a15.24,15.24,0,0,1-5.36,10.85,18.75,18.75,0,0,1-3.52,2.42c-1.06.57-1.06.57-1.58,4.79-.89,7,3.2,13.88,4.7,14.49h0c.17.08.35.14.53.21,2.51,1,6.71,2.59,5.2,11.14-1.38,7.8-4.78,28.86-4.81,29.07l-.06.38L90.7,145,79.42,153.6l-.72-.2c-6.36-1.75-12.27-2-12.64-.94-1.49,4.16-11,6.9-12.92,7.41l-.29,0c-1.58.1-6.12.71-8.18,2.31A2.3,2.3,0,0,1,43.18,162.64ZM32,158.09a43.64,43.64,0,0,1,7.61,1,33.14,33.14,0,0,0,3.49.55c3-2.12,8.39-2.63,9.4-2.71,4-1.08,10-3.53,10.73-5.48,1.52-4.23,10.87-2.37,15.55-1.13l9.78-7.44L97,132c.46-2.88,3.48-21.5,4.76-28.74,1.08-6.12-1.06-6.94-3.33-7.82l-.58-.23c-3.29-1.33-7.54-9.77-6.55-17.65.62-4.92.79-5.77,3.12-7.05a15.85,15.85,0,0,0,3-2.07A12.15,12.15,0,0,0,101.69,60c-.3-1.65-1.34-8.1.23-10.61,0-.5-1.53-1.88-3.32-2.79l-.74-.37-.07-.83c-.42-4.39-2.12-11.87-4.9-13.26A19.72,19.72,0,0,0,90.1,31c-2.53-.84-2.68-1.72-2.86-5-.14-2.48-1.11-3.82-2.45-5.68a28.56,28.56,0,0,1-2.2-3.41C82,15.81,75.32,9.25,69,3.32A24.64,24.64,0,0,0,62.6,5.84C65.06,10,65.87,14,65,17.76a15.58,15.58,0,0,1-6.27,8.9c-.87.8-6.64,5.9-13.39,7.2s-7.92,2.91-8.1,3.25l.34.9-1,.66c-.09.06-9.41,6.13-14.07,12.36-2.81,3.77-6.72,7.16-9.86,9.88-1.82,1.58-4.09,3.54-4.36,4.2-.39,1.38-.17,6.35.06,9.15l0,.41L4,83.41l9,4.51.14.72a47.34,47.34,0,0,1,0,15.08,137.18,137.18,0,0,1-3.48,14.35c-.6,2.14-1.13,4-1.34,5.08-.27,1.39,2.48,2.73,3.78,3.13l1.19.37-.14,1.24a42.27,42.27,0,0,0,.88,13,12.76,12.76,0,0,1-.77,9,4.56,4.56,0,0,0-.41,1.17c.57.69,4.41,1.46,8.07,1.6l1,0,.32,1c.2.58,2.07,5.66,7.78,4.57A10,10,0,0,1,32,158.09Zm-5.24-22.74-6.94-7-1.06-16.26,6-19,5-10.06.34-.22C37.85,77.76,44.45,71.64,43.94,70c-.95-3.12-.69-4.81-.17-5.73-.39-2.15-1.13-7.41.29-10,1-1.87,3.55-2.57,6-3.25,1.17-.33,3.35-.93,3.58-1.44,1.11-2.74,5-5.26,5.4-5.54l.27-.18.33,0c3-.43,9.25.23,11.26,5.82.6,1.67,1,3.14,1.38,4.32,1,3.31,1.32,4.11,2.45,4.45a10.31,10.31,0,0,1,5.72,5.53,7.27,7.27,0,0,1,0,6.28h0a9.74,9.74,0,0,0-.82,3.69c-.2,2.38-.45,5.34-4.89,6.76-5.26,1.68-12.09,7.39-13.8,9.27a32.53,32.53,0,0,1-3.13,2.8c-2.39,2-5.35,4.44-6.24,6.49-1.65,3.79-9.25,9.64-10.11,10.29l-.4.31H32.42v8.44Zm-4-8.29,2.7,2.72,4-12v-11H40c2.42-1.88,7.71-6.33,8.78-8.79,1.17-2.71,4.44-5.42,7.07-7.6a34,34,0,0,0,2.83-2.51C60.64,85.8,68,79.68,73.83,77.8c2.53-.81,2.62-1.86,2.81-4.16a12.48,12.48,0,0,1,1.12-4.77,4.43,4.43,0,0,0-.08-3.74,7.42,7.42,0,0,0-3.82-3.86c-2.81-.82-3.51-3.19-4.48-6.47-.35-1.21-.76-2.57-1.33-4.16-1.47-4.12-6.38-4-7.7-3.89-1.36.92-3.42,2.64-4,4-.75,1.86-3.08,2.51-5.55,3.2-1.58.44-3.74,1-4.16,1.81-.81,1.47-.4,6,.15,8.67l.24,1.18-.74.33a6.91,6.91,0,0,0,.47,3.21c.48,1.59,0,6.33-14.73,16L27.5,94.34l-5.71,18.14Z"/></g></g></svg>