<svg xmlns="http://www.w3.org/2000/svg" viewBox="0 0 249.53 229.03"><defs><style>.cls-1{fill:#448708;fill-rule:evenodd;}.cls-2{fill:#fff;}</style></defs><title>アセット 112</title><g id="レイヤー_2" data-name="レイヤー 2"><g id="レイヤー_1-2" data-name="レイヤー 1"><path class="cls-1" d="M11.17,167.08s14.55-5.63,19.56-12.6S55.16,124,59.64,120.54s13.88-14.11,19.28-19.39,14.45-9.7,14.45-9.7L103,86.6s17-16.72,19.27-19.39,11-7.51,14.46-9.7a92,92,0,0,1,9.63-4.85c2-1-2.93-17.45,0-19.39S156.3,25,156,23.57s19.28-9.7,19.28-9.7,8.14-10.13,14.45-9.69,16.67,6,19.28,0,38.54,0,38.54,0l-4.82,14.54s1.46,12,.38,17.94c-2,11,3.08,15.23-2.26,21.58-4.14,4.93-13.18,9.59-14.68,11.08a63.88,63.88,0,0,0-7.25,9.74s1.34,10.83-.43,11.18c-6.67,1.3-23.73.43-28.76,1.21-7.83,1.21-13.2-3.5-14.45,0s-5.22,8.92-9.64,14.54c-2.92,3.71-3.72.35-8.83,4.47s-4.69,6.08-4.69,6.08S165,123,163,127.6c-.63,1.41-18.11,10.9-18.11,10.9a47.26,47.26,0,0,1-15.61,6.11c-9.15,1.79-23.51-4.16-28.85-2.82-3,.75-7.62-.65-11.86,3s-8.64,6.5-10.18,8.75c-1.26,1.84-2.39.35-4.27,5.79-3.33,9.6,0,12.42-3,16.6-3.6,5-8.25,8.05-12.65,14.86-3.76,5.82,0,16.11-3.58,21.88-3,4.88-5.62,13.59-9.63,14.54-5,1.18-27.21-1.13-27.21-1.13s-9.22-2.36-6.53-6.11a54.5,54.5,0,0,0,4.76-8.56,18.72,18.72,0,0,1-4.75-3.59c-2.21-2.34-4.62-4.34-7.1-9.87C1.42,191.39.41,185.74,3,182.83S11.17,167.08,11.17,167.08Z"/><path class="cls-2" d="M40.2,229c-8,0-20.59-1.29-22.38-1.47l-.21,0c-1.13-.29-6.8-1.88-7.94-5a3.54,3.54,0,0,1,.56-3.41,50.24,50.24,0,0,0,4-7.07,20.47,20.47,0,0,1-3.9-3.18c-.3-.32-.6-.63-.91-.94A28.67,28.67,0,0,1,3,198.55C-.56,190.63-.95,185,1.83,181.84c2-2.24,6.42-11.85,8-15.37l.25-.57.58-.22c.14-.06,14.19-5.55,18.88-12.08,5.15-7.17,24.55-30.61,29.21-34.25,2.75-2.14,7.67-7.33,12-11.9,2.65-2.79,5.14-5.42,7.14-7.37,5.5-5.4,14.46-9.8,14.84-10l9.41-4.74c1.77-1.74,16.9-16.68,19-19.14,1.91-2.21,7.29-5.44,11.61-8,1.25-.75,2.36-1.42,3.17-1.93a59.38,59.38,0,0,1,7.63-3.93l1.79-.82a37.73,37.73,0,0,0-.62-6.67c-1-7-1.43-11.33.82-12.82,2.94-1.94,8.27-7,8.94-8.41-.15-1.25.88-3,19.87-11,1.62-2,9-10.42,15.48-10a38.38,38.38,0,0,1,6.7,1.37c5.91,1.55,9.87,2.35,11.1-.47,1-2.21,4.29-4.56,21.74-3.15,9.27.74,18.34,2.25,18.43,2.27l1.72.29-5.26,15.89c.24,2,1.35,12.41.33,18.05a31.76,31.76,0,0,0,0,10.56c.5,4.06.94,7.56-2.55,11.72-2.94,3.49-8.14,6.81-11.58,9a31.89,31.89,0,0,0-3.19,2.18,60.23,60.23,0,0,0-6.76,9c1.39,11.7-.69,12.11-1.69,12.31-3.91.76-11.12.81-17.49.84a109.39,109.39,0,0,0-11.33.38,24.44,24.44,0,0,1-9.88-.79c-2.77-.66-3.23-.63-3.39-.19-1.4,3.9-5.78,9.76-9.87,15a5.79,5.79,0,0,1-4.56,2.64c-1.11.13-2.26.26-4.51,2.07a15,15,0,0,0-3.88,4.13c3.68,2,12.71,7.41,10.47,12.45-.23.51-.83,1.87-18.71,11.57a48.26,48.26,0,0,1-16.09,6.3c-5.34,1-12.11-.35-18.09-1.58-4.43-.91-8.62-1.77-10.69-1.25a16.07,16.07,0,0,1-3.42.33c-2.59.08-5.27.15-7.82,2.34-1.54,1.32-3.12,2.55-4.51,3.64-2.44,1.91-4.55,3.56-5.41,4.82a5,5,0,0,1-1.72,1.55c-.64.38-1.3.77-2.37,3.88a26.09,26.09,0,0,0-1.56,10c0,2.43.06,4.52-1.69,7a52.75,52.75,0,0,1-5.25,6,54,54,0,0,0-7.36,8.82C58,194.17,58,198.11,58,201.91c0,4.09,0,8.33-1.93,11.53-.86,1.41-1.7,3.16-2.58,5-2.21,4.61-4.49,9.38-8,10.21A26.65,26.65,0,0,1,40.2,229Zm-22-4.44c6.19.64,22.7,2.07,26.59,1.15,2.1-.5,4.25-5,6-8.59a58.87,58.87,0,0,1,2.74-5.28c1.51-2.47,1.5-6.1,1.48-9.94,0-4.25,0-8.64,2.11-12a56.86,56.86,0,0,1,7.73-9.29,52.78,52.78,0,0,0,5-5.64c1.17-1.63,1.15-3,1.12-5.16a29.09,29.09,0,0,1,1.72-11c1.33-3.83,2.4-4.72,3.67-5.48a1.88,1.88,0,0,0,.78-.67c1.13-1.64,3.41-3.42,6-5.48,1.44-1.12,2.92-2.28,4.4-3.56,3.36-2.88,7-3,9.69-3.06a13.55,13.55,0,0,0,2.78-.24c2.73-.69,7,.2,12,1.23,5.7,1.17,12.16,2.5,16.91,1.57A46.23,46.23,0,0,0,144,137.25l.11-.07c7.72-4.19,16.24-9.12,17.51-10.33.66-2.21-5.43-6.59-10.2-9l-.65-.33-.15-.71c-.18-.86,0-3.32,5.22-7.55,2.92-2.36,4.73-2.57,6.05-2.72a3,3,0,0,0,2.54-1.51c3.72-4.73,8.14-10.62,9.4-14.13,1.11-3.1,4.2-2.37,6.91-1.71a21.87,21.87,0,0,0,8.73.73,107.71,107.71,0,0,1,11.78-.41c6,0,12.68-.07,16.43-.69.34-1.31.23-5.47-.28-9.61l-.06-.52.27-.45a64.65,64.65,0,0,1,7.47-10,26.69,26.69,0,0,1,3.7-2.57c3.29-2.1,8.25-5.27,10.89-8.41s2.36-5.51,1.87-9.42a35,35,0,0,1,.06-11.46c1-5.7-.37-17.38-.39-17.49l0-.34,4.37-13.2c-18.15-2.89-34.07-3.19-35.19-.6-2.34,5.4-9.14,3.62-14.61,2.18a36.81,36.81,0,0,0-6.15-1.28c-4.53-.3-11,6.49-13.17,9.14l-.24.3-.35.15c-8,3.37-16.87,7.5-18.43,8.83-.92,3.57-10.14,10.36-10.24,10.43-.76.94.06,6.76.5,9.89.85,6,1.15,8.69-.65,9.59-.59.3-1.37.65-2.25,1a58.45,58.45,0,0,0-7.25,3.73c-.83.52-2,1.2-3.24,2-3.7,2.23-9.29,5.59-10.89,7.44-2.33,2.68-18.66,18.79-19.36,19.47l-.17.17-9.85,5c-.1,0-8.92,4.38-14.07,9.43-2,1.91-4.44,4.53-7.06,7.29-4.63,4.88-9.42,9.93-12.35,12.21-4.39,3.43-23.67,26.75-28.61,33.63-4.69,6.53-16.81,11.74-19.65,12.89-1.22,2.74-5.81,12.84-8.21,15.58C2.2,186,2.78,190.76,5.73,197.33a25.9,25.9,0,0,0,5.88,8.48c.32.32.63.64.94,1a17.27,17.27,0,0,0,4.32,3.27l1.28.63L17.59,212a54.87,54.87,0,0,1-4.92,8.84c-.28.39-.21.55-.18.65C12.91,222.64,16.07,224,18.25,224.59ZM157.48,23.27l0,.2A1.62,1.62,0,0,0,157.48,23.27Z"/></g></g></svg>