<svg xmlns="http://www.w3.org/2000/svg" viewBox="0 0 259.82 196.16"><defs><style>.cls-1{fill:#448708;fill-rule:evenodd;}.cls-2{fill:#fff;}</style></defs><title>アセット 124</title><g id="レイヤー_2" data-name="レイヤー 2"><g id="レイヤー_1-2" data-name="レイヤー 1"><path class="cls-1" d="M41.35,111.85c.1,6.91,1.9-28.59,4-28.64s7.43,0,15.26-5.3c1.65-1.12,14.46-9.69,14.46-9.69s8-13.77,14.46-14.56,8.35-.91,9.64-4.84S104,36.12,104,34.28s4.83-14.55,4.83-14.55,1.79-20,3.62-18.1,6.61,7.39,5.26,11.7c-3.74,11.91,1.14,15,2.59,21.15s3.52,15.84,4.12,18c1.4,4.92,4.15,8.35,6.09,9.07,3.56,1.33,6.51-1.91,7.24,1.87s.4,16.33,3.39,17.58,1,4.38,7,6.08c4.83,1.38,5.71,3.21,10-1.26,3.61-3.8,3.77-27.25,3.77-27.25L171.49,44s.25,6.88,4.82,9.69,6.18,1.69,12.8,2.93c3.91.73,4.37-5.64,6.49-7.77s12.67.34,14.46,0,12.09,1.26,14.46,0,8-.87,8-.87,4.47,11.64,1.62,15.42-2.24,7-2.05,9.93,2.27,16.07,2.27,16.07l4.07,5.71s5.35,2.22,10.17,21.62c.78,3.15,9.63,14.55,9.63,14.55s-2.12,13.19-4.81,14.54-6.89,8.24-9.64,9.69-5,11.64-9.64,14.55-4.91,4-9.63,9.7-11.86,17.21-14.46,14.54-15.72-13.09-14.46-14.54-7.33-16.88-4.82-19.39,4.48-22,4.82-24.25,4.81-14.54,4.81-14.54l9.65-4.85V102.15s8.87-4-4.83-4.85-28.92,0-28.92,0-9.73,1.65-9.63,4.85-8,1.95-4.83,9.7S157,126.39,157,126.39l-19.27,4.86-4.83,9.69s1.59,2.52-4.81,9.69S113.56,160,113.66,170s8.67,16.29,4.81,19.4-11.8-3.88-14.46-4.86-23.37-2.51-28.92-4.84-12.67,6.69-19.28,4.84-15.14-3.39-19.28-4.84a63.5,63.5,0,0,1-9.64-4.85s-5.44-5-4.82-9.69a43.41,43.41,0,0,0,0-9.71s-12.82.25-9.64,4.86S11,185.5,7.61,179.73a77.15,77.15,0,0,1-6.09-13.94l2.35-21.45s5.79-1.25,18.2-8.25c12.25-6.9,19.38-11.68,19.28-14.54S41.33,110,41.35,111.85Z"/><path class="cls-2" d="M211,196.16a2.75,2.75,0,0,1-2-.84c-.69-.71-2.26-2.08-4.08-3.67-9.27-8.08-11.8-10.69-10.68-12.56a41.91,41.91,0,0,0-2.09-6c-2.84-7.24-4.42-11.78-2.42-13.79.67-.67,2.09-4.34,4.15-21.39.12-1,.21-1.68.26-2,.35-2.36,4.42-13.57,4.89-14.84l.2-.56,9.35-4.69v-14.6l.88-.4a7.38,7.38,0,0,0,1.66-1c-.64-.28-2.23-.74-6-1-12.92-.78-27.41-.07-28.66,0-4.43.76-8.33,2.48-8.3,3.31.06,2.11-1.75,3.07-3.06,3.77-2,1.07-3.34,1.78-1.88,5.41,3.5,8.65-4.87,15.94-5.23,16.24l-.27.23-19,4.77-4.24,8.53c.3,1.54-.15,4.79-5.32,10.57a50.08,50.08,0,0,1-6.25,5.71c-4.4,3.59-7.89,6.43-7.82,12.67,0,4.58,2,8.4,3.64,11.47,1.81,3.48,3.53,6.77.61,9.12-3.67,3-9.4-.65-13.19-3a21.48,21.48,0,0,0-2.73-1.57,88.94,88.94,0,0,0-8.83-1.3c-7.37-.92-16.54-2.05-20.15-3.57-2.11-.89-4.94.6-7.93,2.17-3.41,1.79-7.28,3.82-11.17,2.74-2.9-.81-6.16-1.56-9.32-2.28-4-.91-7.67-1.76-10.05-2.6a62.73,62.73,0,0,1-9.94-5l-.22-.17c-.25-.22-6-5.58-5.29-11a40,40,0,0,0,.12-8c-3.56.24-6.85,1.06-7.28,1.9,0,.05,0,.25.24.54,2.64,3.83.95,15.15-1.48,20-.34.68-1.39,2.75-3.23,2.81a2.94,2.94,0,0,1-2.64-1.75A77.56,77.56,0,0,1,.09,166.23l-.09-.3,2.49-22.82,1.06-.23c.05,0,5.8-1.34,17.79-8.1,12.34-7,18.57-11.39,18.51-13.18a76.88,76.88,0,0,1,0-9.82v-.07h0a2.49,2.49,0,0,1,.32-1.07c.12-1.17.25-2.8.39-4.39,2-23.3,2.76-24.5,4.77-24.54h.19c2.1,0,7-.14,14.26-5,1.5-1,12.28-8.24,14.18-9.51,1.44-2.43,8.71-14.18,15.4-15l.35,0c6.38-.75,7.11-.92,8-3.78.42-1.27,1-3,1.73-4.86,1.12-3.07,3-8.2,3-9.21,0-1.93,3.62-11.64,4.85-14.89C109,1,110.71.42,111.62.1a1.81,1.81,0,0,1,1.92.48c2.21,2.3,7.18,8.18,5.61,13.2-2.54,8.07-.92,11.64.79,15.42a25.85,25.85,0,0,1,1.83,4.94c.61,2.6,1.33,5.83,2,8.86.9,4,1.76,7.85,2.09,9,1.33,4.68,3.88,7.58,5.17,8.07a6.14,6.14,0,0,0,3.21,0c1.5-.26,4.27-.73,5,2.93a51.2,51.2,0,0,1,.49,5.12c.19,2.9.71,10.61,2,11.38a5.22,5.22,0,0,1,2.8,3c.58,1.2,1.09,2.23,4,3.06,1,.29,1.86.6,2.59.86,2.61,1,3.16,1.15,5.89-1.72,2.2-2.32,3.29-16.73,3.35-26.22v-.44l12.47-18.83.16,4.68c0,.06.29,6.12,4.11,8.47a12.55,12.55,0,0,0,6.77,2,51.9,51.9,0,0,1,5.52.72c1.15.22,1.79-.76,3-3.59a11.92,11.92,0,0,1,2.15-3.77c1.8-1.81,6.19-1.43,11.75-.74a25.88,25.88,0,0,0,3.5.32,25.38,25.38,0,0,1,4.92.15c2.79.21,8,.61,9.1,0,2.67-1.42,8.2-1.09,8.82-1l1,.07.34.89c.8,2.07,4.61,12.63,1.42,16.86-2.21,3-2,5.41-1.82,8,0,.3.05.61.07.91.17,2.58,1.87,13.49,2.2,15.59l3.66,5.15c1.55,1,6.35,5.28,10.6,22.4.52,2.07,6,9.68,9.37,14l.39.51-.1.64c-.67,4.2-2.57,14.12-5.62,15.65-1.08.54-2.82,2.63-4.35,4.47-1.87,2.23-3.63,4.35-5.26,5.21-.77.41-2,2.95-3,5-1.7,3.58-3.63,7.64-6.58,9.49-3.44,2.16-4.28,3.22-6.79,6.34-.69.85-1.49,1.85-2.49,3.05-1.14,1.37-2.43,3.09-3.79,4.91-4.83,6.45-7.95,10.38-10.7,10.56ZM197.11,180c1,1.74,6.87,6.83,9.76,9.35,1.89,1.65,3.4,3,4.2,3.77,1.6-.26,6-6.16,8.41-9.36,1.38-1.85,2.69-3.6,3.89-5,1-1.19,1.77-2.17,2.45-3,2.59-3.23,3.67-4.57,7.54-7,2.21-1.39,3.94-5,5.46-8.24s2.62-5.49,4.27-6.36c1.11-.59,2.83-2.66,4.35-4.48,1.89-2.27,3.68-4.41,5.32-5.23,1.05-.67,2.84-6.56,3.89-12.8-2.13-2.78-8.73-11.53-9.5-14.58-4.45-17.93-9.3-20.61-9.35-20.63l-.39-.17-.2-.32-4.27-6-.05-.35c-.09-.54-2.09-13.23-2.29-16.22l-.06-.87c-.22-2.76-.48-6.2,2.42-10,1.51-2,.11-8.54-1.49-13.07-2.09,0-5,.09-6.25.74-1.75.94-5.55.74-10.73.35a35.84,35.84,0,0,0-4.15-.2,18.14,18.14,0,0,1-4.42-.29c-2.27-.28-8.32-1-9.25-.12a10.29,10.29,0,0,0-1.52,2.83c-1.09,2.55-2.59,6-6.31,5.36a47.08,47.08,0,0,0-5.23-.68,15.41,15.41,0,0,1-8.08-2.45,11.88,11.88,0,0,1-4.86-7l-7.32,11c0,4.88-.48,23.93-4.18,27.82-3.9,4.1-5.8,3.67-9.08,2.47-.69-.25-1.47-.53-2.39-.79-4.19-1.2-5.15-3.19-5.86-4.64-.42-.86-.61-1.22-1.28-1.5-2.77-1.17-3.34-6.51-3.83-13.94-.13-1.93-.26-3.76-.45-4.75a1.55,1.55,0,0,0-.23-.7,7.49,7.49,0,0,0-1.3.15,8.72,8.72,0,0,1-4.76-.19c-2.73-1-5.61-5.16-7-10.06-.36-1.27-1.18-4.94-2.14-9.19-.67-3-1.39-6.24-2-8.84a24.3,24.3,0,0,0-1.64-4.38c-1.78-3.94-3.8-8.4-.93-17.56.78-2.46-1.24-6-3.71-8.9a127.64,127.64,0,0,0-2.24,15.88l0,.21-.07.19c-2.28,6-4.68,12.91-4.73,14,0,1.41-1.2,4.81-3.19,10.24-.67,1.82-1.3,3.54-1.7,4.76-1.57,4.77-4.2,5.08-10.55,5.82l-.34,0C85,55.72,78.5,65.32,76.39,69l-.18.3-.29.19L61.48,79.15c-7.41,5-12.71,5.47-15.33,5.55-1,3-2.11,16-2.59,21.81-.16,1.86-.3,3.46-.41,4.59a9.48,9.48,0,0,1-.34,2.15c0,2.28,0,6.43,0,8.25.11,3.37-4.94,7.39-20,15.9-9.62,5.42-15.34,7.45-17.56,8.12l-2.2,20.11A75.18,75.18,0,0,0,8.91,179l0,.06a16.22,16.22,0,0,0,2.16-5.76c1.17-5.16,1.21-10.47.1-12.08a3.4,3.4,0,0,1-.44-3.62c1.62-3.16,9-3.55,11.28-3.59l1.35,0,.17,1.34a44.71,44.71,0,0,1,0,10.08c-.42,3.14,2.83,7,4.24,8.3A60.14,60.14,0,0,0,37,178.31c2.22.78,5.87,1.62,9.73,2.5,3.19.74,6.49,1.49,9.45,2.32,2.75.76,5.91-.9,9-2.51,3.48-1.82,7.07-3.71,10.48-2.27,3.23,1.35,12.55,2.51,19.36,3.35,5.31.66,8.37,1.05,9.5,1.46a21.43,21.43,0,0,1,3.29,1.86c2.88,1.82,7.7,4.86,9.71,3.24.86-.7.43-1.9-1.39-5.39-1.66-3.18-3.93-7.53-4-12.83-.08-7.69,4.3-11.25,8.93-15a48.88,48.88,0,0,0,5.91-5.39c4.81-5.39,4.65-7.67,4.59-8l-.38-.59L136.72,130,156.3,125c1.22-1.16,6.56-6.69,4.16-12.62-2.48-6.13,1.25-8.11,3.25-9.18.62-.33,1.48-.78,1.47-1-.12-4.06,7.57-5.81,10.88-6.37l.17,0c.16,0,15.48-.81,29.09,0,6,.37,8.65,1.35,9,3.38.33,1.79-1.43,3.14-2.78,3.89v14.56l-9.94,5c-1.72,4.74-4.31,12.2-4.54,13.69,0,.33-.13,1-.24,1.94-1.77,14.65-3.22,21.35-5,23.14-.6,1.2,1.89,7.54,3.09,10.58C196.75,176.61,197.53,178.74,197.11,180Zm-.35.64,0,0Z"/></g></g></svg>