<svg xmlns="http://www.w3.org/2000/svg" viewBox="0 0 141.55 182.72"><defs><style>.cls-1{fill:#448708;fill-rule:evenodd;}.cls-2{fill:#fff;}</style></defs><title>アセット 137</title><g id="レイヤー_2" data-name="レイヤー 2"><g id="レイヤー_1-2" data-name="レイヤー 1"><path class="cls-1" d="M14.48,156.7s-7.23-8.87-4.83-14.54,3.23-23.42,4.83-24.24,0-9.7,0-9.7L1.5,92v-9.5l3.34-8.25V59.74L4.9,47.51l19.21-7.16S45,26.62,48.2,25.8s16.55-5.33,18.15-6.16,7.49-6.8,7.49-6.8L77.11,6.4l24.1-4.84,6.63,2.49,31.91,36.3s-1.31,2.56-.61,11.55c.91,11.79-.13,17.53-4.21,22.38-1.15,1.38-4.82,4.85-4.82,4.85v24.24s3.7,18.57,3.46,23.51c-.17,3.42-3.46,15.28-3.46,15.28s-15.29,4.27-19.27,4.85c-4.92.71-13.6,6.21-19.28,9.69-2.44,1.5-12.22,10.75-15.27,12.13-1.46.65,0,0-4,2.41s-19.12,7.44-19.28,9.7c-.11,1.56-4.19-4.08-8.23-6.9a42,42,0,0,0-20.68-7.64C22.52,166.4,14.48,156.7,14.48,156.7Z"/><path class="cls-2" d="M52.79,182.72c-1,0-1.94-1-3.78-2.84a40,40,0,0,0-5.08-4.62c-8.74-6.11-17.86-7.36-19.82-7.36-.69,0-2.29,0-10.79-10.24h0c-.31-.39-7.77-9.65-5-16.08,1.16-2.72,2-8.95,2.67-13.95,1-7.76,1.45-10,2.59-10.88.32-.94.12-4.46-.47-7.89L0,92.55V82.23L3.34,74V59.74L3.4,46.47l20-7.47c3.82-2.51,21.14-13.82,24.4-14.66,3.46-.88,16.47-5.33,17.83-6a64.57,64.57,0,0,0,7-6.36L76.1,5.08,101.33,0l7.39,2.78,32.83,37.34-.47.91h0s-1.08,2.57-.45,10.75c1,12.37-.19,18.29-4.55,23.47-1,1.13-3.43,3.52-4.47,4.52v23.46c.38,1.88,3.69,18.84,3.45,23.72-.17,3.55-3.36,15.12-3.5,15.61l-.23.81-.81.23c-.63.18-15.44,4.31-19.46,4.89-4.28.62-12.23,5.5-17.48,8.73l-1.24.76c-.89.55-3.22,2.56-5.49,4.5-4.65,4-8.08,6.88-9.94,7.72a3.25,3.25,0,0,0-.81.4c-.32.23-1,.69-3,1.93a76.38,76.38,0,0,1-7.9,3.59c-3.65,1.52-9.69,4-10.69,5.19a1.7,1.7,0,0,1-1.08,1.3A1.92,1.92,0,0,1,52.79,182.72Zm1.73-1.67ZM24.31,164.9c2.92.07,12.34,1.61,21.34,7.91a40.83,40.83,0,0,1,5.5,5c.43.43.9.92,1.31,1.31,1.46-1.38,4.84-2.94,11.56-5.74a75.2,75.2,0,0,0,7.5-3.39c2-1.18,2.57-1.61,2.87-1.82a5.85,5.85,0,0,1,1.29-.68c1.61-.73,6-4.5,9.22-7.26a72.47,72.47,0,0,1,5.87-4.78l1.23-.75c5.8-3.56,13.74-8.44,18.63-9.15,3.32-.48,15.05-3.69,18.26-4.58,1-3.75,3.06-11.67,3.18-14.14.23-4.7-3.39-23-3.43-23.13l0-.3V78.48l.47-.44s3.61-3.43,4.7-4.72c3.77-4.48,4.74-9.86,3.86-21.31-.5-6.46,0-9.8.42-11.31L107,5.33l-5.88-2.22-23,4.62-3.05,6-.16.16c-1,1-6.16,6.19-7.87,7.08s-15.3,5.47-18.47,6.28c-2.17.56-15.65,9.1-23.64,14.35l-.3.15L6.39,48.55l0,11.19V74.57L3,82.82V91.5l12.89,16.08L16,108c1.58,8.82.3,10.59-.5,11.13-.49,1.09-1.07,5.42-1.54,8.93-.73,5.46-1.56,11.64-2.88,14.73-1.67,4,2.75,10.73,4.61,13C18.92,159.71,23.1,164.24,24.31,164.9Zm-9.13-45.66h0Z"/></g></g></svg>