<svg xmlns="http://www.w3.org/2000/svg" viewBox="0 0 163.66 129.47"><defs><style>.cls-1{fill:#448708;fill-rule:evenodd;}.cls-2{fill:#fff;}</style></defs><title>アセット 106</title><g id="レイヤー_2" data-name="レイヤー 2"><g id="レイヤー_1-2" data-name="レイヤー 1"><path class="cls-1" d="M147,16.38c-1.79,5.47-13.83,14-9.64,19.39s6.84,5.68,9.64,9.7,4.1,11.24,4.82,14.54,2.5,14.75,4.82,14.55,4.81,4.85,4.81,4.85-20,3.25-24.09,9.69-4.24,13.39-9.64,14.55-11.61,8.09-14.45,9.7-7.27,15.51-9.64,14.54-25.47-1.1-25.47-1.1c.07-3.92.11-3.85.13-12.83a62.48,62.48,0,0,1,1-11.49s-12.44-2-14.18-3.67C62.2,96.07,61,81.24,60.17,80.86a20.35,20.35,0,0,0-9.58-1.45S43,89.78,41,89.1s-14.71-8.5-17-12c-1.16-1.75-6.15-5.36-6.15-5.36l-9.2-3.58L1.72,45.61a81.56,81.56,0,0,1,15.14-9.84c9.25-4.7,8.67-9.16,14.46-9.7s17.2-3.15,19.27,0,12.19,4.72,14.46,4.85,9.63-14.54,9.63-14.54,8.45.45,9.64,0c3.55-1.36,24.09-4.85,24.09-4.85l9.64,9.7,4.81-14.55,4.82-4.85L147,11.53S148.74,10.9,147,16.38Z"/><path class="cls-2" d="M103.91,129.47a2.18,2.18,0,0,1-.88-.19c-1.48-.54-13.83-.93-24.92-1H76.59l.06-3.23c0-2.42.08-3.64.1-11.09a70.86,70.86,0,0,1,.74-10.26C73.12,103,65.67,101.48,64,99.88c-2-1.93-3.1-7.47-4.22-14-.26-1.49-.54-3.15-.74-3.91a19.15,19.15,0,0,0-7.67-1.15c-7.91,10.68-10.08,10-10.9,9.68-2.39-.81-15.27-8.78-17.81-12.63-.71-1.07-3.75-3.49-5.61-4.85l-9.7-3.77L0,45.12l.73-.64a82.76,82.76,0,0,1,15.45-10,27.54,27.54,0,0,0,8-5.95c1.88-1.92,3.5-3.57,7-3.9,1.26-.12,2.84-.34,4.51-.58,8.21-1.16,14.18-1.76,16.15,1.25,1.41,2.13,9.56,3.89,13.06,4.16,1.43-1,5.45-7.75,8.44-13.7l.44-.88,1,.05a67.23,67.23,0,0,0,9.07.08c3.6-1.38,23.49-4.76,24.33-4.91l.77-.13,8.46,8.52,4.16-12.56L127.39,0l19.9,10a1.9,1.9,0,0,1,1.22.56c1,1,1,2.86-.13,6.26h0c-.73,2.25-2.79,4.71-5,7.32-3.21,3.83-6.84,8.17-4.9,10.68a28.37,28.37,0,0,0,5.27,5.27,20.48,20.48,0,0,1,4.41,4.49c2.69,3.87,4,10.2,4.82,14l.23,1.09c.12.53.26,1.27.43,2.13.48,2.48,1.92,9.88,3.13,11.23,2.93.07,5.29,4.34,6,5.69l.9,1.82-2,.33c-5.39.87-20,4.2-23.06,9a41.54,41.54,0,0,0-3.1,6.44c-1.64,4-3.2,7.85-7.49,8.77-3.27.71-7.21,4-10.08,6.49a31.93,31.93,0,0,1-4,3.06c-.91.5-2.75,4.25-4,6.73C107.66,126.14,106,129.47,103.91,129.47ZM79.65,125.3c6.39,0,20.71.25,24.07,1.07.88-.8,2.49-4.08,3.59-6.31,2.16-4.39,3.59-7.12,5.19-8a29.48,29.48,0,0,0,3.47-2.72c3.3-2.8,7.4-6.28,11.4-7.14,2.61-.56,3.68-2.9,5.35-7a43.87,43.87,0,0,1,3.33-6.89c3.6-5.75,17.42-8.93,23-10-.91-1.33-1.86-2.26-2.28-2.26h0c-2.8.25-4.12-4-6-13.66-.16-.83-.3-1.54-.41-2.06l-.24-1.12c-.75-3.56-2-9.52-4.34-12.89a17.75,17.75,0,0,0-3.83-3.86,31.57,31.57,0,0,1-5.77-5.78c-3.41-4.41,1-9.74,5-14.43C143,20,145,17.62,145.53,15.92h0a13.31,13.31,0,0,0,.72-3.07L128,3.66l-3.8,3.83L118.7,24,107.9,13.14c-6.18,1.06-20.36,3.61-23,4.64-1.18.45-6,.31-9.28.15C68.12,32.62,65.83,32.48,65,32.42c-.12,0-12.76-1.19-15.62-5.52-1.08-1.65-9.27-.49-13.21.07-1.71.25-3.33.48-4.66.6-2.44.22-3.41,1.21-5.16,3a30.18,30.18,0,0,1-8.76,6.53,84.65,84.65,0,0,0-14.1,9L9.81,67l8.85,3.49c.87.63,5.28,3.87,6.52,5.75,2,3.08,13.65,10.3,16,11.34,1.38-.62,5.26-5.09,8.18-9.07l.39-.53.65-.07A21.59,21.59,0,0,1,60.8,79.5c1,.46,1.17,1.4,1.94,5.9.66,3.81,1.88,10.91,3.34,12.32,1,.85,7.72,2.36,13.39,3.26l1.55.25-.32,1.54a61.94,61.94,0,0,0-1,11.2c0,7.48,0,8.7-.1,11.14ZM59.53,82.22h0Zm96.94-9.16Z"/></g></g></svg>