<svg xmlns="http://www.w3.org/2000/svg" viewBox="0 0 144.92 74.95"><defs><style>.cls-1{fill:#448708;fill-rule:evenodd;}.cls-2{fill:#fff;}</style></defs><title>アセット 131</title><g id="レイヤー_2" data-name="レイヤー 2"><g id="レイヤー_1-2" data-name="レイヤー 1"><path class="cls-1" d="M3.19,8.43S15.66.52,20.86,1.6,41.76,9.25,45,11.29,59.34,20,61,21.07a139,139,0,0,0,12.24,6.76c3.63,1.85,7.58-1,10.23-2s7.81-2.53,9.63-4.85,18.08,4.12,24.1,0,14.46,0,14.46,0h9.63S140.9,35.1,143.17,40s-11.5,10-11.5,10-3,3.78-4.82,4.86-.73,20.28-4.82,18.38-3.34-7.38-11-11.16a143.85,143.85,0,0,1-13-7.22s-19.65,1.59-19.27,0,.46,5.18-1.8,7.22-.21,5.71-7.84,2.47-7-1.07-19.26-4.84S31.41,49.59,30.49,45.23s-3.32.87-9.63-4.85-6.95-2.45-9.36-7.7C9.46,28.23,1.59,21,1.59,21Z"/><path class="cls-2" d="M122.57,75a2.77,2.77,0,0,1-1.17-.27c-2.16-1-3.18-2.73-4.27-4.55a14.75,14.75,0,0,0-6.81-6.63,145.71,145.71,0,0,1-12.76-7c-9.9.79-14.79.8-17.27.54-.21,2.17-1,4.93-2.43,6.27a3.78,3.78,0,0,0-.83,1.4A4,4,0,0,1,75,67.14c-1.39.57-3.28.24-6.52-1.14a24.91,24.91,0,0,0-7.7-2.15,64.87,64.87,0,0,1-11.43-2.64C36.75,57.33,30.07,50.54,29,45.54a2.85,2.85,0,0,0-.23-.75c-.16,0-.47,0-.7,0-1.65.06-4.4.18-8.25-3.31a17.21,17.21,0,0,0-5.4-3.61c-1.77-.77-2.84-1.36-4.31-4.58C8.25,29.18.65,22.16.57,22.09L0,21.57l1.8-14,.59-.38C3.72,6.32,15.53-1,21.16.13S42.43,7.9,45.76,10c1.88,1.21,6.67,4.1,10.52,6.42,2.71,1.63,4.85,2.92,5.54,3.35a122.58,122.58,0,0,0,10.83,6l1.28.65c2.17,1.11,4.73-.1,7-1.16.73-.34,1.41-.67,2.06-.9.36-.14.77-.28,1.22-.44,2.41-.85,6.43-2.26,7.74-3.93s4.39-1.15,9.47-.29,11.95,2,15,0c6-4.13,13.9-1,15.63-.26h10.84l0,1.54c-.11,3.83,0,14.6,1.73,18.39a4.25,4.25,0,0,1,0,3.51c-1.75,4.22-9.88,7.59-12,8.4a27.31,27.31,0,0,1-4.73,4.74,37.66,37.66,0,0,0-.79,6.18c-.58,6.86-1.08,11.11-3.23,12.35A2.47,2.47,0,0,1,122.57,75ZM98.32,53.39l.43.28a143.32,143.32,0,0,0,12.9,7.13,17.54,17.54,0,0,1,8.06,7.8c.9,1.51,1.56,2.62,2.74,3.25.9-1.29,1.36-6.81,1.62-9.85.48-5.71.74-7.62,2-8.37a24.43,24.43,0,0,0,4.4-4.49l.26-.33.4-.14c3.55-1.32,9.58-4.35,10.63-6.89a1.28,1.28,0,0,0,0-1.11c-2-4.25-2.06-14.3-2-18.18h-8.45l-.31-.15c-.07,0-7.74-3.68-12.95-.12-4,2.75-11.3,1.51-17.16.51-2.47-.42-5.83-1-6.71-.7-1.88,2.29-6,3.73-9,4.79L84,27.24c-.52.2-1.15.49-1.8.8-2.6,1.23-6.14,2.9-9.63,1.13l-1.27-.65a125.3,125.3,0,0,1-11.09-6.18c-.66-.42-2.89-1.77-5.48-3.33-3.86-2.33-8.68-5.23-10.59-6.45-3-1.94-18.6-8.47-23.58-9.5-3.22-.66-11.24,3.35-16,6.26L3.17,20.42c1.89,1.79,7.86,7.64,9.69,11.63,1.07,2.33,1.5,2.52,2.78,3.07a20.24,20.24,0,0,1,6.23,4.15c2.94,2.66,4.69,2.59,6.1,2.53,1.68-.07,3.36.11,4,3.12.84,4,6.91,9.92,18.24,13.42a61.89,61.89,0,0,0,11,2.54,27.82,27.82,0,0,1,8.45,2.36c3.25,1.38,4.08,1.18,4.21,1.12s.31-.52.44-.84A6.26,6.26,0,0,1,75.86,61c1-.89,1.46-3.73,1.52-5.22a1.65,1.65,0,0,1-.18-1.23,1.61,1.61,0,0,1,1.44-1.39l1.07-.09.41.9c2.51.34,10.69,0,17.69-.57Zm29.29,2.83h0Z"/></g></g></svg>