<svg xmlns="http://www.w3.org/2000/svg" viewBox="0 0 210.51 108.02"><defs><style>.cls-1{fill:#448708;fill-rule:evenodd;}.cls-2{fill:#fff;}</style></defs><title>アセット 114</title><g id="レイヤー_2" data-name="レイヤー 2"><g id="レイヤー_1-2" data-name="レイヤー 1"><path class="cls-1" d="M25.74,33s25.78,4.89,28.91,0,4.82-4.85,4.82-4.85H88.38S89.68,32.38,98,33s21.54,3,24.1,0-3-9,4.82-9.7,13.34,5.82,19.27,4.85,13.35-1.36,19.27-4.85S181.61,8.77,184.75,8.77,200.88,3,200.88,3c-4.69,10.52-4.76,10-6.49,15.5-1,3.2-5.4,9.3,0,14.55s14.45,14.54,14.45,14.54S205.51,60.12,204,62.11s-7.71,6.35-9.63,9.69-11,5-19.28,9.7-18.31,3.59-19.27,0S153.09,69.81,146.2,67s-16.53-11-14.46-9.69c0,0-7.61,3.77-9.63,4.85s-7.18,8.18-9.64,9.69S97.92,74,98,71.8s-2-11.68-9.63-9.69S78.12,61.52,73.92,67s-7.27,2.91-14.45,9.7A51.5,51.5,0,0,1,45,86.35,76.89,76.89,0,0,1,39.47,94c-2.22,2.64-9.49,7.43-9.49,7.43s-.52,2.74-4.24,4.27c-5.11,2.09-26.21-.73-24.09,0s-.29-3.54,0-9.7,1.59-6.35,9.63-14.54S25.74,75.34,25.74,67s-1.83-9.6,0-14.55S25.74,33,25.74,33Z"/><path class="cls-2" d="M18.52,108c-3.94,0-8.64-.32-13.11-.67l-2.57-.19a2.23,2.23,0,0,1-1.68,0A1.56,1.56,0,0,1,0,105.35c.13-.63.31-1,.91-1.12,0-.32-.12-.68-.17-1A31.51,31.51,0,0,1,.15,96c.27-5.77,1.51-7,6.76-12.21,1-.94,2-2,3.3-3.31a35.54,35.54,0,0,1,8.91-6.51c3.51-2,5.12-2.84,5.12-7a49,49,0,0,0-.52-7.15,14,14,0,0,1,.61-7.93c1.4-3.76.42-14.76-.08-18.68l-.26-2,2,.38c15.3,2.91,26.12,2.61,27.37.67,3.23-5.06,5.34-5.59,6.12-5.54h30l.32,1c0,.1,1.27,3.26,8.32,3.8,1.91.14,4,.38,6.28.62,5.64.62,15.09,1.66,16.54-.09.52-.61.44-1.58.25-3.11s-.44-3.55.8-5.09c.93-1.15,2.49-1.81,4.79-2,4.45-.42,8.18,1.3,11.46,2.82,2.85,1.31,5.31,2.44,7.71,2.05,1.16-.19,2.38-.36,3.64-.54,5-.68,10.59-1.46,15.11-4.12a74.72,74.72,0,0,0,9.1-7.24c5.51-4.8,8.73-7.52,10.94-7.52,2.05,0,10.6-3.48,15.52-5.67L203.84,0l-1.59,3.58c-1.32,3-2.27,5-3,6.63a55.7,55.7,0,0,0-3.43,8.71,22.81,22.81,0,0,1-.87,2.17c-1.42,3.25-3.18,7.29.48,10.85,5.35,5.19,14.39,14.48,14.48,14.57l.6.61-.22.82c-.57,2.15-3.48,13-5.07,15.07a29.22,29.22,0,0,1-3.59,3.44c-2.18,1.91-4.9,4.28-5.95,6.1-1.36,2.37-5,3.8-9.59,5.62a78.58,78.58,0,0,0-10.24,4.63c-6.6,3.75-14.14,4-18.17,2.33a5.07,5.07,0,0,1-3.29-3.24l-.17-.63c-1-3.67-2.76-10.5-8.59-12.92a68,68,0,0,1-14.24-9.23c-2.13,1.06-7,3.5-8.58,4.32-.76.4-2.66,2.56-4.18,4.29-2,2.3-3.94,4.48-5.37,5.36-2.62,1.6-12.81,2.3-15.54.69a2.2,2.2,0,0,1-1.2-2c0-1.27-.85-5.45-3.22-7.38a4.84,4.84,0,0,0-4.54-.8,34.66,34.66,0,0,1-6.72,1c-3.07.21-4.61.31-6.93,3.32a13.75,13.75,0,0,1-6.67,4.79,22.3,22.3,0,0,0-7.94,5.08A53.57,53.57,0,0,1,46,87.54,78,78,0,0,1,40.62,95c-2,2.41-7.73,6.31-9.37,7.42a8.48,8.48,0,0,1-4.94,4.7C24.7,107.79,21.89,108,18.52,108ZM4,104.23l1.67.13c5.33.41,16.4,1.27,19.53,0,2.85-1.17,3.33-3.1,3.34-3.18l.14-.59.51-.36c2-1.3,7.46-5.12,9.16-7.14a75.21,75.21,0,0,0,5.42-7.53l.26-.41.45-.19a50.35,50.35,0,0,0,14-9.39,25.19,25.19,0,0,1,8.87-5.68A10.84,10.84,0,0,0,72.74,66c3.14-4.08,5.77-4.26,9.1-4.48A31,31,0,0,0,88,60.65,7.9,7.9,0,0,1,95.19,62c3.18,2.58,4.21,7.22,4.32,9.29,2,.77,10.41.28,12.18-.8a33.82,33.82,0,0,0,4.69-4.78c2.35-2.68,3.86-4.35,5-5,1.55-.82,6.27-3.18,8.5-4.28l0-.18.8-.49a1.71,1.71,0,0,1,1.86.17l2.25,1.42-.49.24c2.73,2.18,8.16,6.12,12.47,7.91,7.2,3,9.32,11.05,10.34,14.93l.16.61c.12.43.7.89,1.55,1.25,3.28,1.37,9.84,1.07,15.54-2.17A81.31,81.31,0,0,1,185,75.38c3.73-1.47,7.25-2.86,8.1-4.33,1.29-2.25,4.1-4.7,6.57-6.86a28.82,28.82,0,0,0,3.16-3c.79-1,2.78-7.38,4.35-13.21-2.1-2.15-9.3-9.51-13.83-13.9-5.16-5-2.64-10.76-1.14-14.2A20.13,20.13,0,0,0,193,18,59.79,59.79,0,0,1,196.52,9c.4-.86.86-1.87,1.4-3.08-4.27,1.81-10.8,4.39-13.17,4.39-1.27.07-5.9,4.11-9,6.78-3.36,2.93-6.83,6-9.55,7.56-5,3-11,3.79-16.23,4.51-1.23.17-2.43.34-3.57.53-3.3.54-6.28-.83-9.44-2.29s-6.28-2.89-9.94-2.55a4.16,4.16,0,0,0-2.72.92c-.44.55-.31,1.66-.16,2.84.21,1.67.46,3.75-.92,5.41-2.32,2.77-9.1,2.25-19.18,1.15-2.22-.25-4.32-.48-6.18-.62-6.72-.51-9.42-3.29-10.42-4.84H59.62c-.26.11-1.55.79-3.71,4.15-3.11,4.87-20.61,2.41-28.45,1,.45,4.32,1.22,13.92-.32,18.07-1,2.62-.79,3.91-.44,6.5A51.87,51.87,0,0,1,27.24,67c0,5.91-2.94,7.54-6.66,9.6a32.6,32.6,0,0,0-8.22,6C11.08,83.84,10,84.94,9,85.89c-5,5-5.66,5.62-5.88,10.22a29.54,29.54,0,0,0,.58,6.6C3.82,103.27,3.91,103.78,4,104.23Zm55.5-74.56h0Z"/></g></g></svg>