<svg xmlns="http://www.w3.org/2000/svg" viewBox="0 0 152.57 135.71"><defs><style>.cls-1{fill:#448708;fill-rule:evenodd;}.cls-2{fill:#fff;}</style></defs><title>アセット 127</title><g id="レイヤー_2" data-name="レイヤー 2"><g id="レイヤー_1-2" data-name="レイヤー 1"><path class="cls-1" d="M16.11,31.15l.59-13.34s.67-3,9.05-10.9S45,2.06,45,2.06L40.21,21.45a37.49,37.49,0,0,0,0,9.7c.72,4.9,10.51,10.86,14.46,14.54s13.4,6,19.28,4.84a21.3,21.3,0,0,0,14.46-9.69c3.81-5.72,9.3-7.37,9.64-14.54s-1.3-12.12,4.82-14.54,14.46-9.7,14.46-9.7h14.46s6.14,7.77,9.64,9.7c2.25,1.23,1.94,10.7,1.94,10.7A19.58,19.58,0,0,0,146.25,36c4.3,6.26,4.82,9.5,4.82,14.54,0,15.78-4.85,29.41-6.73,30.76s-14,11.23-16.06,17.58-2.61,10.53-11,9.85-15.93.3-20.9-3.53S84.75,99.79,78.77,99,62.22,95.47,61,98.28s-4.52,3-5,5.35-4.61,16.6-13.16,26.77c-4.44,5.28-5.9,5.56-12.23-2.28a66.61,66.61,0,0,0-9.64-9.7S6.47,134.76,6.47,133s-1-18.89-1.2-20.93C3.82,94.25.78,79.77,1.65,74.78S4.87,61.22,4.87,61.22c1.78-2,4.5-12.52,4.5-12.52L16,43.57Z"/><path class="cls-2" d="M37.79,135.71h0c-2.53,0-4.79-2.26-8.34-6.65a67.66,67.66,0,0,0-8.32-8.56C8,135.24,7.06,134.89,6,134.49A1.6,1.6,0,0,1,5,133c0-1.66-1-18.73-1.2-20.81-.62-7.63-1.51-14.52-2.31-20.59-1-8.11-1.82-14-1.29-17,.88-5,3.16-13.35,3.25-13.7l.1-.34.23-.27C4.81,59,6.82,52.55,7.91,48.33l.13-.5,6.47-5,.1-11.75.63-13.59c.12-.58,1.18-3.88,9.48-11.67C33.5-2.45,44.93.48,45.41.61L46.84,1,41.69,21.74a36.12,36.12,0,0,0,0,9.19c.44,3,5.77,7.1,9.66,10.12,1.65,1.28,3.21,2.49,4.34,3.54,3.59,3.35,12.49,5.56,18,4.47A19.94,19.94,0,0,0,87.16,40a32.23,32.23,0,0,1,4.54-5.18c2.61-2.53,4.66-4.54,4.85-8.6.07-1.43.06-2.77,0-4.06,0-5.1-.09-9.51,5.73-11.81S116.26,1,116.35.93l.42-.37h15.75l.45.57c1.66,2.09,6.54,7.85,9.19,9.31s2.84,8.19,2.71,12.07l0,.24c0,.06-1.22,6.76,2.65,12.39,4.35,6.34,5.08,9.87,5.08,15.39,0,15.67-4.76,30.11-7.36,32-2.78,2-13.74,11.29-15.5,16.82l-.44,1.4c-1.69,5.48-3.15,10.22-12.06,9.48-2-.16-4.07-.23-6-.29-5.94-.19-11.56-.37-15.66-3.54-3.86-3-9.4-4.9-16.94-5.87-1.43-.19-3.08-.48-4.82-.78-3.39-.6-10.45-1.84-11.45-.8A8.1,8.1,0,0,1,59,102.35c-.95.63-1.49,1-1.61,1.58-.6,3-4.91,17.24-13.48,27.44C41.88,133.83,40.11,135.71,37.79,135.71Zm-17-19.34,1.11.87a68.08,68.08,0,0,1,9.89,9.93c2.2,2.73,4.64,5.53,6,5.54.94,0,2.18-1.25,3.88-3.27,8.21-9.77,12.37-23.76,12.84-26.11.37-1.8,1.71-2.7,2.89-3.48a5.49,5.49,0,0,0,2.22-2.18c1.43-3.23,7.57-2.15,14.68-.9,1.71.3,3.32.59,4.68.76,8.08,1,14.1,3.16,18.39,6.48,3.34,2.57,8.25,2.73,13.93,2.91,2,.06,4,.13,6.17.3,6.51.54,7.23-1.78,9-7.38.14-.46.28-.93.44-1.42,2.37-7.44,16.47-18.25,16.61-18.35,1.46-1.31,6.13-14.3,6.11-29.53,0-4.8-.45-7.72-4.55-13.7a21,21,0,0,1-3.15-14.53c.13-4.23-.44-8.62-1.19-9.26-3.19-1.75-8-7.54-9.61-9.49H117.89C116.06,5.1,109,11,103.43,13.15c-3.76,1.48-3.89,3.69-3.84,9,0,1.27,0,2.71,0,4.23-.25,5.25-3,8-5.75,10.61a28.94,28.94,0,0,0-4.14,4.69A22.79,22.79,0,0,1,74.24,52C67.78,53.29,58,50.8,53.65,46.79c-1-1-2.54-2.13-4.14-3.37-4.77-3.7-10.17-7.9-10.78-12a38.45,38.45,0,0,1,0-10.14l0-.14L43.19,3.24C40.09,2.81,32.63,2.5,26.78,8c-6.88,6.47-8.35,9.52-8.59,10.09l-.58,13.1-.12,13.13-6.8,5.26C10,52.06,8,59.49,6.24,61.9,5.82,63.44,3.89,70.69,3.13,75c-.46,2.61.32,8.58,1.31,16.13.76,5.81,1.7,13,2.32,20.74.13,1.53.82,12.85,1.1,18.3,2.64-2.54,7.57-7.84,11.94-12.79Z"/></g></g></svg>