<svg xmlns="http://www.w3.org/2000/svg" viewBox="0 0 137.29 168.59"><defs><style>.cls-1{fill:#448708;fill-rule:evenodd;}.cls-2{fill:#fff;}</style></defs><title>アセット 117</title><g id="レイヤー_2" data-name="レイヤー 2"><g id="レイヤー_1-2" data-name="レイヤー 1"><path class="cls-1" d="M30.65,108.87s11.65,6.25,14.45,9.69-1.88,16.88,0,19.4,13.3,6.74,14.45,9.69,7.09,10.91,9.64,9.7,2.08,4.46,9.64,4.85,17.25,4.7,19.27,4.85,3.52.29,9.64-4.85,10-4.12,14.46-9.7,7.46-3.69,9.63-9.7,3.91-19.25,3.91-19.25l-5.17-10.47-13.69-10.2.35-11.3s-27.71-.74-32.62-5.81a12.27,12.27,0,0,1-3.27-7.35L78.56,63.65,74.8,49.82,73.12,41.9s2.59-2.41,5.94-8.39c3.16-5.63,19-7.07,19-7.07a77.87,77.87,0,0,0-4.37-7C85.45,8.1,88.46,2.2,88.46,2.2L71.58,1.5c-13.29,0-21.06,10.93-20.4,10.05,0,0-7.52-1-10.9.35s-24.09,0-24.09,0L1.74,21.59s2.84,10.18,4.81,9.7,1.25,1.89,4.82,4.85,12.05,10,9.64,9.7-9.64,4.84-9.64,4.84-3.57,7,0,9.7,4.82,9.7,4.82,9.7-6.12,3.83-9.64,4.84-5.2-1.45-4.81,4.86,9.73,12.65,9.63,14.54S21.59,100.77,21,104,30.65,108.87,30.65,108.87Z"/><path class="cls-2" d="M99.07,168.59c-.33,0-.67,0-1,0a24.58,24.58,0,0,1-4.65-1.32c-3.91-1.31-9.82-3.28-14.66-3.54a10.23,10.23,0,0,1-8.35-4.25,6.7,6.7,0,0,0-.61-.71,3.3,3.3,0,0,1-2.59,0c-3.57-1.41-8.09-8.05-9-10.48-.44-1.12-4.75-3.42-7.32-4.8-3.17-1.69-5.9-3.15-6.94-4.54-1.17-1.57-.82-4.41-.11-9.3.53-3.66,1.26-8.68.15-10.06-2.09-2.56-10.45-7.39-13.78-9.19-1.83-.31-8.17-1.53-10-4.17a3.08,3.08,0,0,1-.58-2.39c.13-1-3.72-3.65-5.17-4.67C11.62,97.16,9.92,96,9.87,94.43a20.75,20.75,0,0,0-2.39-2.74C4.54,88.61.51,84.4.24,79.87c-.18-3,0-4.33.89-5.23A3.6,3.6,0,0,1,4,73.73a7.6,7.6,0,0,0,2.13-.25,45.64,45.64,0,0,0,8.37-4.13c-.55-2.24-1.88-6.16-4-7.77C6,58.2,9.86,50.34,10,50l.17-.33.3-.22a40.18,40.18,0,0,1,8.4-4.74c-1.25-1.26-3.73-3.49-8.49-7.42a13,13,0,0,1-3.28-4c-.1-.17-.21-.37-.3-.51C5.84,33,3.43,33.25.29,22L0,21,15.78,10.37l.51,0c7.88.52,21.21,1,23.43.1,3.09-1.23,8.75-.76,10.89-.53,2.52-3,10-10,21-10L90.86.8,89.8,2.88s-2.36,5.39,5.14,15.65a78,78,0,0,1,4.48,7.19l1.1,2-2.28.2c-5.84.54-15.85,2.72-17.87,6.32a44.18,44.18,0,0,1-5.62,8.12l1.52,7.14L80,63.38l2.81,15a10.82,10.82,0,0,0,2.85,6.36c3.26,3.38,21.1,5.08,31.58,5.36l1.5,0-.37,12,13.35,9.94,5.54,11.2-.06.45c-.07.55-1.79,13.48-4,19.57a10.11,10.11,0,0,1-5.17,6.15,15.23,15.23,0,0,0-4.7,4,19,19,0,0,1-7.88,5.77,27.71,27.71,0,0,0-6.78,4.13C103.33,167.86,101.2,168.59,99.07,168.59ZM69.88,155.66c1.33,0,2.22,1.1,2.86,1.9a7.29,7.29,0,0,0,6.17,3.14c5.24.27,11.39,2.33,15.46,3.69a33.81,33.81,0,0,0,3.84,1.16c1.75.12,3,.2,8.57-4.5a30.19,30.19,0,0,1,7.44-4.55c2.54-1.19,4.55-2.12,6.81-4.94a18.29,18.29,0,0,1,5.49-4.68,7.18,7.18,0,0,0,3.9-4.59c1.87-5.18,3.45-16.14,3.78-18.49l-4.82-9.73-14-10.45L115.68,93c-6.3-.24-27.48-1.4-32.15-6.22a13.74,13.74,0,0,1-3.68-8.21L77.09,64,73.35,50.21l-1.87-8.83.62-.58a36.29,36.29,0,0,0,5.65-8c2.79-5,13.14-6.92,17.92-7.57-.83-1.42-2-3.37-3.15-4.91-6-8.17-6.36-13.83-6-16.68L71.52,3C60.29,3,53.1,11.55,52.41,12.41l-.76,1L50.57,13c-2.27-.27-7.42-.63-9.73.3-3.37,1.35-19.78.42-24.24.14L3.48,22.23c1.05,3.46,2.39,6.69,3.15,7.52,1.81-.23,2.59,1.13,3.11,2.06A10.13,10.13,0,0,0,12.33,35c10.85,9,11,10,10.47,11.32a1.81,1.81,0,0,1-2,1c-.95-.12-4.77,1.9-8.28,4.36-.82,1.79-2.23,6-.28,7.49,4,3,5.34,10.32,5.4,10.63l.17,1-.85.54c-.26.16-6.34,4-10,5A10.31,10.31,0,0,1,4,76.73c-.24,0-.54,0-.72,0a10,10,0,0,0-.08,2.94c.21,3.43,3.8,7.19,6.42,9.92,2,2.07,3.12,3.27,3.21,4.5a22.14,22.14,0,0,0,3.22,2.51c3.4,2.38,6.91,4.84,6.41,7.66.16.83,3.94,2.4,8.39,3.1l.25,0,.23.12c1.22.66,12,6.5,14.91,10.07,1.94,2.4,1.24,7.25.49,12.38-.36,2.51-.92,6.3-.45,7.08.63.85,3.58,2.42,5.94,3.69,4.89,2.61,7.91,4.34,8.7,6.35,1.24,3.16,6.26,9,7.67,8.86A2.91,2.91,0,0,1,69.88,155.66Zm-60-61.41Z"/></g></g></svg>