<svg xmlns="http://www.w3.org/2000/svg" viewBox="0 0 163.54 278.2"><defs><style>.cls-1{fill:#448708;fill-rule:evenodd;}.cls-2{fill:#fff;}</style></defs><title>アセット 139</title><g id="レイヤー_2" data-name="レイヤー 2"><g id="レイヤー_1-2" data-name="レイヤー 1"><path class="cls-1" d="M3,120.65c-.81-2.42-4.81-18.57,4.82-24.24s18.46-4,19.28-9.7,11.22-14.55,9.63-19.39,4.83-16.15,4.83-19.4,4-17.79,4.81-19.39S51.19,4.29,51.19,4.29s4.23,7.27,9.64,8.48c4.21.94,12.18.09,12.18.09L85.15,22l22.64,2.6,15.69,3.94,9.63,19.39,14.46,9.7,9.63,14.54,4.82,9.7s-1.24,16.91-3.64,17.73-10,8.12-10.81,11.36,0,11.3,0,9.7,9.63,9.7,9.63,9.7l-4.82,14.54-9.63,9.7s-5.63,21-4.82,19.4,0,14.54,0,14.54v9.7l-12.2,11-9.65,4.84c1-.47-7.06.31-7.06,3.56v43.64s-9.64,8.09-9.64,9.69-13.63,8.1-14.46,4.85-24.09-14.54-24.09-14.54H31.92s-13.63-7.27-14.45-9.7-4.82-24.24-4.82-24.24l4.82-19.4L24,197s7.1-6.25,8.76-6.91c4-1.6,13.92-9.7,13.92-9.7s5.36-9.69,4.53-11.29-4.81-14.55-4.81-14.55H31.92s-2.79-13-4.81-14.54a77.94,77.94,0,0,1-7.95-7.59l-6.76-5.87S3.83,123.08,3,120.65Z"/><path class="cls-2" d="M86.7,278.2c-2.34,0-3-1.23-3.23-2-.89-1.79-12.57-8.34-23-13.42H31.55l-.33-.17c-5.29-2.82-14.3-7.94-15.17-10.55-.83-2.44-4.46-22.2-4.87-24.45l-.06-.31,5-19.92,6.74-11.29.18-.15c1.71-1.51,7.43-6.47,9.19-7.17,3-1.21,10.42-7,13.31-9.29,2.11-3.86,4.27-8.56,4.29-9.79-.84-1.87-3.53-10.41-4.51-13.57H30.71l-.25-1.18c-1.27-5.87-3.29-12.77-4.28-13.68a75.59,75.59,0,0,1-8.07-7.7l-6.51-5.64c-2.88-1.2-9.09-4.06-10-6.76h0c-1.65-4.94-4.19-20.31,5.49-26a45.4,45.4,0,0,1,11.71-4.55c4.4-1.21,6.53-1.89,6.84-4.06.42-2.89,2.72-6.1,5.15-9.49s5.19-7.26,4.55-9.23c-1.16-3.53,1-9.14,2.9-14.1.91-2.37,1.85-4.81,1.85-5.76,0-3.54,4-18.25,5-20.07.51-1.22,2.8-13.19,4.68-23.82l.71-4,2.06,3.53c0,.07,4,6.73,8.67,7.78,3.92.87,11.62.07,11.69.06l.59-.06,12.29,9.24,22.42,2.58,16.36,4.11,9.76,19.66,14.38,9.64,9.89,15,5,10.06,0,.41c-1.31,17.9-3.82,18.76-4.65,19-2,.69-9.15,7.59-9.84,10.31-.48,1.9-.32,6.07-.15,8.1,1.37.91,3.92,3.45,9.47,10l.55.64L153.7,145.7l-9.61,9.67c-1.61,6-4,15.19-4.61,18,.46,1.35.47,4.94,0,15.26V198.9l-12.85,11.57-9.79,4.92-.06,0-1.32-2.7a1.46,1.46,0,0,0-.72,1.56,1.43,1.43,0,0,0,1.21,1.16c-.66-.05-3.88.52-5.08,1.66-.3.29-.3.46-.3.52V262l-.54.45c-4,3.35-8.55,7.62-9.12,8.79-.52,2.89-10.21,6.57-13.17,6.94A7.19,7.19,0,0,1,86.7,278.2Zm-.41-3c1.87.51,10.17-3,11.64-4.65.23-.93,1.58-3.2,9.59-10V217.62c0-3.72,5.41-4.82,7.07-5.07a6.77,6.77,0,0,1,1.38-.11l8.9-4.47,11.56-10.41v-9c.27-5.3.44-11.14.34-13.33-.91-.74-.23-3.24,4.53-21l.1-.38,9.67-9.73,4.44-13.41c-2.89-3.35-6.19-7-7.68-8.3l-.5.24-.74-.6c-1.22-1-.88-9.86-.48-11.44.93-3.67,8.63-11.13,11.6-12.34,1-1.31,2.25-9.2,2.78-16.08l-4.59-9.24L146.48,58.7,131.94,49l-9.5-19.13-14.92-3.75L84.58,23.43l-12-9c-2,.18-8.32.67-12.08-.17-3.56-.8-6.57-3.79-8.46-6.14-1.3,7.21-3.62,19.72-4.33,21.11s-4.64,15.7-4.64,18.71c0,1.5-.91,3.86-2,6.84-1.55,4-3.68,9.57-2.85,12.09,1.12,3.41-1.84,7.54-5,11.9-2.12,3-4.3,6-4.62,8.17-.6,4.22-4.5,5.29-9,6.53a43.27,43.27,0,0,0-11,4.25C5,99.81,3.12,103.88,3,109.78a35.68,35.68,0,0,0,1.43,10.39c.36,1,4.35,3.32,8.54,5l.22.09,7.08,6.15A76.87,76.87,0,0,0,28,138.87c2,1.55,4.09,9.72,5.1,14.22H47.48l.33,1.06c1.53,5,4.17,13.23,4.72,14.31.29.56,1.19,2.3-4.55,12.69l-.14.26-.23.18c-.41.34-10.15,8.27-14.32,9.93-.85.35-4.85,3.6-8.14,6.49L18.87,208.5l-4.68,18.86c1.6,8.74,4.13,22,4.7,23.71.66,1.27,7.41,5.47,13.41,8.68H61.17l.31.16C70.2,264.13,84.8,271.65,86.29,275.18ZM100.88,271h0Zm38.39-96.28h0Zm-89.42-4.86v0Z"/></g></g></svg>