<?xml version="1.0" encoding="utf-8"?>
<!-- Generator: Adobe Illustrator 24.1.0, SVG Export Plug-In . SVG Version: 6.00 Build 0)  -->
<svg version="1.1" id="レイヤー_1" xmlns="http://www.w3.org/2000/svg" xmlns:xlink="http://www.w3.org/1999/xlink" x="0px"
	 y="0px" viewBox="0 0 500 500" style="enable-background:new 0 0 500 500;" xml:space="preserve">
<style type="text/css">
	.st0{fill:#FFFFFF;}
</style>
<path class="st0" d="M340.6,324.47c-19.07-19.07-38.14-38.14-57.2-57.2c-6.36-6.36-12.71-12.71-19.07-19.07
	c18.42-18.42,36.84-36.84,55.26-55.26c7-7,14.01-14.01,21.01-21.01c10.38-10.38-5.73-26.5-16.12-16.12
	c-19.07,19.07-38.14,38.14-57.2,57.2c-6.36,6.36-12.71,12.71-19.07,19.07c-18.42-18.42-36.84-36.84-55.26-55.26
	c-7-7-14.01-14.01-21.01-21.01c-10.38-10.38-26.5,5.73-16.12,16.12c19.07,19.07,38.14,38.14,57.2,57.2
	c6.36,6.36,12.71,12.71,19.07,19.07c-18.42,18.42-36.84,36.84-55.26,55.26c-7,7-14.01,14.01-21.01,21.01
	c-10.38,10.38,5.73,26.5,16.12,16.12c19.07-19.07,38.14-38.14,57.2-57.2c6.36-6.36,12.71-12.71,19.07-19.07
	c18.42,18.42,36.84,36.84,55.26,55.26c7,7,14.01,14.01,21.01,21.01C334.87,350.97,350.99,334.86,340.6,324.47z"/>
</svg>
