<?xml version="1.0" encoding="utf-8"?>
<!-- Generator: Adobe Illustrator 24.0.0, SVG Export Plug-In . SVG Version: 6.00 Build 0)  -->
<svg version="1.1" id="レイヤー_1" xmlns="http://www.w3.org/2000/svg" xmlns:xlink="http://www.w3.org/1999/xlink" x="0px"
	 y="0px" viewBox="0 0 2000 2000" style="enable-background:new 0 0 2000 2000;" xml:space="preserve">
<style type="text/css">
	.st0{fill:#FFFFFF;}
	.st1{fill:#5F95D1;}
</style>
<g>
	<circle class="st0" cx="1000" cy="1000" r="1000"/>
	<path class="st1" d="M1522.2,744.9c-38.29,17-79.44,28.45-122.63,33.61c44.06-26.41,77.97-68.25,93.88-118.12
		c-41.24,24.5-86.94,42.24-135.6,51.82c-38.9-41.5-94.45-67.43-155.85-67.43c-137.85,0-239.11,128.62-208.01,262.18
		c-177.4-8.89-334.72-93.93-440.05-223.11c-55.94,95.96-29.01,221.54,66.04,285.12c-34.95-1.13-67.91-10.75-96.66-26.76
		c-2.34,98.96,68.56,191.45,171.24,212.05c-30.05,8.2-62.96,10.06-96.44,3.64c27.15,84.82,106.02,146.57,199.47,148.3
		c-89.76,70.34-202.85,101.77-316.12,88.42c94.49,60.58,206.76,95.92,327.31,95.92c396.39,0,620.36-334.77,606.87-635.1
		C1457.37,825.3,1493.58,787.7,1522.2,744.9"/>
</g>
</svg>
