<?xml version="1.0" encoding="utf-8"?>
<!-- Generator: Adobe Illustrator 24.1.0, SVG Export Plug-In . SVG Version: 6.00 Build 0)  -->
<svg version="1.1" id="レイヤー_1" xmlns="http://www.w3.org/2000/svg" xmlns:xlink="http://www.w3.org/1999/xlink" x="0px"
	 y="0px" viewBox="0 0 1000 1000" style="enable-background:new 0 0 1000 1000;" xml:space="preserve">
<style type="text/css">
	.st0{fill:none;}
	.st1{clip-path:url(#SVGID_2_);}
	.st2{fill:#7DA93F;}
	.st3{clip-path:url(#SVGID_4_);}
	.st4{clip-path:url(#SVGID_6_);}
	.st5{clip-path:url(#SVGID_8_);}
	.st6{clip-path:url(#SVGID_10_);}
	.st7{clip-path:url(#SVGID_12_);}
	.st8{clip-path:url(#SVGID_14_);}
	.st9{clip-path:url(#SVGID_16_);}
	.st10{clip-path:url(#SVGID_18_);}
	.st11{clip-path:url(#SVGID_20_);}
	.st12{clip-path:url(#SVGID_22_);}
	.st13{clip-path:url(#SVGID_24_);}
	.st14{clip-path:url(#SVGID_26_);}
	.st15{clip-path:url(#SVGID_28_);}
	.st16{clip-path:url(#SVGID_30_);}
	.st17{clip-path:url(#SVGID_32_);}
	.st18{clip-path:url(#SVGID_34_);}
	.st19{clip-path:url(#SVGID_36_);}
	.st20{clip-path:url(#SVGID_38_);}
	.st21{clip-path:url(#SVGID_40_);}
	.st22{clip-path:url(#SVGID_42_);}
	.st23{clip-path:url(#SVGID_44_);}
	.st24{clip-path:url(#SVGID_46_);}
	.st25{clip-path:url(#SVGID_48_);}
	.st26{clip-path:url(#SVGID_50_);}
	.st27{clip-path:url(#SVGID_52_);}
	.st28{clip-path:url(#SVGID_54_);}
	.st29{clip-path:url(#SVGID_56_);}
	.st30{clip-path:url(#SVGID_58_);}
	.st31{clip-path:url(#SVGID_60_);}
	.st32{clip-path:url(#SVGID_63_);}
	.st33{clip-path:url(#SVGID_65_);}
	.st34{clip-path:url(#SVGID_67_);}
	.st35{clip-path:url(#SVGID_69_);}
	.st36{clip-path:url(#SVGID_71_);}
	.st37{clip-path:url(#SVGID_73_);}
	.st38{clip-path:url(#SVGID_75_);}
	.st39{clip-path:url(#SVGID_77_);}
	.st40{clip-path:url(#SVGID_79_);}
	.st41{clip-path:url(#SVGID_81_);}
	.st42{clip-path:url(#SVGID_83_);}
	.st43{clip-path:url(#SVGID_85_);}
	.st44{clip-path:url(#SVGID_87_);}
	.st45{clip-path:url(#SVGID_89_);}
	.st46{clip-path:url(#SVGID_91_);}
	.st47{clip-path:url(#SVGID_93_);}
	.st48{clip-path:url(#SVGID_95_);}
	.st49{clip-path:url(#SVGID_97_);}
	.st50{clip-path:url(#SVGID_99_);}
	.st51{clip-path:url(#SVGID_101_);}
	.st52{clip-path:url(#SVGID_103_);}
	.st53{clip-path:url(#SVGID_105_);}
	.st54{clip-path:url(#SVGID_107_);}
	.st55{clip-path:url(#SVGID_109_);}
	.st56{clip-path:url(#SVGID_111_);}
	.st57{clip-path:url(#SVGID_113_);}
	.st58{clip-path:url(#SVGID_115_);}
	.st59{clip-path:url(#SVGID_117_);}
	.st60{clip-path:url(#SVGID_119_);}
	.st61{clip-path:url(#SVGID_121_);}
	.st62{fill:url(#SVGID_122_);}
</style>
<pattern  x="100.11" y="759.65" width="72" height="72" patternUnits="userSpaceOnUse" id="SVGID_61_" viewBox="72.25 -80.69 72 72" style="overflow:visible;">
	<g>
		<rect x="72.25" y="-80.69" class="st0" width="72" height="72"/>
		<g>
			<rect x="72.25" y="-80.69" class="st0" width="72" height="72"/>
			<g>
				<g>
					<g>
						<defs>
							<rect id="SVGID_1_" x="144" y="-79.25" width="72.5" height="4.32"/>
						</defs>
						<clipPath id="SVGID_2_">
							<use xlink:href="#SVGID_1_"  style="overflow:visible;"/>
						</clipPath>
						<g class="st1">
							<rect x="141.33" y="-90.02" class="st0" width="22.51" height="22.51"/>
							<rect x="141.33" y="-90.02" class="st2" width="22.51" height="22.51"/>
						</g>
					</g>
				</g>
				<g>
					<g>
						<defs>
							<rect id="SVGID_3_" x="144" y="-64.85" width="72.5" height="4.32"/>
						</defs>
						<clipPath id="SVGID_4_">
							<use xlink:href="#SVGID_3_"  style="overflow:visible;"/>
						</clipPath>
						<g class="st3">
							<rect x="141.33" y="-67.52" class="st0" width="22.51" height="22.51"/>
							<rect x="141.33" y="-67.52" class="st2" width="22.51" height="22.51"/>
						</g>
					</g>
				</g>
				<g>
					<g>
						<defs>
							<rect id="SVGID_5_" x="144" y="-50.45" width="72.5" height="4.32"/>
						</defs>
						<clipPath id="SVGID_6_">
							<use xlink:href="#SVGID_5_"  style="overflow:visible;"/>
						</clipPath>
						<g class="st4">
							<rect x="141.33" y="-67.52" class="st0" width="22.51" height="22.51"/>
							<rect x="141.33" y="-67.52" class="st2" width="22.51" height="22.51"/>
						</g>
					</g>
				</g>
				<g>
					<g>
						<defs>
							<rect id="SVGID_7_" x="144" y="-36.05" width="72.5" height="4.32"/>
						</defs>
						<clipPath id="SVGID_8_">
							<use xlink:href="#SVGID_7_"  style="overflow:visible;"/>
						</clipPath>
						<g class="st5">
							<rect x="141.33" y="-45.01" class="st0" width="22.51" height="22.51"/>
							<rect x="141.33" y="-45.01" class="st2" width="22.51" height="22.51"/>
						</g>
					</g>
				</g>
				<g>
					<g>
						<defs>
							<rect id="SVGID_9_" x="144" y="-21.65" width="72.5" height="4.32"/>
						</defs>
						<clipPath id="SVGID_10_">
							<use xlink:href="#SVGID_9_"  style="overflow:visible;"/>
						</clipPath>
						<g class="st6">
							<rect x="141.33" y="-22.51" class="st0" width="22.51" height="22.51"/>
							<rect x="141.33" y="-22.51" class="st2" width="22.51" height="22.51"/>
						</g>
					</g>
				</g>
				<g>
					<g>
						<defs>
							<rect id="SVGID_11_" x="144" y="-72.05" width="72.5" height="4.32"/>
						</defs>
						<clipPath id="SVGID_12_">
							<use xlink:href="#SVGID_11_"  style="overflow:visible;"/>
						</clipPath>
						<g class="st7">
							<rect x="141.33" y="-90.02" class="st0" width="22.51" height="22.51"/>
							<rect x="141.33" y="-90.02" class="st2" width="22.51" height="22.51"/>
						</g>
					</g>
				</g>
				<g>
					<g>
						<defs>
							<rect id="SVGID_13_" x="144" y="-57.65" width="72.5" height="4.32"/>
						</defs>
						<clipPath id="SVGID_14_">
							<use xlink:href="#SVGID_13_"  style="overflow:visible;"/>
						</clipPath>
						<g class="st8">
							<rect x="141.33" y="-67.52" class="st0" width="22.51" height="22.51"/>
							<rect x="141.33" y="-67.52" class="st2" width="22.51" height="22.51"/>
						</g>
					</g>
				</g>
				<g>
					<g>
						<defs>
							<rect id="SVGID_15_" x="144" y="-43.25" width="72.5" height="4.32"/>
						</defs>
						<clipPath id="SVGID_16_">
							<use xlink:href="#SVGID_15_"  style="overflow:visible;"/>
						</clipPath>
						<g class="st9">
							<rect x="141.33" y="-45.01" class="st0" width="22.51" height="22.51"/>
							<rect x="141.33" y="-45.01" class="st2" width="22.51" height="22.51"/>
						</g>
					</g>
				</g>
				<g>
					<g>
						<defs>
							<rect id="SVGID_17_" x="144" y="-28.85" width="72.5" height="4.32"/>
						</defs>
						<clipPath id="SVGID_18_">
							<use xlink:href="#SVGID_17_"  style="overflow:visible;"/>
						</clipPath>
						<g class="st10">
							<rect x="141.33" y="-45.01" class="st0" width="22.51" height="22.51"/>
							<rect x="141.33" y="-45.01" class="st2" width="22.51" height="22.51"/>
						</g>
					</g>
				</g>
				<g>
					<g>
						<defs>
							<rect id="SVGID_19_" x="144" y="-14.45" width="72.5" height="4.32"/>
						</defs>
						<clipPath id="SVGID_20_">
							<use xlink:href="#SVGID_19_"  style="overflow:visible;"/>
						</clipPath>
						<g class="st11">
							<rect x="141.33" y="-22.51" class="st0" width="22.51" height="22.51"/>
							<rect x="141.33" y="-22.51" class="st2" width="22.51" height="22.51"/>
						</g>
					</g>
				</g>
			</g>
			<g>
				<g>
					<g>
						<defs>
							<rect id="SVGID_21_" x="72" y="-79.25" width="72.5" height="4.32"/>
						</defs>
						<clipPath id="SVGID_22_">
							<use xlink:href="#SVGID_21_"  style="overflow:visible;"/>
						</clipPath>
						<g class="st12">
							<rect x="136.85" y="-90.02" class="st0" width="22.51" height="22.51"/>
							<rect x="136.85" y="-90.02" class="st2" width="22.51" height="22.51"/>
						</g>
					</g>
					<g>
						<defs>
							<rect id="SVGID_23_" x="72" y="-79.25" width="72.5" height="4.32"/>
						</defs>
						<clipPath id="SVGID_24_">
							<use xlink:href="#SVGID_23_"  style="overflow:visible;"/>
						</clipPath>
						<g class="st13">
							<rect x="114.34" y="-90.02" class="st0" width="22.51" height="22.51"/>
							<rect x="114.34" y="-90.02" class="st2" width="22.51" height="22.51"/>
						</g>
					</g>
					<g>
						<defs>
							<rect id="SVGID_25_" x="72" y="-79.25" width="72.5" height="4.32"/>
						</defs>
						<clipPath id="SVGID_26_">
							<use xlink:href="#SVGID_25_"  style="overflow:visible;"/>
						</clipPath>
						<g class="st14">
							<rect x="91.83" y="-90.02" class="st0" width="22.51" height="22.51"/>
							<rect x="91.83" y="-90.02" class="st2" width="22.51" height="22.51"/>
						</g>
					</g>
					<g>
						<defs>
							<rect id="SVGID_27_" x="72" y="-79.25" width="72.5" height="4.32"/>
						</defs>
						<clipPath id="SVGID_28_">
							<use xlink:href="#SVGID_27_"  style="overflow:visible;"/>
						</clipPath>
						<g class="st15">
							<rect x="69.33" y="-90.02" class="st0" width="22.51" height="22.51"/>
							<rect x="69.33" y="-90.02" class="st2" width="22.51" height="22.51"/>
						</g>
					</g>
				</g>
				<g>
					<g>
						<defs>
							<rect id="SVGID_29_" x="72" y="-64.85" width="72.5" height="4.32"/>
						</defs>
						<clipPath id="SVGID_30_">
							<use xlink:href="#SVGID_29_"  style="overflow:visible;"/>
						</clipPath>
						<g class="st16">
							<rect x="136.85" y="-67.52" class="st0" width="22.51" height="22.51"/>
							<rect x="136.85" y="-67.52" class="st2" width="22.51" height="22.51"/>
						</g>
					</g>
					<g>
						<defs>
							<rect id="SVGID_31_" x="72" y="-64.85" width="72.5" height="4.32"/>
						</defs>
						<clipPath id="SVGID_32_">
							<use xlink:href="#SVGID_31_"  style="overflow:visible;"/>
						</clipPath>
						<g class="st17">
							<rect x="114.34" y="-67.52" class="st0" width="22.51" height="22.51"/>
							<rect x="114.34" y="-67.52" class="st2" width="22.51" height="22.51"/>
						</g>
					</g>
					<g>
						<defs>
							<rect id="SVGID_33_" x="72" y="-64.85" width="72.5" height="4.32"/>
						</defs>
						<clipPath id="SVGID_34_">
							<use xlink:href="#SVGID_33_"  style="overflow:visible;"/>
						</clipPath>
						<g class="st18">
							<rect x="91.83" y="-67.52" class="st0" width="22.51" height="22.51"/>
							<rect x="91.83" y="-67.52" class="st2" width="22.51" height="22.51"/>
						</g>
					</g>
					<g>
						<defs>
							<rect id="SVGID_35_" x="72" y="-64.85" width="72.5" height="4.32"/>
						</defs>
						<clipPath id="SVGID_36_">
							<use xlink:href="#SVGID_35_"  style="overflow:visible;"/>
						</clipPath>
						<g class="st19">
							<rect x="69.33" y="-67.52" class="st0" width="22.51" height="22.51"/>
							<rect x="69.33" y="-67.52" class="st2" width="22.51" height="22.51"/>
						</g>
					</g>
				</g>
				<g>
					<g>
						<defs>
							<rect id="SVGID_37_" x="72" y="-50.45" width="72.5" height="4.32"/>
						</defs>
						<clipPath id="SVGID_38_">
							<use xlink:href="#SVGID_37_"  style="overflow:visible;"/>
						</clipPath>
						<g class="st20">
							<rect x="136.85" y="-67.52" class="st0" width="22.51" height="22.51"/>
							<rect x="136.85" y="-67.52" class="st2" width="22.51" height="22.51"/>
						</g>
					</g>
					<g>
						<defs>
							<rect id="SVGID_39_" x="72" y="-50.45" width="72.5" height="4.32"/>
						</defs>
						<clipPath id="SVGID_40_">
							<use xlink:href="#SVGID_39_"  style="overflow:visible;"/>
						</clipPath>
						<g class="st21">
							<rect x="114.34" y="-67.52" class="st0" width="22.51" height="22.51"/>
							<rect x="114.34" y="-67.52" class="st2" width="22.51" height="22.51"/>
						</g>
					</g>
					<g>
						<defs>
							<rect id="SVGID_41_" x="72" y="-50.45" width="72.5" height="4.32"/>
						</defs>
						<clipPath id="SVGID_42_">
							<use xlink:href="#SVGID_41_"  style="overflow:visible;"/>
						</clipPath>
						<g class="st22">
							<rect x="91.83" y="-67.52" class="st0" width="22.51" height="22.51"/>
							<rect x="91.83" y="-67.52" class="st2" width="22.51" height="22.51"/>
						</g>
					</g>
					<g>
						<defs>
							<rect id="SVGID_43_" x="72" y="-50.45" width="72.5" height="4.32"/>
						</defs>
						<clipPath id="SVGID_44_">
							<use xlink:href="#SVGID_43_"  style="overflow:visible;"/>
						</clipPath>
						<g class="st23">
							<rect x="69.33" y="-67.52" class="st0" width="22.51" height="22.51"/>
							<rect x="69.33" y="-67.52" class="st2" width="22.51" height="22.51"/>
						</g>
					</g>
				</g>
				<g>
					<g>
						<defs>
							<rect id="SVGID_45_" x="72" y="-36.05" width="72.5" height="4.32"/>
						</defs>
						<clipPath id="SVGID_46_">
							<use xlink:href="#SVGID_45_"  style="overflow:visible;"/>
						</clipPath>
						<g class="st24">
							<rect x="136.85" y="-45.01" class="st0" width="22.51" height="22.51"/>
							<rect x="136.85" y="-45.01" class="st2" width="22.51" height="22.51"/>
						</g>
					</g>
					<g>
						<defs>
							<rect id="SVGID_47_" x="72" y="-36.05" width="72.5" height="4.32"/>
						</defs>
						<clipPath id="SVGID_48_">
							<use xlink:href="#SVGID_47_"  style="overflow:visible;"/>
						</clipPath>
						<g class="st25">
							<rect x="114.34" y="-45.01" class="st0" width="22.51" height="22.51"/>
							<rect x="114.34" y="-45.01" class="st2" width="22.51" height="22.51"/>
						</g>
					</g>
					<g>
						<defs>
							<rect id="SVGID_49_" x="72" y="-36.05" width="72.5" height="4.32"/>
						</defs>
						<clipPath id="SVGID_50_">
							<use xlink:href="#SVGID_49_"  style="overflow:visible;"/>
						</clipPath>
						<g class="st26">
							<rect x="91.83" y="-45.01" class="st0" width="22.51" height="22.51"/>
							<rect x="91.83" y="-45.01" class="st2" width="22.51" height="22.51"/>
						</g>
					</g>
					<g>
						<defs>
							<rect id="SVGID_51_" x="72" y="-36.05" width="72.5" height="4.32"/>
						</defs>
						<clipPath id="SVGID_52_">
							<use xlink:href="#SVGID_51_"  style="overflow:visible;"/>
						</clipPath>
						<g class="st27">
							<rect x="69.33" y="-45.01" class="st0" width="22.51" height="22.51"/>
							<rect x="69.33" y="-45.01" class="st2" width="22.51" height="22.51"/>
						</g>
					</g>
				</g>
				<g>
					<g>
						<defs>
							<rect id="SVGID_53_" x="72" y="-21.65" width="72.5" height="4.32"/>
						</defs>
						<clipPath id="SVGID_54_">
							<use xlink:href="#SVGID_53_"  style="overflow:visible;"/>
						</clipPath>
						<g class="st28">
							<rect x="136.85" y="-22.51" class="st0" width="22.51" height="22.51"/>
							<rect x="136.85" y="-22.51" class="st2" width="22.51" height="22.51"/>
						</g>
					</g>
					<g>
						<defs>
							<rect id="SVGID_55_" x="72" y="-21.65" width="72.5" height="4.32"/>
						</defs>
						<clipPath id="SVGID_56_">
							<use xlink:href="#SVGID_55_"  style="overflow:visible;"/>
						</clipPath>
						<g class="st29">
							<rect x="114.34" y="-22.51" class="st0" width="22.51" height="22.51"/>
							<rect x="114.34" y="-22.51" class="st2" width="22.51" height="22.51"/>
						</g>
					</g>
					<g>
						<defs>
							<rect id="SVGID_57_" x="72" y="-21.65" width="72.5" height="4.32"/>
						</defs>
						<clipPath id="SVGID_58_">
							<use xlink:href="#SVGID_57_"  style="overflow:visible;"/>
						</clipPath>
						<g class="st30">
							<rect x="91.83" y="-22.51" class="st0" width="22.51" height="22.51"/>
							<rect x="91.83" y="-22.51" class="st2" width="22.51" height="22.51"/>
						</g>
					</g>
					<g>
						<defs>
							<rect id="SVGID_59_" x="72" y="-21.65" width="72.5" height="4.32"/>
						</defs>
						<clipPath id="SVGID_60_">
							<use xlink:href="#SVGID_59_"  style="overflow:visible;"/>
						</clipPath>
						<g class="st31">
							<rect x="69.33" y="-22.51" class="st0" width="22.51" height="22.51"/>
							<rect x="69.33" y="-22.51" class="st2" width="22.51" height="22.51"/>
						</g>
					</g>
				</g>
				<g>
					<g>
						<defs>
							<rect id="SVGID_62_" x="72" y="-72.05" width="72.5" height="4.32"/>
						</defs>
						<clipPath id="SVGID_63_">
							<use xlink:href="#SVGID_62_"  style="overflow:visible;"/>
						</clipPath>
						<g class="st32">
							<rect x="136.85" y="-90.02" class="st0" width="22.51" height="22.51"/>
							<rect x="136.85" y="-90.02" class="st2" width="22.51" height="22.51"/>
						</g>
					</g>
					<g>
						<defs>
							<rect id="SVGID_64_" x="72" y="-72.05" width="72.5" height="4.32"/>
						</defs>
						<clipPath id="SVGID_65_">
							<use xlink:href="#SVGID_64_"  style="overflow:visible;"/>
						</clipPath>
						<g class="st33">
							<rect x="114.34" y="-90.02" class="st0" width="22.51" height="22.51"/>
							<rect x="114.34" y="-90.02" class="st2" width="22.51" height="22.51"/>
						</g>
					</g>
					<g>
						<defs>
							<rect id="SVGID_66_" x="72" y="-72.05" width="72.5" height="4.32"/>
						</defs>
						<clipPath id="SVGID_67_">
							<use xlink:href="#SVGID_66_"  style="overflow:visible;"/>
						</clipPath>
						<g class="st34">
							<rect x="91.83" y="-90.02" class="st0" width="22.51" height="22.51"/>
							<rect x="91.83" y="-90.02" class="st2" width="22.51" height="22.51"/>
						</g>
					</g>
					<g>
						<defs>
							<rect id="SVGID_68_" x="72" y="-72.05" width="72.5" height="4.32"/>
						</defs>
						<clipPath id="SVGID_69_">
							<use xlink:href="#SVGID_68_"  style="overflow:visible;"/>
						</clipPath>
						<g class="st35">
							<rect x="69.33" y="-90.02" class="st0" width="22.51" height="22.51"/>
							<rect x="69.33" y="-90.02" class="st2" width="22.51" height="22.51"/>
						</g>
					</g>
				</g>
				<g>
					<g>
						<defs>
							<rect id="SVGID_70_" x="72" y="-57.65" width="72.5" height="4.32"/>
						</defs>
						<clipPath id="SVGID_71_">
							<use xlink:href="#SVGID_70_"  style="overflow:visible;"/>
						</clipPath>
						<g class="st36">
							<rect x="136.85" y="-67.52" class="st0" width="22.51" height="22.51"/>
							<rect x="136.85" y="-67.52" class="st2" width="22.51" height="22.51"/>
						</g>
					</g>
					<g>
						<defs>
							<rect id="SVGID_72_" x="72" y="-57.65" width="72.5" height="4.32"/>
						</defs>
						<clipPath id="SVGID_73_">
							<use xlink:href="#SVGID_72_"  style="overflow:visible;"/>
						</clipPath>
						<g class="st37">
							<rect x="114.34" y="-67.52" class="st0" width="22.51" height="22.51"/>
							<rect x="114.34" y="-67.52" class="st2" width="22.51" height="22.51"/>
						</g>
					</g>
					<g>
						<defs>
							<rect id="SVGID_74_" x="72" y="-57.65" width="72.5" height="4.32"/>
						</defs>
						<clipPath id="SVGID_75_">
							<use xlink:href="#SVGID_74_"  style="overflow:visible;"/>
						</clipPath>
						<g class="st38">
							<rect x="91.83" y="-67.52" class="st0" width="22.51" height="22.51"/>
							<rect x="91.83" y="-67.52" class="st2" width="22.51" height="22.51"/>
						</g>
					</g>
					<g>
						<defs>
							<rect id="SVGID_76_" x="72" y="-57.65" width="72.5" height="4.32"/>
						</defs>
						<clipPath id="SVGID_77_">
							<use xlink:href="#SVGID_76_"  style="overflow:visible;"/>
						</clipPath>
						<g class="st39">
							<rect x="69.33" y="-67.52" class="st0" width="22.51" height="22.51"/>
							<rect x="69.33" y="-67.52" class="st2" width="22.51" height="22.51"/>
						</g>
					</g>
				</g>
				<g>
					<g>
						<defs>
							<rect id="SVGID_78_" x="72" y="-43.25" width="72.5" height="4.32"/>
						</defs>
						<clipPath id="SVGID_79_">
							<use xlink:href="#SVGID_78_"  style="overflow:visible;"/>
						</clipPath>
						<g class="st40">
							<rect x="136.85" y="-45.01" class="st0" width="22.51" height="22.51"/>
							<rect x="136.85" y="-45.01" class="st2" width="22.51" height="22.51"/>
						</g>
					</g>
					<g>
						<defs>
							<rect id="SVGID_80_" x="72" y="-43.25" width="72.5" height="4.32"/>
						</defs>
						<clipPath id="SVGID_81_">
							<use xlink:href="#SVGID_80_"  style="overflow:visible;"/>
						</clipPath>
						<g class="st41">
							<rect x="114.34" y="-45.01" class="st0" width="22.51" height="22.51"/>
							<rect x="114.34" y="-45.01" class="st2" width="22.51" height="22.51"/>
						</g>
					</g>
					<g>
						<defs>
							<rect id="SVGID_82_" x="72" y="-43.25" width="72.5" height="4.32"/>
						</defs>
						<clipPath id="SVGID_83_">
							<use xlink:href="#SVGID_82_"  style="overflow:visible;"/>
						</clipPath>
						<g class="st42">
							<rect x="91.83" y="-45.01" class="st0" width="22.51" height="22.51"/>
							<rect x="91.83" y="-45.01" class="st2" width="22.51" height="22.51"/>
						</g>
					</g>
					<g>
						<defs>
							<rect id="SVGID_84_" x="72" y="-43.25" width="72.5" height="4.32"/>
						</defs>
						<clipPath id="SVGID_85_">
							<use xlink:href="#SVGID_84_"  style="overflow:visible;"/>
						</clipPath>
						<g class="st43">
							<rect x="69.33" y="-45.01" class="st0" width="22.51" height="22.51"/>
							<rect x="69.33" y="-45.01" class="st2" width="22.51" height="22.51"/>
						</g>
					</g>
				</g>
				<g>
					<g>
						<defs>
							<rect id="SVGID_86_" x="72" y="-28.85" width="72.5" height="4.32"/>
						</defs>
						<clipPath id="SVGID_87_">
							<use xlink:href="#SVGID_86_"  style="overflow:visible;"/>
						</clipPath>
						<g class="st44">
							<rect x="136.85" y="-45.01" class="st0" width="22.51" height="22.51"/>
							<rect x="136.85" y="-45.01" class="st2" width="22.51" height="22.51"/>
						</g>
					</g>
					<g>
						<defs>
							<rect id="SVGID_88_" x="72" y="-28.85" width="72.5" height="4.32"/>
						</defs>
						<clipPath id="SVGID_89_">
							<use xlink:href="#SVGID_88_"  style="overflow:visible;"/>
						</clipPath>
						<g class="st45">
							<rect x="114.34" y="-45.01" class="st0" width="22.51" height="22.51"/>
							<rect x="114.34" y="-45.01" class="st2" width="22.51" height="22.51"/>
						</g>
					</g>
					<g>
						<defs>
							<rect id="SVGID_90_" x="72" y="-28.85" width="72.5" height="4.32"/>
						</defs>
						<clipPath id="SVGID_91_">
							<use xlink:href="#SVGID_90_"  style="overflow:visible;"/>
						</clipPath>
						<g class="st46">
							<rect x="91.83" y="-45.01" class="st0" width="22.51" height="22.51"/>
							<rect x="91.83" y="-45.01" class="st2" width="22.51" height="22.51"/>
						</g>
					</g>
					<g>
						<defs>
							<rect id="SVGID_92_" x="72" y="-28.85" width="72.5" height="4.32"/>
						</defs>
						<clipPath id="SVGID_93_">
							<use xlink:href="#SVGID_92_"  style="overflow:visible;"/>
						</clipPath>
						<g class="st47">
							<rect x="69.33" y="-45.01" class="st0" width="22.51" height="22.51"/>
							<rect x="69.33" y="-45.01" class="st2" width="22.51" height="22.51"/>
						</g>
					</g>
				</g>
				<g>
					<g>
						<defs>
							<rect id="SVGID_94_" x="72" y="-14.45" width="72.5" height="4.32"/>
						</defs>
						<clipPath id="SVGID_95_">
							<use xlink:href="#SVGID_94_"  style="overflow:visible;"/>
						</clipPath>
						<g class="st48">
							<rect x="136.85" y="-22.51" class="st0" width="22.51" height="22.51"/>
							<rect x="136.85" y="-22.51" class="st2" width="22.51" height="22.51"/>
						</g>
					</g>
					<g>
						<defs>
							<rect id="SVGID_96_" x="72" y="-14.45" width="72.5" height="4.32"/>
						</defs>
						<clipPath id="SVGID_97_">
							<use xlink:href="#SVGID_96_"  style="overflow:visible;"/>
						</clipPath>
						<g class="st49">
							<rect x="114.34" y="-22.51" class="st0" width="22.51" height="22.51"/>
							<rect x="114.34" y="-22.51" class="st2" width="22.51" height="22.51"/>
						</g>
					</g>
					<g>
						<defs>
							<rect id="SVGID_98_" x="72" y="-14.45" width="72.5" height="4.32"/>
						</defs>
						<clipPath id="SVGID_99_">
							<use xlink:href="#SVGID_98_"  style="overflow:visible;"/>
						</clipPath>
						<g class="st50">
							<rect x="91.83" y="-22.51" class="st0" width="22.51" height="22.51"/>
							<rect x="91.83" y="-22.51" class="st2" width="22.51" height="22.51"/>
						</g>
					</g>
					<g>
						<defs>
							<rect id="SVGID_100_" x="72" y="-14.45" width="72.5" height="4.32"/>
						</defs>
						<clipPath id="SVGID_101_">
							<use xlink:href="#SVGID_100_"  style="overflow:visible;"/>
						</clipPath>
						<g class="st51">
							<rect x="69.33" y="-22.51" class="st0" width="22.51" height="22.51"/>
							<rect x="69.33" y="-22.51" class="st2" width="22.51" height="22.51"/>
						</g>
					</g>
				</g>
			</g>
			<g>
				<g>
					<g>
						<defs>
							<rect id="SVGID_102_" y="-79.25" width="72.5" height="4.32"/>
						</defs>
						<clipPath id="SVGID_103_">
							<use xlink:href="#SVGID_102_"  style="overflow:visible;"/>
						</clipPath>
						<g class="st52">
							<rect x="64.85" y="-90.02" class="st0" width="22.51" height="22.51"/>
							<rect x="64.85" y="-90.02" class="st2" width="22.51" height="22.51"/>
						</g>
					</g>
				</g>
				<g>
					<g>
						<defs>
							<rect id="SVGID_104_" y="-64.85" width="72.5" height="4.32"/>
						</defs>
						<clipPath id="SVGID_105_">
							<use xlink:href="#SVGID_104_"  style="overflow:visible;"/>
						</clipPath>
						<g class="st53">
							<rect x="64.85" y="-67.52" class="st0" width="22.51" height="22.51"/>
							<rect x="64.85" y="-67.52" class="st2" width="22.51" height="22.51"/>
						</g>
					</g>
				</g>
				<g>
					<g>
						<defs>
							<rect id="SVGID_106_" y="-50.45" width="72.5" height="4.32"/>
						</defs>
						<clipPath id="SVGID_107_">
							<use xlink:href="#SVGID_106_"  style="overflow:visible;"/>
						</clipPath>
						<g class="st54">
							<rect x="64.85" y="-67.52" class="st0" width="22.51" height="22.51"/>
							<rect x="64.85" y="-67.52" class="st2" width="22.51" height="22.51"/>
						</g>
					</g>
				</g>
				<g>
					<g>
						<defs>
							<rect id="SVGID_108_" y="-36.05" width="72.5" height="4.32"/>
						</defs>
						<clipPath id="SVGID_109_">
							<use xlink:href="#SVGID_108_"  style="overflow:visible;"/>
						</clipPath>
						<g class="st55">
							<rect x="64.85" y="-45.01" class="st0" width="22.51" height="22.51"/>
							<rect x="64.85" y="-45.01" class="st2" width="22.51" height="22.51"/>
						</g>
					</g>
				</g>
				<g>
					<g>
						<defs>
							<rect id="SVGID_110_" y="-21.65" width="72.5" height="4.32"/>
						</defs>
						<clipPath id="SVGID_111_">
							<use xlink:href="#SVGID_110_"  style="overflow:visible;"/>
						</clipPath>
						<g class="st56">
							<rect x="64.85" y="-22.51" class="st0" width="22.51" height="22.51"/>
							<rect x="64.85" y="-22.51" class="st2" width="22.51" height="22.51"/>
						</g>
					</g>
				</g>
				<g>
					<g>
						<defs>
							<rect id="SVGID_112_" y="-72.05" width="72.5" height="4.32"/>
						</defs>
						<clipPath id="SVGID_113_">
							<use xlink:href="#SVGID_112_"  style="overflow:visible;"/>
						</clipPath>
						<g class="st57">
							<rect x="64.85" y="-90.02" class="st0" width="22.51" height="22.51"/>
							<rect x="64.85" y="-90.02" class="st2" width="22.51" height="22.51"/>
						</g>
					</g>
				</g>
				<g>
					<g>
						<defs>
							<rect id="SVGID_114_" y="-57.65" width="72.5" height="4.32"/>
						</defs>
						<clipPath id="SVGID_115_">
							<use xlink:href="#SVGID_114_"  style="overflow:visible;"/>
						</clipPath>
						<g class="st58">
							<rect x="64.85" y="-67.52" class="st0" width="22.51" height="22.51"/>
							<rect x="64.85" y="-67.52" class="st2" width="22.51" height="22.51"/>
						</g>
					</g>
				</g>
				<g>
					<g>
						<defs>
							<rect id="SVGID_116_" y="-43.25" width="72.5" height="4.32"/>
						</defs>
						<clipPath id="SVGID_117_">
							<use xlink:href="#SVGID_116_"  style="overflow:visible;"/>
						</clipPath>
						<g class="st59">
							<rect x="64.85" y="-45.01" class="st0" width="22.51" height="22.51"/>
							<rect x="64.85" y="-45.01" class="st2" width="22.51" height="22.51"/>
						</g>
					</g>
				</g>
				<g>
					<g>
						<defs>
							<rect id="SVGID_118_" y="-28.85" width="72.5" height="4.32"/>
						</defs>
						<clipPath id="SVGID_119_">
							<use xlink:href="#SVGID_118_"  style="overflow:visible;"/>
						</clipPath>
						<g class="st60">
							<rect x="64.85" y="-45.01" class="st0" width="22.51" height="22.51"/>
							<rect x="64.85" y="-45.01" class="st2" width="22.51" height="22.51"/>
						</g>
					</g>
				</g>
				<g>
					<g>
						<defs>
							<rect id="SVGID_120_" y="-14.45" width="72.5" height="4.32"/>
						</defs>
						<clipPath id="SVGID_121_">
							<use xlink:href="#SVGID_120_"  style="overflow:visible;"/>
						</clipPath>
						<g class="st61">
							<rect x="64.85" y="-22.51" class="st0" width="22.51" height="22.51"/>
							<rect x="64.85" y="-22.51" class="st2" width="22.51" height="22.51"/>
						</g>
					</g>
				</g>
			</g>
		</g>
	</g>
</pattern>
<pattern  id="SVGID_122_" xlink:href="#SVGID_61_" patternTransform="matrix(0 3.7192 3.7192 0 -13523.3027 -34.8906)">
</pattern>
<path class="st62" d="M231.43,919.93c-41.8,41.8-109.58,41.8-151.37,0c-41.8-41.8-41.8-109.58,0-151.37l688.5-688.5
	c41.8-41.79,109.56-41.79,151.37,0c41.8,41.8,41.8,109.58,0,151.37L231.43,919.93z"/>
</svg>
